<?xml version="1.0" encoding="utf-8" standalone="no"?>
<!DOCTYPE svg PUBLIC "-//W3C//DTD SVG 1.1//EN"
  "http://www.w3.org/Graphics/SVG/1.1/DTD/svg11.dtd">
<svg xmlns:xlink="http://www.w3.org/1999/xlink" width="1000.340625pt" height="388.844525pt" viewBox="0 0 1000.340625 388.844525" xmlns="http://www.w3.org/2000/svg" version="1.1">
 <metadata>
  <rdf:RDF xmlns:dc="http://purl.org/dc/elements/1.1/" xmlns:cc="http://creativecommons.org/ns#" xmlns:rdf="http://www.w3.org/1999/02/22-rdf-syntax-ns#">
   <cc:Work>
    <dc:type rdf:resource="http://purl.org/dc/dcmitype/StillImage"/>
    <dc:date>2024-10-04T22:02:38.980402</dc:date>
    <dc:format>image/svg+xml</dc:format>
    <dc:creator>
     <cc:Agent>
      <dc:title>Matplotlib v3.8.1, https://matplotlib.org/</dc:title>
     </cc:Agent>
    </dc:creator>
   </cc:Work>
  </rdf:RDF>
 </metadata>
 <defs>
  <style type="text/css">*{stroke-linejoin: round; stroke-linecap: butt}</style>
 </defs>
 <g id="figure_1">
  <g id="axes_1">
   <g id="patch_1">
    <path d="M 40.600625 353.2239 
L 993.140625 353.2239 
L 993.140625 35.2559 
L 40.600625 35.2559 
z
" style="fill: #ffffff"/>
   </g>
   <g id="patch_2">
    <path d="M 684.830577 353.2239 
L 2341.421881 353.2239 
L 2341.421881 35.2559 
L 684.830577 35.2559 
z
" clip-path="url(#p77e1d9eb0f)" style="fill: #c3e6c3"/>
   </g>
   <g id="patch_3">
    <path d="M 500.764876 353.2239 
L 684.830577 353.2239 
L 684.830577 35.2559 
L 500.764876 35.2559 
z
" clip-path="url(#p77e1d9eb0f)" style="fill: #e6dcc3"/>
   </g>
   <g id="patch_4">
    <path d="M 40.600625 353.2239 
L 500.764876 353.2239 
L 500.764876 35.2559 
L 40.600625 35.2559 
z
" clip-path="url(#p77e1d9eb0f)" style="fill: #e6c3c3"/>
   </g>
   <g id="matplotlib.axis_1">
    <g id="xtick_1">
     <g id="text_1">
      <!-- 0 -->
      <g transform="translate(38.055625 366.30265) scale(0.08 -0.08)">
       <defs>
        <path id="DejaVuSans-30" d="M 2034 4250 
Q 1547 4250 1301 3770 
Q 1056 3291 1056 2328 
Q 1056 1369 1301 889 
Q 1547 409 2034 409 
Q 2525 409 2770 889 
Q 3016 1369 3016 2328 
Q 3016 3291 2770 3770 
Q 2525 4250 2034 4250 
z
M 2034 4750 
Q 2819 4750 3233 4129 
Q 3647 3509 3647 2328 
Q 3647 1150 3233 529 
Q 2819 -91 2034 -91 
Q 1250 -91 836 529 
Q 422 1150 422 2328 
Q 422 3509 836 4129 
Q 1250 4750 2034 4750 
z
" transform="scale(0.015625)"/>
       </defs>
       <use xlink:href="#DejaVuSans-30"/>
      </g>
     </g>
    </g>
    <g id="xtick_2">
     <g id="text_2">
      <!-- 5 -->
      <g transform="translate(153.096688 366.30265) scale(0.08 -0.08)">
       <defs>
        <path id="DejaVuSans-35" d="M 691 4666 
L 3169 4666 
L 3169 4134 
L 1269 4134 
L 1269 2991 
Q 1406 3038 1543 3061 
Q 1681 3084 1819 3084 
Q 2600 3084 3056 2656 
Q 3513 2228 3513 1497 
Q 3513 744 3044 326 
Q 2575 -91 1722 -91 
Q 1428 -91 1123 -41 
Q 819 9 494 109 
L 494 744 
Q 775 591 1075 516 
Q 1375 441 1709 441 
Q 2250 441 2565 725 
Q 2881 1009 2881 1497 
Q 2881 1984 2565 2268 
Q 2250 2553 1709 2553 
Q 1456 2553 1204 2497 
Q 953 2441 691 2322 
L 691 4666 
z
" transform="scale(0.015625)"/>
       </defs>
       <use xlink:href="#DejaVuSans-35"/>
      </g>
     </g>
    </g>
    <g id="xtick_3">
     <g id="text_3">
      <!-- 10 -->
      <g transform="translate(265.592751 366.30265) scale(0.08 -0.08)">
       <defs>
        <path id="DejaVuSans-31" d="M 794 531 
L 1825 531 
L 1825 4091 
L 703 3866 
L 703 4441 
L 1819 4666 
L 2450 4666 
L 2450 531 
L 3481 531 
L 3481 0 
L 794 0 
L 794 531 
z
" transform="scale(0.015625)"/>
       </defs>
       <use xlink:href="#DejaVuSans-31"/>
       <use xlink:href="#DejaVuSans-30" x="63.623047"/>
      </g>
     </g>
    </g>
    <g id="xtick_4">
     <g id="text_4">
      <!-- 15 -->
      <g transform="translate(380.633813 366.30265) scale(0.08 -0.08)">
       <use xlink:href="#DejaVuSans-31"/>
       <use xlink:href="#DejaVuSans-35" x="63.623047"/>
      </g>
     </g>
    </g>
    <g id="xtick_5">
     <g id="text_5">
      <!-- 20 -->
      <g transform="translate(495.674876 366.30265) scale(0.08 -0.08)">
       <defs>
        <path id="DejaVuSans-32" d="M 1228 531 
L 3431 531 
L 3431 0 
L 469 0 
L 469 531 
Q 828 903 1448 1529 
Q 2069 2156 2228 2338 
Q 2531 2678 2651 2914 
Q 2772 3150 2772 3378 
Q 2772 3750 2511 3984 
Q 2250 4219 1831 4219 
Q 1534 4219 1204 4116 
Q 875 4013 500 3803 
L 500 4441 
Q 881 4594 1212 4672 
Q 1544 4750 1819 4750 
Q 2544 4750 2975 4387 
Q 3406 4025 3406 3419 
Q 3406 3131 3298 2873 
Q 3191 2616 2906 2266 
Q 2828 2175 2409 1742 
Q 1991 1309 1228 531 
z
" transform="scale(0.015625)"/>
       </defs>
       <use xlink:href="#DejaVuSans-32"/>
       <use xlink:href="#DejaVuSans-30" x="63.623047"/>
      </g>
     </g>
    </g>
    <g id="xtick_6">
     <g id="text_6">
      <!-- 25 -->
      <g transform="translate(610.715939 366.30265) scale(0.08 -0.08)">
       <use xlink:href="#DejaVuSans-32"/>
       <use xlink:href="#DejaVuSans-35" x="63.623047"/>
      </g>
     </g>
    </g>
    <g id="xtick_7">
     <g id="text_7">
      <!-- 30 -->
      <g transform="translate(725.757002 366.30265) scale(0.08 -0.08)">
       <defs>
        <path id="DejaVuSans-33" d="M 2597 2516 
Q 3050 2419 3304 2112 
Q 3559 1806 3559 1356 
Q 3559 666 3084 287 
Q 2609 -91 1734 -91 
Q 1441 -91 1130 -33 
Q 819 25 488 141 
L 488 750 
Q 750 597 1062 519 
Q 1375 441 1716 441 
Q 2309 441 2620 675 
Q 2931 909 2931 1356 
Q 2931 1769 2642 2001 
Q 2353 2234 1838 2234 
L 1294 2234 
L 1294 2753 
L 1863 2753 
Q 2328 2753 2575 2939 
Q 2822 3125 2822 3475 
Q 2822 3834 2567 4026 
Q 2313 4219 1838 4219 
Q 1578 4219 1281 4162 
Q 984 4106 628 3988 
L 628 4550 
Q 988 4650 1302 4700 
Q 1616 4750 1894 4750 
Q 2613 4750 3031 4423 
Q 3450 4097 3450 3541 
Q 3450 3153 3228 2886 
Q 3006 2619 2597 2516 
z
" transform="scale(0.015625)"/>
       </defs>
       <use xlink:href="#DejaVuSans-33"/>
       <use xlink:href="#DejaVuSans-30" x="63.623047"/>
      </g>
     </g>
    </g>
    <g id="xtick_8">
     <g id="text_8">
      <!-- 35 -->
      <g transform="translate(840.798065 366.30265) scale(0.08 -0.08)">
       <use xlink:href="#DejaVuSans-33"/>
       <use xlink:href="#DejaVuSans-35" x="63.623047"/>
      </g>
     </g>
    </g>
    <g id="xtick_9">
     <g id="text_9">
      <!-- 40 -->
      <g transform="translate(955.839127 366.30265) scale(0.08 -0.08)">
       <defs>
        <path id="DejaVuSans-34" d="M 2419 4116 
L 825 1625 
L 2419 1625 
L 2419 4116 
z
M 2253 4666 
L 3047 4666 
L 3047 1625 
L 3713 1625 
L 3713 1100 
L 3047 1100 
L 3047 0 
L 2419 0 
L 2419 1100 
L 313 1100 
L 313 1709 
L 2253 4666 
z
" transform="scale(0.015625)"/>
       </defs>
       <use xlink:href="#DejaVuSans-34"/>
       <use xlink:href="#DejaVuSans-30" x="63.623047"/>
      </g>
     </g>
    </g>
    <g id="text_10">
     <!-- Mean Sequence Quality (Phred Score) -->
     <g transform="translate(422.078438 379.564837) scale(0.1 -0.1)">
      <defs>
       <path id="DejaVuSans-4d" d="M 628 4666 
L 1569 4666 
L 2759 1491 
L 3956 4666 
L 4897 4666 
L 4897 0 
L 4281 0 
L 4281 4097 
L 3078 897 
L 2444 897 
L 1241 4097 
L 1241 0 
L 628 0 
L 628 4666 
z
" transform="scale(0.015625)"/>
       <path id="DejaVuSans-65" d="M 3597 1894 
L 3597 1613 
L 953 1613 
Q 991 1019 1311 708 
Q 1631 397 2203 397 
Q 2534 397 2845 478 
Q 3156 559 3463 722 
L 3463 178 
Q 3153 47 2828 -22 
Q 2503 -91 2169 -91 
Q 1331 -91 842 396 
Q 353 884 353 1716 
Q 353 2575 817 3079 
Q 1281 3584 2069 3584 
Q 2775 3584 3186 3129 
Q 3597 2675 3597 1894 
z
M 3022 2063 
Q 3016 2534 2758 2815 
Q 2500 3097 2075 3097 
Q 1594 3097 1305 2825 
Q 1016 2553 972 2059 
L 3022 2063 
z
" transform="scale(0.015625)"/>
       <path id="DejaVuSans-61" d="M 2194 1759 
Q 1497 1759 1228 1600 
Q 959 1441 959 1056 
Q 959 750 1161 570 
Q 1363 391 1709 391 
Q 2188 391 2477 730 
Q 2766 1069 2766 1631 
L 2766 1759 
L 2194 1759 
z
M 3341 1997 
L 3341 0 
L 2766 0 
L 2766 531 
Q 2569 213 2275 61 
Q 1981 -91 1556 -91 
Q 1019 -91 701 211 
Q 384 513 384 1019 
Q 384 1609 779 1909 
Q 1175 2209 1959 2209 
L 2766 2209 
L 2766 2266 
Q 2766 2663 2505 2880 
Q 2244 3097 1772 3097 
Q 1472 3097 1187 3025 
Q 903 2953 641 2809 
L 641 3341 
Q 956 3463 1253 3523 
Q 1550 3584 1831 3584 
Q 2591 3584 2966 3190 
Q 3341 2797 3341 1997 
z
" transform="scale(0.015625)"/>
       <path id="DejaVuSans-6e" d="M 3513 2113 
L 3513 0 
L 2938 0 
L 2938 2094 
Q 2938 2591 2744 2837 
Q 2550 3084 2163 3084 
Q 1697 3084 1428 2787 
Q 1159 2491 1159 1978 
L 1159 0 
L 581 0 
L 581 3500 
L 1159 3500 
L 1159 2956 
Q 1366 3272 1645 3428 
Q 1925 3584 2291 3584 
Q 2894 3584 3203 3211 
Q 3513 2838 3513 2113 
z
" transform="scale(0.015625)"/>
       <path id="DejaVuSans-20" transform="scale(0.015625)"/>
       <path id="DejaVuSans-53" d="M 3425 4513 
L 3425 3897 
Q 3066 4069 2747 4153 
Q 2428 4238 2131 4238 
Q 1616 4238 1336 4038 
Q 1056 3838 1056 3469 
Q 1056 3159 1242 3001 
Q 1428 2844 1947 2747 
L 2328 2669 
Q 3034 2534 3370 2195 
Q 3706 1856 3706 1288 
Q 3706 609 3251 259 
Q 2797 -91 1919 -91 
Q 1588 -91 1214 -16 
Q 841 59 441 206 
L 441 856 
Q 825 641 1194 531 
Q 1563 422 1919 422 
Q 2459 422 2753 634 
Q 3047 847 3047 1241 
Q 3047 1584 2836 1778 
Q 2625 1972 2144 2069 
L 1759 2144 
Q 1053 2284 737 2584 
Q 422 2884 422 3419 
Q 422 4038 858 4394 
Q 1294 4750 2059 4750 
Q 2388 4750 2728 4690 
Q 3069 4631 3425 4513 
z
" transform="scale(0.015625)"/>
       <path id="DejaVuSans-71" d="M 947 1747 
Q 947 1113 1208 752 
Q 1469 391 1925 391 
Q 2381 391 2643 752 
Q 2906 1113 2906 1747 
Q 2906 2381 2643 2742 
Q 2381 3103 1925 3103 
Q 1469 3103 1208 2742 
Q 947 2381 947 1747 
z
M 2906 525 
Q 2725 213 2448 61 
Q 2172 -91 1784 -91 
Q 1150 -91 751 415 
Q 353 922 353 1747 
Q 353 2572 751 3078 
Q 1150 3584 1784 3584 
Q 2172 3584 2448 3432 
Q 2725 3281 2906 2969 
L 2906 3500 
L 3481 3500 
L 3481 -1331 
L 2906 -1331 
L 2906 525 
z
" transform="scale(0.015625)"/>
       <path id="DejaVuSans-75" d="M 544 1381 
L 544 3500 
L 1119 3500 
L 1119 1403 
Q 1119 906 1312 657 
Q 1506 409 1894 409 
Q 2359 409 2629 706 
Q 2900 1003 2900 1516 
L 2900 3500 
L 3475 3500 
L 3475 0 
L 2900 0 
L 2900 538 
Q 2691 219 2414 64 
Q 2138 -91 1772 -91 
Q 1169 -91 856 284 
Q 544 659 544 1381 
z
M 1991 3584 
L 1991 3584 
z
" transform="scale(0.015625)"/>
       <path id="DejaVuSans-63" d="M 3122 3366 
L 3122 2828 
Q 2878 2963 2633 3030 
Q 2388 3097 2138 3097 
Q 1578 3097 1268 2742 
Q 959 2388 959 1747 
Q 959 1106 1268 751 
Q 1578 397 2138 397 
Q 2388 397 2633 464 
Q 2878 531 3122 666 
L 3122 134 
Q 2881 22 2623 -34 
Q 2366 -91 2075 -91 
Q 1284 -91 818 406 
Q 353 903 353 1747 
Q 353 2603 823 3093 
Q 1294 3584 2113 3584 
Q 2378 3584 2631 3529 
Q 2884 3475 3122 3366 
z
" transform="scale(0.015625)"/>
       <path id="DejaVuSans-51" d="M 2522 4238 
Q 1834 4238 1429 3725 
Q 1025 3213 1025 2328 
Q 1025 1447 1429 934 
Q 1834 422 2522 422 
Q 3209 422 3611 934 
Q 4013 1447 4013 2328 
Q 4013 3213 3611 3725 
Q 3209 4238 2522 4238 
z
M 3406 84 
L 4238 -825 
L 3475 -825 
L 2784 -78 
Q 2681 -84 2626 -87 
Q 2572 -91 2522 -91 
Q 1538 -91 948 567 
Q 359 1225 359 2328 
Q 359 3434 948 4092 
Q 1538 4750 2522 4750 
Q 3503 4750 4090 4092 
Q 4678 3434 4678 2328 
Q 4678 1516 4351 937 
Q 4025 359 3406 84 
z
" transform="scale(0.015625)"/>
       <path id="DejaVuSans-6c" d="M 603 4863 
L 1178 4863 
L 1178 0 
L 603 0 
L 603 4863 
z
" transform="scale(0.015625)"/>
       <path id="DejaVuSans-69" d="M 603 3500 
L 1178 3500 
L 1178 0 
L 603 0 
L 603 3500 
z
M 603 4863 
L 1178 4863 
L 1178 4134 
L 603 4134 
L 603 4863 
z
" transform="scale(0.015625)"/>
       <path id="DejaVuSans-74" d="M 1172 4494 
L 1172 3500 
L 2356 3500 
L 2356 3053 
L 1172 3053 
L 1172 1153 
Q 1172 725 1289 603 
Q 1406 481 1766 481 
L 2356 481 
L 2356 0 
L 1766 0 
Q 1100 0 847 248 
Q 594 497 594 1153 
L 594 3053 
L 172 3053 
L 172 3500 
L 594 3500 
L 594 4494 
L 1172 4494 
z
" transform="scale(0.015625)"/>
       <path id="DejaVuSans-79" d="M 2059 -325 
Q 1816 -950 1584 -1140 
Q 1353 -1331 966 -1331 
L 506 -1331 
L 506 -850 
L 844 -850 
Q 1081 -850 1212 -737 
Q 1344 -625 1503 -206 
L 1606 56 
L 191 3500 
L 800 3500 
L 1894 763 
L 2988 3500 
L 3597 3500 
L 2059 -325 
z
" transform="scale(0.015625)"/>
       <path id="DejaVuSans-28" d="M 1984 4856 
Q 1566 4138 1362 3434 
Q 1159 2731 1159 2009 
Q 1159 1288 1364 580 
Q 1569 -128 1984 -844 
L 1484 -844 
Q 1016 -109 783 600 
Q 550 1309 550 2009 
Q 550 2706 781 3412 
Q 1013 4119 1484 4856 
L 1984 4856 
z
" transform="scale(0.015625)"/>
       <path id="DejaVuSans-50" d="M 1259 4147 
L 1259 2394 
L 2053 2394 
Q 2494 2394 2734 2622 
Q 2975 2850 2975 3272 
Q 2975 3691 2734 3919 
Q 2494 4147 2053 4147 
L 1259 4147 
z
M 628 4666 
L 2053 4666 
Q 2838 4666 3239 4311 
Q 3641 3956 3641 3272 
Q 3641 2581 3239 2228 
Q 2838 1875 2053 1875 
L 1259 1875 
L 1259 0 
L 628 0 
L 628 4666 
z
" transform="scale(0.015625)"/>
       <path id="DejaVuSans-68" d="M 3513 2113 
L 3513 0 
L 2938 0 
L 2938 2094 
Q 2938 2591 2744 2837 
Q 2550 3084 2163 3084 
Q 1697 3084 1428 2787 
Q 1159 2491 1159 1978 
L 1159 0 
L 581 0 
L 581 4863 
L 1159 4863 
L 1159 2956 
Q 1366 3272 1645 3428 
Q 1925 3584 2291 3584 
Q 2894 3584 3203 3211 
Q 3513 2838 3513 2113 
z
" transform="scale(0.015625)"/>
       <path id="DejaVuSans-72" d="M 2631 2963 
Q 2534 3019 2420 3045 
Q 2306 3072 2169 3072 
Q 1681 3072 1420 2755 
Q 1159 2438 1159 1844 
L 1159 0 
L 581 0 
L 581 3500 
L 1159 3500 
L 1159 2956 
Q 1341 3275 1631 3429 
Q 1922 3584 2338 3584 
Q 2397 3584 2469 3576 
Q 2541 3569 2628 3553 
L 2631 2963 
z
" transform="scale(0.015625)"/>
       <path id="DejaVuSans-64" d="M 2906 2969 
L 2906 4863 
L 3481 4863 
L 3481 0 
L 2906 0 
L 2906 525 
Q 2725 213 2448 61 
Q 2172 -91 1784 -91 
Q 1150 -91 751 415 
Q 353 922 353 1747 
Q 353 2572 751 3078 
Q 1150 3584 1784 3584 
Q 2172 3584 2448 3432 
Q 2725 3281 2906 2969 
z
M 947 1747 
Q 947 1113 1208 752 
Q 1469 391 1925 391 
Q 2381 391 2643 752 
Q 2906 1113 2906 1747 
Q 2906 2381 2643 2742 
Q 2381 3103 1925 3103 
Q 1469 3103 1208 2742 
Q 947 2381 947 1747 
z
" transform="scale(0.015625)"/>
       <path id="DejaVuSans-6f" d="M 1959 3097 
Q 1497 3097 1228 2736 
Q 959 2375 959 1747 
Q 959 1119 1226 758 
Q 1494 397 1959 397 
Q 2419 397 2687 759 
Q 2956 1122 2956 1747 
Q 2956 2369 2687 2733 
Q 2419 3097 1959 3097 
z
M 1959 3584 
Q 2709 3584 3137 3096 
Q 3566 2609 3566 1747 
Q 3566 888 3137 398 
Q 2709 -91 1959 -91 
Q 1206 -91 779 398 
Q 353 888 353 1747 
Q 353 2609 779 3096 
Q 1206 3584 1959 3584 
z
" transform="scale(0.015625)"/>
       <path id="DejaVuSans-29" d="M 513 4856 
L 1013 4856 
Q 1481 4119 1714 3412 
Q 1947 2706 1947 2009 
Q 1947 1309 1714 600 
Q 1481 -109 1013 -844 
L 513 -844 
Q 928 -128 1133 580 
Q 1338 1288 1338 2009 
Q 1338 2731 1133 3434 
Q 928 4138 513 4856 
z
" transform="scale(0.015625)"/>
      </defs>
      <use xlink:href="#DejaVuSans-4d"/>
      <use xlink:href="#DejaVuSans-65" x="86.279297"/>
      <use xlink:href="#DejaVuSans-61" x="147.802734"/>
      <use xlink:href="#DejaVuSans-6e" x="209.082031"/>
      <use xlink:href="#DejaVuSans-20" x="272.460938"/>
      <use xlink:href="#DejaVuSans-53" x="304.248047"/>
      <use xlink:href="#DejaVuSans-65" x="367.724609"/>
      <use xlink:href="#DejaVuSans-71" x="429.248047"/>
      <use xlink:href="#DejaVuSans-75" x="492.724609"/>
      <use xlink:href="#DejaVuSans-65" x="556.103516"/>
      <use xlink:href="#DejaVuSans-6e" x="617.626953"/>
      <use xlink:href="#DejaVuSans-63" x="681.005859"/>
      <use xlink:href="#DejaVuSans-65" x="735.986328"/>
      <use xlink:href="#DejaVuSans-20" x="797.509766"/>
      <use xlink:href="#DejaVuSans-51" x="829.296875"/>
      <use xlink:href="#DejaVuSans-75" x="908.007812"/>
      <use xlink:href="#DejaVuSans-61" x="971.386719"/>
      <use xlink:href="#DejaVuSans-6c" x="1032.666016"/>
      <use xlink:href="#DejaVuSans-69" x="1060.449219"/>
      <use xlink:href="#DejaVuSans-74" x="1088.232422"/>
      <use xlink:href="#DejaVuSans-79" x="1127.441406"/>
      <use xlink:href="#DejaVuSans-20" x="1186.621094"/>
      <use xlink:href="#DejaVuSans-28" x="1218.408203"/>
      <use xlink:href="#DejaVuSans-50" x="1257.421875"/>
      <use xlink:href="#DejaVuSans-68" x="1317.724609"/>
      <use xlink:href="#DejaVuSans-72" x="1381.103516"/>
      <use xlink:href="#DejaVuSans-65" x="1419.966797"/>
      <use xlink:href="#DejaVuSans-64" x="1481.490234"/>
      <use xlink:href="#DejaVuSans-20" x="1544.966797"/>
      <use xlink:href="#DejaVuSans-53" x="1576.753906"/>
      <use xlink:href="#DejaVuSans-63" x="1640.230469"/>
      <use xlink:href="#DejaVuSans-6f" x="1695.210938"/>
      <use xlink:href="#DejaVuSans-72" x="1756.392578"/>
      <use xlink:href="#DejaVuSans-65" x="1795.255859"/>
      <use xlink:href="#DejaVuSans-29" x="1856.779297"/>
     </g>
    </g>
   </g>
   <g id="matplotlib.axis_2">
    <g id="ytick_1">
     <g id="line2d_1">
      <path d="M 40.600625 353.2239 
L 993.140625 353.2239 
" clip-path="url(#p77e1d9eb0f)" style="fill: none; stroke: #dedede; stroke-linecap: square"/>
     </g>
     <g id="text_11">
      <!-- 0.0 -->
      <g transform="translate(20.878125 356.263275) scale(0.08 -0.08)">
       <defs>
        <path id="DejaVuSans-2e" d="M 684 794 
L 1344 794 
L 1344 0 
L 684 0 
L 684 794 
z
" transform="scale(0.015625)"/>
       </defs>
       <use xlink:href="#DejaVuSans-30"/>
       <use xlink:href="#DejaVuSans-2e" x="63.623047"/>
       <use xlink:href="#DejaVuSans-30" x="95.410156"/>
      </g>
     </g>
    </g>
    <g id="ytick_2">
     <g id="line2d_2">
      <path d="M 40.600625 313.608921 
L 993.140625 313.608921 
" clip-path="url(#p77e1d9eb0f)" style="fill: none; stroke: #dedede; stroke-linecap: square"/>
     </g>
     <g id="text_12">
      <!-- 0.2 -->
      <g transform="translate(20.878125 316.648296) scale(0.08 -0.08)">
       <use xlink:href="#DejaVuSans-30"/>
       <use xlink:href="#DejaVuSans-2e" x="63.623047"/>
       <use xlink:href="#DejaVuSans-32" x="95.410156"/>
      </g>
     </g>
    </g>
    <g id="ytick_3">
     <g id="line2d_3">
      <path d="M 40.600625 273.993941 
L 993.140625 273.993941 
" clip-path="url(#p77e1d9eb0f)" style="fill: none; stroke: #dedede; stroke-linecap: square"/>
     </g>
     <g id="text_13">
      <!-- 0.4 -->
      <g transform="translate(20.878125 277.033316) scale(0.08 -0.08)">
       <use xlink:href="#DejaVuSans-30"/>
       <use xlink:href="#DejaVuSans-2e" x="63.623047"/>
       <use xlink:href="#DejaVuSans-34" x="95.410156"/>
      </g>
     </g>
    </g>
    <g id="ytick_4">
     <g id="line2d_4">
      <path d="M 40.600625 234.378962 
L 993.140625 234.378962 
" clip-path="url(#p77e1d9eb0f)" style="fill: none; stroke: #dedede; stroke-linecap: square"/>
     </g>
     <g id="text_14">
      <!-- 0.6 -->
      <g transform="translate(20.878125 237.418337) scale(0.08 -0.08)">
       <defs>
        <path id="DejaVuSans-36" d="M 2113 2584 
Q 1688 2584 1439 2293 
Q 1191 2003 1191 1497 
Q 1191 994 1439 701 
Q 1688 409 2113 409 
Q 2538 409 2786 701 
Q 3034 994 3034 1497 
Q 3034 2003 2786 2293 
Q 2538 2584 2113 2584 
z
M 3366 4563 
L 3366 3988 
Q 3128 4100 2886 4159 
Q 2644 4219 2406 4219 
Q 1781 4219 1451 3797 
Q 1122 3375 1075 2522 
Q 1259 2794 1537 2939 
Q 1816 3084 2150 3084 
Q 2853 3084 3261 2657 
Q 3669 2231 3669 1497 
Q 3669 778 3244 343 
Q 2819 -91 2113 -91 
Q 1303 -91 875 529 
Q 447 1150 447 2328 
Q 447 3434 972 4092 
Q 1497 4750 2381 4750 
Q 2619 4750 2861 4703 
Q 3103 4656 3366 4563 
z
" transform="scale(0.015625)"/>
       </defs>
       <use xlink:href="#DejaVuSans-30"/>
       <use xlink:href="#DejaVuSans-2e" x="63.623047"/>
       <use xlink:href="#DejaVuSans-36" x="95.410156"/>
      </g>
     </g>
    </g>
    <g id="ytick_5">
     <g id="line2d_5">
      <path d="M 40.600625 194.763983 
L 993.140625 194.763983 
" clip-path="url(#p77e1d9eb0f)" style="fill: none; stroke: #dedede; stroke-linecap: square"/>
     </g>
     <g id="text_15">
      <!-- 0.8 -->
      <g transform="translate(20.878125 197.803358) scale(0.08 -0.08)">
       <defs>
        <path id="DejaVuSans-38" d="M 2034 2216 
Q 1584 2216 1326 1975 
Q 1069 1734 1069 1313 
Q 1069 891 1326 650 
Q 1584 409 2034 409 
Q 2484 409 2743 651 
Q 3003 894 3003 1313 
Q 3003 1734 2745 1975 
Q 2488 2216 2034 2216 
z
M 1403 2484 
Q 997 2584 770 2862 
Q 544 3141 544 3541 
Q 544 4100 942 4425 
Q 1341 4750 2034 4750 
Q 2731 4750 3128 4425 
Q 3525 4100 3525 3541 
Q 3525 3141 3298 2862 
Q 3072 2584 2669 2484 
Q 3125 2378 3379 2068 
Q 3634 1759 3634 1313 
Q 3634 634 3220 271 
Q 2806 -91 2034 -91 
Q 1263 -91 848 271 
Q 434 634 434 1313 
Q 434 1759 690 2068 
Q 947 2378 1403 2484 
z
M 1172 3481 
Q 1172 3119 1398 2916 
Q 1625 2713 2034 2713 
Q 2441 2713 2670 2916 
Q 2900 3119 2900 3481 
Q 2900 3844 2670 4047 
Q 2441 4250 2034 4250 
Q 1625 4250 1398 4047 
Q 1172 3844 1172 3481 
z
" transform="scale(0.015625)"/>
       </defs>
       <use xlink:href="#DejaVuSans-30"/>
       <use xlink:href="#DejaVuSans-2e" x="63.623047"/>
       <use xlink:href="#DejaVuSans-38" x="95.410156"/>
      </g>
     </g>
    </g>
    <g id="ytick_6">
     <g id="line2d_6">
      <path d="M 40.600625 155.149004 
L 993.140625 155.149004 
" clip-path="url(#p77e1d9eb0f)" style="fill: none; stroke: #dedede; stroke-linecap: square"/>
     </g>
     <g id="text_16">
      <!-- 1.0 -->
      <g transform="translate(20.878125 158.188379) scale(0.08 -0.08)">
       <use xlink:href="#DejaVuSans-31"/>
       <use xlink:href="#DejaVuSans-2e" x="63.623047"/>
       <use xlink:href="#DejaVuSans-30" x="95.410156"/>
      </g>
     </g>
    </g>
    <g id="ytick_7">
     <g id="line2d_7">
      <path d="M 40.600625 115.534024 
L 993.140625 115.534024 
" clip-path="url(#p77e1d9eb0f)" style="fill: none; stroke: #dedede; stroke-linecap: square"/>
     </g>
     <g id="text_17">
      <!-- 1.2 -->
      <g transform="translate(20.878125 118.573399) scale(0.08 -0.08)">
       <use xlink:href="#DejaVuSans-31"/>
       <use xlink:href="#DejaVuSans-2e" x="63.623047"/>
       <use xlink:href="#DejaVuSans-32" x="95.410156"/>
      </g>
     </g>
    </g>
    <g id="ytick_8">
     <g id="line2d_8">
      <path d="M 40.600625 75.919045 
L 993.140625 75.919045 
" clip-path="url(#p77e1d9eb0f)" style="fill: none; stroke: #dedede; stroke-linecap: square"/>
     </g>
     <g id="text_18">
      <!-- 1.4 -->
      <g transform="translate(20.878125 78.95842) scale(0.08 -0.08)">
       <use xlink:href="#DejaVuSans-31"/>
       <use xlink:href="#DejaVuSans-2e" x="63.623047"/>
       <use xlink:href="#DejaVuSans-34" x="95.410156"/>
      </g>
     </g>
    </g>
    <g id="ytick_9">
     <g id="line2d_9">
      <path d="M 40.600625 36.304066 
L 993.140625 36.304066 
" clip-path="url(#p77e1d9eb0f)" style="fill: none; stroke: #dedede; stroke-linecap: square"/>
     </g>
     <g id="text_19">
      <!-- 1.6 -->
      <g transform="translate(20.878125 39.343441) scale(0.08 -0.08)">
       <use xlink:href="#DejaVuSans-31"/>
       <use xlink:href="#DejaVuSans-2e" x="63.623047"/>
       <use xlink:href="#DejaVuSans-36" x="95.410156"/>
      </g>
     </g>
    </g>
    <g id="text_20">
     <!-- Count -->
     <g transform="translate(14.798438 209.088338) rotate(-90) scale(0.1 -0.1)">
      <defs>
       <path id="DejaVuSans-43" d="M 4122 4306 
L 4122 3641 
Q 3803 3938 3442 4084 
Q 3081 4231 2675 4231 
Q 1875 4231 1450 3742 
Q 1025 3253 1025 2328 
Q 1025 1406 1450 917 
Q 1875 428 2675 428 
Q 3081 428 3442 575 
Q 3803 722 4122 1019 
L 4122 359 
Q 3791 134 3420 21 
Q 3050 -91 2638 -91 
Q 1578 -91 968 557 
Q 359 1206 359 2328 
Q 359 3453 968 4101 
Q 1578 4750 2638 4750 
Q 3056 4750 3426 4639 
Q 3797 4528 4122 4306 
z
" transform="scale(0.015625)"/>
      </defs>
      <use xlink:href="#DejaVuSans-43"/>
      <use xlink:href="#DejaVuSans-6f" x="69.824219"/>
      <use xlink:href="#DejaVuSans-75" x="131.005859"/>
      <use xlink:href="#DejaVuSans-6e" x="194.384766"/>
      <use xlink:href="#DejaVuSans-74" x="257.763672"/>
     </g>
    </g>
    <g id="text_21">
     <!-- 1e7 -->
     <g transform="translate(40.600625 32.2559) scale(0.1 -0.1)">
      <defs>
       <path id="DejaVuSans-37" d="M 525 4666 
L 3525 4666 
L 3525 4397 
L 1831 0 
L 1172 0 
L 2766 4134 
L 525 4134 
L 525 4666 
z
" transform="scale(0.015625)"/>
      </defs>
      <use xlink:href="#DejaVuSans-31"/>
      <use xlink:href="#DejaVuSans-65" x="63.623047"/>
      <use xlink:href="#DejaVuSans-37" x="125.146484"/>
     </g>
    </g>
   </g>
   <g id="line2d_10">
    <path d="M 431.740239 353.22388 
L 454.748451 353.223801 
L 477.756664 353.220473 
L 500.764876 353.201418 
L 523.773089 353.18173 
L 546.781301 353.148235 
L 569.789514 353.056309 
L 592.797726 352.845755 
L 615.805939 352.40183 
L 638.814152 351.687176 
L 661.822364 350.686759 
L 684.830577 349.486029 
L 707.838789 348.128859 
L 730.847002 346.593184 
L 753.855214 344.702342 
L 776.863427 342.097577 
L 799.871639 337.96627 
L 822.879852 329.970363 
L 845.888065 310.354867 
L 868.896277 260.969685 
L 891.90449 224.713383 
L 914.912702 291.379332 
L 937.920915 338.862935 
L 960.929127 353.090635 
" clip-path="url(#p77e1d9eb0f)" style="fill: none; stroke: #5cb85c; stroke-linecap: square"/>
   </g>
   <g id="line2d_11">
    <path d="M 385.723813 353.22388 
L 408.732026 353.22388 
L 431.740239 353.223484 
L 454.748451 353.220473 
L 477.756664 353.190722 
L 500.764876 352.931106 
L 523.773089 352.631894 
L 546.781301 352.257176 
L 569.789514 351.780092 
L 592.797726 351.21235 
L 615.805939 350.519425 
L 638.814152 349.735346 
L 661.822364 348.803938 
L 684.830577 347.77177 
L 707.838789 346.532336 
L 730.847002 344.984618 
L 753.855214 342.927987 
L 776.863427 339.90475 
L 799.871639 335.072574 
L 822.879852 326.078528 
L 845.888065 307.485396 
L 868.896277 267.285779 
L 891.90449 242.944018 
L 914.912702 296.862322 
L 937.920915 337.763679 
L 960.929127 353.073106 
" clip-path="url(#p77e1d9eb0f)" style="fill: none; stroke: #5cb85c; stroke-linecap: square"/>
   </g>
   <g id="line2d_12">
    <path d="M 454.748451 353.22388 
L 477.756664 353.22079 
L 500.764876 353.200488 
L 523.773089 353.178501 
L 546.781301 353.141798 
L 569.789514 353.060983 
L 592.797726 352.89357 
L 615.805939 352.553615 
L 638.814152 352.020773 
L 661.822364 351.2772 
L 684.830577 350.425102 
L 707.838789 349.43754 
L 730.847002 348.356982 
L 753.855214 347.010984 
L 776.863427 345.102691 
L 799.871639 342.105085 
L 822.879852 336.376283 
L 845.888065 322.615307 
L 868.896277 287.27209 
L 891.90449 258.265487 
L 914.912702 305.855794 
L 937.920915 342.65189 
L 960.929127 353.138054 
" clip-path="url(#p77e1d9eb0f)" style="fill: none; stroke: #5cb85c; stroke-linecap: square"/>
   </g>
   <g id="line2d_13">
    <path d="M 408.732026 353.22388 
L 431.740239 353.223662 
L 454.748451 353.221701 
L 477.756664 353.199992 
L 500.764876 353.022834 
L 523.773089 352.804754 
L 546.781301 352.544879 
L 569.789514 352.230356 
L 592.797726 351.828165 
L 615.805939 351.357163 
L 638.814152 350.790926 
L 661.822364 350.190423 
L 684.830577 349.412899 
L 707.838789 348.508826 
L 730.847002 347.397903 
L 753.855214 345.899863 
L 776.863427 343.702836 
L 799.871639 340.182312 
L 822.879852 333.812936 
L 845.888065 320.692396 
L 868.896277 291.111435 
L 891.90449 270.277997 
L 914.912702 309.301049 
L 937.920915 341.766396 
L 960.929127 353.127101 
" clip-path="url(#p77e1d9eb0f)" style="fill: none; stroke: #5cb85c; stroke-linecap: square"/>
   </g>
   <g id="line2d_14">
    <path d="M 454.748451 353.223841 
L 477.756664 353.215878 
L 500.764876 353.167647 
L 523.773089 353.119515 
L 546.781301 353.042959 
L 569.789514 352.891352 
L 592.797726 352.570292 
L 615.805939 351.957152 
L 638.814152 350.975057 
L 661.822364 349.636645 
L 684.830577 348.0238 
L 707.838789 346.223695 
L 730.847002 344.224248 
L 753.855214 341.723335 
L 776.863427 338.260273 
L 799.871639 332.713502 
L 822.879852 321.958629 
L 845.888065 295.623542 
L 868.896277 229.904153 
L 891.90449 182.499601 
L 914.912702 270.545477 
L 937.920915 334.544942 
L 960.929127 353.050941 
" clip-path="url(#p77e1d9eb0f)" style="fill: none; stroke: #5cb85c; stroke-linecap: square"/>
   </g>
   <g id="line2d_15">
    <path d="M 362.715601 353.22388 
L 385.723813 353.2239 
L 408.732026 353.22388 
L 431.740239 353.223425 
L 454.748451 353.219126 
L 477.756664 353.176659 
L 500.764876 352.816301 
L 523.773089 352.389074 
L 546.781301 351.892104 
L 569.789514 351.251133 
L 592.797726 350.488783 
L 615.805939 349.558603 
L 638.814152 348.520829 
L 661.822364 347.302273 
L 684.830577 345.923751 
L 707.838789 344.243462 
L 730.847002 342.176352 
L 753.855214 339.361311 
L 776.863427 335.367745 
L 799.871639 328.807148 
L 822.879852 316.727095 
L 845.888065 291.737649 
L 868.896277 238.110139 
L 891.90449 206.491324 
L 914.912702 277.428204 
L 937.920915 333.077088 
L 960.929127 353.030836 
" clip-path="url(#p77e1d9eb0f)" style="fill: none; stroke: #5cb85c; stroke-linecap: square"/>
   </g>
   <g id="line2d_16">
    <path d="M 454.748451 353.223761 
L 477.756664 353.2136 
L 500.764876 353.154594 
L 523.773089 353.098142 
L 546.781301 353.008771 
L 569.789514 352.861344 
L 592.797726 352.592259 
L 615.805939 352.115354 
L 638.814152 351.392341 
L 661.822364 350.412583 
L 684.830577 349.230512 
L 707.838789 347.928625 
L 730.847002 346.431456 
L 753.855214 344.583556 
L 776.863427 342.034847 
L 799.871639 337.994674 
L 822.879852 330.379784 
L 845.888065 312.247096 
L 868.896277 265.421002 
L 891.90449 220.604596 
L 914.912702 264.52816 
L 937.920915 328.797046 
L 960.929127 352.94917 
" clip-path="url(#p77e1d9eb0f)" style="fill: none; stroke: #5cb85c; stroke-linecap: square"/>
   </g>
   <g id="line2d_17">
    <path d="M 385.723813 353.22388 
L 408.732026 353.2239 
L 431.740239 353.223345 
L 454.748451 353.220652 
L 477.756664 353.185018 
L 500.764876 352.90597 
L 523.773089 352.578196 
L 546.781301 352.202071 
L 569.789514 351.733129 
L 592.797726 351.172022 
L 615.805939 350.507402 
L 638.814152 349.745923 
L 661.822364 348.870927 
L 684.830577 347.858031 
L 707.838789 346.657638 
L 730.847002 345.140761 
L 753.855214 343.125329 
L 776.863427 340.216262 
L 799.871639 335.541081 
L 822.879852 327.157343 
L 845.888065 309.883984 
L 868.896277 270.385829 
L 891.90449 236.205015 
L 914.912702 270.041912 
L 937.920915 326.953741 
L 960.929127 352.915616 
" clip-path="url(#p77e1d9eb0f)" style="fill: none; stroke: #5cb85c; stroke-linecap: square"/>
   </g>
   <g id="line2d_18">
    <path d="M 454.748451 353.223841 
L 477.756664 353.214947 
L 500.764876 353.161843 
L 523.773089 353.115097 
L 546.781301 353.021467 
L 569.789514 352.802674 
L 592.797726 352.245767 
L 615.805939 351.150769 
L 638.814152 349.420268 
L 661.822364 347.13175 
L 684.830577 344.505891 
L 707.838789 341.694396 
L 730.847002 338.69992 
L 753.855214 335.157271 
L 776.863427 330.467214 
L 799.871639 323.214662 
L 822.879852 310.563876 
L 845.888065 283.218428 
L 868.896277 220.80283 
L 891.90449 174.289179 
L 914.912702 244.011245 
L 937.920915 323.836657 
L 960.929127 352.784728 
" clip-path="url(#p77e1d9eb0f)" style="fill: none; stroke: #5cb85c; stroke-linecap: square"/>
   </g>
   <g id="line2d_19">
    <path d="M 408.732026 353.22388 
L 431.740239 353.223583 
L 454.748451 353.219681 
L 477.756664 353.159169 
L 500.764876 352.624307 
L 523.773089 351.988804 
L 546.781301 351.168398 
L 569.789514 350.171289 
L 592.797726 348.950018 
L 615.805939 347.515381 
L 638.814152 345.855296 
L 661.822364 344.019379 
L 684.830577 341.944604 
L 707.838789 339.568636 
L 730.847002 336.714159 
L 753.855214 332.972564 
L 776.863427 327.745189 
L 799.871639 319.838 
L 822.879852 306.407492 
L 845.888065 280.637631 
L 868.896277 230.014837 
L 891.90449 199.203237 
L 914.912702 252.872918 
L 937.920915 322.381321 
L 960.929127 352.762742 
" clip-path="url(#p77e1d9eb0f)" style="fill: none; stroke: #5cb85c; stroke-linecap: square"/>
   </g>
   <g id="line2d_20">
    <path d="M 454.748451 353.22388 
L 477.756664 353.220077 
L 500.764876 353.197041 
L 523.773089 353.173728 
L 546.781301 353.115751 
L 569.789514 352.942138 
L 592.797726 352.454201 
L 615.805939 351.482822 
L 638.814152 349.898341 
L 661.822364 347.811702 
L 684.830577 345.385542 
L 707.838789 342.837288 
L 730.847002 340.139726 
L 753.855214 336.903757 
L 776.863427 332.618981 
L 799.871639 326.06694 
L 822.879852 314.522957 
L 845.888065 289.594182 
L 868.896277 234.369871 
L 891.90449 197.495178 
L 914.912702 259.346442 
L 937.920915 327.986108 
L 960.929127 352.843596 
" clip-path="url(#p77e1d9eb0f)" style="fill: none; stroke: #5cb85c; stroke-linecap: square"/>
   </g>
   <g id="line2d_21">
    <path d="M 408.732026 353.22388 
L 431.740239 353.223682 
L 454.748451 353.22083 
L 477.756664 353.166934 
L 500.764876 352.66826 
L 523.773089 352.079166 
L 546.781301 351.331988 
L 569.789514 350.397906 
L 592.797726 349.255925 
L 615.805939 347.948294 
L 638.814152 346.442073 
L 661.822364 344.756971 
L 684.830577 342.914022 
L 707.838789 340.758631 
L 730.847002 338.217171 
L 753.855214 334.857286 
L 776.863427 330.228355 
L 799.871639 323.020311 
L 822.879852 310.895235 
L 845.888065 287.82462 
L 868.896277 244.537669 
L 891.90449 220.202821 
L 914.912702 266.2176 
L 937.920915 326.852188 
L 960.929127 352.836228 
" clip-path="url(#p77e1d9eb0f)" style="fill: none; stroke: #5cb85c; stroke-linecap: square"/>
   </g>
   <g id="line2d_22">
    <path d="M 408.732026 353.22388 
L 431.740239 353.2239 
L 454.748451 353.223821 
L 477.756664 353.216373 
L 500.764876 353.174837 
L 523.773089 353.137797 
L 546.781301 353.041116 
L 569.789514 352.713005 
L 592.797726 351.842862 
L 615.805939 350.074509 
L 638.814152 347.245366 
L 661.822364 343.488638 
L 684.830577 339.174368 
L 707.838789 334.646178 
L 730.847002 329.819707 
L 753.855214 324.141949 
L 776.863427 316.58975 
L 799.871639 305.1164 
L 822.879852 284.981156 
L 845.888065 241.414919 
L 868.896277 140.740937 
L 891.90449 65.422086 
L 914.912702 198.589641 
L 937.920915 318.808585 
L 960.929127 352.773715 
" clip-path="url(#p77e1d9eb0f)" style="fill: none; stroke: #5cb85c; stroke-linecap: square"/>
   </g>
   <g id="line2d_23">
    <path d="M 408.732026 353.223841 
L 431.740239 353.223365 
L 454.748451 353.217027 
L 477.756664 353.107274 
L 500.764876 352.157227 
L 523.773089 351.021327 
L 546.781301 349.647975 
L 569.789514 347.937123 
L 592.797726 345.891623 
L 615.805939 343.505434 
L 638.814152 340.863036 
L 661.822364 337.918772 
L 684.830577 334.683654 
L 707.838789 330.901671 
L 730.847002 326.45899 
L 753.855214 320.59009 
L 776.863427 312.409934 
L 799.871639 299.9986 
L 822.879852 278.841211 
L 845.888065 237.70464 
L 868.896277 156.969649 
L 891.90449 106.491153 
L 914.912702 213.016802 
L 937.920915 317.28321 
L 960.929127 352.76187 
" clip-path="url(#p77e1d9eb0f)" style="fill: none; stroke: #5cb85c; stroke-linecap: square"/>
   </g>
   <g id="line2d_24">
    <path d="M 454.748451 353.22388 
L 477.756664 353.215205 
L 500.764876 353.171192 
L 523.773089 353.127002 
L 546.781301 353.046385 
L 569.789514 352.823234 
L 592.797726 352.269516 
L 615.805939 351.19177 
L 638.814152 349.480007 
L 661.822364 347.243266 
L 684.830577 344.678038 
L 707.838789 341.985784 
L 730.847002 339.136754 
L 753.855214 335.761459 
L 776.863427 331.263475 
L 799.871639 324.492265 
L 822.879852 312.773084 
L 845.888065 287.592773 
L 868.896277 229.302877 
L 891.90449 177.366946 
L 914.912702 244.110679 
L 937.920915 327.21316 
L 960.929127 352.888084 
" clip-path="url(#p77e1d9eb0f)" style="fill: none; stroke: #5cb85c; stroke-linecap: square"/>
   </g>
   <g id="line2d_25">
    <path d="M 408.732026 353.22388 
L 431.740239 353.223623 
L 454.748451 353.220553 
L 477.756664 353.163547 
L 500.764876 352.661189 
L 523.773089 352.059022 
L 546.781301 351.320044 
L 569.789514 350.397035 
L 592.797726 349.270266 
L 615.805939 347.915869 
L 638.814152 346.413986 
L 661.822364 344.678672 
L 684.830577 342.777549 
L 707.838789 340.527557 
L 730.847002 337.8521 
L 753.855214 334.330011 
L 776.863427 329.430312 
L 799.871639 322.03679 
L 822.879852 309.596874 
L 845.888065 285.215063 
L 868.896277 236.60469 
L 891.90449 198.006885 
L 914.912702 251.512876 
L 937.920915 325.507478 
L 960.929127 352.858769 
" clip-path="url(#p77e1d9eb0f)" style="fill: none; stroke: #5cb85c; stroke-linecap: square"/>
   </g>
   <g id="line2d_26">
    <path d="M 431.740239 353.22386 
L 454.748451 353.223742 
L 477.756664 353.218572 
L 500.764876 353.183671 
L 523.773089 353.144492 
L 546.781301 353.084475 
L 569.789514 352.982367 
L 592.797726 352.789759 
L 615.805939 352.442534 
L 638.814152 351.947585 
L 661.822364 351.245746 
L 684.830577 350.441185 
L 707.838789 349.520712 
L 730.847002 348.463824 
L 753.855214 347.161739 
L 776.863427 345.335191 
L 799.871639 342.427927 
L 822.879852 336.902093 
L 845.888065 322.991431 
L 868.896277 283.29439 
L 891.90449 236.674274 
L 914.912702 281.726805 
L 937.920915 334.982311 
L 960.929127 352.955845 
" clip-path="url(#p77e1d9eb0f)" style="fill: none; stroke: #5cb85c; stroke-linecap: square"/>
   </g>
   <g id="line2d_27">
    <path d="M 408.732026 353.223841 
L 431.740239 353.223643 
L 454.748451 353.221206 
L 477.756664 353.192406 
L 500.764876 352.977633 
L 523.773089 352.752125 
L 546.781301 352.480862 
L 569.789514 352.14659 
L 592.797726 351.753828 
L 615.805939 351.298533 
L 638.814152 350.754005 
L 661.822364 350.139577 
L 684.830577 349.43239 
L 707.838789 348.557909 
L 730.847002 347.458494 
L 753.855214 345.96705 
L 776.863427 343.789652 
L 799.871639 340.270099 
L 822.879852 333.82084 
L 845.888065 319.426064 
L 868.896277 285.068507 
L 891.90449 250.225429 
L 914.912702 288.09937 
L 937.920915 334.342351 
L 960.929127 352.966026 
" clip-path="url(#p77e1d9eb0f)" style="fill: none; stroke: #5cb85c; stroke-linecap: square"/>
   </g>
   <g id="line2d_28">
    <path d="M 454.748451 353.223801 
L 477.756664 353.217027 
L 500.764876 353.176877 
L 523.773089 353.133578 
L 546.781301 353.071422 
L 569.789514 352.965769 
L 592.797726 352.771279 
L 615.805939 352.463629 
L 638.814152 351.995578 
L 661.822364 351.40478 
L 684.830577 350.685709 
L 707.838789 349.900659 
L 730.847002 349.016037 
L 753.855214 347.874095 
L 776.863427 346.27466 
L 799.871639 343.601144 
L 822.879852 338.212754 
L 845.888065 324.184258 
L 868.896277 284.739148 
L 891.90449 247.479834 
L 914.912702 296.603399 
L 937.920915 340.212261 
L 960.929127 353.079662 
" clip-path="url(#p77e1d9eb0f)" style="fill: none; stroke: #5cb85c; stroke-linecap: square"/>
   </g>
   <g id="line2d_29">
    <path d="M 339.707388 353.22388 
L 362.715601 353.22388 
L 385.723813 353.22388 
L 408.732026 353.223841 
L 431.740239 353.223682 
L 454.748451 353.221285 
L 477.756664 353.197675 
L 500.764876 353.01709 
L 523.773089 352.823511 
L 546.781301 352.596201 
L 569.789514 352.315311 
L 592.797726 351.965827 
L 615.805939 351.561121 
L 638.814152 351.083641 
L 661.822364 350.542798 
L 684.830577 349.899767 
L 707.838789 349.116302 
L 730.847002 348.093958 
L 753.855214 346.68517 
L 776.863427 344.582922 
L 799.871639 341.134894 
L 822.879852 334.550825 
L 845.888065 320.165338 
L 868.896277 286.756184 
L 891.90449 260.958633 
L 914.912702 302.161657 
L 937.920915 339.774278 
L 960.929127 353.083306 
" clip-path="url(#p77e1d9eb0f)" style="fill: none; stroke: #5cb85c; stroke-linecap: square"/>
   </g>
   <g id="line2d_30">
    <path d="M 431.740239 353.22388 
L 454.748451 353.223781 
L 477.756664 353.215957 
L 500.764876 353.165864 
L 523.773089 353.118306 
L 546.781301 353.043196 
L 569.789514 352.917122 
L 592.797726 352.679808 
L 615.805939 352.288828 
L 638.814152 351.68672 
L 661.822364 350.88313 
L 684.830577 349.913732 
L 707.838789 348.827152 
L 730.847002 347.578389 
L 753.855214 346.037881 
L 776.863427 343.850124 
L 799.871639 340.397204 
L 822.879852 333.617991 
L 845.888065 316.585095 
L 868.896277 269.15412 
L 891.90449 217.927693 
L 914.912702 269.731706 
L 937.920915 335.295903 
L 960.929127 352.978406 
" clip-path="url(#p77e1d9eb0f)" style="fill: none; stroke: #5cb85c; stroke-linecap: square"/>
   </g>
   <g id="line2d_31">
    <path d="M 385.723813 353.22388 
L 408.732026 353.22386 
L 431.740239 353.223543 
L 454.748451 353.220929 
L 477.756664 353.188147 
L 500.764876 352.921816 
L 523.773089 352.628606 
L 546.781301 352.297702 
L 569.789514 351.891906 
L 592.797726 351.416467 
L 615.805939 350.860569 
L 638.814152 350.223798 
L 661.822364 349.463587 
L 684.830577 348.608695 
L 707.838789 347.567693 
L 730.847002 346.242235 
L 753.855214 344.475764 
L 776.863427 341.846042 
L 799.871639 337.484156 
L 822.879852 329.415951 
L 845.888065 312.15099 
L 868.896277 271.856991 
L 891.90449 234.527043 
L 914.912702 278.098984 
L 937.920915 334.742383 
L 960.929127 352.988052 
" clip-path="url(#p77e1d9eb0f)" style="fill: none; stroke: #5cb85c; stroke-linecap: square"/>
   </g>
   <g id="line2d_32">
    <path d="M 477.756664 353.223722 
L 500.764876 353.22182 
L 523.773089 353.218195 
L 546.781301 353.205915 
L 569.789514 353.160437 
L 592.797726 353.026419 
L 615.805939 352.729842 
L 638.814152 352.227207 
L 661.822364 351.51693 
L 684.830577 350.643539 
L 707.838789 349.633614 
L 730.847002 348.490385 
L 753.855214 347.053946 
L 776.863427 345.017598 
L 799.871639 341.738349 
L 822.879852 335.317137 
L 845.888065 318.79163 
L 868.896277 274.183281 
L 891.90449 237.69943 
L 914.912702 296.189878 
L 937.920915 340.714896 
L 960.929127 353.160219 
" clip-path="url(#p77e1d9eb0f)" style="fill: none; stroke: #5cb85c; stroke-linecap: square"/>
   </g>
   <g id="line2d_33">
    <path d="M 431.740239 353.223761 
L 454.748451 353.221483 
L 477.756664 353.196328 
L 500.764876 352.997025 
L 523.773089 352.762128 
L 546.781301 352.490647 
L 569.789514 352.142035 
L 592.797726 351.725206 
L 615.805939 351.208785 
L 638.814152 350.622048 
L 661.822364 349.947504 
L 684.830577 349.186658 
L 707.838789 348.260103 
L 730.847002 347.017778 
L 753.855214 345.378827 
L 776.863427 342.904634 
L 799.871639 338.779942 
L 822.879852 331.038383 
L 845.888065 314.548826 
L 868.896277 277.850321 
L 891.90449 254.773209 
L 914.912702 303.525324 
L 937.920915 340.656206 
L 960.929127 353.155029 
" clip-path="url(#p77e1d9eb0f)" style="fill: none; stroke: #5cb85c; stroke-linecap: square"/>
   </g>
   <g id="line2d_34">
    <path d="M 454.748451 353.223781 
L 477.756664 353.217205 
L 500.764876 353.176501 
L 523.773089 353.142907 
L 546.781301 353.080434 
L 569.789514 352.966323 
L 592.797726 352.725563 
L 615.805939 352.285223 
L 638.814152 351.578908 
L 661.822364 350.619354 
L 684.830577 349.500567 
L 707.838789 348.251467 
L 730.847002 346.886315 
L 753.855214 345.214088 
L 776.863427 342.943635 
L 799.871639 339.430043 
L 822.879852 332.961234 
L 845.888065 318.366581 
L 868.896277 281.995632 
L 891.90449 245.166022 
L 914.912702 283.960199 
L 937.920915 335.770491 
L 960.929127 352.95333 
" clip-path="url(#p77e1d9eb0f)" style="fill: none; stroke: #5cb85c; stroke-linecap: square"/>
   </g>
   <g id="line2d_35">
    <path d="M 408.732026 353.22388 
L 431.740239 353.223643 
L 454.748451 353.221068 
L 477.756664 353.187593 
L 500.764876 352.912526 
L 523.773089 352.594913 
L 546.781301 352.233129 
L 569.789514 351.781043 
L 592.797726 351.256442 
L 615.805939 350.631436 
L 638.814152 349.923081 
L 661.822364 349.119234 
L 684.830577 348.191391 
L 707.838789 347.140148 
L 730.847002 345.835805 
L 753.855214 344.089161 
L 776.863427 341.537402 
L 799.871639 337.555205 
L 822.879852 330.490646 
L 845.888065 316.369986 
L 868.896277 285.515443 
L 891.90449 258.68396 
L 914.912702 289.359047 
L 937.920915 334.837103 
L 960.929127 352.950319 
" clip-path="url(#p77e1d9eb0f)" style="fill: none; stroke: #5cb85c; stroke-linecap: square"/>
   </g>
   <g id="line2d_36">
    <path d="M 431.740239 353.22386 
L 454.748451 353.223682 
L 477.756664 353.214789 
L 500.764876 353.164378 
L 523.773089 353.119099 
L 546.781301 353.042424 
L 569.789514 352.899057 
L 592.797726 352.596498 
L 615.805939 352.033153 
L 638.814152 351.14344 
L 661.822364 349.948969 
L 684.830577 348.501933 
L 707.838789 346.895962 
L 730.847002 345.120517 
L 753.855214 342.93795 
L 776.863427 340.013552 
L 799.871639 335.47944 
L 822.879852 327.174318 
L 845.888065 308.635022 
L 868.896277 260.904043 
L 891.90449 200.674003 
L 914.912702 259.348779 
L 937.920915 336.995683 
L 960.929127 353.049 
" clip-path="url(#p77e1d9eb0f)" style="fill: none; stroke: #5cb85c; stroke-linecap: square"/>
   </g>
   <g id="line2d_37">
    <path d="M 362.715601 353.22388 
L 385.723813 353.22388 
L 408.732026 353.223841 
L 431.740239 353.223365 
L 454.748451 353.220671 
L 477.756664 353.17143 
L 500.764876 352.772131 
L 523.773089 352.330384 
L 546.781301 351.835573 
L 569.789514 351.221303 
L 592.797726 350.537252 
L 615.805939 349.725323 
L 638.814152 348.8367 
L 661.822364 347.811008 
L 684.830577 346.68422 
L 707.838789 345.316275 
L 730.847002 343.647018 
L 753.855214 341.404731 
L 776.863427 338.255519 
L 799.871639 333.236043 
L 822.879852 324.262973 
L 845.888065 306.327925 
L 868.896277 265.401928 
L 891.90449 217.622539 
L 914.912702 267.532719 
L 937.920915 335.921028 
L 960.929127 353.041592 
" clip-path="url(#p77e1d9eb0f)" style="fill: none; stroke: #5cb85c; stroke-linecap: square"/>
   </g>
   <g id="line2d_38">
    <path d="M 454.748451 353.223821 
L 477.756664 353.216571 
L 500.764876 353.173827 
L 523.773089 353.136014 
L 546.781301 353.074056 
L 569.789514 352.944812 
L 592.797726 352.622624 
L 615.805939 352.009741 
L 638.814152 351.043789 
L 661.822364 349.723461 
L 684.830577 348.126502 
L 707.838789 346.36831 
L 730.847002 344.40822 
L 753.855214 342.009494 
L 776.863427 338.660186 
L 799.871639 333.340647 
L 822.879852 323.23334 
L 845.888065 299.52744 
L 868.896277 240.749427 
L 891.90449 192.123744 
L 914.912702 268.347321 
L 937.920915 333.318641 
L 960.929127 352.961312 
" clip-path="url(#p77e1d9eb0f)" style="fill: none; stroke: #5cb85c; stroke-linecap: square"/>
   </g>
   <g id="line2d_39">
    <path d="M 362.715601 353.22386 
L 385.723813 353.2239 
L 408.732026 353.2239 
L 431.740239 353.223603 
L 454.748451 353.220394 
L 477.756664 353.176322 
L 500.764876 352.791225 
L 523.773089 352.352054 
L 546.781301 351.840822 
L 569.789514 351.20009 
L 592.797726 350.420368 
L 615.805939 349.516136 
L 638.814152 348.465824 
L 661.822364 347.271016 
L 684.830577 345.944964 
L 707.838789 344.350977 
L 730.847002 342.37817 
L 753.855214 339.724145 
L 776.863427 335.876639 
L 799.871639 329.707696 
L 822.879852 318.495072 
L 845.888065 295.731077 
L 868.896277 247.296476 
L 891.90449 215.477229 
L 914.912702 276.469184 
L 937.920915 332.665251 
L 960.929127 352.972503 
" clip-path="url(#p77e1d9eb0f)" style="fill: none; stroke: #5cb85c; stroke-linecap: square"/>
   </g>
   <g id="line2d_40">
    <path d="M 454.748451 353.22388 
L 477.756664 353.222454 
L 500.764876 353.212412 
L 523.773089 353.199022 
L 546.781301 353.150909 
L 569.789514 352.975276 
L 592.797726 352.49025 
L 615.805939 351.467194 
L 638.814152 349.82129 
L 661.822364 347.521066 
L 684.830577 344.780046 
L 707.838789 341.734645 
L 730.847002 338.254588 
L 753.855214 333.988708 
L 776.863427 328.054325 
L 799.871639 318.664565 
L 822.879852 301.276857 
L 845.888065 260.438428 
L 868.896277 153.80461 
L 891.90449 50.397233 
L 914.912702 155.709021 
L 937.920915 298.864721 
L 960.929127 352.533193 
" clip-path="url(#p77e1d9eb0f)" style="fill: none; stroke: #5cb85c; stroke-linecap: square"/>
   </g>
   <g id="line2d_41">
    <path d="M 408.732026 353.22388 
L 431.740239 353.223425 
L 454.748451 353.218512 
L 477.756664 353.142491 
L 500.764876 352.52529 
L 523.773089 351.81014 
L 546.781301 350.935085 
L 569.789514 349.854091 
L 592.797726 348.520513 
L 615.805939 347.019224 
L 638.814152 345.249484 
L 661.822364 343.255741 
L 684.830577 341.002719 
L 707.838789 338.233929 
L 730.847002 334.847264 
L 753.855214 330.224711 
L 776.863427 323.569216 
L 799.871639 312.946499 
L 822.879852 293.832826 
L 845.888065 254.29466 
L 868.896277 163.286752 
L 891.90449 87.962771 
L 914.912702 173.214167 
L 937.920915 297.312487 
L 960.929127 352.526617 
" clip-path="url(#p77e1d9eb0f)" style="fill: none; stroke: #5cb85c; stroke-linecap: square"/>
   </g>
   <g id="line2d_42">
    <path d="M 408.732026 353.22388 
L 431.740239 353.2239 
L 454.748451 353.223781 
L 477.756664 353.215462 
L 500.764876 353.159862 
L 523.773089 353.109056 
L 546.781301 353.032797 
L 569.789514 352.908763 
L 592.797726 352.71356 
L 615.805939 352.374693 
L 638.814152 351.88733 
L 661.822364 351.270763 
L 684.830577 350.532379 
L 707.838789 349.71736 
L 730.847002 348.749863 
L 753.855214 347.602178 
L 776.863427 345.899427 
L 799.871639 343.204737 
L 822.879852 337.987167 
L 845.888065 325.262717 
L 868.896277 288.61379 
L 891.90449 244.645164 
L 914.912702 275.060753 
L 937.920915 329.731405 
L 960.929127 352.893551 
" clip-path="url(#p77e1d9eb0f)" style="fill: none; stroke: #5cb85c; stroke-linecap: square"/>
   </g>
   <g id="line2d_43">
    <path d="M 385.723813 353.223841 
L 408.732026 353.2239 
L 431.740239 353.223603 
L 454.748451 353.2218 
L 477.756664 353.19609 
L 500.764876 352.998174 
L 523.773089 352.782272 
L 546.781301 352.538541 
L 569.789514 352.24541 
L 592.797726 351.899769 
L 615.805939 351.491537 
L 638.814152 351.01592 
L 661.822364 350.464301 
L 684.830577 349.794491 
L 707.838789 348.982502 
L 730.847002 347.938905 
L 753.855214 346.576328 
L 776.863427 344.576069 
L 799.871639 341.346953 
L 822.879852 335.460979 
L 845.888065 322.698102 
L 868.896277 290.349362 
L 891.90449 255.596804 
L 914.912702 280.095658 
L 937.920915 328.646589 
L 960.929127 352.880339 
" clip-path="url(#p77e1d9eb0f)" style="fill: none; stroke: #5cb85c; stroke-linecap: square"/>
   </g>
   <g id="line2d_44">
    <path d="M 408.732026 353.22388 
L 431.740239 353.2239 
L 454.748451 353.223682 
L 477.756664 353.209856 
L 500.764876 353.128151 
L 523.773089 353.046405 
L 546.781301 352.920964 
L 569.789514 352.717502 
L 592.797726 352.367781 
L 615.805939 351.80196 
L 638.814152 350.981415 
L 661.822364 349.949049 
L 684.830577 348.736375 
L 707.838789 347.410699 
L 730.847002 345.873242 
L 753.855214 343.966751 
L 776.863427 341.219591 
L 799.871639 336.790062 
L 822.879852 328.355577 
L 845.888065 307.885349 
L 868.896277 249.948937 
L 891.90449 181.342071 
L 914.912702 232.289728 
L 937.920915 318.866522 
L 960.929127 352.743965 
" clip-path="url(#p77e1d9eb0f)" style="fill: none; stroke: #5cb85c; stroke-linecap: square"/>
   </g>
   <g id="line2d_45">
    <path d="M 362.715601 353.22386 
L 385.723813 353.2239 
L 408.732026 353.22386 
L 431.740239 353.223504 
L 454.748451 353.22081 
L 477.756664 353.175946 
L 500.764876 352.825433 
L 523.773089 352.453527 
L 546.781301 352.041413 
L 569.789514 351.551356 
L 592.797726 350.988268 
L 615.805939 350.334245 
L 638.814152 349.552443 
L 661.822364 348.685747 
L 684.830577 347.613131 
L 707.838789 346.298726 
L 730.847002 344.674908 
L 753.855214 342.441554 
L 776.863427 339.185797 
L 799.871639 334.054192 
L 822.879852 324.582627 
L 845.888065 304.333648 
L 868.896277 253.219668 
L 891.90449 198.082569 
L 914.912702 239.536159 
L 937.920915 317.198058 
L 960.929127 352.72586 
" clip-path="url(#p77e1d9eb0f)" style="fill: none; stroke: #5cb85c; stroke-linecap: square"/>
   </g>
   <g id="line2d_46">
    <path d="M 431.740239 353.22386 
L 454.748451 353.223801 
L 477.756664 353.21562 
L 500.764876 353.171826 
L 523.773089 353.128804 
L 546.781301 353.064846 
L 569.789514 352.962362 
L 592.797726 352.783896 
L 615.805939 352.477455 
L 638.814152 352.024814 
L 661.822364 351.424944 
L 684.830577 350.70304 
L 707.838789 349.914346 
L 730.847002 349.0321 
L 753.855214 347.888812 
L 776.863427 346.273907 
L 799.871639 343.652723 
L 822.879852 338.552433 
L 845.888065 325.798846 
L 868.896277 291.267499 
L 891.90449 260.696599 
L 914.912702 300.782502 
L 937.920915 339.68148 
L 960.929127 352.984269 
" clip-path="url(#p77e1d9eb0f)" style="fill: none; stroke: #5cb85c; stroke-linecap: square"/>
   </g>
   <g id="line2d_47">
    <path d="M 362.715601 353.22388 
L 385.723813 353.2239 
L 408.732026 353.22388 
L 431.740239 353.223643 
L 454.748451 353.221721 
L 477.756664 353.19716 
L 500.764876 352.99544 
L 523.773089 352.77946 
L 546.781301 352.531965 
L 569.789514 352.235704 
L 592.797726 351.887172 
L 615.805939 351.472819 
L 638.814152 350.978899 
L 661.822364 350.420784 
L 684.830577 349.761947 
L 707.838789 348.992981 
L 730.847002 348.015025 
L 753.855214 346.691172 
L 776.863427 344.721793 
L 799.871639 341.621782 
L 822.879852 335.792378 
L 845.888065 323.035028 
L 868.896277 294.411779 
L 891.90449 273.116351 
L 914.912702 304.924069 
L 937.920915 338.922417 
L 960.929127 352.979337 
" clip-path="url(#p77e1d9eb0f)" style="fill: none; stroke: #5cb85c; stroke-linecap: square"/>
   </g>
   <g id="line2d_48">
    <path d="M 454.748451 353.223821 
L 477.756664 353.221305 
L 500.764876 353.20334 
L 523.773089 353.185275 
L 546.781301 353.151484 
L 569.789514 353.083663 
L 592.797726 352.926629 
L 615.805939 352.635697 
L 638.814152 352.155385 
L 661.822364 351.499955 
L 684.830577 350.724373 
L 707.838789 349.818775 
L 730.847002 348.790885 
L 753.855214 347.53511 
L 776.863427 345.793398 
L 799.871639 342.990519 
L 822.879852 337.716814 
L 845.888065 324.89089 
L 868.896277 289.47908 
L 891.90449 246.83096 
L 914.912702 283.721617 
L 937.920915 338.160225 
L 960.929127 353.030698 
" clip-path="url(#p77e1d9eb0f)" style="fill: none; stroke: #5cb85c; stroke-linecap: square"/>
   </g>
   <g id="line2d_49">
    <path d="M 385.723813 353.22388 
L 408.732026 353.22386 
L 431.740239 353.223761 
L 454.748451 353.22182 
L 477.756664 353.194149 
L 500.764876 352.97591 
L 523.773089 352.740399 
L 546.781301 352.469056 
L 569.789514 352.159287 
L 592.797726 351.775042 
L 615.805939 351.309942 
L 638.814152 350.799978 
L 661.822364 350.201851 
L 684.830577 349.530477 
L 707.838789 348.733403 
L 730.847002 347.69246 
L 753.855214 346.312453 
L 776.863427 344.302547 
L 799.871639 341.046335 
L 822.879852 335.187041 
L 845.888065 322.29092 
L 868.896277 292.260012 
L 891.90449 259.337825 
L 914.912702 289.650059 
L 937.920915 337.557146 
L 960.929127 353.021982 
" clip-path="url(#p77e1d9eb0f)" style="fill: none; stroke: #5cb85c; stroke-linecap: square"/>
   </g>
   <g id="line2d_50">
    <path d="M 454.748451 353.223742 
L 477.756664 353.211164 
L 500.764876 353.14261 
L 523.773089 353.085723 
L 546.781301 352.991162 
L 569.789514 352.803724 
L 592.797726 352.371901 
L 615.805939 351.561081 
L 638.814152 350.270108 
L 661.822364 348.566189 
L 684.830577 346.573337 
L 707.838789 344.384689 
L 730.847002 341.9965 
L 753.855214 339.105141 
L 776.863427 335.136057 
L 799.871639 329.001162 
L 822.879852 317.672784 
L 845.888065 291.724953 
L 868.896277 227.064017 
L 891.90449 178.185649 
L 914.912702 248.180009 
L 937.920915 325.237343 
L 960.929127 352.743093 
" clip-path="url(#p77e1d9eb0f)" style="fill: none; stroke: #5cb85c; stroke-linecap: square"/>
   </g>
   <g id="line2d_51">
    <path d="M 431.740239 353.223504 
L 454.748451 353.220077 
L 477.756664 353.166716 
L 500.764876 352.711995 
L 523.773089 352.190266 
L 546.781301 351.551514 
L 569.789514 350.77924 
L 592.797726 349.81416 
L 615.805939 348.711556 
L 638.814152 347.401231 
L 661.822364 345.922523 
L 684.830577 344.266874 
L 707.838789 342.329424 
L 730.847002 339.928162 
L 753.855214 336.737096 
L 776.863427 332.235706 
L 799.871639 325.150765 
L 822.879852 312.66549 
L 845.888065 287.190721 
L 868.896277 235.621466 
L 891.90449 203.368495 
L 914.912702 256.53976 
L 937.920915 323.9989 
L 960.929127 352.730396 
" clip-path="url(#p77e1d9eb0f)" style="fill: none; stroke: #5cb85c; stroke-linecap: square"/>
   </g>
   <g id="line2d_52">
    <path d="M 454.748451 353.223761 
L 477.756664 353.210609 
L 500.764876 353.133816 
L 523.773089 353.063697 
L 546.781301 352.972068 
L 569.789514 352.830147 
L 592.797726 352.583167 
L 615.805939 352.179748 
L 638.814152 351.609213 
L 661.822364 350.8739 
L 684.830577 350.046125 
L 707.838789 349.151044 
L 730.847002 348.180438 
L 753.855214 347.019838 
L 776.863427 345.371201 
L 799.871639 342.80827 
L 822.879852 338.036448 
L 845.888065 327.253865 
L 868.896277 301.986143 
L 891.90449 280.242729 
L 914.912702 310.131221 
L 937.920915 343.270775 
L 960.929127 353.117851 
" clip-path="url(#p77e1d9eb0f)" style="fill: none; stroke: #5cb85c; stroke-linecap: square"/>
   </g>
   <g id="line2d_53">
    <path d="M 385.723813 353.22388 
L 408.732026 353.223841 
L 431.740239 353.223781 
L 454.748451 353.2218 
L 477.756664 353.193575 
L 500.764876 352.948536 
L 523.773089 352.687157 
L 546.781301 352.400047 
L 569.789514 352.04892 
L 592.797726 351.621573 
L 615.805939 351.121196 
L 638.814152 350.575599 
L 661.822364 349.948118 
L 684.830577 349.222549 
L 707.838789 348.402321 
L 730.847002 347.354089 
L 753.855214 346.043388 
L 776.863427 344.129152 
L 799.871639 341.108134 
L 822.879852 335.973656 
L 845.888065 325.824616 
L 868.896277 305.345553 
L 891.90449 289.830782 
L 914.912702 313.560135 
L 937.920915 342.623962 
L 960.929127 353.111413 
" clip-path="url(#p77e1d9eb0f)" style="fill: none; stroke: #5cb85c; stroke-linecap: square"/>
   </g>
   <g id="line2d_54">
    <path d="M 454.748451 353.223821 
L 477.756664 353.21152 
L 500.764876 353.149939 
L 523.773089 353.092279 
L 546.781301 352.988587 
L 569.789514 352.735784 
L 592.797726 352.121851 
L 615.805939 350.947782 
L 638.814152 349.042737 
L 661.822364 346.511597 
L 684.830577 343.599263 
L 707.838789 340.460726 
L 730.847002 337.017313 
L 753.855214 332.816877 
L 776.863427 327.037745 
L 799.871639 318.087592 
L 822.879852 301.698479 
L 845.888065 263.609964 
L 868.896277 169.674192 
L 891.90449 89.974182 
L 914.912702 207.537318 
L 937.920915 320.759444 
L 960.929127 352.790175 
" clip-path="url(#p77e1d9eb0f)" style="fill: none; stroke: #5cb85c; stroke-linecap: square"/>
   </g>
   <g id="line2d_55">
    <path d="M 385.723813 353.22386 
L 408.732026 353.2239 
L 431.740239 353.223187 
L 454.748451 353.218334 
L 477.756664 353.138787 
L 500.764876 352.470562 
L 523.773089 351.71344 
L 546.781301 350.801385 
L 569.789514 349.715281 
L 592.797726 348.338601 
L 615.805939 346.769174 
L 638.814152 344.927751 
L 661.822364 342.854283 
L 684.830577 340.446366 
L 707.838789 337.711902 
L 730.847002 334.234559 
L 753.855214 329.705477 
L 776.863427 323.151397 
L 799.871639 312.831833 
L 822.879852 294.73476 
L 845.888065 258.143513 
L 868.896277 180.412605 
L 891.90449 124.908176 
L 914.912702 219.838442 
L 937.920915 319.242864 
L 960.929127 352.78043 
" clip-path="url(#p77e1d9eb0f)" style="fill: none; stroke: #5cb85c; stroke-linecap: square"/>
   </g>
   <g id="line2d_56">
    <path d="M 454.748451 353.223821 
L 477.756664 353.217997 
L 500.764876 353.187811 
L 523.773089 353.157822 
L 546.781301 353.089665 
L 569.789514 352.870297 
L 592.797726 352.283876 
L 615.805939 351.098378 
L 638.814152 349.1721 
L 661.822364 346.575952 
L 684.830577 343.539464 
L 707.838789 340.310506 
L 730.847002 336.749932 
L 753.855214 332.483299 
L 776.863427 326.599148 
L 799.871639 317.416316 
L 822.879852 300.726149 
L 845.888065 262.243426 
L 868.896277 170.578266 
L 891.90449 106.371733 
L 914.912702 220.518196 
L 937.920915 321.997393 
L 960.929127 352.820124 
" clip-path="url(#p77e1d9eb0f)" style="fill: none; stroke: #5cb85c; stroke-linecap: square"/>
   </g>
   <g id="line2d_57">
    <path d="M 385.723813 353.22388 
L 408.732026 353.22386 
L 431.740239 353.223365 
L 454.748451 353.218473 
L 477.756664 353.149384 
L 500.764876 352.529865 
L 523.773089 351.794611 
L 546.781301 350.919893 
L 569.789514 349.808376 
L 592.797726 348.435717 
L 615.805939 346.794428 
L 638.814152 344.914559 
L 661.822364 342.756157 
L 684.830577 340.298741 
L 707.838789 337.500952 
L 730.847002 333.956065 
L 753.855214 329.308713 
L 776.863427 322.688931 
L 799.871639 312.275778 
L 822.879852 294.008479 
L 845.888065 257.425828 
L 868.896277 183.479755 
L 891.90449 141.14703 
L 914.912702 231.031318 
L 937.920915 319.992201 
L 960.929127 352.797009 
" clip-path="url(#p77e1d9eb0f)" style="fill: none; stroke: #5cb85c; stroke-linecap: square"/>
   </g>
   <g id="line2d_58">
    <path d="M 454.748451 353.223603 
L 477.756664 353.207856 
L 500.764876 353.116365 
L 523.773089 353.037135 
L 546.781301 352.921479 
L 569.789514 352.704151 
L 592.797726 352.252877 
L 615.805939 351.424489 
L 638.814152 350.155007 
L 661.822364 348.490346 
L 684.830577 346.607783 
L 707.838789 344.564521 
L 730.847002 342.362879 
L 753.855214 339.724086 
L 776.863427 336.060195 
L 799.871639 330.410247 
L 822.879852 320.216739 
L 845.888065 297.571628 
L 868.896277 245.874615 
L 891.90449 208.45589 
L 914.912702 260.250119 
L 937.920915 327.29647 
L 960.929127 352.928234 
" clip-path="url(#p77e1d9eb0f)" style="fill: none; stroke: #5cb85c; stroke-linecap: square"/>
   </g>
   <g id="line2d_59">
    <path d="M 431.740239 353.223761 
L 454.748451 353.221186 
L 477.756664 353.164933 
L 500.764876 352.713263 
L 523.773089 352.205023 
L 546.781301 351.619771 
L 569.789514 350.892974 
L 592.797726 350.021168 
L 615.805939 348.980641 
L 638.814152 347.814653 
L 661.822364 346.482144 
L 684.830577 344.956373 
L 707.838789 343.187841 
L 730.847002 341.039045 
L 753.855214 338.201088 
L 776.863427 334.183554 
L 799.871639 327.973035 
L 822.879852 317.05887 
L 845.888065 295.545837 
L 868.896277 253.924834 
L 891.90449 226.788633 
L 914.912702 264.968976 
L 937.920915 325.051727 
L 960.929127 352.861284 
" clip-path="url(#p77e1d9eb0f)" style="fill: none; stroke: #5cb85c; stroke-linecap: square"/>
   </g>
   <g id="line2d_60">
    <path d="M 454.748451 353.223524 
L 477.756664 353.208906 
L 500.764876 353.127695 
L 523.773089 353.05829 
L 546.781301 352.946833 
L 569.789514 352.711559 
L 592.797726 352.170221 
L 615.805939 351.148828 
L 638.814152 349.580332 
L 661.822364 347.532396 
L 684.830577 345.160172 
L 707.838789 342.621268 
L 730.847002 339.905483 
L 753.855214 336.594245 
L 776.863427 332.052506 
L 799.871639 324.973943 
L 822.879852 312.225645 
L 845.888065 283.174317 
L 868.896277 215.708304 
L 891.90449 171.712046 
L 914.912702 256.207767 
L 937.920915 330.290709 
L 960.929127 352.997936 
" clip-path="url(#p77e1d9eb0f)" style="fill: none; stroke: #5cb85c; stroke-linecap: square"/>
   </g>
   <g id="line2d_61">
    <path d="M 316.699176 353.22388 
L 339.707388 353.2239 
L 362.715601 353.2239 
L 385.723813 353.22388 
L 408.732026 353.223801 
L 431.740239 353.223543 
L 454.748451 353.219661 
L 477.756664 353.156356 
L 500.764876 352.604777 
L 523.773089 351.986229 
L 546.781301 351.255392 
L 569.789514 350.360925 
L 592.797726 349.263373 
L 615.805939 347.961743 
L 638.814152 346.488898 
L 661.822364 344.81152 
L 684.830577 342.913626 
L 707.838789 340.703744 
L 730.847002 337.989385 
L 753.855214 334.45769 
L 776.863427 329.36253 
L 799.871639 321.473346 
L 822.879852 307.582175 
L 845.888065 279.836497 
L 868.896277 225.992808 
L 891.90449 196.539705 
L 914.912702 262.995001 
L 937.920915 328.43239 
L 960.929127 352.945644 
" clip-path="url(#p77e1d9eb0f)" style="fill: none; stroke: #5cb85c; stroke-linecap: square"/>
   </g>
   <g id="line2d_62">
    <path d="M 454.748451 353.223801 
L 477.756664 353.21358 
L 500.764876 353.155604 
L 523.773089 353.101331 
L 546.781301 352.999283 
L 569.789514 352.725147 
L 592.797726 352.063795 
L 615.805939 350.723541 
L 638.814152 348.56502 
L 661.822364 345.674077 
L 684.830577 342.294226 
L 707.838789 338.695047 
L 730.847002 334.753257 
L 753.855214 330.049632 
L 776.863427 323.637591 
L 799.871639 313.749059 
L 822.879852 295.917663 
L 845.888065 256.24548 
L 868.896277 168.051226 
L 891.90449 117.341379 
L 914.912702 219.751705 
L 937.920915 318.664683 
L 960.929127 352.857858 
" clip-path="url(#p77e1d9eb0f)" style="fill: none; stroke: #5cb85c; stroke-linecap: square"/>
   </g>
   <g id="line2d_63">
    <path d="M 385.723813 353.22388 
L 408.732026 353.223841 
L 431.740239 353.223405 
L 454.748451 353.217918 
L 477.756664 353.128983 
L 500.764876 352.311151 
L 523.773089 351.410069 
L 546.781301 350.30388 
L 569.789514 348.941699 
L 592.797726 347.316059 
L 615.805939 345.402418 
L 638.814152 343.26101 
L 661.822364 340.877892 
L 684.830577 338.185796 
L 707.838789 335.148754 
L 730.847002 331.454439 
L 753.855214 326.562484 
L 776.863427 319.632279 
L 799.871639 308.865879 
L 822.879852 290.196072 
L 845.888065 253.376781 
L 868.896277 185.716338 
L 891.90449 153.168572 
L 914.912702 229.917345 
L 937.920915 316.278059 
L 960.929127 352.780688 
" clip-path="url(#p77e1d9eb0f)" style="fill: none; stroke: #5cb85c; stroke-linecap: square"/>
   </g>
   <g id="line2d_64">
    <path d="M 454.748451 353.223702 
L 477.756664 353.211322 
L 500.764876 353.14368 
L 523.773089 353.085049 
L 546.781301 352.990092 
L 569.789514 352.777934 
L 592.797726 352.278746 
L 615.805939 351.316161 
L 638.814152 349.80481 
L 661.822364 347.791102 
L 684.830577 345.463306 
L 707.838789 342.986716 
L 730.847002 340.269584 
L 753.855214 337.040052 
L 776.863427 332.560846 
L 799.871639 325.823526 
L 822.879852 313.751257 
L 845.888065 287.526973 
L 868.896277 225.421619 
L 891.90449 170.044929 
L 914.912702 237.522431 
L 937.920915 324.273887 
L 960.929127 352.952656 
" clip-path="url(#p77e1d9eb0f)" style="fill: none; stroke: #5cb85c; stroke-linecap: square"/>
   </g>
   <g id="line2d_65">
    <path d="M 408.732026 353.223841 
L 431.740239 353.223504 
L 454.748451 353.219661 
L 477.756664 353.151088 
L 500.764876 352.570075 
L 523.773089 351.93881 
L 546.781301 351.196485 
L 569.789514 350.293461 
L 592.797726 349.216092 
L 615.805939 347.967864 
L 638.814152 346.562879 
L 661.822364 344.977666 
L 684.830577 343.177403 
L 707.838789 341.073273 
L 730.847002 338.510203 
L 753.855214 335.147743 
L 776.863427 330.328542 
L 799.871639 323.06363 
L 822.879852 310.306834 
L 845.888065 285.136348 
L 868.896277 233.365037 
L 891.90449 192.859552 
L 914.912702 245.91833 
L 937.920915 322.369635 
L 960.929127 352.910229 
" clip-path="url(#p77e1d9eb0f)" style="fill: none; stroke: #5cb85c; stroke-linecap: square"/>
   </g>
   <g id="line2d_66">
    <path d="M 408.732026 353.22388 
L 431.740239 353.22388 
L 454.748451 353.223682 
L 477.756664 353.214214 
L 500.764876 353.157287 
L 523.773089 353.103173 
L 546.781301 353.016397 
L 569.789514 352.85352 
L 592.797726 352.53149 
L 615.805939 351.980366 
L 638.814152 351.153978 
L 661.822364 350.082848 
L 684.830577 348.80059 
L 707.838789 347.41777 
L 730.847002 345.855415 
L 753.855214 343.928146 
L 776.863427 341.254016 
L 799.871639 336.996555 
L 822.879852 329.021406 
L 845.888065 309.782351 
L 868.896277 255.272635 
L 891.90449 187.787329 
L 914.912702 251.073626 
L 937.920915 330.674757 
L 960.929127 352.951151 
" clip-path="url(#p77e1d9eb0f)" style="fill: none; stroke: #5cb85c; stroke-linecap: square"/>
   </g>
   <g id="line2d_67">
    <path d="M 385.723813 353.22388 
L 408.732026 353.223801 
L 431.740239 353.223326 
L 454.748451 353.218809 
L 477.756664 353.16109 
L 500.764876 352.699655 
L 523.773089 352.20738 
L 546.781301 351.716847 
L 569.789514 351.147164 
L 592.797726 350.517504 
L 615.805939 349.838443 
L 638.814152 349.064169 
L 661.822364 348.156689 
L 684.830577 347.160035 
L 707.838789 345.935219 
L 730.847002 344.370467 
L 753.855214 342.275627 
L 776.863427 339.170169 
L 799.871639 334.181079 
L 822.879852 325.206444 
L 845.888065 305.624383 
L 868.896277 257.757168 
L 891.90449 206.637147 
L 914.912702 261.680101 
L 937.920915 330.441028 
L 960.929127 352.966739 
" clip-path="url(#p77e1d9eb0f)" style="fill: none; stroke: #5cb85c; stroke-linecap: square"/>
   </g>
   <g id="line2d_68">
    <path d="M 454.748451 353.223781 
L 477.756664 353.215581 
L 500.764876 353.162972 
L 523.773089 353.113929 
L 546.781301 353.03971 
L 569.789514 352.882993 
L 592.797726 352.591486 
L 615.805939 352.038343 
L 638.814152 351.180441 
L 661.822364 350.011581 
L 684.830577 348.630246 
L 707.838789 347.06894 
L 730.847002 345.233163 
L 753.855214 343.035026 
L 776.863427 339.928083 
L 799.871639 335.043199 
L 822.879852 325.863795 
L 845.888065 303.809819 
L 868.896277 244.087306 
L 891.90449 183.500494 
L 914.912702 257.197408 
L 937.920915 329.698465 
L 960.929127 352.858075 
" clip-path="url(#p77e1d9eb0f)" style="fill: none; stroke: #5cb85c; stroke-linecap: square"/>
   </g>
   <g id="line2d_69">
    <path d="M 408.732026 353.223821 
L 431.740239 353.223385 
L 454.748451 353.219384 
L 477.756664 353.163685 
L 500.764876 352.71566 
L 523.773089 352.242023 
L 546.781301 351.702744 
L 569.789514 351.05494 
L 592.797726 350.332977 
L 615.805939 349.473193 
L 638.814152 348.532971 
L 661.822364 347.481927 
L 684.830577 346.26236 
L 707.838789 344.789693 
L 730.847002 343.022191 
L 753.855214 340.603538 
L 776.863427 337.128492 
L 799.871639 331.538839 
L 822.879852 321.449319 
L 845.888065 299.650088 
L 868.896277 249.573624 
L 891.90449 206.910173 
L 914.912702 267.69825 
L 937.920915 329.015681 
L 960.929127 352.853678 
" clip-path="url(#p77e1d9eb0f)" style="fill: none; stroke: #5cb85c; stroke-linecap: square"/>
   </g>
   <g id="line2d_70">
    <path d="M 40.600625 353.2239 
L 993.140625 353.2239 
" clip-path="url(#p77e1d9eb0f)" style="fill: none; stroke: #dedede; stroke-width: 2; stroke-linecap: square"/>
   </g>
   <g id="text_22">
    <!-- FastQC: Per Sequence Quality Scores -->
    <g transform="translate(368.678125 19.3575) scale(0.16 -0.16)">
     <defs>
      <path id="DejaVuSans-46" d="M 628 4666 
L 3309 4666 
L 3309 4134 
L 1259 4134 
L 1259 2759 
L 3109 2759 
L 3109 2228 
L 1259 2228 
L 1259 0 
L 628 0 
L 628 4666 
z
" transform="scale(0.015625)"/>
      <path id="DejaVuSans-73" d="M 2834 3397 
L 2834 2853 
Q 2591 2978 2328 3040 
Q 2066 3103 1784 3103 
Q 1356 3103 1142 2972 
Q 928 2841 928 2578 
Q 928 2378 1081 2264 
Q 1234 2150 1697 2047 
L 1894 2003 
Q 2506 1872 2764 1633 
Q 3022 1394 3022 966 
Q 3022 478 2636 193 
Q 2250 -91 1575 -91 
Q 1294 -91 989 -36 
Q 684 19 347 128 
L 347 722 
Q 666 556 975 473 
Q 1284 391 1588 391 
Q 1994 391 2212 530 
Q 2431 669 2431 922 
Q 2431 1156 2273 1281 
Q 2116 1406 1581 1522 
L 1381 1569 
Q 847 1681 609 1914 
Q 372 2147 372 2553 
Q 372 3047 722 3315 
Q 1072 3584 1716 3584 
Q 2034 3584 2315 3537 
Q 2597 3491 2834 3397 
z
" transform="scale(0.015625)"/>
      <path id="DejaVuSans-3a" d="M 750 794 
L 1409 794 
L 1409 0 
L 750 0 
L 750 794 
z
M 750 3309 
L 1409 3309 
L 1409 2516 
L 750 2516 
L 750 3309 
z
" transform="scale(0.015625)"/>
     </defs>
     <use xlink:href="#DejaVuSans-46"/>
     <use xlink:href="#DejaVuSans-61" x="48.394531"/>
     <use xlink:href="#DejaVuSans-73" x="109.673828"/>
     <use xlink:href="#DejaVuSans-74" x="161.773438"/>
     <use xlink:href="#DejaVuSans-51" x="200.982422"/>
     <use xlink:href="#DejaVuSans-43" x="279.693359"/>
     <use xlink:href="#DejaVuSans-3a" x="349.517578"/>
     <use xlink:href="#DejaVuSans-20" x="383.208984"/>
     <use xlink:href="#DejaVuSans-50" x="414.996094"/>
     <use xlink:href="#DejaVuSans-65" x="471.673828"/>
     <use xlink:href="#DejaVuSans-72" x="533.197266"/>
     <use xlink:href="#DejaVuSans-20" x="574.310547"/>
     <use xlink:href="#DejaVuSans-53" x="606.097656"/>
     <use xlink:href="#DejaVuSans-65" x="669.574219"/>
     <use xlink:href="#DejaVuSans-71" x="731.097656"/>
     <use xlink:href="#DejaVuSans-75" x="794.574219"/>
     <use xlink:href="#DejaVuSans-65" x="857.953125"/>
     <use xlink:href="#DejaVuSans-6e" x="919.476562"/>
     <use xlink:href="#DejaVuSans-63" x="982.855469"/>
     <use xlink:href="#DejaVuSans-65" x="1037.835938"/>
     <use xlink:href="#DejaVuSans-20" x="1099.359375"/>
     <use xlink:href="#DejaVuSans-51" x="1131.146484"/>
     <use xlink:href="#DejaVuSans-75" x="1209.857422"/>
     <use xlink:href="#DejaVuSans-61" x="1273.236328"/>
     <use xlink:href="#DejaVuSans-6c" x="1334.515625"/>
     <use xlink:href="#DejaVuSans-69" x="1362.298828"/>
     <use xlink:href="#DejaVuSans-74" x="1390.082031"/>
     <use xlink:href="#DejaVuSans-79" x="1429.291016"/>
     <use xlink:href="#DejaVuSans-20" x="1488.470703"/>
     <use xlink:href="#DejaVuSans-53" x="1520.257812"/>
     <use xlink:href="#DejaVuSans-63" x="1583.734375"/>
     <use xlink:href="#DejaVuSans-6f" x="1638.714844"/>
     <use xlink:href="#DejaVuSans-72" x="1699.896484"/>
     <use xlink:href="#DejaVuSans-65" x="1738.759766"/>
     <use xlink:href="#DejaVuSans-73" x="1800.283203"/>
    </g>
   </g>
  </g>
 </g>
 <defs>
  <clipPath id="p77e1d9eb0f">
   <rect x="40.600625" y="35.2559" width="952.54" height="317.968"/>
  </clipPath>
 </defs>
</svg>
