<?xml version="1.0" encoding="utf-8" standalone="no"?>
<!DOCTYPE svg PUBLIC "-//W3C//DTD SVG 1.1//EN"
  "http://www.w3.org/Graphics/SVG/1.1/DTD/svg11.dtd">
<svg xmlns:xlink="http://www.w3.org/1999/xlink" width="1000.278125pt" height="388.844525pt" viewBox="0 0 1000.278125 388.844525" xmlns="http://www.w3.org/2000/svg" version="1.1">
 <metadata>
  <rdf:RDF xmlns:dc="http://purl.org/dc/elements/1.1/" xmlns:cc="http://creativecommons.org/ns#" xmlns:rdf="http://www.w3.org/1999/02/22-rdf-syntax-ns#">
   <cc:Work>
    <dc:type rdf:resource="http://purl.org/dc/dcmitype/StillImage"/>
    <dc:date>2024-10-04T22:02:26.132494</dc:date>
    <dc:format>image/svg+xml</dc:format>
    <dc:creator>
     <cc:Agent>
      <dc:title>Matplotlib v3.8.1, https://matplotlib.org/</dc:title>
     </cc:Agent>
    </dc:creator>
   </cc:Work>
  </rdf:RDF>
 </metadata>
 <defs>
  <style type="text/css">*{stroke-linejoin: round; stroke-linecap: butt}</style>
 </defs>
 <g id="figure_1">
  <g id="axes_1">
   <g id="patch_1">
    <path d="M 43.148125 353.2239 
L 993.078125 353.2239 
L 993.078125 35.2559 
L 43.148125 35.2559 
z
" style="fill: #ffffff"/>
   </g>
   <g id="matplotlib.axis_1">
    <g id="xtick_1">
     <g id="text_1">
      <!-- 1.0 -->
      <g transform="translate(79.965511 366.30265) scale(0.08 -0.08)">
       <defs>
        <path id="DejaVuSans-31" d="M 794 531 
L 1825 531 
L 1825 4091 
L 703 3866 
L 703 4441 
L 1819 4666 
L 2450 4666 
L 2450 531 
L 3481 531 
L 3481 0 
L 794 0 
L 794 531 
z
" transform="scale(0.015625)"/>
        <path id="DejaVuSans-2e" d="M 684 794 
L 1344 794 
L 1344 0 
L 684 0 
L 684 794 
z
" transform="scale(0.015625)"/>
        <path id="DejaVuSans-30" d="M 2034 4250 
Q 1547 4250 1301 3770 
Q 1056 3291 1056 2328 
Q 1056 1369 1301 889 
Q 1547 409 2034 409 
Q 2525 409 2770 889 
Q 3016 1369 3016 2328 
Q 3016 3291 2770 3770 
Q 2525 4250 2034 4250 
z
M 2034 4750 
Q 2819 4750 3233 4129 
Q 3647 3509 3647 2328 
Q 3647 1150 3233 529 
Q 2819 -91 2034 -91 
Q 1250 -91 836 529 
Q 422 1150 422 2328 
Q 422 3509 836 4129 
Q 1250 4750 2034 4750 
z
" transform="scale(0.015625)"/>
       </defs>
       <use xlink:href="#DejaVuSans-31"/>
       <use xlink:href="#DejaVuSans-2e" x="63.623047"/>
       <use xlink:href="#DejaVuSans-30" x="95.410156"/>
      </g>
     </g>
    </g>
    <g id="xtick_2">
     <g id="text_2">
      <!-- 2.0 -->
      <g transform="translate(137.537027 366.30265) scale(0.08 -0.08)">
       <defs>
        <path id="DejaVuSans-32" d="M 1228 531 
L 3431 531 
L 3431 0 
L 469 0 
L 469 531 
Q 828 903 1448 1529 
Q 2069 2156 2228 2338 
Q 2531 2678 2651 2914 
Q 2772 3150 2772 3378 
Q 2772 3750 2511 3984 
Q 2250 4219 1831 4219 
Q 1534 4219 1204 4116 
Q 875 4013 500 3803 
L 500 4441 
Q 881 4594 1212 4672 
Q 1544 4750 1819 4750 
Q 2544 4750 2975 4387 
Q 3406 4025 3406 3419 
Q 3406 3131 3298 2873 
Q 3191 2616 2906 2266 
Q 2828 2175 2409 1742 
Q 1991 1309 1228 531 
z
" transform="scale(0.015625)"/>
       </defs>
       <use xlink:href="#DejaVuSans-32"/>
       <use xlink:href="#DejaVuSans-2e" x="63.623047"/>
       <use xlink:href="#DejaVuSans-30" x="95.410156"/>
      </g>
     </g>
    </g>
    <g id="xtick_3">
     <g id="text_3">
      <!-- 3.0 -->
      <g transform="translate(195.108542 366.30265) scale(0.08 -0.08)">
       <defs>
        <path id="DejaVuSans-33" d="M 2597 2516 
Q 3050 2419 3304 2112 
Q 3559 1806 3559 1356 
Q 3559 666 3084 287 
Q 2609 -91 1734 -91 
Q 1441 -91 1130 -33 
Q 819 25 488 141 
L 488 750 
Q 750 597 1062 519 
Q 1375 441 1716 441 
Q 2309 441 2620 675 
Q 2931 909 2931 1356 
Q 2931 1769 2642 2001 
Q 2353 2234 1838 2234 
L 1294 2234 
L 1294 2753 
L 1863 2753 
Q 2328 2753 2575 2939 
Q 2822 3125 2822 3475 
Q 2822 3834 2567 4026 
Q 2313 4219 1838 4219 
Q 1578 4219 1281 4162 
Q 984 4106 628 3988 
L 628 4550 
Q 988 4650 1302 4700 
Q 1616 4750 1894 4750 
Q 2613 4750 3031 4423 
Q 3450 4097 3450 3541 
Q 3450 3153 3228 2886 
Q 3006 2619 2597 2516 
z
" transform="scale(0.015625)"/>
       </defs>
       <use xlink:href="#DejaVuSans-33"/>
       <use xlink:href="#DejaVuSans-2e" x="63.623047"/>
       <use xlink:href="#DejaVuSans-30" x="95.410156"/>
      </g>
     </g>
    </g>
    <g id="xtick_4">
     <g id="text_4">
      <!-- 4.0 -->
      <g transform="translate(252.680057 366.30265) scale(0.08 -0.08)">
       <defs>
        <path id="DejaVuSans-34" d="M 2419 4116 
L 825 1625 
L 2419 1625 
L 2419 4116 
z
M 2253 4666 
L 3047 4666 
L 3047 1625 
L 3713 1625 
L 3713 1100 
L 3047 1100 
L 3047 0 
L 2419 0 
L 2419 1100 
L 313 1100 
L 313 1709 
L 2253 4666 
z
" transform="scale(0.015625)"/>
       </defs>
       <use xlink:href="#DejaVuSans-34"/>
       <use xlink:href="#DejaVuSans-2e" x="63.623047"/>
       <use xlink:href="#DejaVuSans-30" x="95.410156"/>
      </g>
     </g>
    </g>
    <g id="xtick_5">
     <g id="text_5">
      <!-- 5.0 -->
      <g transform="translate(310.251572 366.30265) scale(0.08 -0.08)">
       <defs>
        <path id="DejaVuSans-35" d="M 691 4666 
L 3169 4666 
L 3169 4134 
L 1269 4134 
L 1269 2991 
Q 1406 3038 1543 3061 
Q 1681 3084 1819 3084 
Q 2600 3084 3056 2656 
Q 3513 2228 3513 1497 
Q 3513 744 3044 326 
Q 2575 -91 1722 -91 
Q 1428 -91 1123 -41 
Q 819 9 494 109 
L 494 744 
Q 775 591 1075 516 
Q 1375 441 1709 441 
Q 2250 441 2565 725 
Q 2881 1009 2881 1497 
Q 2881 1984 2565 2268 
Q 2250 2553 1709 2553 
Q 1456 2553 1204 2497 
Q 953 2441 691 2322 
L 691 4666 
z
" transform="scale(0.015625)"/>
       </defs>
       <use xlink:href="#DejaVuSans-35"/>
       <use xlink:href="#DejaVuSans-2e" x="63.623047"/>
       <use xlink:href="#DejaVuSans-30" x="95.410156"/>
      </g>
     </g>
    </g>
    <g id="xtick_6">
     <g id="text_6">
      <!-- 6.0 -->
      <g transform="translate(367.823087 366.30265) scale(0.08 -0.08)">
       <defs>
        <path id="DejaVuSans-36" d="M 2113 2584 
Q 1688 2584 1439 2293 
Q 1191 2003 1191 1497 
Q 1191 994 1439 701 
Q 1688 409 2113 409 
Q 2538 409 2786 701 
Q 3034 994 3034 1497 
Q 3034 2003 2786 2293 
Q 2538 2584 2113 2584 
z
M 3366 4563 
L 3366 3988 
Q 3128 4100 2886 4159 
Q 2644 4219 2406 4219 
Q 1781 4219 1451 3797 
Q 1122 3375 1075 2522 
Q 1259 2794 1537 2939 
Q 1816 3084 2150 3084 
Q 2853 3084 3261 2657 
Q 3669 2231 3669 1497 
Q 3669 778 3244 343 
Q 2819 -91 2113 -91 
Q 1303 -91 875 529 
Q 447 1150 447 2328 
Q 447 3434 972 4092 
Q 1497 4750 2381 4750 
Q 2619 4750 2861 4703 
Q 3103 4656 3366 4563 
z
" transform="scale(0.015625)"/>
       </defs>
       <use xlink:href="#DejaVuSans-36"/>
       <use xlink:href="#DejaVuSans-2e" x="63.623047"/>
       <use xlink:href="#DejaVuSans-30" x="95.410156"/>
      </g>
     </g>
    </g>
    <g id="xtick_7">
     <g id="text_7">
      <!-- 7.0 -->
      <g transform="translate(425.394602 366.30265) scale(0.08 -0.08)">
       <defs>
        <path id="DejaVuSans-37" d="M 525 4666 
L 3525 4666 
L 3525 4397 
L 1831 0 
L 1172 0 
L 2766 4134 
L 525 4134 
L 525 4666 
z
" transform="scale(0.015625)"/>
       </defs>
       <use xlink:href="#DejaVuSans-37"/>
       <use xlink:href="#DejaVuSans-2e" x="63.623047"/>
       <use xlink:href="#DejaVuSans-30" x="95.410156"/>
      </g>
     </g>
    </g>
    <g id="xtick_8">
     <g id="text_8">
      <!-- 8.0 -->
      <g transform="translate(482.966117 366.30265) scale(0.08 -0.08)">
       <defs>
        <path id="DejaVuSans-38" d="M 2034 2216 
Q 1584 2216 1326 1975 
Q 1069 1734 1069 1313 
Q 1069 891 1326 650 
Q 1584 409 2034 409 
Q 2484 409 2743 651 
Q 3003 894 3003 1313 
Q 3003 1734 2745 1975 
Q 2488 2216 2034 2216 
z
M 1403 2484 
Q 997 2584 770 2862 
Q 544 3141 544 3541 
Q 544 4100 942 4425 
Q 1341 4750 2034 4750 
Q 2731 4750 3128 4425 
Q 3525 4100 3525 3541 
Q 3525 3141 3298 2862 
Q 3072 2584 2669 2484 
Q 3125 2378 3379 2068 
Q 3634 1759 3634 1313 
Q 3634 634 3220 271 
Q 2806 -91 2034 -91 
Q 1263 -91 848 271 
Q 434 634 434 1313 
Q 434 1759 690 2068 
Q 947 2378 1403 2484 
z
M 1172 3481 
Q 1172 3119 1398 2916 
Q 1625 2713 2034 2713 
Q 2441 2713 2670 2916 
Q 2900 3119 2900 3481 
Q 2900 3844 2670 4047 
Q 2441 4250 2034 4250 
Q 1625 4250 1398 4047 
Q 1172 3844 1172 3481 
z
" transform="scale(0.015625)"/>
       </defs>
       <use xlink:href="#DejaVuSans-38"/>
       <use xlink:href="#DejaVuSans-2e" x="63.623047"/>
       <use xlink:href="#DejaVuSans-30" x="95.410156"/>
      </g>
     </g>
    </g>
    <g id="xtick_9">
     <g id="text_9">
      <!-- 9.0 -->
      <g transform="translate(540.537633 366.30265) scale(0.08 -0.08)">
       <defs>
        <path id="DejaVuSans-39" d="M 703 97 
L 703 672 
Q 941 559 1184 500 
Q 1428 441 1663 441 
Q 2288 441 2617 861 
Q 2947 1281 2994 2138 
Q 2813 1869 2534 1725 
Q 2256 1581 1919 1581 
Q 1219 1581 811 2004 
Q 403 2428 403 3163 
Q 403 3881 828 4315 
Q 1253 4750 1959 4750 
Q 2769 4750 3195 4129 
Q 3622 3509 3622 2328 
Q 3622 1225 3098 567 
Q 2575 -91 1691 -91 
Q 1453 -91 1209 -44 
Q 966 3 703 97 
z
M 1959 2075 
Q 2384 2075 2632 2365 
Q 2881 2656 2881 3163 
Q 2881 3666 2632 3958 
Q 2384 4250 1959 4250 
Q 1534 4250 1286 3958 
Q 1038 3666 1038 3163 
Q 1038 2656 1286 2365 
Q 1534 2075 1959 2075 
z
" transform="scale(0.015625)"/>
       </defs>
       <use xlink:href="#DejaVuSans-39"/>
       <use xlink:href="#DejaVuSans-2e" x="63.623047"/>
       <use xlink:href="#DejaVuSans-30" x="95.410156"/>
      </g>
     </g>
    </g>
    <g id="xtick_10">
     <g id="text_10">
      <!-- &gt;10 -->
      <g transform="translate(596.028523 366.30265) scale(0.08 -0.08)">
       <defs>
        <path id="DejaVuSans-3e" d="M 678 3150 
L 678 3719 
L 4684 2266 
L 4684 1747 
L 678 294 
L 678 863 
L 3897 2003 
L 678 3150 
z
" transform="scale(0.015625)"/>
       </defs>
       <use xlink:href="#DejaVuSans-3e"/>
       <use xlink:href="#DejaVuSans-31" x="83.789062"/>
       <use xlink:href="#DejaVuSans-30" x="147.412109"/>
      </g>
     </g>
    </g>
    <g id="xtick_11">
     <g id="text_11">
      <!-- &gt;50 -->
      <g transform="translate(653.600038 366.30265) scale(0.08 -0.08)">
       <use xlink:href="#DejaVuSans-3e"/>
       <use xlink:href="#DejaVuSans-35" x="83.789062"/>
       <use xlink:href="#DejaVuSans-30" x="147.412109"/>
      </g>
     </g>
    </g>
    <g id="xtick_12">
     <g id="text_12">
      <!-- &gt;100 -->
      <g transform="translate(708.626553 366.30265) scale(0.08 -0.08)">
       <use xlink:href="#DejaVuSans-3e"/>
       <use xlink:href="#DejaVuSans-31" x="83.789062"/>
       <use xlink:href="#DejaVuSans-30" x="147.412109"/>
       <use xlink:href="#DejaVuSans-30" x="211.035156"/>
      </g>
     </g>
    </g>
    <g id="xtick_13">
     <g id="text_13">
      <!-- &gt;500 -->
      <g transform="translate(766.198068 366.30265) scale(0.08 -0.08)">
       <use xlink:href="#DejaVuSans-3e"/>
       <use xlink:href="#DejaVuSans-35" x="83.789062"/>
       <use xlink:href="#DejaVuSans-30" x="147.412109"/>
       <use xlink:href="#DejaVuSans-30" x="211.035156"/>
      </g>
     </g>
    </g>
    <g id="xtick_14">
     <g id="text_14">
      <!-- &gt;1k -->
      <g transform="translate(826.543333 366.30265) scale(0.08 -0.08)">
       <defs>
        <path id="DejaVuSans-6b" d="M 581 4863 
L 1159 4863 
L 1159 1991 
L 2875 3500 
L 3609 3500 
L 1753 1863 
L 3688 0 
L 2938 0 
L 1159 1709 
L 1159 0 
L 581 0 
L 581 4863 
z
" transform="scale(0.015625)"/>
       </defs>
       <use xlink:href="#DejaVuSans-3e"/>
       <use xlink:href="#DejaVuSans-31" x="83.789062"/>
       <use xlink:href="#DejaVuSans-6b" x="147.412109"/>
      </g>
     </g>
    </g>
    <g id="xtick_15">
     <g id="text_15">
      <!-- &gt;5k -->
      <g transform="translate(884.114848 366.30265) scale(0.08 -0.08)">
       <use xlink:href="#DejaVuSans-3e"/>
       <use xlink:href="#DejaVuSans-35" x="83.789062"/>
       <use xlink:href="#DejaVuSans-6b" x="147.412109"/>
      </g>
     </g>
    </g>
    <g id="xtick_16">
     <g id="text_16">
      <!-- &gt;10k+ -->
      <g transform="translate(935.789489 366.30265) scale(0.08 -0.08)">
       <defs>
        <path id="DejaVuSans-2b" d="M 2944 4013 
L 2944 2272 
L 4684 2272 
L 4684 1741 
L 2944 1741 
L 2944 0 
L 2419 0 
L 2419 1741 
L 678 1741 
L 678 2272 
L 2419 2272 
L 2419 4013 
L 2944 4013 
z
" transform="scale(0.015625)"/>
       </defs>
       <use xlink:href="#DejaVuSans-3e"/>
       <use xlink:href="#DejaVuSans-31" x="83.789062"/>
       <use xlink:href="#DejaVuSans-30" x="147.412109"/>
       <use xlink:href="#DejaVuSans-6b" x="211.035156"/>
       <use xlink:href="#DejaVuSans-2b" x="268.945312"/>
      </g>
     </g>
    </g>
    <g id="text_17">
     <!-- Sequence Duplication Level -->
     <g transform="translate(448.708437 379.564837) scale(0.1 -0.1)">
      <defs>
       <path id="DejaVuSans-53" d="M 3425 4513 
L 3425 3897 
Q 3066 4069 2747 4153 
Q 2428 4238 2131 4238 
Q 1616 4238 1336 4038 
Q 1056 3838 1056 3469 
Q 1056 3159 1242 3001 
Q 1428 2844 1947 2747 
L 2328 2669 
Q 3034 2534 3370 2195 
Q 3706 1856 3706 1288 
Q 3706 609 3251 259 
Q 2797 -91 1919 -91 
Q 1588 -91 1214 -16 
Q 841 59 441 206 
L 441 856 
Q 825 641 1194 531 
Q 1563 422 1919 422 
Q 2459 422 2753 634 
Q 3047 847 3047 1241 
Q 3047 1584 2836 1778 
Q 2625 1972 2144 2069 
L 1759 2144 
Q 1053 2284 737 2584 
Q 422 2884 422 3419 
Q 422 4038 858 4394 
Q 1294 4750 2059 4750 
Q 2388 4750 2728 4690 
Q 3069 4631 3425 4513 
z
" transform="scale(0.015625)"/>
       <path id="DejaVuSans-65" d="M 3597 1894 
L 3597 1613 
L 953 1613 
Q 991 1019 1311 708 
Q 1631 397 2203 397 
Q 2534 397 2845 478 
Q 3156 559 3463 722 
L 3463 178 
Q 3153 47 2828 -22 
Q 2503 -91 2169 -91 
Q 1331 -91 842 396 
Q 353 884 353 1716 
Q 353 2575 817 3079 
Q 1281 3584 2069 3584 
Q 2775 3584 3186 3129 
Q 3597 2675 3597 1894 
z
M 3022 2063 
Q 3016 2534 2758 2815 
Q 2500 3097 2075 3097 
Q 1594 3097 1305 2825 
Q 1016 2553 972 2059 
L 3022 2063 
z
" transform="scale(0.015625)"/>
       <path id="DejaVuSans-71" d="M 947 1747 
Q 947 1113 1208 752 
Q 1469 391 1925 391 
Q 2381 391 2643 752 
Q 2906 1113 2906 1747 
Q 2906 2381 2643 2742 
Q 2381 3103 1925 3103 
Q 1469 3103 1208 2742 
Q 947 2381 947 1747 
z
M 2906 525 
Q 2725 213 2448 61 
Q 2172 -91 1784 -91 
Q 1150 -91 751 415 
Q 353 922 353 1747 
Q 353 2572 751 3078 
Q 1150 3584 1784 3584 
Q 2172 3584 2448 3432 
Q 2725 3281 2906 2969 
L 2906 3500 
L 3481 3500 
L 3481 -1331 
L 2906 -1331 
L 2906 525 
z
" transform="scale(0.015625)"/>
       <path id="DejaVuSans-75" d="M 544 1381 
L 544 3500 
L 1119 3500 
L 1119 1403 
Q 1119 906 1312 657 
Q 1506 409 1894 409 
Q 2359 409 2629 706 
Q 2900 1003 2900 1516 
L 2900 3500 
L 3475 3500 
L 3475 0 
L 2900 0 
L 2900 538 
Q 2691 219 2414 64 
Q 2138 -91 1772 -91 
Q 1169 -91 856 284 
Q 544 659 544 1381 
z
M 1991 3584 
L 1991 3584 
z
" transform="scale(0.015625)"/>
       <path id="DejaVuSans-6e" d="M 3513 2113 
L 3513 0 
L 2938 0 
L 2938 2094 
Q 2938 2591 2744 2837 
Q 2550 3084 2163 3084 
Q 1697 3084 1428 2787 
Q 1159 2491 1159 1978 
L 1159 0 
L 581 0 
L 581 3500 
L 1159 3500 
L 1159 2956 
Q 1366 3272 1645 3428 
Q 1925 3584 2291 3584 
Q 2894 3584 3203 3211 
Q 3513 2838 3513 2113 
z
" transform="scale(0.015625)"/>
       <path id="DejaVuSans-63" d="M 3122 3366 
L 3122 2828 
Q 2878 2963 2633 3030 
Q 2388 3097 2138 3097 
Q 1578 3097 1268 2742 
Q 959 2388 959 1747 
Q 959 1106 1268 751 
Q 1578 397 2138 397 
Q 2388 397 2633 464 
Q 2878 531 3122 666 
L 3122 134 
Q 2881 22 2623 -34 
Q 2366 -91 2075 -91 
Q 1284 -91 818 406 
Q 353 903 353 1747 
Q 353 2603 823 3093 
Q 1294 3584 2113 3584 
Q 2378 3584 2631 3529 
Q 2884 3475 3122 3366 
z
" transform="scale(0.015625)"/>
       <path id="DejaVuSans-20" transform="scale(0.015625)"/>
       <path id="DejaVuSans-44" d="M 1259 4147 
L 1259 519 
L 2022 519 
Q 2988 519 3436 956 
Q 3884 1394 3884 2338 
Q 3884 3275 3436 3711 
Q 2988 4147 2022 4147 
L 1259 4147 
z
M 628 4666 
L 1925 4666 
Q 3281 4666 3915 4102 
Q 4550 3538 4550 2338 
Q 4550 1131 3912 565 
Q 3275 0 1925 0 
L 628 0 
L 628 4666 
z
" transform="scale(0.015625)"/>
       <path id="DejaVuSans-70" d="M 1159 525 
L 1159 -1331 
L 581 -1331 
L 581 3500 
L 1159 3500 
L 1159 2969 
Q 1341 3281 1617 3432 
Q 1894 3584 2278 3584 
Q 2916 3584 3314 3078 
Q 3713 2572 3713 1747 
Q 3713 922 3314 415 
Q 2916 -91 2278 -91 
Q 1894 -91 1617 61 
Q 1341 213 1159 525 
z
M 3116 1747 
Q 3116 2381 2855 2742 
Q 2594 3103 2138 3103 
Q 1681 3103 1420 2742 
Q 1159 2381 1159 1747 
Q 1159 1113 1420 752 
Q 1681 391 2138 391 
Q 2594 391 2855 752 
Q 3116 1113 3116 1747 
z
" transform="scale(0.015625)"/>
       <path id="DejaVuSans-6c" d="M 603 4863 
L 1178 4863 
L 1178 0 
L 603 0 
L 603 4863 
z
" transform="scale(0.015625)"/>
       <path id="DejaVuSans-69" d="M 603 3500 
L 1178 3500 
L 1178 0 
L 603 0 
L 603 3500 
z
M 603 4863 
L 1178 4863 
L 1178 4134 
L 603 4134 
L 603 4863 
z
" transform="scale(0.015625)"/>
       <path id="DejaVuSans-61" d="M 2194 1759 
Q 1497 1759 1228 1600 
Q 959 1441 959 1056 
Q 959 750 1161 570 
Q 1363 391 1709 391 
Q 2188 391 2477 730 
Q 2766 1069 2766 1631 
L 2766 1759 
L 2194 1759 
z
M 3341 1997 
L 3341 0 
L 2766 0 
L 2766 531 
Q 2569 213 2275 61 
Q 1981 -91 1556 -91 
Q 1019 -91 701 211 
Q 384 513 384 1019 
Q 384 1609 779 1909 
Q 1175 2209 1959 2209 
L 2766 2209 
L 2766 2266 
Q 2766 2663 2505 2880 
Q 2244 3097 1772 3097 
Q 1472 3097 1187 3025 
Q 903 2953 641 2809 
L 641 3341 
Q 956 3463 1253 3523 
Q 1550 3584 1831 3584 
Q 2591 3584 2966 3190 
Q 3341 2797 3341 1997 
z
" transform="scale(0.015625)"/>
       <path id="DejaVuSans-74" d="M 1172 4494 
L 1172 3500 
L 2356 3500 
L 2356 3053 
L 1172 3053 
L 1172 1153 
Q 1172 725 1289 603 
Q 1406 481 1766 481 
L 2356 481 
L 2356 0 
L 1766 0 
Q 1100 0 847 248 
Q 594 497 594 1153 
L 594 3053 
L 172 3053 
L 172 3500 
L 594 3500 
L 594 4494 
L 1172 4494 
z
" transform="scale(0.015625)"/>
       <path id="DejaVuSans-6f" d="M 1959 3097 
Q 1497 3097 1228 2736 
Q 959 2375 959 1747 
Q 959 1119 1226 758 
Q 1494 397 1959 397 
Q 2419 397 2687 759 
Q 2956 1122 2956 1747 
Q 2956 2369 2687 2733 
Q 2419 3097 1959 3097 
z
M 1959 3584 
Q 2709 3584 3137 3096 
Q 3566 2609 3566 1747 
Q 3566 888 3137 398 
Q 2709 -91 1959 -91 
Q 1206 -91 779 398 
Q 353 888 353 1747 
Q 353 2609 779 3096 
Q 1206 3584 1959 3584 
z
" transform="scale(0.015625)"/>
       <path id="DejaVuSans-4c" d="M 628 4666 
L 1259 4666 
L 1259 531 
L 3531 531 
L 3531 0 
L 628 0 
L 628 4666 
z
" transform="scale(0.015625)"/>
       <path id="DejaVuSans-76" d="M 191 3500 
L 800 3500 
L 1894 563 
L 2988 3500 
L 3597 3500 
L 2284 0 
L 1503 0 
L 191 3500 
z
" transform="scale(0.015625)"/>
      </defs>
      <use xlink:href="#DejaVuSans-53"/>
      <use xlink:href="#DejaVuSans-65" x="63.476562"/>
      <use xlink:href="#DejaVuSans-71" x="125"/>
      <use xlink:href="#DejaVuSans-75" x="188.476562"/>
      <use xlink:href="#DejaVuSans-65" x="251.855469"/>
      <use xlink:href="#DejaVuSans-6e" x="313.378906"/>
      <use xlink:href="#DejaVuSans-63" x="376.757812"/>
      <use xlink:href="#DejaVuSans-65" x="431.738281"/>
      <use xlink:href="#DejaVuSans-20" x="493.261719"/>
      <use xlink:href="#DejaVuSans-44" x="525.048828"/>
      <use xlink:href="#DejaVuSans-75" x="602.050781"/>
      <use xlink:href="#DejaVuSans-70" x="665.429688"/>
      <use xlink:href="#DejaVuSans-6c" x="728.90625"/>
      <use xlink:href="#DejaVuSans-69" x="756.689453"/>
      <use xlink:href="#DejaVuSans-63" x="784.472656"/>
      <use xlink:href="#DejaVuSans-61" x="839.453125"/>
      <use xlink:href="#DejaVuSans-74" x="900.732422"/>
      <use xlink:href="#DejaVuSans-69" x="939.941406"/>
      <use xlink:href="#DejaVuSans-6f" x="967.724609"/>
      <use xlink:href="#DejaVuSans-6e" x="1028.90625"/>
      <use xlink:href="#DejaVuSans-20" x="1092.285156"/>
      <use xlink:href="#DejaVuSans-4c" x="1124.072266"/>
      <use xlink:href="#DejaVuSans-65" x="1178.035156"/>
      <use xlink:href="#DejaVuSans-76" x="1239.558594"/>
      <use xlink:href="#DejaVuSans-65" x="1298.738281"/>
      <use xlink:href="#DejaVuSans-6c" x="1360.261719"/>
     </g>
    </g>
   </g>
   <g id="matplotlib.axis_2">
    <g id="ytick_1">
     <g id="line2d_1">
      <path d="M 43.148125 353.2239 
L 993.078125 353.2239 
" clip-path="url(#pfed155c744)" style="fill: none; stroke: #dedede; stroke-linecap: square"/>
     </g>
     <g id="text_18">
      <!-- 0 -->
      <g transform="translate(31.058125 356.263275) scale(0.08 -0.08)">
       <use xlink:href="#DejaVuSans-30"/>
      </g>
     </g>
    </g>
    <g id="ytick_2">
     <g id="line2d_2">
      <path d="M 43.148125 289.6303 
L 993.078125 289.6303 
" clip-path="url(#pfed155c744)" style="fill: none; stroke: #dedede; stroke-linecap: square"/>
     </g>
     <g id="text_19">
      <!-- 20 -->
      <g transform="translate(25.968125 292.669675) scale(0.08 -0.08)">
       <use xlink:href="#DejaVuSans-32"/>
       <use xlink:href="#DejaVuSans-30" x="63.623047"/>
      </g>
     </g>
    </g>
    <g id="ytick_3">
     <g id="line2d_3">
      <path d="M 43.148125 226.0367 
L 993.078125 226.0367 
" clip-path="url(#pfed155c744)" style="fill: none; stroke: #dedede; stroke-linecap: square"/>
     </g>
     <g id="text_20">
      <!-- 40 -->
      <g transform="translate(25.968125 229.076075) scale(0.08 -0.08)">
       <use xlink:href="#DejaVuSans-34"/>
       <use xlink:href="#DejaVuSans-30" x="63.623047"/>
      </g>
     </g>
    </g>
    <g id="ytick_4">
     <g id="line2d_4">
      <path d="M 43.148125 162.4431 
L 993.078125 162.4431 
" clip-path="url(#pfed155c744)" style="fill: none; stroke: #dedede; stroke-linecap: square"/>
     </g>
     <g id="text_21">
      <!-- 60 -->
      <g transform="translate(25.968125 165.482475) scale(0.08 -0.08)">
       <use xlink:href="#DejaVuSans-36"/>
       <use xlink:href="#DejaVuSans-30" x="63.623047"/>
      </g>
     </g>
    </g>
    <g id="ytick_5">
     <g id="line2d_5">
      <path d="M 43.148125 98.8495 
L 993.078125 98.8495 
" clip-path="url(#pfed155c744)" style="fill: none; stroke: #dedede; stroke-linecap: square"/>
     </g>
     <g id="text_22">
      <!-- 80 -->
      <g transform="translate(25.968125 101.888875) scale(0.08 -0.08)">
       <use xlink:href="#DejaVuSans-38"/>
       <use xlink:href="#DejaVuSans-30" x="63.623047"/>
      </g>
     </g>
    </g>
    <g id="ytick_6">
     <g id="line2d_6">
      <path d="M 43.148125 35.2559 
L 993.078125 35.2559 
" clip-path="url(#pfed155c744)" style="fill: none; stroke: #dedede; stroke-linecap: square"/>
     </g>
     <g id="text_23">
      <!-- 100 -->
      <g transform="translate(20.878125 38.295275) scale(0.08 -0.08)">
       <use xlink:href="#DejaVuSans-31"/>
       <use xlink:href="#DejaVuSans-30" x="63.623047"/>
       <use xlink:href="#DejaVuSans-30" x="127.246094"/>
      </g>
     </g>
    </g>
    <g id="text_24">
     <!-- % of Library -->
     <g transform="translate(14.798437 224.471931) rotate(-90) scale(0.1 -0.1)">
      <defs>
       <path id="DejaVuSans-25" d="M 4653 2053 
Q 4381 2053 4226 1822 
Q 4072 1591 4072 1178 
Q 4072 772 4226 539 
Q 4381 306 4653 306 
Q 4919 306 5073 539 
Q 5228 772 5228 1178 
Q 5228 1588 5073 1820 
Q 4919 2053 4653 2053 
z
M 4653 2450 
Q 5147 2450 5437 2106 
Q 5728 1763 5728 1178 
Q 5728 594 5436 251 
Q 5144 -91 4653 -91 
Q 4153 -91 3862 251 
Q 3572 594 3572 1178 
Q 3572 1766 3864 2108 
Q 4156 2450 4653 2450 
z
M 1428 4353 
Q 1159 4353 1004 4120 
Q 850 3888 850 3481 
Q 850 3069 1003 2837 
Q 1156 2606 1428 2606 
Q 1700 2606 1854 2837 
Q 2009 3069 2009 3481 
Q 2009 3884 1853 4118 
Q 1697 4353 1428 4353 
z
M 4250 4750 
L 4750 4750 
L 1831 -91 
L 1331 -91 
L 4250 4750 
z
M 1428 4750 
Q 1922 4750 2215 4408 
Q 2509 4066 2509 3481 
Q 2509 2891 2217 2550 
Q 1925 2209 1428 2209 
Q 931 2209 642 2551 
Q 353 2894 353 3481 
Q 353 4063 643 4406 
Q 934 4750 1428 4750 
z
" transform="scale(0.015625)"/>
       <path id="DejaVuSans-66" d="M 2375 4863 
L 2375 4384 
L 1825 4384 
Q 1516 4384 1395 4259 
Q 1275 4134 1275 3809 
L 1275 3500 
L 2222 3500 
L 2222 3053 
L 1275 3053 
L 1275 0 
L 697 0 
L 697 3053 
L 147 3053 
L 147 3500 
L 697 3500 
L 697 3744 
Q 697 4328 969 4595 
Q 1241 4863 1831 4863 
L 2375 4863 
z
" transform="scale(0.015625)"/>
       <path id="DejaVuSans-62" d="M 3116 1747 
Q 3116 2381 2855 2742 
Q 2594 3103 2138 3103 
Q 1681 3103 1420 2742 
Q 1159 2381 1159 1747 
Q 1159 1113 1420 752 
Q 1681 391 2138 391 
Q 2594 391 2855 752 
Q 3116 1113 3116 1747 
z
M 1159 2969 
Q 1341 3281 1617 3432 
Q 1894 3584 2278 3584 
Q 2916 3584 3314 3078 
Q 3713 2572 3713 1747 
Q 3713 922 3314 415 
Q 2916 -91 2278 -91 
Q 1894 -91 1617 61 
Q 1341 213 1159 525 
L 1159 0 
L 581 0 
L 581 4863 
L 1159 4863 
L 1159 2969 
z
" transform="scale(0.015625)"/>
       <path id="DejaVuSans-72" d="M 2631 2963 
Q 2534 3019 2420 3045 
Q 2306 3072 2169 3072 
Q 1681 3072 1420 2755 
Q 1159 2438 1159 1844 
L 1159 0 
L 581 0 
L 581 3500 
L 1159 3500 
L 1159 2956 
Q 1341 3275 1631 3429 
Q 1922 3584 2338 3584 
Q 2397 3584 2469 3576 
Q 2541 3569 2628 3553 
L 2631 2963 
z
" transform="scale(0.015625)"/>
       <path id="DejaVuSans-79" d="M 2059 -325 
Q 1816 -950 1584 -1140 
Q 1353 -1331 966 -1331 
L 506 -1331 
L 506 -850 
L 844 -850 
Q 1081 -850 1212 -737 
Q 1344 -625 1503 -206 
L 1606 56 
L 191 3500 
L 800 3500 
L 1894 763 
L 2988 3500 
L 3597 3500 
L 2059 -325 
z
" transform="scale(0.015625)"/>
      </defs>
      <use xlink:href="#DejaVuSans-25"/>
      <use xlink:href="#DejaVuSans-20" x="95.019531"/>
      <use xlink:href="#DejaVuSans-6f" x="126.806641"/>
      <use xlink:href="#DejaVuSans-66" x="187.988281"/>
      <use xlink:href="#DejaVuSans-20" x="223.193359"/>
      <use xlink:href="#DejaVuSans-4c" x="254.980469"/>
      <use xlink:href="#DejaVuSans-69" x="310.693359"/>
      <use xlink:href="#DejaVuSans-62" x="338.476562"/>
      <use xlink:href="#DejaVuSans-72" x="401.953125"/>
      <use xlink:href="#DejaVuSans-61" x="443.066406"/>
      <use xlink:href="#DejaVuSans-72" x="504.345703"/>
      <use xlink:href="#DejaVuSans-79" x="545.458984"/>
     </g>
    </g>
   </g>
   <g id="line2d_7">
    <path d="M 86.326761 297.818064 
L 143.898277 328.699414 
L 201.469792 339.260839 
L 259.041307 343.699443 
L 316.612822 346.307992 
L 374.184337 347.645399 
L 431.755852 348.836735 
L 489.327367 349.460838 
L 546.898883 349.718988 
L 604.470398 308.173614 
L 662.041913 334.996238 
L 719.613428 305.587497 
L 777.184943 330.687859 
L 834.756458 314.614877 
L 892.327973 345.17892 
L 949.899489 342.927686 
" clip-path="url(#pfed155c744)" style="fill: none; stroke: #d9534f; stroke-linecap: square"/>
   </g>
   <g id="line2d_8">
    <path d="M 86.326761 289.255413 
L 143.898277 328.25891 
L 201.469792 339.363471 
L 259.041307 344.310374 
L 316.612822 346.528789 
L 374.184337 347.816843 
L 431.755852 348.787748 
L 489.327367 349.388574 
L 546.898883 349.871307 
L 604.470398 309.176666 
L 662.041913 335.799706 
L 719.613428 306.634817 
L 777.184943 331.71986 
L 834.756458 316.721768 
L 892.327973 346.184936 
L 949.899489 343.795218 
" clip-path="url(#pfed155c744)" style="fill: none; stroke: #d9534f; stroke-linecap: square"/>
   </g>
   <g id="line2d_9">
    <path d="M 86.326761 287.275119 
L 143.898277 328.396265 
L 201.469792 339.286172 
L 259.041307 343.94098 
L 316.612822 346.152776 
L 374.184337 347.738671 
L 431.755852 348.780722 
L 489.327367 349.435574 
L 546.898883 349.899472 
L 604.470398 306.479116 
L 662.041913 333.488946 
L 719.613428 301.544161 
L 777.184943 332.198176 
L 834.756458 323.742921 
L 892.327973 347.195001 
L 949.899489 348.06033 
" clip-path="url(#pfed155c744)" style="fill: none; stroke: #d9534f; stroke-linecap: square"/>
   </g>
   <g id="line2d_10">
    <path d="M 86.326761 278.346437 
L 143.898277 328.271677 
L 201.469792 339.794977 
L 259.041307 344.078474 
L 316.612822 346.695184 
L 374.184337 348.107546 
L 431.755852 348.793537 
L 489.327367 349.298414 
L 546.898883 350.094926 
L 604.470398 306.780794 
L 662.041913 334.324129 
L 719.613428 303.400168 
L 777.184943 333.277229 
L 834.756458 325.950496 
L 892.327973 347.663365 
L 949.899489 348.737045 
" clip-path="url(#pfed155c744)" style="fill: none; stroke: #d9534f; stroke-linecap: square"/>
   </g>
   <g id="line2d_11">
    <path d="M 86.326761 312.234659 
L 143.898277 327.100679 
L 201.469792 337.185698 
L 259.041307 342.484588 
L 316.612822 345.395238 
L 374.184337 347.403526 
L 431.755852 348.402104 
L 489.327367 349.119597 
L 546.898883 349.599813 
L 604.470398 307.092885 
L 662.041913 335.757877 
L 719.613428 307.770836 
L 777.184943 331.015201 
L 834.756458 310.753536 
L 892.327973 342.129825 
L 949.899489 340.168338 
" clip-path="url(#pfed155c744)" style="fill: none; stroke: #d9534f; stroke-linecap: square"/>
   </g>
   <g id="line2d_12">
    <path d="M 86.326761 303.442966 
L 143.898277 327.022811 
L 201.469792 337.367478 
L 259.041307 342.803899 
L 316.612822 345.741131 
L 374.184337 347.301579 
L 431.755852 348.565409 
L 489.327367 349.23619 
L 546.898883 349.737078 
L 604.470398 308.067525 
L 662.041913 335.933876 
L 719.613428 309.033807 
L 777.184943 331.836537 
L 834.756458 312.943921 
L 892.327973 343.686636 
L 949.899489 340.893556 
" clip-path="url(#pfed155c744)" style="fill: none; stroke: #d9534f; stroke-linecap: square"/>
   </g>
   <g id="line2d_13">
    <path d="M 86.326761 298.013666 
L 143.898277 324.384853 
L 201.469792 336.121655 
L 259.041307 341.687163 
L 316.612822 344.785982 
L 374.184337 346.571302 
L 431.755852 347.894769 
L 489.327367 348.688354 
L 546.898883 349.14779 
L 604.470398 297.275601 
L 662.041913 331.938317 
L 719.613428 310.708799 
L 777.184943 338.503837 
L 834.756458 328.186411 
L 892.327973 346.447023 
L 949.899489 343.258876 
" clip-path="url(#pfed155c744)" style="fill: none; stroke: #d9534f; stroke-linecap: square"/>
   </g>
   <g id="line2d_14">
    <path d="M 86.326761 289.873847 
L 143.898277 324.883881 
L 201.469792 336.694316 
L 259.041307 342.504951 
L 316.612822 344.92999 
L 374.184337 346.764377 
L 431.755852 347.652875 
L 489.327367 348.688374 
L 546.898883 349.247669 
L 604.470398 299.263992 
L 662.041913 332.789152 
L 719.613428 311.945722 
L 777.184943 339.304025 
L 834.756458 329.174239 
L 892.327973 346.352058 
L 949.899489 343.544933 
" clip-path="url(#pfed155c744)" style="fill: none; stroke: #d9534f; stroke-linecap: square"/>
   </g>
   <g id="line2d_15">
    <path d="M 86.326761 305.226095 
L 143.898277 326.846641 
L 201.469792 336.72654 
L 259.041307 341.567444 
L 316.612822 344.464507 
L 374.184337 346.337769 
L 431.755852 347.561666 
L 489.327367 348.216416 
L 546.898883 348.87355 
L 604.470398 294.608137 
L 662.041913 330.367996 
L 719.613428 306.883938 
L 777.184943 337.407193 
L 834.756458 328.571345 
L 892.327973 346.178549 
L 949.899489 343.776616 
" clip-path="url(#pfed155c744)" style="fill: none; stroke: #d9534f; stroke-linecap: square"/>
   </g>
   <g id="line2d_16">
    <path d="M 86.326761 294.650589 
L 143.898277 326.936734 
L 201.469792 336.973812 
L 259.041307 342.428268 
L 316.612822 344.815983 
L 374.184337 346.303217 
L 431.755852 347.726342 
L 489.327367 348.469056 
L 546.898883 349.075029 
L 604.470398 295.883786 
L 662.041913 331.906882 
L 719.613428 309.285919 
L 777.184943 338.32736 
L 834.756458 329.829591 
L 892.327973 346.795003 
L 949.899489 344.206831 
" clip-path="url(#pfed155c744)" style="fill: none; stroke: #d9534f; stroke-linecap: square"/>
   </g>
   <g id="line2d_17">
    <path d="M 86.326761 296.612597 
L 143.898277 327.631105 
L 201.469792 337.56078 
L 259.041307 342.637204 
L 316.612822 345.304234 
L 374.184337 346.709569 
L 431.755852 347.851547 
L 489.327367 348.69412 
L 546.898883 349.343564 
L 604.470398 300.52682 
L 662.041913 332.933032 
L 719.613428 308.619192 
L 777.184943 336.317347 
L 834.756458 324.357985 
L 892.327973 346.759216 
L 949.899489 341.756088 
" clip-path="url(#pfed155c744)" style="fill: none; stroke: #d9534f; stroke-linecap: square"/>
   </g>
   <g id="line2d_18">
    <path d="M 86.326761 284.82765 
L 143.898277 327.918858 
L 201.469792 338.476697 
L 259.041307 342.702525 
L 316.612822 345.513474 
L 374.184337 346.925519 
L 431.755852 348.153689 
L 489.327367 348.931504 
L 546.898883 349.391559 
L 604.470398 302.99434 
L 662.041913 333.643813 
L 719.613428 310.693276 
L 777.184943 337.443656 
L 834.756458 326.077107 
L 892.327973 346.893193 
L 949.899489 343.02754 
" clip-path="url(#pfed155c744)" style="fill: none; stroke: #d9534f; stroke-linecap: square"/>
   </g>
   <g id="line2d_19">
    <path d="M 86.326761 309.926761 
L 143.898277 329.808427 
L 201.469792 337.362175 
L 259.041307 341.611231 
L 316.612822 343.97194 
L 374.184337 345.885519 
L 431.755852 347.145381 
L 489.327367 348.056027 
L 546.898883 348.586937 
L 604.470398 287.287852 
L 662.041913 328.206812 
L 719.613428 306.257511 
L 777.184943 337.714148 
L 834.756458 330.298454 
L 892.327973 346.922123 
L 949.899489 344.573102 
" clip-path="url(#pfed155c744)" style="fill: none; stroke: #d9534f; stroke-linecap: square"/>
   </g>
   <g id="line2d_20">
    <path d="M 86.326761 296.382505 
L 143.898277 329.319564 
L 201.469792 337.902796 
L 259.041307 341.978554 
L 316.612822 344.811749 
L 374.184337 345.950116 
L 431.755852 347.293686 
L 489.327367 348.17748 
L 546.898883 348.665008 
L 604.470398 290.876115 
L 662.041913 330.093665 
L 719.613428 308.585542 
L 777.184943 339.17979 
L 834.756458 331.627901 
L 892.327973 347.758404 
L 949.899489 345.011524 
" clip-path="url(#pfed155c744)" style="fill: none; stroke: #d9534f; stroke-linecap: square"/>
   </g>
   <g id="line2d_21">
    <path d="M 86.326761 301.325633 
L 143.898277 326.991717 
L 201.469792 337.076552 
L 259.041307 341.874499 
L 316.612822 344.636694 
L 374.184337 346.207941 
L 431.755852 347.342074 
L 489.327367 348.046899 
L 546.898883 349.101341 
L 604.470398 292.51858 
L 662.041913 330.693533 
L 719.613428 308.676356 
L 777.184943 338.141649 
L 834.756458 328.727598 
L 892.327973 347.361448 
L 949.899489 344.891886 
" clip-path="url(#pfed155c744)" style="fill: none; stroke: #d9534f; stroke-linecap: square"/>
   </g>
   <g id="line2d_22">
    <path d="M 86.326761 291.046278 
L 143.898277 327.07739 
L 201.469792 337.400284 
L 259.041307 342.36608 
L 316.612822 344.786059 
L 374.184337 346.434739 
L 431.755852 347.411703 
L 489.327367 348.449537 
L 546.898883 348.899515 
L 604.470398 295.149136 
L 662.041913 331.171689 
L 719.613428 311.391216 
L 777.184943 339.002728 
L 834.756458 330.01918 
L 892.327973 347.58044 
L 949.899489 345.428426 
" clip-path="url(#pfed155c744)" style="fill: none; stroke: #d9534f; stroke-linecap: square"/>
   </g>
   <g id="line2d_23">
    <path d="M 86.326761 283.632521 
L 143.898277 320.560696 
L 201.469792 334.418438 
L 259.041307 340.602023 
L 316.612822 343.383778 
L 374.184337 345.588938 
L 431.755852 346.655482 
L 489.327367 347.618455 
L 546.898883 348.639106 
L 604.470398 291.336743 
L 662.041913 332.849783 
L 719.613428 317.991903 
L 777.184943 343.200033 
L 834.756458 338.11295 
L 892.327973 348.727535 
L 949.899489 350.296016 
" clip-path="url(#pfed155c744)" style="fill: none; stroke: #d9534f; stroke-linecap: square"/>
   </g>
   <g id="line2d_24">
    <path d="M 86.326761 275.857215 
L 143.898277 320.564733 
L 201.469792 334.85419 
L 259.041307 340.615544 
L 316.612822 343.656352 
L 374.184337 345.664817 
L 431.755852 347.30103 
L 489.327367 347.970682 
L 546.898883 348.622859 
L 604.470398 293.736606 
L 662.041913 333.289676 
L 719.613428 319.420803 
L 777.184943 343.879407 
L 834.756458 338.771387 
L 892.327973 348.616762 
L 949.899489 350.792336 
" clip-path="url(#pfed155c744)" style="fill: none; stroke: #d9534f; stroke-linecap: square"/>
   </g>
   <g id="line2d_25">
    <path d="M 86.326761 293.724738 
L 143.898277 328.112802 
L 201.469792 339.772624 
L 259.041307 344.340323 
L 316.612822 346.725156 
L 374.184337 347.98773 
L 431.755852 348.904204 
L 489.327367 349.388661 
L 546.898883 350.079254 
L 604.470398 305.433458 
L 662.041913 331.664858 
L 719.613428 295.310973 
L 777.184943 330.74177 
L 834.756458 325.545991 
L 892.327973 347.807584 
L 949.899489 348.074274 
" clip-path="url(#pfed155c744)" style="fill: none; stroke: #d9534f; stroke-linecap: square"/>
   </g>
   <g id="line2d_26">
    <path d="M 86.326761 286.606894 
L 143.898277 328.184309 
L 201.469792 339.854629 
L 259.041307 344.467286 
L 316.612822 346.600004 
L 374.184337 348.067547 
L 431.755852 348.881878 
L 489.327367 349.670956 
L 546.898883 349.999696 
L 604.470398 305.630149 
L 662.041913 332.115773 
L 719.613428 297.165195 
L 777.184943 331.821029 
L 834.756458 327.501667 
L 892.327973 348.183837 
L 949.899489 348.863551 
" clip-path="url(#pfed155c744)" style="fill: none; stroke: #d9534f; stroke-linecap: square"/>
   </g>
   <g id="line2d_27">
    <path d="M 86.326761 314.635753 
L 143.898277 329.053873 
L 201.469792 339.161968 
L 259.041307 344.217995 
L 316.612822 346.836587 
L 374.184337 348.32516 
L 431.755852 349.214923 
L 489.327367 349.832362 
L 546.898883 350.44444 
L 604.470398 310.292956 
L 662.041913 334.064467 
L 719.613428 297.719558 
L 777.184943 325.543859 
L 834.756458 305.183295 
L 892.327973 343.568144 
L 949.899489 345.51906 
" clip-path="url(#pfed155c744)" style="fill: none; stroke: #d9534f; stroke-linecap: square"/>
   </g>
   <g id="line2d_28">
    <path d="M 86.326761 306.513836 
L 143.898277 329.202965 
L 201.469792 339.116901 
L 259.041307 344.581394 
L 316.612822 346.81734 
L 374.184337 348.360026 
L 431.755852 349.118839 
L 489.327367 349.79808 
L 546.898883 350.355106 
L 604.470398 310.725571 
L 662.041913 334.338829 
L 719.613428 299.393716 
L 777.184943 326.462311 
L 834.756458 308.571829 
L 892.327973 343.628905 
L 949.899489 346.628752 
" clip-path="url(#pfed155c744)" style="fill: none; stroke: #d9534f; stroke-linecap: square"/>
   </g>
   <g id="line2d_29">
    <path d="M 86.326761 302.218171 
L 143.898277 327.991283 
L 201.469792 338.553739 
L 259.041307 343.609145 
L 316.612822 345.94154 
L 374.184337 347.485888 
L 431.755852 348.387871 
L 489.327367 349.109647 
L 546.898883 349.828201 
L 604.470398 302.273601 
L 662.041913 331.034492 
L 719.613428 299.43467 
L 777.184943 330.631232 
L 834.756458 323.724373 
L 892.327973 346.960706 
L 949.899489 346.42984 
" clip-path="url(#pfed155c744)" style="fill: none; stroke: #d9534f; stroke-linecap: square"/>
   </g>
   <g id="line2d_30">
    <path d="M 86.326761 292.771029 
L 143.898277 327.64473 
L 201.469792 339.119483 
L 259.041307 343.725228 
L 316.612822 346.211376 
L 374.184337 347.702961 
L 431.755852 348.81297 
L 489.327367 349.146512 
L 546.898883 349.788297 
L 604.470398 302.980961 
L 662.041913 331.697196 
L 719.613428 301.185534 
L 777.184943 332.123786 
L 834.756458 326.465869 
L 892.327973 347.246097 
L 949.899489 346.99237 
" clip-path="url(#pfed155c744)" style="fill: none; stroke: #d9534f; stroke-linecap: square"/>
   </g>
   <g id="line2d_31">
    <path d="M 86.326761 300.402766 
L 143.898277 329.816281 
L 201.469792 339.914 
L 259.041307 344.399476 
L 316.612822 346.53602 
L 374.184337 347.904545 
L 431.755852 348.79331 
L 489.327367 349.477735 
L 546.898883 349.957562 
L 604.470398 306.156833 
L 662.041913 332.975072 
L 719.613428 298.285875 
L 777.184943 329.975143 
L 834.756458 317.540688 
L 892.327973 346.223135 
L 949.899489 345.255959 
" clip-path="url(#pfed155c744)" style="fill: none; stroke: #d9534f; stroke-linecap: square"/>
   </g>
   <g id="line2d_32">
    <path d="M 86.326761 290.924518 
L 143.898277 329.516355 
L 201.469792 339.887011 
L 259.041307 344.594337 
L 316.612822 346.58971 
L 374.184337 347.980524 
L 431.755852 348.811212 
L 489.327367 349.470809 
L 546.898883 349.912188 
L 604.470398 307.780299 
L 662.041913 333.798783 
L 719.613428 300.312436 
L 777.184943 331.241411 
L 834.756458 320.420986 
L 892.327973 346.376817 
L 949.899489 345.997004 
" clip-path="url(#pfed155c744)" style="fill: none; stroke: #d9534f; stroke-linecap: square"/>
   </g>
   <g id="line2d_33">
    <path d="M 86.326761 314.853873 
L 143.898277 328.733512 
L 201.469792 338.32526 
L 259.041307 343.765223 
L 316.612822 346.451827 
L 374.184337 348.130938 
L 431.755852 349.016757 
L 489.327367 349.693607 
L 546.898883 350.141311 
L 604.470398 311.626522 
L 662.041913 335.497847 
L 719.613428 306.178725 
L 777.184943 329.833183 
L 834.756458 297.145549 
L 892.327973 339.795659 
L 949.899489 344.424607 
" clip-path="url(#pfed155c744)" style="fill: none; stroke: #d9534f; stroke-linecap: square"/>
   </g>
   <g id="line2d_34">
    <path d="M 86.326761 304.850595 
L 143.898277 328.740012 
L 201.469792 338.59126 
L 259.041307 343.764986 
L 316.612822 346.508315 
L 374.184337 348.220129 
L 431.755852 348.942609 
L 489.327367 349.8866 
L 546.898883 350.267435 
L 604.470398 312.193103 
L 662.041913 336.377024 
L 719.613428 307.365497 
L 777.184943 330.804929 
L 834.756458 300.658485 
L 892.327973 340.813041 
L 949.899489 345.630381 
" clip-path="url(#pfed155c744)" style="fill: none; stroke: #d9534f; stroke-linecap: square"/>
   </g>
   <g id="line2d_35">
    <path d="M 86.326761 304.605197 
L 143.898277 327.218408 
L 201.469792 337.797952 
L 259.041307 343.046975 
L 316.612822 345.161129 
L 374.184337 347.031641 
L 431.755852 348.050026 
L 489.327367 348.694943 
L 546.898883 349.409533 
L 604.470398 300.454507 
L 662.041913 333.430686 
L 719.613428 303.79825 
L 777.184943 332.498568 
L 834.756458 322.303171 
L 892.327973 346.037262 
L 949.899489 344.07615 
" clip-path="url(#pfed155c744)" style="fill: none; stroke: #d9534f; stroke-linecap: square"/>
   </g>
   <g id="line2d_36">
    <path d="M 86.326761 295.208781 
L 143.898277 327.114319 
L 201.469792 337.903584 
L 259.041307 342.962858 
L 316.612822 345.670394 
L 374.184337 347.13492 
L 431.755852 348.415713 
L 489.327367 348.900714 
L 546.898883 349.324967 
L 604.470398 302.002637 
L 662.041913 333.428849 
L 719.613428 305.906419 
L 777.184943 333.697592 
L 834.756458 325.068057 
L 892.327973 346.038385 
L 949.899489 344.836213 
" clip-path="url(#pfed155c744)" style="fill: none; stroke: #d9534f; stroke-linecap: square"/>
   </g>
   <g id="line2d_37">
    <path d="M 86.326761 328.044821 
L 143.898277 328.895515 
L 201.469792 333.053408 
L 259.041307 338.274831 
L 316.612822 342.578352 
L 374.184337 344.62357 
L 431.755852 346.163135 
L 489.327367 347.309985 
L 546.898883 348.104498 
L 604.470398 287.769601 
L 662.041913 329.085605 
L 719.613428 305.073314 
L 777.184943 337.5723 
L 834.756458 327.759539 
L 892.327973 345.456629 
L 949.899489 343.849299 
" clip-path="url(#pfed155c744)" style="fill: none; stroke: #d9534f; stroke-linecap: square"/>
   </g>
   <g id="line2d_38">
    <path d="M 86.326761 319.255721 
L 143.898277 328.05516 
L 201.469792 333.444706 
L 259.041307 338.460295 
L 316.612822 342.639841 
L 374.184337 344.773142 
L 431.755852 346.293909 
L 489.327367 347.316242 
L 546.898883 348.232517 
L 604.470398 289.455938 
L 662.041913 330.200509 
L 719.613428 307.701018 
L 777.184943 338.203967 
L 834.756458 329.198606 
L 892.327973 346.062782 
L 949.899489 344.320045 
" clip-path="url(#pfed155c744)" style="fill: none; stroke: #d9534f; stroke-linecap: square"/>
   </g>
   <g id="line2d_39">
    <path d="M 86.326761 292.52708 
L 143.898277 319.548759 
L 201.469792 333.641817 
L 259.041307 340.739392 
L 316.612822 344.271866 
L 374.184337 346.212661 
L 431.755852 347.458888 
L 489.327367 348.191394 
L 546.898883 349.104542 
L 604.470398 293.924497 
L 662.041913 330.356549 
L 719.613428 311.673494 
L 777.184943 342.145099 
L 834.756458 336.686458 
L 892.327973 348.779481 
L 949.899489 348.352421 
" clip-path="url(#pfed155c744)" style="fill: none; stroke: #d9534f; stroke-linecap: square"/>
   </g>
   <g id="line2d_40">
    <path d="M 86.326761 284.258782 
L 143.898277 319.803286 
L 201.469792 334.689522 
L 259.041307 341.208892 
L 316.612822 344.392144 
L 374.184337 346.358191 
L 431.755852 347.586002 
L 489.327367 348.50313 
L 546.898883 349.188395 
L 604.470398 295.659676 
L 662.041913 331.064174 
L 719.613428 313.537158 
L 777.184943 342.537773 
L 834.756458 337.193507 
L 892.327973 348.677154 
L 949.899489 348.956613 
" clip-path="url(#pfed155c744)" style="fill: none; stroke: #d9534f; stroke-linecap: square"/>
   </g>
   <g id="line2d_41">
    <path d="M 86.326761 296.330413 
L 143.898277 326.136769 
L 201.469792 337.037313 
L 259.041307 342.015214 
L 316.612822 344.681292 
L 374.184337 346.204912 
L 431.755852 347.468312 
L 489.327367 348.434089 
L 546.898883 348.964945 
L 604.470398 295.878581 
L 662.041913 330.742617 
L 719.613428 308.615364 
L 777.184943 339.579993 
L 834.756458 329.322669 
L 892.327973 348.525582 
L 949.899489 343.676336 
" clip-path="url(#pfed155c744)" style="fill: none; stroke: #d9534f; stroke-linecap: square"/>
   </g>
   <g id="line2d_42">
    <path d="M 86.326761 286.990264 
L 143.898277 326.612502 
L 201.469792 337.630137 
L 259.041307 342.284955 
L 316.612822 344.844951 
L 374.184337 346.869533 
L 431.755852 347.771319 
L 489.327367 348.311054 
L 546.898883 349.103738 
L 604.470398 297.520756 
L 662.041913 331.783774 
L 719.613428 310.539714 
L 777.184943 340.179804 
L 834.756458 330.231019 
L 892.327973 348.501759 
L 949.899489 344.439119 
" clip-path="url(#pfed155c744)" style="fill: none; stroke: #d9534f; stroke-linecap: square"/>
   </g>
   <g id="line2d_43">
    <path d="M 86.326761 294.817314 
L 143.898277 321.729633 
L 201.469792 336.052111 
L 259.041307 342.28353 
L 316.612822 344.827478 
L 374.184337 347.009102 
L 431.755852 348.123377 
L 489.327367 348.844586 
L 546.898883 349.391563 
L 604.470398 300.241581 
L 662.041913 332.008994 
L 719.613428 307.951672 
L 777.184943 337.281588 
L 834.756458 328.32881 
L 892.327973 346.802902 
L 949.899489 347.92016 
" clip-path="url(#pfed155c744)" style="fill: none; stroke: #d9534f; stroke-linecap: square"/>
   </g>
   <g id="line2d_44">
    <path d="M 86.326761 285.680287 
L 143.898277 322.482089 
L 201.469792 336.259209 
L 259.041307 342.60745 
L 316.612822 345.39252 
L 374.184337 346.969514 
L 431.755852 348.187633 
L 489.327367 349.049365 
L 546.898883 349.471227 
L 604.470398 301.34747 
L 662.041913 332.806373 
L 719.613428 309.774282 
L 777.184943 338.289357 
L 834.756458 329.66662 
L 892.327973 347.240405 
L 949.899489 348.390599 
" clip-path="url(#pfed155c744)" style="fill: none; stroke: #d9534f; stroke-linecap: square"/>
   </g>
   <g id="line2d_45">
    <path d="M 86.326761 293.997939 
L 143.898277 330.81029 
L 201.469792 341.050673 
L 259.041307 344.91994 
L 316.612822 347.015442 
L 374.184337 348.291905 
L 431.755852 349.063033 
L 489.327367 349.581565 
L 546.898883 350.149197 
L 604.470398 304.874695 
L 662.041913 330.994704 
L 719.613428 295.599192 
L 777.184943 330.226895 
L 834.756458 319.001037 
L 892.327973 347.629358 
L 949.899489 350.408536 
" clip-path="url(#pfed155c744)" style="fill: none; stroke: #d9534f; stroke-linecap: square"/>
   </g>
   <g id="line2d_46">
    <path d="M 86.326761 285.752241 
L 143.898277 330.835409 
L 201.469792 340.993067 
L 259.041307 345.077204 
L 316.612822 347.111578 
L 374.184337 348.325967 
L 431.755852 349.121205 
L 489.327367 349.717859 
L 546.898883 350.056048 
L 604.470398 305.826638 
L 662.041913 331.096418 
L 719.613428 297.862828 
L 777.184943 331.200134 
L 834.756458 321.711487 
L 892.327973 348.604221 
L 949.899489 350.322097 
" clip-path="url(#pfed155c744)" style="fill: none; stroke: #d9534f; stroke-linecap: square"/>
   </g>
   <g id="line2d_47">
    <path d="M 86.326761 307.175742 
L 143.898277 327.886009 
L 201.469792 337.888005 
L 259.041307 342.614007 
L 316.612822 345.536212 
L 374.184337 347.311189 
L 431.755852 348.377995 
L 489.327367 348.916541 
L 546.898883 349.732601 
L 604.470398 304.133034 
L 662.041913 333.156298 
L 719.613428 305.830463 
L 777.184943 334.3069 
L 834.756458 319.455649 
L 892.327973 343.279585 
L 949.899489 338.014169 
" clip-path="url(#pfed155c744)" style="fill: none; stroke: #d9534f; stroke-linecap: square"/>
   </g>
   <g id="line2d_48">
    <path d="M 86.326761 297.779035 
L 143.898277 327.398149 
L 201.469792 337.921272 
L 259.041307 342.948622 
L 316.612822 345.81358 
L 374.184337 347.345598 
L 431.755852 348.31993 
L 489.327367 349.215658 
L 546.898883 349.619668 
L 604.470398 305.889582 
L 662.041913 333.50829 
L 719.613428 307.6892 
L 777.184943 335.224834 
L 834.756458 321.561153 
L 892.327973 344.027686 
L 949.899489 339.352143 
" clip-path="url(#pfed155c744)" style="fill: none; stroke: #d9534f; stroke-linecap: square"/>
   </g>
   <g id="line2d_49">
    <path d="M 86.326761 337.004313 
L 143.898277 341.870439 
L 201.469792 336.814987 
L 259.041307 335.016371 
L 316.612822 335.829539 
L 374.184337 338.179763 
L 431.755852 340.783693 
L 489.327367 343.407257 
L 546.898883 345.131181 
L 604.470398 276.490588 
L 662.041913 329.699591 
L 719.613428 305.064734 
L 777.184943 338.128653 
L 834.756458 329.961237 
L 892.327973 349.374931 
L 949.899489 350.857122 
" clip-path="url(#pfed155c744)" style="fill: none; stroke: #d9534f; stroke-linecap: square"/>
   </g>
   <g id="line2d_50">
    <path d="M 86.326761 324.741785 
L 143.898277 340.15597 
L 201.469792 335.975292 
L 259.041307 334.826568 
L 316.612822 336.605672 
L 374.184337 338.938397 
L 431.755852 341.331631 
L 489.327367 343.685299 
L 546.898883 345.768918 
L 604.470398 281.4515 
L 662.041913 331.216762 
L 719.613428 307.947404 
L 777.184943 338.557945 
L 834.756458 331.698758 
L 892.327973 349.341788 
L 949.899489 351.370711 
" clip-path="url(#pfed155c744)" style="fill: none; stroke: #d9534f; stroke-linecap: square"/>
   </g>
   <g id="line2d_51">
    <path d="M 86.326761 315.960758 
L 143.898277 328.752639 
L 201.469792 337.187889 
L 259.041307 342.192025 
L 316.612822 344.84318 
L 374.184337 346.771515 
L 431.755852 347.525788 
L 489.327367 348.412896 
L 546.898883 348.927168 
L 604.470398 296.991959 
L 662.041913 331.370399 
L 719.613428 303.841203 
L 777.184943 333.262701 
L 834.756458 318.479911 
L 892.327973 345.906395 
L 949.899489 343.187973 
" clip-path="url(#pfed155c744)" style="fill: none; stroke: #d9534f; stroke-linecap: square"/>
   </g>
   <g id="line2d_52">
    <path d="M 86.326761 304.53702 
L 143.898277 328.67029 
L 201.469792 337.477436 
L 259.041307 342.441641 
L 316.612822 345.063819 
L 374.184337 346.737581 
L 431.755852 347.814076 
L 489.327367 348.51779 
L 546.898883 349.258824 
L 604.470398 298.935712 
L 662.041913 331.929221 
L 719.613428 305.87469 
L 777.184943 334.264181 
L 834.756458 321.477818 
L 892.327973 346.695819 
L 949.899489 343.918482 
" clip-path="url(#pfed155c744)" style="fill: none; stroke: #d9534f; stroke-linecap: square"/>
   </g>
   <g id="line2d_53">
    <path d="M 86.326761 308.633713 
L 143.898277 331.796778 
L 201.469792 340.193467 
L 259.041307 343.72256 
L 316.612822 345.960588 
L 374.184337 347.511328 
L 431.755852 348.207216 
L 489.327367 349.018147 
L 546.898883 349.553578 
L 604.470398 302.718621 
L 662.041913 332.731153 
L 719.613428 303.519045 
L 777.184943 332.024252 
L 834.756458 314.131621 
L 892.327973 343.693313 
L 949.899489 340.199019 
" clip-path="url(#pfed155c744)" style="fill: none; stroke: #d9534f; stroke-linecap: square"/>
   </g>
   <g id="line2d_54">
    <path d="M 86.326761 298.46549 
L 143.898277 331.651893 
L 201.469792 340.111594 
L 259.041307 343.902526 
L 316.612822 345.862835 
L 374.184337 347.576185 
L 431.755852 348.650696 
L 489.327367 349.15836 
L 546.898883 349.73772 
L 604.470398 303.776322 
L 662.041913 333.240212 
L 719.613428 305.411367 
L 777.184943 332.916678 
L 834.756458 316.738375 
L 892.327973 344.928787 
L 949.899489 341.485361 
" clip-path="url(#pfed155c744)" style="fill: none; stroke: #d9534f; stroke-linecap: square"/>
   </g>
   <g id="line2d_55">
    <path d="M 86.326761 316.797944 
L 143.898277 326.175685 
L 201.469792 334.071992 
L 259.041307 339.951098 
L 316.612822 343.570243 
L 374.184337 345.949123 
L 431.755852 347.303445 
L 489.327367 348.308423 
L 546.898883 348.80873 
L 604.470398 294.568828 
L 662.041913 330.717154 
L 719.613428 307.967419 
L 777.184943 337.557849 
L 834.756458 327.04823 
L 892.327973 344.862523 
L 949.899489 339.955715 
" clip-path="url(#pfed155c744)" style="fill: none; stroke: #d9534f; stroke-linecap: square"/>
   </g>
   <g id="line2d_56">
    <path d="M 86.326761 308.246867 
L 143.898277 326.045403 
L 201.469792 334.453762 
L 259.041307 339.923188 
L 316.612822 343.835209 
L 374.184337 346.022074 
L 431.755852 347.303691 
L 489.327367 348.372378 
L 546.898883 349.273472 
L 604.470398 296.202903 
L 662.041913 331.190796 
L 719.613428 310.28086 
L 777.184943 338.216304 
L 834.756458 328.418649 
L 892.327973 345.719095 
L 949.899489 340.109751 
" clip-path="url(#pfed155c744)" style="fill: none; stroke: #d9534f; stroke-linecap: square"/>
   </g>
   <g id="line2d_57">
    <path d="M 86.326761 311.252445 
L 143.898277 325.644272 
L 201.469792 335.436776 
L 259.041307 340.548627 
L 316.612822 343.645501 
L 374.184337 345.771636 
L 431.755852 346.95698 
L 489.327367 348.103685 
L 546.898883 348.855993 
L 604.470398 291.13404 
L 662.041913 330.990783 
L 719.613428 309.804556 
L 777.184943 337.955931 
L 834.756458 326.530957 
L 892.327973 347.132212 
L 949.899489 343.850005 
" clip-path="url(#pfed155c744)" style="fill: none; stroke: #d9534f; stroke-linecap: square"/>
   </g>
   <g id="line2d_58">
    <path d="M 86.326761 301.233937 
L 143.898277 325.700681 
L 201.469792 335.275809 
L 259.041307 340.66264 
L 316.612822 344.121729 
L 374.184337 346.197643 
L 431.755852 347.348874 
L 489.327367 348.150868 
L 546.898883 348.829171 
L 604.470398 293.356658 
L 662.041913 331.651867 
L 719.613428 311.637448 
L 777.184943 338.977059 
L 834.756458 327.853784 
L 892.327973 347.674125 
L 949.899489 344.942106 
" clip-path="url(#pfed155c744)" style="fill: none; stroke: #d9534f; stroke-linecap: square"/>
   </g>
   <g id="line2d_59">
    <path d="M 86.326761 309.812048 
L 143.898277 328.91246 
L 201.469792 337.910385 
L 259.041307 342.140099 
L 316.612822 344.969209 
L 374.184337 346.399 
L 431.755852 347.544656 
L 489.327367 348.44898 
L 546.898883 349.000697 
L 604.470398 296.843603 
L 662.041913 331.84912 
L 719.613428 310.044899 
L 777.184943 337.583913 
L 834.756458 321.350904 
L 892.327973 343.426597 
L 949.899489 337.377829 
" clip-path="url(#pfed155c744)" style="fill: none; stroke: #d9534f; stroke-linecap: square"/>
   </g>
   <g id="line2d_60">
    <path d="M 86.326761 299.440804 
L 143.898277 329.033913 
L 201.469792 338.003005 
L 259.041307 342.259943 
L 316.612822 345.206807 
L 374.184337 346.626498 
L 431.755852 347.696319 
L 489.327367 348.579496 
L 546.898883 349.180265 
L 604.470398 298.463148 
L 662.041913 332.998133 
L 719.613428 311.742958 
L 777.184943 338.23385 
L 834.756458 323.371197 
L 892.327973 344.221629 
L 949.899489 338.556436 
" clip-path="url(#pfed155c744)" style="fill: none; stroke: #d9534f; stroke-linecap: square"/>
   </g>
   <g id="line2d_61">
    <path d="M 86.326761 315.21532 
L 143.898277 326.314053 
L 201.469792 335.25372 
L 259.041307 340.403105 
L 316.612822 343.700717 
L 374.184337 345.408348 
L 431.755852 346.753008 
L 489.327367 347.74847 
L 546.898883 348.448023 
L 604.470398 283.583304 
L 662.041913 327.335119 
L 719.613428 307.106452 
L 777.184943 340.020189 
L 834.756458 334.143584 
L 892.327973 347.955709 
L 949.899489 344.225278 
" clip-path="url(#pfed155c744)" style="fill: none; stroke: #d9534f; stroke-linecap: square"/>
   </g>
   <g id="line2d_62">
    <path d="M 86.326761 304.706879 
L 143.898277 326.700332 
L 201.469792 335.002406 
L 259.041307 340.940537 
L 316.612822 343.913242 
L 374.184337 345.7564 
L 431.755852 347.081422 
L 489.327367 347.880234 
L 546.898883 348.455851 
L 604.470398 286.18446 
L 662.041913 328.53426 
L 719.613428 309.557274 
L 777.184943 341.075596 
L 834.756458 335.076772 
L 892.327973 348.4529 
L 949.899489 344.295835 
" clip-path="url(#pfed155c744)" style="fill: none; stroke: #d9534f; stroke-linecap: square"/>
   </g>
   <g id="line2d_63">
    <path d="M 86.326761 315.640892 
L 143.898277 326.707413 
L 201.469792 334.655191 
L 259.041307 340.227624 
L 316.612822 343.64996 
L 374.184337 345.404945 
L 431.755852 346.677086 
L 489.327367 347.651484 
L 546.898883 348.197526 
L 604.470398 281.913356 
L 662.041913 326.953087 
L 719.613428 303.768548 
L 777.184943 338.823209 
L 834.756458 334.626322 
L 892.327973 349.165175 
L 949.899489 349.552583 
" clip-path="url(#pfed155c744)" style="fill: none; stroke: #d9534f; stroke-linecap: square"/>
   </g>
   <g id="line2d_64">
    <path d="M 86.326761 297.919108 
L 143.898277 327.169822 
L 201.469792 335.788921 
L 259.041307 341.015245 
L 316.612822 344.140424 
L 374.184337 345.794368 
L 431.755852 347.191681 
L 489.327367 347.755705 
L 546.898883 348.480417 
L 604.470398 285.72259 
L 662.041913 328.702219 
L 719.613428 307.822717 
L 777.184943 340.488249 
L 834.756458 335.998854 
L 892.327973 349.792785 
L 949.899489 349.831294 
" clip-path="url(#pfed155c744)" style="fill: none; stroke: #d9534f; stroke-linecap: square"/>
   </g>
   <g id="line2d_65">
    <path d="M 86.326761 317.592123 
L 143.898277 324.019952 
L 201.469792 332.272961 
L 259.041307 338.258804 
L 316.612822 342.104872 
L 374.184337 344.650053 
L 431.755852 346.235139 
L 489.327367 347.097837 
L 546.898883 347.964305 
L 604.470398 282.314317 
L 662.041913 328.059655 
L 719.613428 310.576776 
L 777.184943 341.081258 
L 834.756458 335.266045 
L 892.327973 348.297194 
L 949.899489 347.823108 
" clip-path="url(#pfed155c744)" style="fill: none; stroke: #d9534f; stroke-linecap: square"/>
   </g>
   <g id="line2d_66">
    <path d="M 86.326761 305.282847 
L 143.898277 324.177317 
L 201.469792 332.45918 
L 259.041307 338.720941 
L 316.612822 342.267163 
L 374.184337 344.715905 
L 431.755852 346.315326 
L 489.327367 347.445008 
L 546.898883 348.266525 
L 604.470398 285.631132 
L 662.041913 329.560044 
L 719.613428 313.419002 
L 777.184943 342.006871 
L 834.756458 336.597884 
L 892.327973 348.991078 
L 949.899489 347.758178 
" clip-path="url(#pfed155c744)" style="fill: none; stroke: #d9534f; stroke-linecap: square"/>
   </g>
   <g id="line2d_67">
    <path d="M 43.148125 353.2239 
L 993.078125 353.2239 
" clip-path="url(#pfed155c744)" style="fill: none; stroke: #dedede; stroke-width: 2; stroke-linecap: square"/>
   </g>
   <g id="text_25">
    <!-- FastQC: Sequence Duplication Levels -->
    <g transform="translate(369.699375 19.3575) scale(0.16 -0.16)">
     <defs>
      <path id="DejaVuSans-46" d="M 628 4666 
L 3309 4666 
L 3309 4134 
L 1259 4134 
L 1259 2759 
L 3109 2759 
L 3109 2228 
L 1259 2228 
L 1259 0 
L 628 0 
L 628 4666 
z
" transform="scale(0.015625)"/>
      <path id="DejaVuSans-73" d="M 2834 3397 
L 2834 2853 
Q 2591 2978 2328 3040 
Q 2066 3103 1784 3103 
Q 1356 3103 1142 2972 
Q 928 2841 928 2578 
Q 928 2378 1081 2264 
Q 1234 2150 1697 2047 
L 1894 2003 
Q 2506 1872 2764 1633 
Q 3022 1394 3022 966 
Q 3022 478 2636 193 
Q 2250 -91 1575 -91 
Q 1294 -91 989 -36 
Q 684 19 347 128 
L 347 722 
Q 666 556 975 473 
Q 1284 391 1588 391 
Q 1994 391 2212 530 
Q 2431 669 2431 922 
Q 2431 1156 2273 1281 
Q 2116 1406 1581 1522 
L 1381 1569 
Q 847 1681 609 1914 
Q 372 2147 372 2553 
Q 372 3047 722 3315 
Q 1072 3584 1716 3584 
Q 2034 3584 2315 3537 
Q 2597 3491 2834 3397 
z
" transform="scale(0.015625)"/>
      <path id="DejaVuSans-51" d="M 2522 4238 
Q 1834 4238 1429 3725 
Q 1025 3213 1025 2328 
Q 1025 1447 1429 934 
Q 1834 422 2522 422 
Q 3209 422 3611 934 
Q 4013 1447 4013 2328 
Q 4013 3213 3611 3725 
Q 3209 4238 2522 4238 
z
M 3406 84 
L 4238 -825 
L 3475 -825 
L 2784 -78 
Q 2681 -84 2626 -87 
Q 2572 -91 2522 -91 
Q 1538 -91 948 567 
Q 359 1225 359 2328 
Q 359 3434 948 4092 
Q 1538 4750 2522 4750 
Q 3503 4750 4090 4092 
Q 4678 3434 4678 2328 
Q 4678 1516 4351 937 
Q 4025 359 3406 84 
z
" transform="scale(0.015625)"/>
      <path id="DejaVuSans-43" d="M 4122 4306 
L 4122 3641 
Q 3803 3938 3442 4084 
Q 3081 4231 2675 4231 
Q 1875 4231 1450 3742 
Q 1025 3253 1025 2328 
Q 1025 1406 1450 917 
Q 1875 428 2675 428 
Q 3081 428 3442 575 
Q 3803 722 4122 1019 
L 4122 359 
Q 3791 134 3420 21 
Q 3050 -91 2638 -91 
Q 1578 -91 968 557 
Q 359 1206 359 2328 
Q 359 3453 968 4101 
Q 1578 4750 2638 4750 
Q 3056 4750 3426 4639 
Q 3797 4528 4122 4306 
z
" transform="scale(0.015625)"/>
      <path id="DejaVuSans-3a" d="M 750 794 
L 1409 794 
L 1409 0 
L 750 0 
L 750 794 
z
M 750 3309 
L 1409 3309 
L 1409 2516 
L 750 2516 
L 750 3309 
z
" transform="scale(0.015625)"/>
     </defs>
     <use xlink:href="#DejaVuSans-46"/>
     <use xlink:href="#DejaVuSans-61" x="48.394531"/>
     <use xlink:href="#DejaVuSans-73" x="109.673828"/>
     <use xlink:href="#DejaVuSans-74" x="161.773438"/>
     <use xlink:href="#DejaVuSans-51" x="200.982422"/>
     <use xlink:href="#DejaVuSans-43" x="279.693359"/>
     <use xlink:href="#DejaVuSans-3a" x="349.517578"/>
     <use xlink:href="#DejaVuSans-20" x="383.208984"/>
     <use xlink:href="#DejaVuSans-53" x="414.996094"/>
     <use xlink:href="#DejaVuSans-65" x="478.472656"/>
     <use xlink:href="#DejaVuSans-71" x="539.996094"/>
     <use xlink:href="#DejaVuSans-75" x="603.472656"/>
     <use xlink:href="#DejaVuSans-65" x="666.851562"/>
     <use xlink:href="#DejaVuSans-6e" x="728.375"/>
     <use xlink:href="#DejaVuSans-63" x="791.753906"/>
     <use xlink:href="#DejaVuSans-65" x="846.734375"/>
     <use xlink:href="#DejaVuSans-20" x="908.257812"/>
     <use xlink:href="#DejaVuSans-44" x="940.044922"/>
     <use xlink:href="#DejaVuSans-75" x="1017.046875"/>
     <use xlink:href="#DejaVuSans-70" x="1080.425781"/>
     <use xlink:href="#DejaVuSans-6c" x="1143.902344"/>
     <use xlink:href="#DejaVuSans-69" x="1171.685547"/>
     <use xlink:href="#DejaVuSans-63" x="1199.46875"/>
     <use xlink:href="#DejaVuSans-61" x="1254.449219"/>
     <use xlink:href="#DejaVuSans-74" x="1315.728516"/>
     <use xlink:href="#DejaVuSans-69" x="1354.9375"/>
     <use xlink:href="#DejaVuSans-6f" x="1382.720703"/>
     <use xlink:href="#DejaVuSans-6e" x="1443.902344"/>
     <use xlink:href="#DejaVuSans-20" x="1507.28125"/>
     <use xlink:href="#DejaVuSans-4c" x="1539.068359"/>
     <use xlink:href="#DejaVuSans-65" x="1593.03125"/>
     <use xlink:href="#DejaVuSans-76" x="1654.554688"/>
     <use xlink:href="#DejaVuSans-65" x="1713.734375"/>
     <use xlink:href="#DejaVuSans-6c" x="1775.257812"/>
     <use xlink:href="#DejaVuSans-73" x="1803.041016"/>
    </g>
   </g>
  </g>
 </g>
 <defs>
  <clipPath id="pfed155c744">
   <rect x="43.148125" y="35.2559" width="949.93" height="317.968"/>
  </clipPath>
 </defs>
</svg>
