<?xml version="1.0" encoding="utf-8" standalone="no"?>
<!DOCTYPE svg PUBLIC "-//W3C//DTD SVG 1.1//EN"
  "http://www.w3.org/Graphics/SVG/1.1/DTD/svg11.dtd">
<svg xmlns:xlink="http://www.w3.org/1999/xlink" width="1000.340625pt" height="388.844525pt" viewBox="0 0 1000.340625 388.844525" xmlns="http://www.w3.org/2000/svg" version="1.1">
 <metadata>
  <rdf:RDF xmlns:dc="http://purl.org/dc/elements/1.1/" xmlns:cc="http://creativecommons.org/ns#" xmlns:rdf="http://www.w3.org/1999/02/22-rdf-syntax-ns#">
   <cc:Work>
    <dc:type rdf:resource="http://purl.org/dc/dcmitype/StillImage"/>
    <dc:date>2024-10-04T22:02:23.571396</dc:date>
    <dc:format>image/svg+xml</dc:format>
    <dc:creator>
     <cc:Agent>
      <dc:title>Matplotlib v3.8.1, https://matplotlib.org/</dc:title>
     </cc:Agent>
    </dc:creator>
   </cc:Work>
  </rdf:RDF>
 </metadata>
 <defs>
  <style type="text/css">*{stroke-linejoin: round; stroke-linecap: butt}</style>
 </defs>
 <g id="figure_1">
  <g id="axes_1">
   <g id="patch_1">
    <path d="M 40.600625 353.2239 
L 993.140625 353.2239 
L 993.140625 35.2559 
L 40.600625 35.2559 
z
" style="fill: #ffffff"/>
   </g>
   <g id="patch_2">
    <path d="M 677.142868 353.2239 
L 2313.96578 353.2239 
L 2313.96578 35.2559 
L 677.142868 35.2559 
z
" clip-path="url(#p3f623deac6)" style="fill: #c3e6c3"/>
   </g>
   <g id="patch_3">
    <path d="M 495.273656 353.2239 
L 677.142868 353.2239 
L 677.142868 35.2559 
L 495.273656 35.2559 
z
" clip-path="url(#p3f623deac6)" style="fill: #e6dcc3"/>
   </g>
   <g id="patch_4">
    <path d="M 40.600625 353.2239 
L 495.273656 353.2239 
L 495.273656 35.2559 
L 40.600625 35.2559 
z
" clip-path="url(#p3f623deac6)" style="fill: #e6c3c3"/>
   </g>
   <g id="matplotlib.axis_1">
    <g id="xtick_1">
     <g id="text_1">
      <!-- 0 -->
      <g transform="translate(38.055625 366.30265) scale(0.08 -0.08)">
       <defs>
        <path id="DejaVuSans-30" d="M 2034 4250 
Q 1547 4250 1301 3770 
Q 1056 3291 1056 2328 
Q 1056 1369 1301 889 
Q 1547 409 2034 409 
Q 2525 409 2770 889 
Q 3016 1369 3016 2328 
Q 3016 3291 2770 3770 
Q 2525 4250 2034 4250 
z
M 2034 4750 
Q 2819 4750 3233 4129 
Q 3647 3509 3647 2328 
Q 3647 1150 3233 529 
Q 2819 -91 2034 -91 
Q 1250 -91 836 529 
Q 422 1150 422 2328 
Q 422 3509 836 4129 
Q 1250 4750 2034 4750 
z
" transform="scale(0.015625)"/>
       </defs>
       <use xlink:href="#DejaVuSans-30"/>
      </g>
     </g>
    </g>
    <g id="xtick_2">
     <g id="text_2">
      <!-- 5 -->
      <g transform="translate(151.723883 366.30265) scale(0.08 -0.08)">
       <defs>
        <path id="DejaVuSans-35" d="M 691 4666 
L 3169 4666 
L 3169 4134 
L 1269 4134 
L 1269 2991 
Q 1406 3038 1543 3061 
Q 1681 3084 1819 3084 
Q 2600 3084 3056 2656 
Q 3513 2228 3513 1497 
Q 3513 744 3044 326 
Q 2575 -91 1722 -91 
Q 1428 -91 1123 -41 
Q 819 9 494 109 
L 494 744 
Q 775 591 1075 516 
Q 1375 441 1709 441 
Q 2250 441 2565 725 
Q 2881 1009 2881 1497 
Q 2881 1984 2565 2268 
Q 2250 2553 1709 2553 
Q 1456 2553 1204 2497 
Q 953 2441 691 2322 
L 691 4666 
z
" transform="scale(0.015625)"/>
       </defs>
       <use xlink:href="#DejaVuSans-35"/>
      </g>
     </g>
    </g>
    <g id="xtick_3">
     <g id="text_3">
      <!-- 10 -->
      <g transform="translate(262.847141 366.30265) scale(0.08 -0.08)">
       <defs>
        <path id="DejaVuSans-31" d="M 794 531 
L 1825 531 
L 1825 4091 
L 703 3866 
L 703 4441 
L 1819 4666 
L 2450 4666 
L 2450 531 
L 3481 531 
L 3481 0 
L 794 0 
L 794 531 
z
" transform="scale(0.015625)"/>
       </defs>
       <use xlink:href="#DejaVuSans-31"/>
       <use xlink:href="#DejaVuSans-30" x="63.623047"/>
      </g>
     </g>
    </g>
    <g id="xtick_4">
     <g id="text_4">
      <!-- 15 -->
      <g transform="translate(376.515398 366.30265) scale(0.08 -0.08)">
       <use xlink:href="#DejaVuSans-31"/>
       <use xlink:href="#DejaVuSans-35" x="63.623047"/>
      </g>
     </g>
    </g>
    <g id="xtick_5">
     <g id="text_5">
      <!-- 20 -->
      <g transform="translate(490.183656 366.30265) scale(0.08 -0.08)">
       <defs>
        <path id="DejaVuSans-32" d="M 1228 531 
L 3431 531 
L 3431 0 
L 469 0 
L 469 531 
Q 828 903 1448 1529 
Q 2069 2156 2228 2338 
Q 2531 2678 2651 2914 
Q 2772 3150 2772 3378 
Q 2772 3750 2511 3984 
Q 2250 4219 1831 4219 
Q 1534 4219 1204 4116 
Q 875 4013 500 3803 
L 500 4441 
Q 881 4594 1212 4672 
Q 1544 4750 1819 4750 
Q 2544 4750 2975 4387 
Q 3406 4025 3406 3419 
Q 3406 3131 3298 2873 
Q 3191 2616 2906 2266 
Q 2828 2175 2409 1742 
Q 1991 1309 1228 531 
z
" transform="scale(0.015625)"/>
       </defs>
       <use xlink:href="#DejaVuSans-32"/>
       <use xlink:href="#DejaVuSans-30" x="63.623047"/>
      </g>
     </g>
    </g>
    <g id="xtick_6">
     <g id="text_6">
      <!-- 25 -->
      <g transform="translate(603.851914 366.30265) scale(0.08 -0.08)">
       <use xlink:href="#DejaVuSans-32"/>
       <use xlink:href="#DejaVuSans-35" x="63.623047"/>
      </g>
     </g>
    </g>
    <g id="xtick_7">
     <g id="text_7">
      <!-- 30 -->
      <g transform="translate(717.520172 366.30265) scale(0.08 -0.08)">
       <defs>
        <path id="DejaVuSans-33" d="M 2597 2516 
Q 3050 2419 3304 2112 
Q 3559 1806 3559 1356 
Q 3559 666 3084 287 
Q 2609 -91 1734 -91 
Q 1441 -91 1130 -33 
Q 819 25 488 141 
L 488 750 
Q 750 597 1062 519 
Q 1375 441 1716 441 
Q 2309 441 2620 675 
Q 2931 909 2931 1356 
Q 2931 1769 2642 2001 
Q 2353 2234 1838 2234 
L 1294 2234 
L 1294 2753 
L 1863 2753 
Q 2328 2753 2575 2939 
Q 2822 3125 2822 3475 
Q 2822 3834 2567 4026 
Q 2313 4219 1838 4219 
Q 1578 4219 1281 4162 
Q 984 4106 628 3988 
L 628 4550 
Q 988 4650 1302 4700 
Q 1616 4750 1894 4750 
Q 2613 4750 3031 4423 
Q 3450 4097 3450 3541 
Q 3450 3153 3228 2886 
Q 3006 2619 2597 2516 
z
" transform="scale(0.015625)"/>
       </defs>
       <use xlink:href="#DejaVuSans-33"/>
       <use xlink:href="#DejaVuSans-30" x="63.623047"/>
      </g>
     </g>
    </g>
    <g id="xtick_8">
     <g id="text_8">
      <!-- 35 -->
      <g transform="translate(831.188429 366.30265) scale(0.08 -0.08)">
       <use xlink:href="#DejaVuSans-33"/>
       <use xlink:href="#DejaVuSans-35" x="63.623047"/>
      </g>
     </g>
    </g>
    <g id="xtick_9">
     <g id="text_9">
      <!-- 40 -->
      <g transform="translate(944.856687 366.30265) scale(0.08 -0.08)">
       <defs>
        <path id="DejaVuSans-34" d="M 2419 4116 
L 825 1625 
L 2419 1625 
L 2419 4116 
z
M 2253 4666 
L 3047 4666 
L 3047 1625 
L 3713 1625 
L 3713 1100 
L 3047 1100 
L 3047 0 
L 2419 0 
L 2419 1100 
L 313 1100 
L 313 1709 
L 2253 4666 
z
" transform="scale(0.015625)"/>
       </defs>
       <use xlink:href="#DejaVuSans-34"/>
       <use xlink:href="#DejaVuSans-30" x="63.623047"/>
      </g>
     </g>
    </g>
    <g id="text_10">
     <!-- Mean Sequence Quality (Phred Score) -->
     <g transform="translate(422.078438 379.564837) scale(0.1 -0.1)">
      <defs>
       <path id="DejaVuSans-4d" d="M 628 4666 
L 1569 4666 
L 2759 1491 
L 3956 4666 
L 4897 4666 
L 4897 0 
L 4281 0 
L 4281 4097 
L 3078 897 
L 2444 897 
L 1241 4097 
L 1241 0 
L 628 0 
L 628 4666 
z
" transform="scale(0.015625)"/>
       <path id="DejaVuSans-65" d="M 3597 1894 
L 3597 1613 
L 953 1613 
Q 991 1019 1311 708 
Q 1631 397 2203 397 
Q 2534 397 2845 478 
Q 3156 559 3463 722 
L 3463 178 
Q 3153 47 2828 -22 
Q 2503 -91 2169 -91 
Q 1331 -91 842 396 
Q 353 884 353 1716 
Q 353 2575 817 3079 
Q 1281 3584 2069 3584 
Q 2775 3584 3186 3129 
Q 3597 2675 3597 1894 
z
M 3022 2063 
Q 3016 2534 2758 2815 
Q 2500 3097 2075 3097 
Q 1594 3097 1305 2825 
Q 1016 2553 972 2059 
L 3022 2063 
z
" transform="scale(0.015625)"/>
       <path id="DejaVuSans-61" d="M 2194 1759 
Q 1497 1759 1228 1600 
Q 959 1441 959 1056 
Q 959 750 1161 570 
Q 1363 391 1709 391 
Q 2188 391 2477 730 
Q 2766 1069 2766 1631 
L 2766 1759 
L 2194 1759 
z
M 3341 1997 
L 3341 0 
L 2766 0 
L 2766 531 
Q 2569 213 2275 61 
Q 1981 -91 1556 -91 
Q 1019 -91 701 211 
Q 384 513 384 1019 
Q 384 1609 779 1909 
Q 1175 2209 1959 2209 
L 2766 2209 
L 2766 2266 
Q 2766 2663 2505 2880 
Q 2244 3097 1772 3097 
Q 1472 3097 1187 3025 
Q 903 2953 641 2809 
L 641 3341 
Q 956 3463 1253 3523 
Q 1550 3584 1831 3584 
Q 2591 3584 2966 3190 
Q 3341 2797 3341 1997 
z
" transform="scale(0.015625)"/>
       <path id="DejaVuSans-6e" d="M 3513 2113 
L 3513 0 
L 2938 0 
L 2938 2094 
Q 2938 2591 2744 2837 
Q 2550 3084 2163 3084 
Q 1697 3084 1428 2787 
Q 1159 2491 1159 1978 
L 1159 0 
L 581 0 
L 581 3500 
L 1159 3500 
L 1159 2956 
Q 1366 3272 1645 3428 
Q 1925 3584 2291 3584 
Q 2894 3584 3203 3211 
Q 3513 2838 3513 2113 
z
" transform="scale(0.015625)"/>
       <path id="DejaVuSans-20" transform="scale(0.015625)"/>
       <path id="DejaVuSans-53" d="M 3425 4513 
L 3425 3897 
Q 3066 4069 2747 4153 
Q 2428 4238 2131 4238 
Q 1616 4238 1336 4038 
Q 1056 3838 1056 3469 
Q 1056 3159 1242 3001 
Q 1428 2844 1947 2747 
L 2328 2669 
Q 3034 2534 3370 2195 
Q 3706 1856 3706 1288 
Q 3706 609 3251 259 
Q 2797 -91 1919 -91 
Q 1588 -91 1214 -16 
Q 841 59 441 206 
L 441 856 
Q 825 641 1194 531 
Q 1563 422 1919 422 
Q 2459 422 2753 634 
Q 3047 847 3047 1241 
Q 3047 1584 2836 1778 
Q 2625 1972 2144 2069 
L 1759 2144 
Q 1053 2284 737 2584 
Q 422 2884 422 3419 
Q 422 4038 858 4394 
Q 1294 4750 2059 4750 
Q 2388 4750 2728 4690 
Q 3069 4631 3425 4513 
z
" transform="scale(0.015625)"/>
       <path id="DejaVuSans-71" d="M 947 1747 
Q 947 1113 1208 752 
Q 1469 391 1925 391 
Q 2381 391 2643 752 
Q 2906 1113 2906 1747 
Q 2906 2381 2643 2742 
Q 2381 3103 1925 3103 
Q 1469 3103 1208 2742 
Q 947 2381 947 1747 
z
M 2906 525 
Q 2725 213 2448 61 
Q 2172 -91 1784 -91 
Q 1150 -91 751 415 
Q 353 922 353 1747 
Q 353 2572 751 3078 
Q 1150 3584 1784 3584 
Q 2172 3584 2448 3432 
Q 2725 3281 2906 2969 
L 2906 3500 
L 3481 3500 
L 3481 -1331 
L 2906 -1331 
L 2906 525 
z
" transform="scale(0.015625)"/>
       <path id="DejaVuSans-75" d="M 544 1381 
L 544 3500 
L 1119 3500 
L 1119 1403 
Q 1119 906 1312 657 
Q 1506 409 1894 409 
Q 2359 409 2629 706 
Q 2900 1003 2900 1516 
L 2900 3500 
L 3475 3500 
L 3475 0 
L 2900 0 
L 2900 538 
Q 2691 219 2414 64 
Q 2138 -91 1772 -91 
Q 1169 -91 856 284 
Q 544 659 544 1381 
z
M 1991 3584 
L 1991 3584 
z
" transform="scale(0.015625)"/>
       <path id="DejaVuSans-63" d="M 3122 3366 
L 3122 2828 
Q 2878 2963 2633 3030 
Q 2388 3097 2138 3097 
Q 1578 3097 1268 2742 
Q 959 2388 959 1747 
Q 959 1106 1268 751 
Q 1578 397 2138 397 
Q 2388 397 2633 464 
Q 2878 531 3122 666 
L 3122 134 
Q 2881 22 2623 -34 
Q 2366 -91 2075 -91 
Q 1284 -91 818 406 
Q 353 903 353 1747 
Q 353 2603 823 3093 
Q 1294 3584 2113 3584 
Q 2378 3584 2631 3529 
Q 2884 3475 3122 3366 
z
" transform="scale(0.015625)"/>
       <path id="DejaVuSans-51" d="M 2522 4238 
Q 1834 4238 1429 3725 
Q 1025 3213 1025 2328 
Q 1025 1447 1429 934 
Q 1834 422 2522 422 
Q 3209 422 3611 934 
Q 4013 1447 4013 2328 
Q 4013 3213 3611 3725 
Q 3209 4238 2522 4238 
z
M 3406 84 
L 4238 -825 
L 3475 -825 
L 2784 -78 
Q 2681 -84 2626 -87 
Q 2572 -91 2522 -91 
Q 1538 -91 948 567 
Q 359 1225 359 2328 
Q 359 3434 948 4092 
Q 1538 4750 2522 4750 
Q 3503 4750 4090 4092 
Q 4678 3434 4678 2328 
Q 4678 1516 4351 937 
Q 4025 359 3406 84 
z
" transform="scale(0.015625)"/>
       <path id="DejaVuSans-6c" d="M 603 4863 
L 1178 4863 
L 1178 0 
L 603 0 
L 603 4863 
z
" transform="scale(0.015625)"/>
       <path id="DejaVuSans-69" d="M 603 3500 
L 1178 3500 
L 1178 0 
L 603 0 
L 603 3500 
z
M 603 4863 
L 1178 4863 
L 1178 4134 
L 603 4134 
L 603 4863 
z
" transform="scale(0.015625)"/>
       <path id="DejaVuSans-74" d="M 1172 4494 
L 1172 3500 
L 2356 3500 
L 2356 3053 
L 1172 3053 
L 1172 1153 
Q 1172 725 1289 603 
Q 1406 481 1766 481 
L 2356 481 
L 2356 0 
L 1766 0 
Q 1100 0 847 248 
Q 594 497 594 1153 
L 594 3053 
L 172 3053 
L 172 3500 
L 594 3500 
L 594 4494 
L 1172 4494 
z
" transform="scale(0.015625)"/>
       <path id="DejaVuSans-79" d="M 2059 -325 
Q 1816 -950 1584 -1140 
Q 1353 -1331 966 -1331 
L 506 -1331 
L 506 -850 
L 844 -850 
Q 1081 -850 1212 -737 
Q 1344 -625 1503 -206 
L 1606 56 
L 191 3500 
L 800 3500 
L 1894 763 
L 2988 3500 
L 3597 3500 
L 2059 -325 
z
" transform="scale(0.015625)"/>
       <path id="DejaVuSans-28" d="M 1984 4856 
Q 1566 4138 1362 3434 
Q 1159 2731 1159 2009 
Q 1159 1288 1364 580 
Q 1569 -128 1984 -844 
L 1484 -844 
Q 1016 -109 783 600 
Q 550 1309 550 2009 
Q 550 2706 781 3412 
Q 1013 4119 1484 4856 
L 1984 4856 
z
" transform="scale(0.015625)"/>
       <path id="DejaVuSans-50" d="M 1259 4147 
L 1259 2394 
L 2053 2394 
Q 2494 2394 2734 2622 
Q 2975 2850 2975 3272 
Q 2975 3691 2734 3919 
Q 2494 4147 2053 4147 
L 1259 4147 
z
M 628 4666 
L 2053 4666 
Q 2838 4666 3239 4311 
Q 3641 3956 3641 3272 
Q 3641 2581 3239 2228 
Q 2838 1875 2053 1875 
L 1259 1875 
L 1259 0 
L 628 0 
L 628 4666 
z
" transform="scale(0.015625)"/>
       <path id="DejaVuSans-68" d="M 3513 2113 
L 3513 0 
L 2938 0 
L 2938 2094 
Q 2938 2591 2744 2837 
Q 2550 3084 2163 3084 
Q 1697 3084 1428 2787 
Q 1159 2491 1159 1978 
L 1159 0 
L 581 0 
L 581 4863 
L 1159 4863 
L 1159 2956 
Q 1366 3272 1645 3428 
Q 1925 3584 2291 3584 
Q 2894 3584 3203 3211 
Q 3513 2838 3513 2113 
z
" transform="scale(0.015625)"/>
       <path id="DejaVuSans-72" d="M 2631 2963 
Q 2534 3019 2420 3045 
Q 2306 3072 2169 3072 
Q 1681 3072 1420 2755 
Q 1159 2438 1159 1844 
L 1159 0 
L 581 0 
L 581 3500 
L 1159 3500 
L 1159 2956 
Q 1341 3275 1631 3429 
Q 1922 3584 2338 3584 
Q 2397 3584 2469 3576 
Q 2541 3569 2628 3553 
L 2631 2963 
z
" transform="scale(0.015625)"/>
       <path id="DejaVuSans-64" d="M 2906 2969 
L 2906 4863 
L 3481 4863 
L 3481 0 
L 2906 0 
L 2906 525 
Q 2725 213 2448 61 
Q 2172 -91 1784 -91 
Q 1150 -91 751 415 
Q 353 922 353 1747 
Q 353 2572 751 3078 
Q 1150 3584 1784 3584 
Q 2172 3584 2448 3432 
Q 2725 3281 2906 2969 
z
M 947 1747 
Q 947 1113 1208 752 
Q 1469 391 1925 391 
Q 2381 391 2643 752 
Q 2906 1113 2906 1747 
Q 2906 2381 2643 2742 
Q 2381 3103 1925 3103 
Q 1469 3103 1208 2742 
Q 947 2381 947 1747 
z
" transform="scale(0.015625)"/>
       <path id="DejaVuSans-6f" d="M 1959 3097 
Q 1497 3097 1228 2736 
Q 959 2375 959 1747 
Q 959 1119 1226 758 
Q 1494 397 1959 397 
Q 2419 397 2687 759 
Q 2956 1122 2956 1747 
Q 2956 2369 2687 2733 
Q 2419 3097 1959 3097 
z
M 1959 3584 
Q 2709 3584 3137 3096 
Q 3566 2609 3566 1747 
Q 3566 888 3137 398 
Q 2709 -91 1959 -91 
Q 1206 -91 779 398 
Q 353 888 353 1747 
Q 353 2609 779 3096 
Q 1206 3584 1959 3584 
z
" transform="scale(0.015625)"/>
       <path id="DejaVuSans-29" d="M 513 4856 
L 1013 4856 
Q 1481 4119 1714 3412 
Q 1947 2706 1947 2009 
Q 1947 1309 1714 600 
Q 1481 -109 1013 -844 
L 513 -844 
Q 928 -128 1133 580 
Q 1338 1288 1338 2009 
Q 1338 2731 1133 3434 
Q 928 4138 513 4856 
z
" transform="scale(0.015625)"/>
      </defs>
      <use xlink:href="#DejaVuSans-4d"/>
      <use xlink:href="#DejaVuSans-65" x="86.279297"/>
      <use xlink:href="#DejaVuSans-61" x="147.802734"/>
      <use xlink:href="#DejaVuSans-6e" x="209.082031"/>
      <use xlink:href="#DejaVuSans-20" x="272.460938"/>
      <use xlink:href="#DejaVuSans-53" x="304.248047"/>
      <use xlink:href="#DejaVuSans-65" x="367.724609"/>
      <use xlink:href="#DejaVuSans-71" x="429.248047"/>
      <use xlink:href="#DejaVuSans-75" x="492.724609"/>
      <use xlink:href="#DejaVuSans-65" x="556.103516"/>
      <use xlink:href="#DejaVuSans-6e" x="617.626953"/>
      <use xlink:href="#DejaVuSans-63" x="681.005859"/>
      <use xlink:href="#DejaVuSans-65" x="735.986328"/>
      <use xlink:href="#DejaVuSans-20" x="797.509766"/>
      <use xlink:href="#DejaVuSans-51" x="829.296875"/>
      <use xlink:href="#DejaVuSans-75" x="908.007812"/>
      <use xlink:href="#DejaVuSans-61" x="971.386719"/>
      <use xlink:href="#DejaVuSans-6c" x="1032.666016"/>
      <use xlink:href="#DejaVuSans-69" x="1060.449219"/>
      <use xlink:href="#DejaVuSans-74" x="1088.232422"/>
      <use xlink:href="#DejaVuSans-79" x="1127.441406"/>
      <use xlink:href="#DejaVuSans-20" x="1186.621094"/>
      <use xlink:href="#DejaVuSans-28" x="1218.408203"/>
      <use xlink:href="#DejaVuSans-50" x="1257.421875"/>
      <use xlink:href="#DejaVuSans-68" x="1317.724609"/>
      <use xlink:href="#DejaVuSans-72" x="1381.103516"/>
      <use xlink:href="#DejaVuSans-65" x="1419.966797"/>
      <use xlink:href="#DejaVuSans-64" x="1481.490234"/>
      <use xlink:href="#DejaVuSans-20" x="1544.966797"/>
      <use xlink:href="#DejaVuSans-53" x="1576.753906"/>
      <use xlink:href="#DejaVuSans-63" x="1640.230469"/>
      <use xlink:href="#DejaVuSans-6f" x="1695.210938"/>
      <use xlink:href="#DejaVuSans-72" x="1756.392578"/>
      <use xlink:href="#DejaVuSans-65" x="1795.255859"/>
      <use xlink:href="#DejaVuSans-29" x="1856.779297"/>
     </g>
    </g>
   </g>
   <g id="matplotlib.axis_2">
    <g id="ytick_1">
     <g id="line2d_1">
      <path d="M 40.600625 353.2239 
L 993.140625 353.2239 
" clip-path="url(#p3f623deac6)" style="fill: none; stroke: #dedede; stroke-linecap: square"/>
     </g>
     <g id="text_11">
      <!-- 0.0 -->
      <g transform="translate(20.878125 356.263275) scale(0.08 -0.08)">
       <defs>
        <path id="DejaVuSans-2e" d="M 684 794 
L 1344 794 
L 1344 0 
L 684 0 
L 684 794 
z
" transform="scale(0.015625)"/>
       </defs>
       <use xlink:href="#DejaVuSans-30"/>
       <use xlink:href="#DejaVuSans-2e" x="63.623047"/>
       <use xlink:href="#DejaVuSans-30" x="95.410156"/>
      </g>
     </g>
    </g>
    <g id="ytick_2">
     <g id="line2d_2">
      <path d="M 40.600625 313.316648 
L 993.140625 313.316648 
" clip-path="url(#p3f623deac6)" style="fill: none; stroke: #dedede; stroke-linecap: square"/>
     </g>
     <g id="text_12">
      <!-- 0.2 -->
      <g transform="translate(20.878125 316.356023) scale(0.08 -0.08)">
       <use xlink:href="#DejaVuSans-30"/>
       <use xlink:href="#DejaVuSans-2e" x="63.623047"/>
       <use xlink:href="#DejaVuSans-32" x="95.410156"/>
      </g>
     </g>
    </g>
    <g id="ytick_3">
     <g id="line2d_3">
      <path d="M 40.600625 273.409396 
L 993.140625 273.409396 
" clip-path="url(#p3f623deac6)" style="fill: none; stroke: #dedede; stroke-linecap: square"/>
     </g>
     <g id="text_13">
      <!-- 0.4 -->
      <g transform="translate(20.878125 276.448771) scale(0.08 -0.08)">
       <use xlink:href="#DejaVuSans-30"/>
       <use xlink:href="#DejaVuSans-2e" x="63.623047"/>
       <use xlink:href="#DejaVuSans-34" x="95.410156"/>
      </g>
     </g>
    </g>
    <g id="ytick_4">
     <g id="line2d_4">
      <path d="M 40.600625 233.502143 
L 993.140625 233.502143 
" clip-path="url(#p3f623deac6)" style="fill: none; stroke: #dedede; stroke-linecap: square"/>
     </g>
     <g id="text_14">
      <!-- 0.6 -->
      <g transform="translate(20.878125 236.541518) scale(0.08 -0.08)">
       <defs>
        <path id="DejaVuSans-36" d="M 2113 2584 
Q 1688 2584 1439 2293 
Q 1191 2003 1191 1497 
Q 1191 994 1439 701 
Q 1688 409 2113 409 
Q 2538 409 2786 701 
Q 3034 994 3034 1497 
Q 3034 2003 2786 2293 
Q 2538 2584 2113 2584 
z
M 3366 4563 
L 3366 3988 
Q 3128 4100 2886 4159 
Q 2644 4219 2406 4219 
Q 1781 4219 1451 3797 
Q 1122 3375 1075 2522 
Q 1259 2794 1537 2939 
Q 1816 3084 2150 3084 
Q 2853 3084 3261 2657 
Q 3669 2231 3669 1497 
Q 3669 778 3244 343 
Q 2819 -91 2113 -91 
Q 1303 -91 875 529 
Q 447 1150 447 2328 
Q 447 3434 972 4092 
Q 1497 4750 2381 4750 
Q 2619 4750 2861 4703 
Q 3103 4656 3366 4563 
z
" transform="scale(0.015625)"/>
       </defs>
       <use xlink:href="#DejaVuSans-30"/>
       <use xlink:href="#DejaVuSans-2e" x="63.623047"/>
       <use xlink:href="#DejaVuSans-36" x="95.410156"/>
      </g>
     </g>
    </g>
    <g id="ytick_5">
     <g id="line2d_5">
      <path d="M 40.600625 193.594891 
L 993.140625 193.594891 
" clip-path="url(#p3f623deac6)" style="fill: none; stroke: #dedede; stroke-linecap: square"/>
     </g>
     <g id="text_15">
      <!-- 0.8 -->
      <g transform="translate(20.878125 196.634266) scale(0.08 -0.08)">
       <defs>
        <path id="DejaVuSans-38" d="M 2034 2216 
Q 1584 2216 1326 1975 
Q 1069 1734 1069 1313 
Q 1069 891 1326 650 
Q 1584 409 2034 409 
Q 2484 409 2743 651 
Q 3003 894 3003 1313 
Q 3003 1734 2745 1975 
Q 2488 2216 2034 2216 
z
M 1403 2484 
Q 997 2584 770 2862 
Q 544 3141 544 3541 
Q 544 4100 942 4425 
Q 1341 4750 2034 4750 
Q 2731 4750 3128 4425 
Q 3525 4100 3525 3541 
Q 3525 3141 3298 2862 
Q 3072 2584 2669 2484 
Q 3125 2378 3379 2068 
Q 3634 1759 3634 1313 
Q 3634 634 3220 271 
Q 2806 -91 2034 -91 
Q 1263 -91 848 271 
Q 434 634 434 1313 
Q 434 1759 690 2068 
Q 947 2378 1403 2484 
z
M 1172 3481 
Q 1172 3119 1398 2916 
Q 1625 2713 2034 2713 
Q 2441 2713 2670 2916 
Q 2900 3119 2900 3481 
Q 2900 3844 2670 4047 
Q 2441 4250 2034 4250 
Q 1625 4250 1398 4047 
Q 1172 3844 1172 3481 
z
" transform="scale(0.015625)"/>
       </defs>
       <use xlink:href="#DejaVuSans-30"/>
       <use xlink:href="#DejaVuSans-2e" x="63.623047"/>
       <use xlink:href="#DejaVuSans-38" x="95.410156"/>
      </g>
     </g>
    </g>
    <g id="ytick_6">
     <g id="line2d_6">
      <path d="M 40.600625 153.687639 
L 993.140625 153.687639 
" clip-path="url(#p3f623deac6)" style="fill: none; stroke: #dedede; stroke-linecap: square"/>
     </g>
     <g id="text_16">
      <!-- 1.0 -->
      <g transform="translate(20.878125 156.727014) scale(0.08 -0.08)">
       <use xlink:href="#DejaVuSans-31"/>
       <use xlink:href="#DejaVuSans-2e" x="63.623047"/>
       <use xlink:href="#DejaVuSans-30" x="95.410156"/>
      </g>
     </g>
    </g>
    <g id="ytick_7">
     <g id="line2d_7">
      <path d="M 40.600625 113.780387 
L 993.140625 113.780387 
" clip-path="url(#p3f623deac6)" style="fill: none; stroke: #dedede; stroke-linecap: square"/>
     </g>
     <g id="text_17">
      <!-- 1.2 -->
      <g transform="translate(20.878125 116.819762) scale(0.08 -0.08)">
       <use xlink:href="#DejaVuSans-31"/>
       <use xlink:href="#DejaVuSans-2e" x="63.623047"/>
       <use xlink:href="#DejaVuSans-32" x="95.410156"/>
      </g>
     </g>
    </g>
    <g id="ytick_8">
     <g id="line2d_8">
      <path d="M 40.600625 73.873134 
L 993.140625 73.873134 
" clip-path="url(#p3f623deac6)" style="fill: none; stroke: #dedede; stroke-linecap: square"/>
     </g>
     <g id="text_18">
      <!-- 1.4 -->
      <g transform="translate(20.878125 76.912509) scale(0.08 -0.08)">
       <use xlink:href="#DejaVuSans-31"/>
       <use xlink:href="#DejaVuSans-2e" x="63.623047"/>
       <use xlink:href="#DejaVuSans-34" x="95.410156"/>
      </g>
     </g>
    </g>
    <g id="text_19">
     <!-- Count -->
     <g transform="translate(14.798438 209.088338) rotate(-90) scale(0.1 -0.1)">
      <defs>
       <path id="DejaVuSans-43" d="M 4122 4306 
L 4122 3641 
Q 3803 3938 3442 4084 
Q 3081 4231 2675 4231 
Q 1875 4231 1450 3742 
Q 1025 3253 1025 2328 
Q 1025 1406 1450 917 
Q 1875 428 2675 428 
Q 3081 428 3442 575 
Q 3803 722 4122 1019 
L 4122 359 
Q 3791 134 3420 21 
Q 3050 -91 2638 -91 
Q 1578 -91 968 557 
Q 359 1206 359 2328 
Q 359 3453 968 4101 
Q 1578 4750 2638 4750 
Q 3056 4750 3426 4639 
Q 3797 4528 4122 4306 
z
" transform="scale(0.015625)"/>
      </defs>
      <use xlink:href="#DejaVuSans-43"/>
      <use xlink:href="#DejaVuSans-6f" x="69.824219"/>
      <use xlink:href="#DejaVuSans-75" x="131.005859"/>
      <use xlink:href="#DejaVuSans-6e" x="194.384766"/>
      <use xlink:href="#DejaVuSans-74" x="257.763672"/>
     </g>
    </g>
    <g id="text_20">
     <!-- 1e7 -->
     <g transform="translate(40.600625 32.2559) scale(0.1 -0.1)">
      <defs>
       <path id="DejaVuSans-37" d="M 525 4666 
L 3525 4666 
L 3525 4397 
L 1831 0 
L 1172 0 
L 2766 4134 
L 525 4134 
L 525 4666 
z
" transform="scale(0.015625)"/>
      </defs>
      <use xlink:href="#DejaVuSans-31"/>
      <use xlink:href="#DejaVuSans-65" x="63.623047"/>
      <use xlink:href="#DejaVuSans-37" x="125.146484"/>
     </g>
    </g>
   </g>
   <g id="line2d_9">
    <path d="M 86.067928 353.176191 
L 108.80158 353.215639 
L 131.535231 353.205243 
L 154.268883 353.188003 
L 177.002534 353.158292 
L 199.736186 353.10771 
L 222.469837 353.020473 
L 245.203489 352.891133 
L 267.937141 352.774345 
L 290.670792 352.663303 
L 313.404444 352.581433 
L 336.138095 352.482104 
L 358.871747 352.435592 
L 381.605398 352.358152 
L 404.33905 352.292385 
L 427.072701 352.235078 
L 449.806353 352.172424 
L 472.540004 352.131259 
L 495.273656 352.095024 
L 518.007308 352.04081 
L 540.740959 351.954849 
L 563.474611 351.814595 
L 586.208262 351.550888 
L 608.941914 351.176558 
L 631.675565 350.674964 
L 654.409217 350.040838 
L 677.142868 349.267435 
L 699.87652 348.276299 
L 722.610172 347.054199 
L 745.343823 345.299457 
L 768.077475 342.781329 
L 790.811126 338.643227 
L 813.544778 330.43201 
L 836.278429 310.455996 
L 859.012081 260.46462 
L 881.745732 225.873174 
L 904.479384 293.479092 
L 927.213036 340.321406 
L 949.946687 353.131495 
" clip-path="url(#p3f623deac6)" style="fill: none; stroke: #5cb85c; stroke-linecap: square"/>
   </g>
   <g id="line2d_10">
    <path d="M 86.067928 350.762341 
L 108.80158 352.402429 
L 131.535231 352.4235 
L 154.268883 352.35911 
L 177.002534 352.212072 
L 199.736186 352.110987 
L 222.469837 351.932062 
L 245.203489 351.793744 
L 267.937141 351.680527 
L 290.670792 351.672486 
L 313.404444 351.671308 
L 336.138095 351.677354 
L 358.871747 351.748928 
L 381.605398 351.754794 
L 404.33905 351.703733 
L 427.072701 351.614441 
L 449.806353 351.5286 
L 472.540004 351.361429 
L 495.273656 351.295482 
L 518.007308 351.094688 
L 540.740959 350.934022 
L 563.474611 350.679194 
L 586.208262 350.355167 
L 608.941914 349.978283 
L 631.675565 349.49774 
L 654.409217 348.917269 
L 677.142868 348.166095 
L 699.87652 347.170349 
L 722.610172 345.838265 
L 745.343823 343.962365 
L 768.077475 341.169775 
L 790.811126 336.575253 
L 813.544778 327.945868 
L 836.278429 309.812412 
L 859.012081 269.890893 
L 881.745732 247.029624 
L 904.479384 300.216713 
L 927.213036 339.853374 
L 949.946687 353.124351 
" clip-path="url(#p3f623deac6)" style="fill: none; stroke: #5cb85c; stroke-linecap: square"/>
   </g>
   <g id="line2d_11">
    <path d="M 86.067928 353.173058 
L 108.80158 353.215719 
L 131.535231 353.201951 
L 154.268883 353.184711 
L 177.002534 353.152027 
L 199.736186 353.106892 
L 222.469837 353.04298 
L 245.203489 352.948799 
L 267.937141 352.868127 
L 290.670792 352.779672 
L 313.404444 352.727434 
L 336.138095 352.663502 
L 358.871747 352.630699 
L 381.605398 352.588237 
L 404.33905 352.543122 
L 427.072701 352.498246 
L 449.806353 352.464146 
L 472.540004 352.435512 
L 495.273656 352.404345 
L 518.007308 352.362721 
L 540.740959 352.306712 
L 563.474611 352.197066 
L 586.208262 352.009881 
L 608.941914 351.734262 
L 631.675565 351.372962 
L 654.409217 350.918079 
L 677.142868 350.352952 
L 699.87652 349.628416 
L 722.610172 348.725155 
L 745.343823 347.451116 
L 768.077475 345.601116 
L 790.811126 342.584367 
L 813.544778 336.694795 
L 836.278429 322.635211 
L 859.012081 286.645753 
L 881.745732 258.646446 
L 904.479384 307.266928 
L 927.213036 343.6805 
L 949.946687 353.164199 
" clip-path="url(#p3f623deac6)" style="fill: none; stroke: #5cb85c; stroke-linecap: square"/>
   </g>
   <g id="line2d_12">
    <path d="M 86.067928 351.024013 
L 108.80158 352.538393 
L 131.535231 352.599272 
L 154.268883 352.573112 
L 177.002534 352.481426 
L 199.736186 352.418931 
L 222.469837 352.31192 
L 245.203489 352.235457 
L 267.937141 352.153687 
L 290.670792 352.151852 
L 313.404444 352.161469 
L 336.138095 352.171725 
L 358.871747 352.213389 
L 381.605398 352.206564 
L 404.33905 352.182041 
L 427.072701 352.11358 
L 449.806353 352.037737 
L 472.540004 351.92891 
L 495.273656 351.874356 
L 518.007308 351.72233 
L 540.740959 351.617613 
L 563.474611 351.424502 
L 586.208262 351.202717 
L 608.941914 350.903174 
L 631.675565 350.57326 
L 654.409217 350.170556 
L 677.142868 349.62672 
L 699.87652 348.904818 
L 722.610172 347.95301 
L 745.343823 346.627171 
L 768.077475 344.609501 
L 790.811126 341.307056 
L 813.544778 335.230139 
L 836.278429 322.323415 
L 859.012081 292.788517 
L 881.745732 272.979335 
L 904.479384 311.801389 
L 927.213036 343.302358 
L 949.946687 353.162403 
" clip-path="url(#p3f623deac6)" style="fill: none; stroke: #5cb85c; stroke-linecap: square"/>
   </g>
   <g id="line2d_13">
    <path d="M 86.067928 353.093403 
L 108.80158 353.204286 
L 131.535231 353.173796 
L 154.268883 353.138299 
L 177.002534 353.073929 
L 199.736186 352.984556 
L 222.469837 352.855676 
L 245.203489 352.676353 
L 267.937141 352.534283 
L 290.670792 352.372958 
L 313.404444 352.263911 
L 336.138095 352.133075 
L 358.871747 352.064275 
L 381.605398 351.98021 
L 404.33905 351.895008 
L 427.072701 351.815234 
L 449.806353 351.753098 
L 472.540004 351.714727 
L 495.273656 351.658498 
L 518.007308 351.587423 
L 540.740959 351.470934 
L 563.474611 351.280836 
L 586.208262 350.93033 
L 608.941914 350.413512 
L 631.675565 349.757636 
L 654.409217 348.921838 
L 677.142868 347.867269 
L 699.87652 346.564058 
L 722.610172 344.87636 
L 745.343823 342.588158 
L 768.077475 339.215457 
L 790.811126 333.582369 
L 813.544778 322.570282 
L 836.278429 295.732515 
L 859.012081 229.115518 
L 881.745732 183.826553 
L 904.479384 273.345005 
L 927.213036 336.458624 
L 949.946687 353.105276 
" clip-path="url(#p3f623deac6)" style="fill: none; stroke: #5cb85c; stroke-linecap: square"/>
   </g>
   <g id="line2d_14">
    <path d="M 86.067928 349.610438 
L 108.80158 352.035442 
L 131.535231 352.081375 
L 154.268883 352.008924 
L 177.002534 351.817628 
L 199.736186 351.686713 
L 222.469837 351.473049 
L 245.203489 351.291092 
L 267.937141 351.141061 
L 290.670792 351.09838 
L 313.404444 351.133139 
L 336.138095 351.160675 
L 358.871747 351.245717 
L 381.605398 351.238654 
L 404.33905 351.186655 
L 427.072701 351.063421 
L 449.806353 350.932306 
L 472.540004 350.729876 
L 495.273656 350.622147 
L 518.007308 350.355486 
L 540.740959 350.114726 
L 563.474611 349.788484 
L 586.208262 349.353176 
L 608.941914 348.810577 
L 631.675565 348.209554 
L 654.409217 347.434495 
L 677.142868 346.417279 
L 699.87652 345.084856 
L 722.610172 343.29745 
L 745.343823 340.773755 
L 768.077475 337.021137 
L 790.811126 330.848003 
L 813.544778 319.24938 
L 836.278429 294.8871 
L 859.012081 241.637995 
L 881.745732 211.833443 
L 904.479384 281.961799 
L 927.213036 335.861871 
L 949.946687 353.098272 
" clip-path="url(#p3f623deac6)" style="fill: none; stroke: #5cb85c; stroke-linecap: square"/>
   </g>
   <g id="line2d_15">
    <path d="M 86.067928 353.078318 
L 108.80158 353.203248 
L 131.535231 353.169526 
L 154.268883 353.130258 
L 177.002534 353.064012 
L 199.736186 352.986113 
L 222.469837 352.885566 
L 245.203489 352.758921 
L 267.937141 352.639658 
L 290.670792 352.513052 
L 313.404444 352.429626 
L 336.138095 352.322914 
L 358.871747 352.263931 
L 381.605398 352.204848 
L 404.33905 352.130122 
L 427.072701 352.091831 
L 449.806353 352.047813 
L 472.540004 352.021494 
L 495.273656 351.979971 
L 518.007308 351.95876 
L 540.740959 351.87288 
L 563.474611 351.70942 
L 586.208262 351.467103 
L 608.941914 351.079264 
L 631.675565 350.595888 
L 654.409217 349.969903 
L 677.142868 349.185506 
L 699.87652 348.203707 
L 722.610172 346.942498 
L 745.343823 345.248236 
L 768.077475 342.75533 
L 790.811126 338.696204 
L 813.544778 330.95697 
L 836.278429 312.483145 
L 859.012081 264.861601 
L 881.745732 221.090768 
L 904.479384 266.394219 
L 927.213036 330.941766 
L 949.946687 353.03043 
" clip-path="url(#p3f623deac6)" style="fill: none; stroke: #5cb85c; stroke-linecap: square"/>
   </g>
   <g id="line2d_16">
    <path d="M 86.067928 350.679414 
L 108.80158 352.377627 
L 131.535231 352.399795 
L 154.268883 352.343207 
L 177.002534 352.20423 
L 199.736186 352.110268 
L 222.469837 351.946269 
L 245.203489 351.814895 
L 267.937141 351.690065 
L 290.670792 351.675499 
L 313.404444 351.676736 
L 336.138095 351.689426 
L 358.871747 351.741266 
L 381.605398 351.731728 
L 404.33905 351.701398 
L 427.072701 351.60187 
L 449.806353 351.518623 
L 472.540004 351.354724 
L 495.273656 351.263995 
L 518.007308 351.061605 
L 540.740959 350.915345 
L 563.474611 350.663331 
L 586.208262 350.336131 
L 608.941914 349.944741 
L 631.675565 349.488781 
L 654.409217 348.923355 
L 677.142868 348.175732 
L 699.87652 347.212671 
L 722.610172 345.88773 
L 745.343823 344.108964 
L 768.077475 341.411194 
L 790.811126 337.062121 
L 813.544778 329.064329 
L 836.278429 312.090637 
L 859.012081 272.614403 
L 881.745732 239.476957 
L 904.479384 273.420849 
L 927.213036 329.966213 
L 949.946687 353.018697 
" clip-path="url(#p3f623deac6)" style="fill: none; stroke: #5cb85c; stroke-linecap: square"/>
   </g>
   <g id="line2d_17">
    <path d="M 86.067928 353.002215 
L 108.80158 353.196324 
L 131.535231 353.15917 
L 154.268883 353.128621 
L 177.002534 353.07319 
L 199.736186 352.988547 
L 222.469837 352.814172 
L 245.203489 352.587319 
L 267.937141 352.379921 
L 290.670792 352.153188 
L 313.404444 351.99745 
L 336.138095 351.821579 
L 358.871747 351.704751 
L 381.605398 351.592232 
L 404.33905 351.462534 
L 427.072701 351.361768 
L 449.806353 351.231071 
L 472.540004 351.157882 
L 495.273656 351.05095 
L 518.007308 350.933723 
L 540.740959 350.762979 
L 563.474611 350.38414 
L 586.208262 349.801135 
L 608.941914 348.957356 
L 631.675565 347.844861 
L 654.409217 346.437472 
L 677.142868 344.751191 
L 699.87652 342.670427 
L 722.610172 340.109459 
L 745.343823 336.722371 
L 768.077475 332.030994 
L 790.811126 324.67946 
L 813.544778 311.800072 
L 836.278429 283.912645 
L 859.012081 220.383053 
L 881.745732 175.098398 
L 904.479384 246.354872 
L 927.213036 326.12955 
L 949.946687 352.886165 
" clip-path="url(#p3f623deac6)" style="fill: none; stroke: #5cb85c; stroke-linecap: square"/>
   </g>
   <g id="line2d_18">
    <path d="M 86.067928 348.79196 
L 108.80158 351.728715 
L 131.535231 351.742802 
L 154.268883 351.633396 
L 177.002534 351.390042 
L 199.736186 351.14132 
L 222.469837 350.835052 
L 245.203489 350.630587 
L 267.937141 350.368835 
L 290.670792 350.295905 
L 313.404444 350.301751 
L 336.138095 350.336072 
L 358.871747 350.441507 
L 381.605398 350.473712 
L 404.33905 350.425125 
L 427.072701 350.291695 
L 449.806353 350.120712 
L 472.540004 349.901541 
L 495.273656 349.623767 
L 518.007308 349.260451 
L 540.740959 348.86531 
L 563.474611 348.335641 
L 586.208262 347.70349 
L 608.941914 346.93747 
L 631.675565 345.988316 
L 654.409217 344.824601 
L 677.142868 343.336679 
L 699.87652 341.449146 
L 722.610172 338.983256 
L 745.343823 335.555742 
L 768.077475 330.677899 
L 790.811126 323.136286 
L 813.544778 310.24345 
L 836.278429 284.765323 
L 859.012081 234.220115 
L 881.745732 204.135075 
L 904.479384 257.185122 
L 927.213036 325.548959 
L 949.946687 352.886384 
" clip-path="url(#p3f623deac6)" style="fill: none; stroke: #5cb85c; stroke-linecap: square"/>
   </g>
   <g id="line2d_19">
    <path d="M 86.067928 353.135066 
L 108.80158 353.211788 
L 131.535231 353.193132 
L 154.268883 353.177528 
L 177.002534 353.144425 
L 199.736186 353.079356 
L 222.469837 352.934952 
L 245.203489 352.745612 
L 267.937141 352.568084 
L 290.670792 352.382116 
L 313.404444 352.238111 
L 336.138095 352.077764 
L 358.871747 351.9674 
L 381.605398 351.860568 
L 404.33905 351.744857 
L 427.072701 351.621684 
L 449.806353 351.505075 
L 472.540004 351.423903 
L 495.273656 351.32228 
L 518.007308 351.21447 
L 540.740959 351.05105 
L 563.474611 350.709583 
L 586.208262 350.174766 
L 608.941914 349.399408 
L 631.675565 348.377683 
L 654.409217 347.103424 
L 677.142868 345.564341 
L 699.87652 343.67593 
L 722.610172 341.358596 
L 745.343823 338.298408 
L 768.077475 333.98188 
L 790.811126 327.350612 
L 813.544778 315.54457 
L 836.278429 290.119021 
L 859.012081 233.979973 
L 881.745732 198.221498 
L 904.479384 261.207394 
L 927.213036 329.955378 
L 949.946687 352.923458 
" clip-path="url(#p3f623deac6)" style="fill: none; stroke: #5cb85c; stroke-linecap: square"/>
   </g>
   <g id="line2d_20">
    <path d="M 86.067928 349.032561 
L 108.80158 351.852188 
L 131.535231 351.893632 
L 154.268883 351.811961 
L 177.002534 351.56282 
L 199.736186 351.347621 
L 222.469837 351.063222 
L 245.203489 350.866479 
L 267.937141 350.646909 
L 290.670792 350.59072 
L 313.404444 350.596806 
L 336.138095 350.643278 
L 358.871747 350.740831 
L 381.605398 350.760625 
L 404.33905 350.712118 
L 427.072701 350.605525 
L 449.806353 350.427559 
L 472.540004 350.244464 
L 495.273656 349.980518 
L 518.007308 349.667326 
L 540.740959 349.265021 
L 563.474611 348.812014 
L 586.208262 348.239524 
L 608.941914 347.535939 
L 631.675565 346.691661 
L 654.409217 345.624362 
L 677.142868 344.314666 
L 699.87652 342.590653 
L 722.610172 340.364147 
L 745.343823 337.259523 
L 768.077475 332.866452 
L 790.811126 325.987639 
L 813.544778 314.277056 
L 836.278429 291.668121 
L 859.012081 248.375137 
L 881.745732 224.466942 
L 904.479384 269.679384 
L 927.213036 329.543994 
L 949.946687 352.93575 
" clip-path="url(#p3f623deac6)" style="fill: none; stroke: #5cb85c; stroke-linecap: square"/>
   </g>
   <g id="line2d_21">
    <path d="M 86.067928 353.05176 
L 108.80158 353.198419 
L 131.535231 353.168229 
L 154.268883 353.134288 
L 177.002534 353.071215 
L 199.736186 352.954346 
L 222.469837 352.700377 
L 245.203489 352.363599 
L 267.937141 352.046057 
L 290.670792 351.730012 
L 313.404444 351.472989 
L 336.138095 351.199365 
L 358.871747 350.993803 
L 381.605398 350.78441 
L 404.33905 350.571764 
L 427.072701 350.368895 
L 449.806353 350.171215 
L 472.540004 349.97944 
L 495.273656 349.827853 
L 518.007308 349.607585 
L 540.740959 349.32969 
L 563.474611 348.703985 
L 586.208262 347.728592 
L 608.941914 346.308652 
L 631.675565 344.50197 
L 654.409217 342.218138 
L 677.142868 339.458173 
L 699.87652 336.144654 
L 722.610172 331.967941 
L 745.343823 326.549813 
L 768.077475 318.992876 
L 790.811126 307.292429 
L 813.544778 286.73303 
L 836.278429 242.144817 
L 859.012081 139.54375 
L 881.745732 66.202541 
L 904.479384 202.579031 
L 927.213036 321.857917 
L 949.946687 352.872477 
" clip-path="url(#p3f623deac6)" style="fill: none; stroke: #5cb85c; stroke-linecap: square"/>
   </g>
   <g id="line2d_22">
    <path d="M 86.067928 344.671596 
L 108.80158 350.550573 
L 131.535231 350.692164 
L 154.268883 350.575036 
L 177.002534 350.167443 
L 199.736186 349.780283 
L 222.469837 349.261988 
L 245.203489 348.902244 
L 267.937141 348.530049 
L 290.670792 348.436107 
L 313.404444 348.449636 
L 336.138095 348.522008 
L 358.871747 348.704264 
L 381.605398 348.755545 
L 404.33905 348.679442 
L 427.072701 348.483577 
L 449.806353 348.195167 
L 472.540004 347.820857 
L 495.273656 347.377547 
L 518.007308 346.806435 
L 540.740959 346.148105 
L 563.474611 345.297242 
L 586.208262 344.277093 
L 608.941914 343.024424 
L 631.675565 341.560287 
L 654.409217 339.67892 
L 677.142868 337.353384 
L 699.87652 334.300041 
L 722.610172 330.377497 
L 745.343823 324.931554 
L 768.077475 317.198785 
L 790.811126 305.285114 
L 813.544778 284.772926 
L 836.278429 244.039374 
L 859.012081 163.168983 
L 881.745732 114.114969 
L 904.479384 220.202154 
L 927.213036 321.548696 
L 949.946687 352.884589 
" clip-path="url(#p3f623deac6)" style="fill: none; stroke: #5cb85c; stroke-linecap: square"/>
   </g>
   <g id="line2d_23">
    <path d="M 86.067928 353.026998 
L 108.80158 353.200973 
L 131.535231 353.169267 
L 154.268883 353.13796 
L 177.002534 353.090211 
L 199.736186 353.006565 
L 222.469837 352.860385 
L 245.203489 352.639598 
L 267.937141 352.449839 
L 290.670792 352.253076 
L 313.404444 352.089377 
L 336.138095 351.932681 
L 358.871747 351.827964 
L 381.605398 351.715506 
L 404.33905 351.592132 
L 427.072701 351.483784 
L 449.806353 351.372862 
L 472.540004 351.278142 
L 495.273656 351.183143 
L 518.007308 351.068469 
L 540.740959 350.89621 
L 563.474611 350.525551 
L 586.208262 349.955376 
L 608.941914 349.120557 
L 631.675565 348.032944 
L 654.409217 346.663567 
L 677.142868 345.028826 
L 699.87652 343.008342 
L 722.610172 340.510926 
L 745.343823 337.270018 
L 768.077475 332.724622 
L 790.811126 325.860215 
L 813.544778 313.892829 
L 836.278429 288.184178 
L 859.012081 228.806616 
L 881.745732 177.845135 
L 904.479384 246.685305 
L 927.213036 329.36928 
L 949.946687 352.96564 
" clip-path="url(#p3f623deac6)" style="fill: none; stroke: #5cb85c; stroke-linecap: square"/>
   </g>
   <g id="line2d_24">
    <path d="M 86.067928 349.296867 
L 108.80158 351.897084 
L 131.535231 351.910911 
L 154.268883 351.83431 
L 177.002534 351.599834 
L 199.736186 351.405346 
L 222.469837 351.120449 
L 245.203489 350.937953 
L 267.937141 350.695855 
L 290.670792 350.61229 
L 313.404444 350.599898 
L 336.138095 350.626377 
L 358.871747 350.723152 
L 381.605398 350.71982 
L 404.33905 350.684222 
L 427.072701 350.58641 
L 449.806353 350.429395 
L 472.540004 350.205136 
L 495.273656 349.956693 
L 518.007308 349.624964 
L 540.740959 349.256321 
L 563.474611 348.737207 
L 586.208262 348.143966 
L 608.941914 347.427172 
L 631.675565 346.532352 
L 654.409217 345.432787 
L 677.142868 344.006861 
L 699.87652 342.221131 
L 722.610172 339.858083 
L 745.343823 336.619769 
L 768.077475 332.027981 
L 790.811126 324.94161 
L 813.544778 312.792426 
L 836.278429 288.681961 
L 859.012081 239.978113 
L 881.745732 202.184348 
L 904.479384 255.977569 
L 927.213036 328.48288 
L 949.946687 352.955564 
" clip-path="url(#p3f623deac6)" style="fill: none; stroke: #5cb85c; stroke-linecap: square"/>
   </g>
   <g id="line2d_25">
    <path d="M 86.067928 353.151149 
L 108.80158 353.211908 
L 131.535231 353.191555 
L 154.268883 353.168988 
L 177.002534 353.119543 
L 199.736186 353.055511 
L 222.469837 352.962627 
L 245.203489 352.84107 
L 267.937141 352.718594 
L 290.670792 352.573352 
L 313.404444 352.391056 
L 336.138095 352.36767 
L 358.871747 352.388003 
L 381.605398 352.372179 
L 404.33905 352.354481 
L 427.072701 352.347617 
L 449.806353 352.337161 
L 472.540004 352.326705 
L 495.273656 352.296815 
L 518.007308 352.271613 
L 540.740959 352.220253 
L 563.474611 352.103284 
L 586.208262 351.931504 
L 608.941914 351.65347 
L 631.675565 351.314298 
L 654.409217 350.863406 
L 677.142868 350.312546 
L 699.87652 349.650126 
L 722.610172 348.77041 
L 745.343823 347.583788 
L 768.077475 345.816176 
L 790.811126 342.91867 
L 813.544778 337.32519 
L 836.278429 323.14744 
L 859.012081 282.579663 
L 881.745732 236.443428 
L 904.479384 283.565233 
L 927.213036 336.66662 
L 949.946687 353.019754 
" clip-path="url(#p3f623deac6)" style="fill: none; stroke: #5cb85c; stroke-linecap: square"/>
   </g>
   <g id="line2d_26">
    <path d="M 86.067928 350.862209 
L 108.80158 352.49655 
L 131.535231 352.442137 
L 154.268883 352.396683 
L 177.002534 352.269937 
L 199.736186 352.214566 
L 222.469837 352.085286 
L 245.203489 352.002299 
L 267.937141 351.914463 
L 290.670792 351.922046 
L 313.404444 351.955747 
L 336.138095 351.972927 
L 358.871747 352.04923 
L 381.605398 352.051545 
L 404.33905 352.054159 
L 427.072701 352.024148 
L 449.806353 351.964048 
L 472.540004 351.880362 
L 495.273656 351.792487 
L 518.007308 351.653091 
L 540.740959 351.521437 
L 563.474611 351.332635 
L 586.208262 351.099617 
L 608.941914 350.828268 
L 631.675565 350.494503 
L 654.409217 350.093735 
L 677.142868 349.583181 
L 699.87652 348.899291 
L 722.610172 347.960852 
L 745.343823 346.661352 
L 768.077475 344.693106 
L 790.811126 341.399102 
L 813.544778 335.188456 
L 836.278429 321.046303 
L 859.012081 286.626298 
L 881.745732 252.694259 
L 904.479384 291.402199 
L 927.213036 336.76164 
L 949.946687 353.042701 
" clip-path="url(#p3f623deac6)" style="fill: none; stroke: #5cb85c; stroke-linecap: square"/>
   </g>
   <g id="line2d_27">
    <path d="M 86.067928 353.138439 
L 108.80158 353.209853 
L 131.535231 353.18531 
L 154.268883 353.148216 
L 177.002534 353.095937 
L 199.736186 353.024783 
L 222.469837 352.940499 
L 245.203489 352.828798 
L 267.937141 352.718834 
L 290.670792 352.600748 
L 313.404444 352.422303 
L 336.138095 352.404345 
L 358.871747 352.446267 
L 381.605398 352.44928 
L 404.33905 352.441419 
L 427.072701 352.438645 
L 449.806353 352.437129 
L 472.540004 352.430444 
L 495.273656 352.420886 
L 518.007308 352.38922 
L 540.740959 352.350849 
L 563.474611 352.246212 
L 586.208262 352.078702 
L 608.941914 351.831775 
L 631.675565 351.512118 
L 654.409217 351.127672 
L 677.142868 350.62071 
L 699.87652 349.995683 
L 722.610172 349.198874 
L 745.343823 348.149214 
L 768.077475 346.581278 
L 790.811126 343.922597 
L 813.544778 338.436228 
L 836.278429 324.085221 
L 859.012081 283.928389 
L 881.745732 247.486902 
L 904.479384 298.308688 
L 927.213036 341.527783 
L 949.946687 353.120321 
" clip-path="url(#p3f623deac6)" style="fill: none; stroke: #5cb85c; stroke-linecap: square"/>
   </g>
   <g id="line2d_28">
    <path d="M 86.067928 351.00815 
L 108.80158 352.541626 
L 131.535231 352.496311 
L 154.268883 352.469194 
L 177.002534 352.3463 
L 199.736186 352.319422 
L 222.469837 352.217938 
L 245.203489 352.149497 
L 267.937141 352.083111 
L 290.670792 352.090833 
L 313.404444 352.1396 
L 336.138095 352.14812 
L 358.871747 352.218716 
L 381.605398 352.229671 
L 404.33905 352.222368 
L 427.072701 352.207861 
L 449.806353 352.145387 
L 472.540004 352.084289 
L 495.273656 351.979791 
L 518.007308 351.872102 
L 540.740959 351.741026 
L 563.474611 351.570942 
L 586.208262 351.342612 
L 608.941914 351.069766 
L 631.675565 350.757532 
L 654.409217 350.378872 
L 677.142868 349.895555 
L 699.87652 349.23932 
L 722.610172 348.392808 
L 745.343823 347.146165 
L 768.077475 345.237421 
L 790.811126 342.008785 
L 813.544778 335.703678 
L 836.278429 321.607399 
L 859.012081 288.239409 
L 881.745732 263.495516 
L 904.479384 305.088271 
L 927.213036 341.664784 
L 949.946687 353.130417 
" clip-path="url(#p3f623deac6)" style="fill: none; stroke: #5cb85c; stroke-linecap: square"/>
   </g>
   <g id="line2d_29">
    <path d="M 86.067928 353.118226 
L 108.80158 353.206221 
L 131.535231 353.177647 
L 154.268883 353.138099 
L 177.002534 353.075265 
L 199.736186 352.996189 
L 222.469837 352.885467 
L 245.203489 352.740464 
L 267.937141 352.589494 
L 290.670792 352.433158 
L 313.404444 352.207841 
L 336.138095 352.172424 
L 358.871747 352.206904 
L 381.605398 352.205048 
L 404.33905 352.18252 
L 427.072701 352.164123 
L 449.806353 352.162666 
L 472.540004 352.153827 
L 495.273656 352.136467 
L 518.007308 352.105858 
L 540.740959 352.04512 
L 563.474611 351.910273 
L 586.208262 351.691302 
L 608.941914 351.363364 
L 631.675565 350.939968 
L 654.409217 350.393757 
L 677.142868 349.732734 
L 699.87652 348.945144 
L 722.610172 347.911287 
L 745.343823 346.452916 
L 768.077475 344.356848 
L 790.811126 340.921512 
L 813.544778 334.021189 
L 836.278429 316.646928 
L 859.012081 268.403091 
L 881.745732 217.877057 
L 904.479384 272.049137 
L 927.213036 337.184497 
L 949.946687 353.039449 
" clip-path="url(#p3f623deac6)" style="fill: none; stroke: #5cb85c; stroke-linecap: square"/>
   </g>
   <g id="line2d_30">
    <path d="M 86.067928 350.247138 
L 108.80158 352.300925 
L 131.535231 352.26862 
L 154.268883 352.214147 
L 177.002534 352.054398 
L 199.736186 351.991923 
L 222.469837 351.842251 
L 245.203489 351.731728 
L 267.937141 351.602987 
L 290.670792 351.647923 
L 313.404444 351.685675 
L 336.138095 351.704611 
L 358.871747 351.810884 
L 381.605398 351.82972 
L 404.33905 351.82136 
L 427.072701 351.776604 
L 449.806353 351.710896 
L 472.540004 351.62757 
L 495.273656 351.512178 
L 518.007308 351.346882 
L 540.740959 351.189069 
L 563.474611 350.975027 
L 586.208262 350.684063 
L 608.941914 350.351117 
L 631.675565 349.952363 
L 654.409217 349.455658 
L 677.142868 348.816723 
L 699.87652 347.983579 
L 722.610172 346.867992 
L 745.343823 345.22493 
L 768.077475 342.829458 
L 790.811126 338.77071 
L 813.544778 331.048996 
L 836.278429 314.15494 
L 859.012081 273.864777 
L 881.745732 237.417444 
L 904.479384 282.076872 
L 927.213036 337.493199 
L 949.946687 353.058145 
" clip-path="url(#p3f623deac6)" style="fill: none; stroke: #5cb85c; stroke-linecap: square"/>
   </g>
   <g id="line2d_31">
    <path d="M 86.067928 353.220508 
L 108.80158 353.222244 
L 131.535231 353.221545 
L 154.268883 353.218493 
L 177.002534 353.206381 
L 199.736186 353.176969 
L 222.469837 353.102003 
L 245.203489 352.992159 
L 267.937141 352.893268 
L 290.670792 352.764568 
L 313.404444 352.608191 
L 336.138095 352.58281 
L 358.871747 352.611204 
L 381.605398 352.588836 
L 404.33905 352.559963 
L 427.072701 352.533465 
L 449.806353 352.495473 
L 472.540004 352.465004 
L 495.273656 352.430783 
L 518.007308 352.385329 
L 540.740959 352.333449 
L 563.474611 352.226757 
L 586.208262 352.033606 
L 608.941914 351.761399 
L 631.675565 351.399779 
L 654.409217 350.929193 
L 677.142868 350.35395 
L 699.87652 349.632786 
L 722.610172 348.704843 
L 745.343823 347.409194 
L 768.077475 345.46613 
L 790.811126 342.204809 
L 813.544778 335.650722 
L 836.278429 318.806289 
L 859.012081 273.477777 
L 881.745732 237.970698 
L 904.479384 297.916319 
L 927.213036 341.856838 
L 949.946687 353.184053 
" clip-path="url(#p3f623deac6)" style="fill: none; stroke: #5cb85c; stroke-linecap: square"/>
   </g>
   <g id="line2d_32">
    <path d="M 86.067928 350.846825 
L 108.80158 352.527977 
L 131.535231 352.490824 
L 154.268883 352.430185 
L 177.002534 352.300586 
L 199.736186 352.233861 
L 222.469837 352.114977 
L 245.203489 352.038076 
L 267.937141 351.963769 
L 290.670792 351.967919 
L 313.404444 352.012296 
L 336.138095 352.026882 
L 358.871747 352.105399 
L 381.605398 352.099633 
L 404.33905 352.095981 
L 427.072701 352.071239 
L 449.806353 351.992881 
L 472.540004 351.90724 
L 495.273656 351.77373 
L 518.007308 351.647723 
L 540.740959 351.504017 
L 563.474611 351.321801 
L 586.208262 351.066813 
L 608.941914 350.802767 
L 631.675565 350.44003 
L 654.409217 349.97944 
L 677.142868 349.40733 
L 699.87652 348.640692 
L 722.610172 347.597796 
L 745.343823 346.095028 
L 768.077475 343.798426 
L 790.811126 339.912956 
L 813.544778 332.476758 
L 836.278429 316.354168 
L 859.012081 279.772647 
L 881.745732 257.773495 
L 904.479384 306.442464 
L 927.213036 342.378266 
L 949.946687 353.184891 
" clip-path="url(#p3f623deac6)" style="fill: none; stroke: #5cb85c; stroke-linecap: square"/>
   </g>
   <g id="line2d_33">
    <path d="M 86.067928 353.098292 
L 108.80158 353.20686 
L 131.535231 353.183035 
L 154.268883 353.155778 
L 177.002534 353.111322 
L 199.736186 353.05164 
L 222.469837 352.963226 
L 245.203489 352.833906 
L 267.937141 352.717158 
L 290.670792 352.592348 
L 313.404444 352.499124 
L 336.138095 352.414022 
L 358.871747 352.366732 
L 381.605398 352.332851 
L 404.33905 352.278537 
L 427.072701 352.241822 
L 449.806353 352.197126 
L 472.540004 352.175217 
L 495.273656 352.140498 
L 518.007308 352.100571 
L 540.740959 352.028079 
L 563.474611 351.862763 
L 586.208262 351.598877 
L 608.941914 351.235362 
L 631.675565 350.757133 
L 654.409217 350.15619 
L 677.142868 349.383106 
L 699.87652 348.478748 
L 722.610172 347.33349 
L 745.343823 345.772398 
L 768.077475 343.540784 
L 790.811126 340.068375 
L 813.544778 333.484616 
L 836.278429 318.632852 
L 859.012081 281.52701 
L 881.745732 245.132733 
L 904.479384 285.432353 
L 927.213036 337.299869 
L 949.946687 353.014108 
" clip-path="url(#p3f623deac6)" style="fill: none; stroke: #5cb85c; stroke-linecap: square"/>
   </g>
   <g id="line2d_34">
    <path d="M 86.067928 350.32386 
L 108.80158 352.35055 
L 131.535231 352.355159 
L 154.268883 352.311959 
L 177.002534 352.167934 
L 199.736186 352.083012 
L 222.469837 351.940443 
L 245.203489 351.844426 
L 267.937141 351.72227 
L 290.670792 351.706227 
L 313.404444 351.731508 
L 336.138095 351.747531 
L 358.871747 351.813358 
L 381.605398 351.847559 
L 404.33905 351.824712 
L 427.072701 351.784525 
L 449.806353 351.714707 
L 472.540004 351.623519 
L 495.273656 351.50274 
L 518.007308 351.351312 
L 540.740959 351.173266 
L 563.474611 350.957687 
L 586.208262 350.660877 
L 608.941914 350.279822 
L 631.675565 349.874903 
L 654.409217 349.367562 
L 677.142868 348.694706 
L 699.87652 347.852803 
L 722.610172 346.71385 
L 745.343823 345.112412 
L 768.077475 342.775603 
L 790.811126 339.014125 
L 813.544778 332.171228 
L 836.278429 318.313295 
L 859.012081 287.3312 
L 881.745732 261.077656 
L 904.479384 292.236859 
L 927.213036 337.018882 
L 949.946687 353.024863 
" clip-path="url(#p3f623deac6)" style="fill: none; stroke: #5cb85c; stroke-linecap: square"/>
   </g>
   <g id="line2d_35">
    <path d="M 86.067928 353.047869 
L 108.80158 353.200494 
L 131.535231 353.166473 
L 154.268883 353.129699 
L 177.002534 353.065488 
L 199.736186 352.992298 
L 222.469837 352.868865 
L 245.203489 352.713267 
L 267.937141 352.571676 
L 290.670792 352.413184 
L 313.404444 352.289212 
L 336.138095 352.17829 
L 358.871747 352.119028 
L 381.605398 352.065951 
L 404.33905 351.999625 
L 427.072701 351.960257 
L 449.806353 351.896206 
L 472.540004 351.840216 
L 495.273656 351.796138 
L 518.007308 351.740089 
L 540.740959 351.644291 
L 563.474611 351.430867 
L 586.208262 351.107698 
L 608.941914 350.621588 
L 631.675565 350.000272 
L 654.409217 349.186124 
L 677.142868 348.23715 
L 699.87652 347.117592 
L 722.610172 345.619433 
L 745.343823 343.633429 
L 768.077475 340.790496 
L 790.811126 336.282952 
L 813.544778 327.900374 
L 836.278429 308.994213 
L 859.012081 260.268955 
L 881.745732 200.270357 
L 904.479384 261.921654 
L 927.213036 338.762948 
L 949.946687 353.093882 
" clip-path="url(#p3f623deac6)" style="fill: none; stroke: #5cb85c; stroke-linecap: square"/>
   </g>
   <g id="line2d_36">
    <path d="M 86.067928 349.436442 
L 108.80158 352.018422 
L 131.535231 352.013034 
L 154.268883 351.983702 
L 177.002534 351.788755 
L 199.736186 351.68767 
L 222.469837 351.495557 
L 245.203489 351.37356 
L 267.937141 351.212255 
L 290.670792 351.204274 
L 313.404444 351.223469 
L 336.138095 351.255395 
L 358.871747 351.33924 
L 381.605398 351.367754 
L 404.33905 351.347002 
L 427.072701 351.314996 
L 449.806353 351.215188 
L 472.540004 351.080082 
L 495.273656 350.946653 
L 518.007308 350.738975 
L 540.740959 350.510127 
L 563.474611 350.236802 
L 586.208262 349.877098 
L 608.941914 349.409784 
L 631.675565 348.889952 
L 654.409217 348.238866 
L 677.142868 347.39377 
L 699.87652 346.282772 
L 722.610172 344.849403 
L 745.343823 342.838477 
L 768.077475 339.846889 
L 790.811126 335.084318 
L 813.544778 326.415704 
L 836.278429 308.69467 
L 859.012081 267.494043 
L 881.745732 220.364237 
L 904.479384 271.92734 
L 927.213036 338.446284 
L 949.946687 353.095638 
" clip-path="url(#p3f623deac6)" style="fill: none; stroke: #5cb85c; stroke-linecap: square"/>
   </g>
   <g id="line2d_37">
    <path d="M 86.067928 353.088994 
L 108.80158 353.206401 
L 131.535231 353.178486 
L 154.268883 353.148555 
L 177.002534 353.09484 
L 199.736186 353.023266 
L 222.469837 352.894625 
L 245.203489 352.72889 
L 267.937141 352.571057 
L 290.670792 352.392432 
L 313.404444 352.284483 
L 336.138095 352.162427 
L 358.871747 352.098476 
L 381.605398 352.056393 
L 404.33905 351.97596 
L 427.072701 351.917217 
L 449.806353 351.871982 
L 472.540004 351.824512 
L 495.273656 351.755652 
L 518.007308 351.716204 
L 540.740959 351.609193 
L 563.474611 351.404349 
L 586.208262 351.049194 
L 608.941914 350.522019 
L 631.675565 349.872768 
L 654.409217 349.032761 
L 677.142868 347.989525 
L 699.87652 346.691562 
L 722.610172 345.041317 
L 745.343823 342.788233 
L 768.077475 339.5152 
L 790.811126 334.171759 
L 813.544778 323.890134 
L 836.278429 299.758458 
L 859.012081 239.994255 
L 881.745732 192.612295 
L 904.479384 270.518754 
L 927.213036 335.087311 
L 949.946687 353.022927 
" clip-path="url(#p3f623deac6)" style="fill: none; stroke: #5cb85c; stroke-linecap: square"/>
   </g>
   <g id="line2d_38">
    <path d="M 86.067928 349.350821 
L 108.80158 352.07521 
L 131.535231 352.010021 
L 154.268883 351.937629 
L 177.002534 351.708901 
L 199.736186 351.580699 
L 222.469837 351.376114 
L 245.203489 351.237157 
L 267.937141 351.080182 
L 290.670792 351.043009 
L 313.404444 351.094649 
L 336.138095 351.12408 
L 358.871747 351.226283 
L 381.605398 351.260762 
L 404.33905 351.255654 
L 427.072701 351.2015 
L 449.806353 351.08986 
L 472.540004 350.95212 
L 495.273656 350.769883 
L 518.007308 350.556958 
L 540.740959 350.303028 
L 563.474611 349.96677 
L 586.208262 349.561172 
L 608.941914 349.055448 
L 631.675565 348.471485 
L 654.409217 347.692615 
L 677.142868 346.728915 
L 699.87652 345.450785 
L 722.610172 343.732479 
L 745.343823 341.280278 
L 768.077475 337.662027 
L 790.811126 331.813739 
L 813.544778 321.00484 
L 836.278429 298.648857 
L 859.012081 250.11222 
L 881.745732 219.548373 
L 904.479384 280.372652 
L 927.213036 335.181791 
L 949.946687 353.043898 
" clip-path="url(#p3f623deac6)" style="fill: none; stroke: #5cb85c; stroke-linecap: square"/>
   </g>
   <g id="line2d_39">
    <path d="M 86.067928 353.205682 
L 108.80158 353.218453 
L 131.535231 353.212706 
L 154.268883 353.201093 
L 177.002534 353.161365 
L 199.736186 353.072252 
L 222.469837 352.862699 
L 245.203489 352.56563 
L 267.937141 352.299868 
L 290.670792 352.008924 
L 313.404444 351.821499 
L 336.138095 351.636709 
L 358.871747 351.516548 
L 381.605398 351.430368 
L 404.33905 351.285984 
L 427.072701 351.173545 
L 449.806353 351.042969 
L 472.540004 350.92614 
L 495.273656 350.805082 
L 518.007308 350.701223 
L 540.740959 350.514138 
L 563.474611 350.141803 
L 586.208262 349.539982 
L 608.941914 348.652684 
L 631.675565 347.537376 
L 654.409217 346.044805 
L 677.142868 344.175709 
L 699.87652 341.951777 
L 722.610172 339.074006 
L 745.343823 335.157488 
L 768.077475 329.43403 
L 790.811126 320.106887 
L 813.544778 302.562541 
L 836.278429 261.043894 
L 859.012081 152.383111 
L 881.745732 50.397154 
L 904.479384 159.248375 
L 927.213036 303.061961 
L 949.946687 352.69026 
" clip-path="url(#p3f623deac6)" style="fill: none; stroke: #5cb85c; stroke-linecap: square"/>
   </g>
   <g id="line2d_40">
    <path d="M 86.067928 347.163206 
L 108.80158 351.372603 
L 131.535231 351.276805 
L 154.268883 351.144553 
L 177.002534 350.726065 
L 199.736186 350.50005 
L 222.469837 350.152398 
L 245.203489 349.93241 
L 267.937141 349.675826 
L 290.670792 349.606208 
L 313.404444 349.667346 
L 336.138095 349.70865 
L 358.871747 349.852715 
L 381.605398 349.8936 
L 404.33905 349.85932 
L 427.072701 349.762125 
L 449.806353 349.585616 
L 472.540004 349.350442 
L 495.273656 349.038966 
L 518.007308 348.632351 
L 540.740959 348.225497 
L 563.474611 347.680922 
L 586.208262 346.98079 
L 608.941914 346.099139 
L 631.675565 345.092977 
L 654.409217 343.765702 
L 677.142868 342.07966 
L 699.87652 339.840863 
L 722.610172 336.914425 
L 745.343823 332.696847 
L 768.077475 326.5467 
L 790.811126 316.515034 
L 813.544778 298.09674 
L 836.278429 259.025605 
L 859.012081 167.800719 
L 881.745732 94.39508 
L 904.479384 180.340495 
L 927.213036 303.150894 
L 949.946687 352.717377 
" clip-path="url(#p3f623deac6)" style="fill: none; stroke: #5cb85c; stroke-linecap: square"/>
   </g>
   <g id="line2d_41">
    <path d="M 86.067928 353.101285 
L 108.80158 353.206022 
L 131.535231 353.177747 
L 154.268883 353.143567 
L 177.002534 353.082808 
L 199.736186 353.016382 
L 222.469837 352.944469 
L 245.203489 352.848453 
L 267.937141 352.76359 
L 290.670792 352.661527 
L 313.404444 352.59139 
L 336.138095 352.507724 
L 358.871747 352.484638 
L 381.605398 352.448522 
L 404.33905 352.428209 
L 427.072701 352.41051 
L 449.806353 352.405003 
L 472.540004 352.38924 
L 495.273656 352.379722 
L 518.007308 352.355877 
L 540.740959 352.309126 
L 563.474611 352.203731 
L 586.208262 352.022991 
L 608.941914 351.788197 
L 631.675565 351.468061 
L 654.409217 351.033231 
L 677.142868 350.527128 
L 699.87652 349.909802 
L 722.610172 349.04593 
L 745.343823 347.953768 
L 768.077475 346.288618 
L 790.811126 343.58979 
L 813.544778 338.326662 
L 836.278429 325.361375 
L 859.012081 287.914225 
L 881.745732 244.300667 
L 904.479384 276.305984 
L 927.213036 331.567751 
L 949.946687 352.973203 
" clip-path="url(#p3f623deac6)" style="fill: none; stroke: #5cb85c; stroke-linecap: square"/>
   </g>
   <g id="line2d_42">
    <path d="M 86.067928 351.233765 
L 108.80158 352.584805 
L 131.535231 352.592547 
L 154.268883 352.564333 
L 177.002534 352.442496 
L 199.736186 352.391315 
L 222.469837 352.28155 
L 245.203489 352.206066 
L 267.937141 352.150694 
L 290.670792 352.100631 
L 313.404444 352.134093 
L 336.138095 352.128865 
L 358.871747 352.178709 
L 381.605398 352.176394 
L 404.33905 352.177991 
L 427.072701 352.146205 
L 449.806353 352.070381 
L 472.540004 351.97173 
L 495.273656 351.869308 
L 518.007308 351.718738 
L 540.740959 351.701538 
L 563.474611 351.541949 
L 586.208262 351.335269 
L 608.941914 351.07697 
L 631.675565 350.777406 
L 654.409217 350.389747 
L 677.142868 349.900783 
L 699.87652 349.261928 
L 722.610172 348.402266 
L 745.343823 347.176614 
L 768.077475 345.355267 
L 790.811126 342.340414 
L 813.544778 336.720854 
L 836.278429 324.084722 
L 859.012081 291.571805 
L 881.745732 257.509468 
L 904.479384 282.767626 
L 927.213036 331.220777 
L 949.946687 352.980905 
" clip-path="url(#p3f623deac6)" style="fill: none; stroke: #5cb85c; stroke-linecap: square"/>
   </g>
   <g id="line2d_43">
    <path d="M 86.067928 353.042122 
L 108.80158 353.196045 
L 131.535231 353.145702 
L 154.268883 353.088016 
L 177.002534 352.989325 
L 199.736186 352.87535 
L 222.469837 352.755409 
L 245.203489 352.620921 
L 267.937141 352.474162 
L 290.670792 352.314394 
L 313.404444 352.210795 
L 336.138095 352.095742 
L 358.871747 352.048611 
L 381.605398 351.992123 
L 404.33905 351.956166 
L 427.072701 351.930785 
L 449.806353 351.916479 
L 472.540004 351.918474 
L 495.273656 351.882378 
L 518.007308 351.844566 
L 540.740959 351.759783 
L 563.474611 351.591394 
L 586.208262 351.302505 
L 608.941914 350.912312 
L 631.675565 350.352254 
L 654.409217 349.659564 
L 677.142868 348.806008 
L 699.87652 347.765087 
L 722.610172 346.371386 
L 745.343823 344.556564 
L 768.077475 341.792069 
L 790.811126 337.388004 
L 813.544778 328.790585 
L 836.278429 307.945172 
L 859.012081 248.684379 
L 881.745732 180.516846 
L 904.479384 233.970335 
L 927.213036 321.484186 
L 949.946687 352.857013 
" clip-path="url(#p3f623deac6)" style="fill: none; stroke: #5cb85c; stroke-linecap: square"/>
   </g>
   <g id="line2d_44">
    <path d="M 86.067928 349.339707 
L 108.80158 352.037318 
L 131.535231 352.111645 
L 154.268883 352.090295 
L 177.002534 351.927832 
L 199.736186 351.840774 
L 222.469837 351.684518 
L 245.203489 351.555936 
L 267.937141 351.446231 
L 290.670792 351.423943 
L 313.404444 351.500246 
L 336.138095 351.491646 
L 358.871747 351.563958 
L 381.605398 351.585608 
L 404.33905 351.566871 
L 427.072701 351.501403 
L 449.806353 351.379307 
L 472.540004 351.225764 
L 495.273656 351.048536 
L 518.007308 350.829984 
L 540.740959 350.771919 
L 563.474611 350.534331 
L 586.208262 350.18189 
L 608.941914 349.759831 
L 631.675565 349.287987 
L 654.409217 348.70614 
L 677.142868 347.881656 
L 699.87652 346.848277 
L 722.610172 345.438035 
L 745.343823 343.424614 
L 768.077475 340.472076 
L 790.811126 335.669937 
L 813.544778 326.555539 
L 836.278429 306.540775 
L 859.012081 255.137122 
L 881.745732 201.0348 
L 904.479384 243.538578 
L 927.213036 321.001088 
L 949.946687 352.86689 
" clip-path="url(#p3f623deac6)" style="fill: none; stroke: #5cb85c; stroke-linecap: square"/>
   </g>
   <g id="line2d_45">
    <path d="M 86.067928 353.108528 
L 108.80158 353.207977 
L 131.535231 353.183334 
L 154.268883 353.155699 
L 177.002534 353.106912 
L 199.736186 353.054813 
L 222.469837 352.98717 
L 245.203489 352.908533 
L 267.937141 352.829676 
L 290.670792 352.733639 
L 313.404444 352.673898 
L 336.138095 352.597695 
L 358.871747 352.557229 
L 381.605398 352.529554 
L 404.33905 352.503714 
L 427.072701 352.488589 
L 449.806353 352.475839 
L 472.540004 352.460973 
L 495.273656 352.442237 
L 518.007308 352.421904 
L 540.740959 352.367869 
L 563.474611 352.269997 
L 586.208262 352.106457 
L 608.941914 351.855161 
L 631.675565 351.536123 
L 654.409217 351.136731 
L 677.142868 350.638209 
L 699.87652 350.010329 
L 722.610172 349.242713 
L 745.343823 348.165536 
L 768.077475 346.5975 
L 790.811126 343.970526 
L 813.544778 338.838074 
L 836.278429 325.84094 
L 859.012081 290.70033 
L 881.745732 260.838192 
L 904.479384 302.075733 
L 927.213036 340.852233 
L 949.946687 353.037054 
" clip-path="url(#p3f623deac6)" style="fill: none; stroke: #5cb85c; stroke-linecap: square"/>
   </g>
   <g id="line2d_46">
    <path d="M 86.067928 351.192282 
L 108.80158 352.58265 
L 131.535231 352.607054 
L 154.268883 352.582351 
L 177.002534 352.472686 
L 199.736186 352.413284 
L 222.469837 352.309006 
L 245.203489 352.224622 
L 267.937141 352.155782 
L 290.670792 352.131559 
L 313.404444 352.168852 
L 336.138095 352.165899 
L 358.871747 352.224742 
L 381.605398 352.231447 
L 404.33905 352.215544 
L 427.072701 352.179068 
L 449.806353 352.114339 
L 472.540004 352.012695 
L 495.273656 351.913366 
L 518.007308 351.7868 
L 540.740959 351.722689 
L 563.474611 351.55426 
L 586.208262 351.351931 
L 608.941914 351.088782 
L 631.675565 350.782694 
L 654.409217 350.422271 
L 677.142868 349.925785 
L 699.87652 349.290821 
L 722.610172 348.480125 
L 745.343823 347.31599 
L 768.077475 345.524155 
L 790.811126 342.591391 
L 813.544778 337.028579 
L 836.278429 324.527652 
L 859.012081 295.950608 
L 881.745732 275.292978 
L 904.479384 307.271517 
L 927.213036 340.6597 
L 949.946687 353.041664 
" clip-path="url(#p3f623deac6)" style="fill: none; stroke: #5cb85c; stroke-linecap: square"/>
   </g>
   <g id="line2d_47">
    <path d="M 86.067928 353.17653 
L 108.80158 353.217016 
L 131.535231 353.204844 
L 154.268883 353.192732 
L 177.002534 353.167032 
L 199.736186 353.123513 
L 222.469837 353.065109 
L 245.203489 352.983499 
L 267.937141 352.905241 
L 290.670792 352.816587 
L 313.404444 352.75493 
L 336.138095 352.68613 
L 358.871747 352.658674 
L 381.605398 352.604958 
L 404.33905 352.570758 
L 427.072701 352.542943 
L 449.806353 352.515008 
L 472.540004 352.492719 
L 495.273656 352.464904 
L 518.007308 352.43224 
L 540.740959 352.373437 
L 563.474611 352.272511 
L 586.208262 352.09648 
L 608.941914 351.839019 
L 631.675565 351.500585 
L 654.409217 351.069387 
L 677.142868 350.538481 
L 699.87652 349.84631 
L 722.610172 348.999857 
L 745.343823 347.843066 
L 768.077475 346.143655 
L 790.811126 343.359945 
L 813.544778 338.025981 
L 836.278429 324.952186 
L 859.012081 288.869964 
L 881.745732 246.54511 
L 904.479384 285.228687 
L 927.213036 339.513883 
L 949.946687 353.077241 
" clip-path="url(#p3f623deac6)" style="fill: none; stroke: #5cb85c; stroke-linecap: square"/>
   </g>
   <g id="line2d_48">
    <path d="M 86.067928 351.193858 
L 108.80158 352.572893 
L 131.535231 352.587639 
L 154.268883 352.56557 
L 177.002534 352.454069 
L 199.736186 352.375272 
L 222.469837 352.267862 
L 245.203489 352.178769 
L 267.937141 352.110468 
L 290.670792 352.080537 
L 313.404444 352.106816 
L 336.138095 352.107934 
L 358.871747 352.167595 
L 381.605398 352.178729 
L 404.33905 352.158436 
L 427.072701 352.129384 
L 449.806353 352.041967 
L 472.540004 351.950919 
L 495.273656 351.83842 
L 518.007308 351.704651 
L 540.740959 351.663866 
L 563.474611 351.488294 
L 586.208262 351.287181 
L 608.941914 351.018486 
L 631.675565 350.706092 
L 654.409217 350.31947 
L 677.142868 349.806582 
L 699.87652 349.130294 
L 722.610172 348.268696 
L 745.343823 347.046277 
L 768.077475 345.173729 
L 790.811126 342.10999 
L 813.544778 336.399362 
L 836.278429 323.732141 
L 859.012081 293.655881 
L 881.745732 261.151284 
L 904.479384 292.370069 
L 927.213036 339.492573 
L 949.946687 353.079097 
" clip-path="url(#p3f623deac6)" style="fill: none; stroke: #5cb85c; stroke-linecap: square"/>
   </g>
   <g id="line2d_49">
    <path d="M 86.067928 352.955165 
L 108.80158 353.192493 
L 131.535231 353.148475 
L 154.268883 353.108548 
L 177.002534 353.040905 
L 199.736186 352.951952 
L 222.469837 352.809922 
L 245.203489 352.617589 
L 267.937141 352.41933 
L 290.670792 352.226279 
L 313.404444 352.095004 
L 336.138095 351.952136 
L 358.871747 351.88984 
L 381.605398 351.798652 
L 404.33905 351.717461 
L 427.072701 351.634314 
L 449.806353 351.565993 
L 472.540004 351.499368 
L 495.273656 351.440644 
L 518.007308 351.359713 
L 540.740959 351.200981 
L 563.474611 350.916283 
L 586.208262 350.476066 
L 608.941914 349.812309 
L 631.675565 348.944865 
L 654.409217 347.874712 
L 677.142868 346.57629 
L 699.87652 344.907428 
L 722.610172 342.886864 
L 745.343823 340.130929 
L 768.077475 336.237697 
L 790.811126 330.084059 
L 813.544778 318.589613 
L 836.278429 292.070526 
L 859.012081 226.293517 
L 881.745732 178.657786 
L 904.479384 250.376127 
L 927.213036 327.538395 
L 949.946687 352.850149 
" clip-path="url(#p3f623deac6)" style="fill: none; stroke: #5cb85c; stroke-linecap: square"/>
   </g>
   <g id="line2d_50">
    <path d="M 86.067928 348.986608 
L 108.80158 351.815433 
L 131.535231 351.858673 
L 154.268883 351.76948 
L 177.002534 351.514353 
L 199.736186 351.370727 
L 222.469837 351.131224 
L 245.203489 350.950224 
L 267.937141 350.773236 
L 290.670792 350.723052 
L 313.404444 350.768546 
L 336.138095 350.777645 
L 358.871747 350.876136 
L 381.605398 350.875079 
L 404.33905 350.817513 
L 427.072701 350.682247 
L 449.806353 350.52627 
L 472.540004 350.285788 
L 495.273656 350.212339 
L 518.007308 349.910261 
L 540.740959 349.63518 
L 563.474611 349.212303 
L 586.208262 348.700872 
L 608.941914 348.081412 
L 631.675565 347.31188 
L 654.409217 346.335789 
L 677.142868 345.126479 
L 699.87652 343.517698 
L 722.610172 341.514553 
L 745.343823 338.650151 
L 768.077475 334.488862 
L 790.811126 327.75152 
L 813.544778 315.687338 
L 836.278429 290.635102 
L 859.012081 239.11863 
L 881.745732 207.997159 
L 904.479384 261.070612 
L 927.213036 327.528259 
L 949.946687 352.859746 
" clip-path="url(#p3f623deac6)" style="fill: none; stroke: #5cb85c; stroke-linecap: square"/>
   </g>
   <g id="line2d_51">
    <path d="M 86.067928 352.962228 
L 108.80158 353.186726 
L 131.535231 353.128222 
L 154.268883 353.075764 
L 177.002534 352.979488 
L 199.736186 352.894845 
L 222.469837 352.810002 
L 245.203489 352.719093 
L 267.937141 352.632115 
L 290.670792 352.549128 
L 313.404444 352.488848 
L 336.138095 352.432599 
L 358.871747 352.411967 
L 381.605398 352.40217 
L 404.33905 352.386147 
L 427.072701 352.370304 
L 449.806353 352.378186 
L 472.540004 352.368887 
L 495.273656 352.351108 
L 518.007308 352.32441 
L 540.740959 352.261517 
L 563.474611 352.138143 
L 586.208262 351.95868 
L 608.941914 351.652113 
L 631.675565 351.304381 
L 654.409217 350.838943 
L 677.142868 350.307697 
L 699.87652 349.604312 
L 722.610172 348.744491 
L 745.343823 347.589674 
L 768.077475 345.910696 
L 790.811126 343.270113 
L 813.544778 338.394245 
L 836.278429 327.381201 
L 859.012081 301.610155 
L 881.745732 280.177426 
L 904.479384 311.074758 
L 927.213036 344.116107 
L 949.946687 353.145782 
" clip-path="url(#p3f623deac6)" style="fill: none; stroke: #5cb85c; stroke-linecap: square"/>
   </g>
   <g id="line2d_52">
    <path d="M 86.067928 350.644934 
L 108.80158 352.448801 
L 131.535231 352.488888 
L 154.268883 352.437947 
L 177.002534 352.289791 
L 199.736186 352.231646 
L 222.469837 352.148998 
L 245.203489 352.08782 
L 267.937141 352.024009 
L 290.670792 352.018322 
L 313.404444 352.046536 
L 336.138095 352.046317 
L 358.871747 352.095463 
L 381.605398 352.108193 
L 404.33905 352.069643 
L 427.072701 352.027461 
L 449.806353 351.968917 
L 472.540004 351.848117 
L 495.273656 351.828563 
L 518.007308 351.699403 
L 540.740959 351.575371 
L 563.474611 351.399021 
L 586.208262 351.191543 
L 608.941914 350.927816 
L 631.675565 350.603171 
L 654.409217 350.20757 
L 677.142868 349.6958 
L 699.87652 349.023562 
L 722.610172 348.155619 
L 745.343823 346.989569 
L 768.077475 345.211881 
L 790.811126 342.41115 
L 813.544778 337.443615 
L 836.278429 327.384752 
L 859.012081 306.921491 
L 881.745732 291.834075 
L 904.479384 315.676902 
L 927.213036 343.972222 
L 949.946687 353.147777 
" clip-path="url(#p3f623deac6)" style="fill: none; stroke: #5cb85c; stroke-linecap: square"/>
   </g>
   <g id="line2d_53">
    <path d="M 86.067928 352.977592 
L 108.80158 353.18962 
L 131.535231 353.143986 
L 154.268883 353.092266 
L 177.002534 353.013908 
L 199.736186 352.8882 
L 222.469837 352.68589 
L 245.203489 352.403646 
L 267.937141 352.130421 
L 290.670792 351.867852 
L 313.404444 351.698186 
L 336.138095 351.509504 
L 358.871747 351.4083 
L 381.605398 351.280137 
L 404.33905 351.161932 
L 427.072701 351.052846 
L 449.806353 350.918737 
L 472.540004 350.842734 
L 495.273656 350.723651 
L 518.007308 350.608798 
L 540.740959 350.394795 
L 563.474611 349.997598 
L 586.208262 349.301456 
L 608.941914 348.342405 
L 631.675565 347.10103 
L 654.409217 345.554844 
L 677.142868 343.638637 
L 699.87652 341.286503 
L 722.610172 338.261753 
L 745.343823 334.246226 
L 768.077475 328.540287 
L 790.811126 319.488803 
L 813.544778 302.76515 
L 836.278429 263.866714 
L 859.012081 167.994828 
L 881.745732 90.102815 
L 904.479384 211.054474 
L 927.213036 323.732181 
L 949.946687 352.893667 
" clip-path="url(#p3f623deac6)" style="fill: none; stroke: #5cb85c; stroke-linecap: square"/>
   </g>
   <g id="line2d_54">
    <path d="M 86.067928 346.370907 
L 108.80158 351.046939 
L 131.535231 351.150778 
L 154.268883 351.060807 
L 177.002534 350.710761 
L 199.736186 350.549057 
L 222.469837 350.195478 
L 245.203489 349.968187 
L 267.937141 349.735128 
L 290.670792 349.702324 
L 313.404444 349.748876 
L 336.138095 349.764899 
L 358.871747 349.917484 
L 381.605398 349.916666 
L 404.33905 349.831744 
L 427.072701 349.650625 
L 449.806353 349.420639 
L 472.540004 349.071271 
L 495.273656 348.969947 
L 518.007308 348.56814 
L 540.740959 348.146081 
L 563.474611 347.556392 
L 586.208262 346.8471 
L 608.941914 345.926719 
L 631.675565 344.843437 
L 654.409217 343.46077 
L 677.142868 341.687731 
L 699.87652 339.427025 
L 722.610172 336.510384 
L 745.343823 332.401812 
L 768.077475 326.276887 
L 790.811126 316.483009 
L 813.544778 298.94449 
L 836.278429 262.683224 
L 859.012081 184.822798 
L 881.745732 131.835665 
L 904.479384 227.157708 
L 927.213036 323.888179 
L 949.946687 352.912304 
" clip-path="url(#p3f623deac6)" style="fill: none; stroke: #5cb85c; stroke-linecap: square"/>
   </g>
   <g id="line2d_55">
    <path d="M 86.067928 353.104557 
L 108.80158 353.207458 
L 131.535231 353.185729 
L 154.268883 353.158731 
L 177.002534 353.111741 
L 199.736186 353.012332 
L 222.469837 352.81066 
L 245.203489 352.524785 
L 267.937141 352.254752 
L 290.670792 351.997311 
L 313.404444 351.816351 
L 336.138095 351.60594 
L 358.871747 351.504476 
L 381.605398 351.38214 
L 404.33905 351.247134 
L 427.072701 351.087765 
L 449.806353 350.962975 
L 472.540004 350.84878 
L 495.273656 350.717904 
L 518.007308 350.602472 
L 540.740959 350.362131 
L 563.474611 349.938296 
L 586.208262 349.269171 
L 608.941914 348.280668 
L 631.675565 346.95886 
L 654.409217 345.329727 
L 677.142868 343.462666 
L 699.87652 341.08156 
L 722.610172 338.077661 
L 745.343823 334.023364 
L 768.077475 328.238768 
L 790.811126 318.975875 
L 813.544778 302.0037 
L 836.278429 262.80971 
L 859.012081 169.622764 
L 881.745732 107.619884 
L 904.479384 223.926159 
L 927.213036 324.750874 
L 949.946687 352.912643 
" clip-path="url(#p3f623deac6)" style="fill: none; stroke: #5cb85c; stroke-linecap: square"/>
   </g>
   <g id="line2d_56">
    <path d="M 86.067928 347.407198 
L 108.80158 351.308272 
L 131.535231 351.366038 
L 154.268883 351.232249 
L 177.002534 350.85744 
L 199.736186 350.630846 
L 222.469837 350.303527 
L 245.203489 350.081802 
L 267.937141 349.835595 
L 290.670792 349.7646 
L 313.404444 349.831365 
L 336.138095 349.826855 
L 358.871747 349.963837 
L 381.605398 349.942027 
L 404.33905 349.860696 
L 427.072701 349.679917 
L 449.806353 349.461783 
L 472.540004 349.10629 
L 495.273656 348.995348 
L 518.007308 348.583584 
L 540.740959 348.177788 
L 563.474611 347.566089 
L 586.208262 346.856598 
L 608.941914 345.912333 
L 631.675565 344.808897 
L 654.409217 343.410527 
L 677.142868 341.548215 
L 699.87652 339.26133 
L 722.610172 336.291273 
L 745.343823 332.125215 
L 768.077475 325.908902 
L 790.811126 316.022858 
L 813.544778 298.283646 
L 836.278429 262.248993 
L 859.012081 188.362571 
L 881.745732 148.216574 
L 904.479384 237.540378 
L 927.213036 324.287451 
L 949.946687 352.919567 
" clip-path="url(#p3f623deac6)" style="fill: none; stroke: #5cb85c; stroke-linecap: square"/>
   </g>
   <g id="line2d_57">
    <path d="M 86.067928 352.84977 
L 108.80158 353.181219 
L 131.535231 353.119902 
L 154.268883 353.056968 
L 177.002534 352.970649 
L 199.736186 352.863996 
L 222.469837 352.731504 
L 245.203489 352.55703 
L 267.937141 352.398478 
L 290.670792 352.231866 
L 313.404444 352.106337 
L 336.138095 351.961414 
L 358.871747 351.865417 
L 381.605398 351.80412 
L 404.33905 351.724265 
L 427.072701 351.675598 
L 449.806353 351.598657 
L 472.540004 351.545441 
L 495.273656 351.487815 
L 518.007308 351.420092 
L 540.740959 351.278102 
L 563.474611 350.997873 
L 586.208262 350.562026 
L 608.941914 349.932011 
L 631.675565 349.117583 
L 654.409217 348.065668 
L 677.142868 346.819923 
L 699.87652 345.289879 
L 722.610172 343.376666 
L 745.343823 340.803306 
L 768.077475 337.097858 
L 790.811126 331.377253 
L 813.544778 320.990034 
L 836.278429 297.852228 
L 859.012081 245.337018 
L 881.745732 209.29179 
L 904.479384 262.243466 
L 927.213036 329.540363 
L 949.946687 353.013968 
" clip-path="url(#p3f623deac6)" style="fill: none; stroke: #5cb85c; stroke-linecap: square"/>
   </g>
   <g id="line2d_58">
    <path d="M 86.067928 349.233654 
L 108.80158 351.970513 
L 131.535231 351.966742 
L 154.268883 351.90303 
L 177.002534 351.67937 
L 199.736186 351.557253 
L 222.469837 351.327707 
L 245.203489 351.159059 
L 267.937141 351.012679 
L 290.670792 350.983347 
L 313.404444 350.996477 
L 336.138095 351.023235 
L 358.871747 351.120229 
L 381.605398 351.127692 
L 404.33905 351.114842 
L 427.072701 351.035985 
L 449.806353 350.899083 
L 472.540004 350.722793 
L 495.273656 350.53477 
L 518.007308 350.281179 
L 540.740959 349.972936 
L 563.474611 349.567717 
L 586.208262 349.127341 
L 608.941914 348.534339 
L 631.675565 347.825666 
L 654.409217 346.974983 
L 677.142868 345.871108 
L 699.87652 344.495745 
L 722.610172 342.585644 
L 745.343823 339.975311 
L 768.077475 336.194578 
L 790.811126 330.244586 
L 813.544778 319.714299 
L 836.278429 298.566229 
L 859.012081 256.946217 
L 881.745732 230.497686 
L 904.479384 268.385053 
L 927.213036 328.037336 
L 949.946687 352.971147 
" clip-path="url(#p3f623deac6)" style="fill: none; stroke: #5cb85c; stroke-linecap: square"/>
   </g>
   <g id="line2d_59">
    <path d="M 86.067928 352.882833 
L 108.80158 353.18507 
L 131.535231 353.119662 
L 154.268883 353.063453 
L 177.002534 352.97005 
L 199.736186 352.852723 
L 222.469837 352.684154 
L 245.203489 352.471708 
L 267.937141 352.267722 
L 290.670792 352.056852 
L 313.404444 351.904407 
L 336.138095 351.746414 
L 358.871747 351.632918 
L 381.605398 351.558371 
L 404.33905 351.465247 
L 427.072701 351.369989 
L 449.806353 351.269163 
L 472.540004 351.203955 
L 495.273656 351.138467 
L 518.007308 351.041632 
L 540.740959 350.860353 
L 563.474611 350.520064 
L 586.208262 349.964834 
L 608.941914 349.172276 
L 631.675565 348.148635 
L 654.409217 346.863123 
L 677.142868 345.339544 
L 699.87652 343.44379 
L 722.610172 341.02964 
L 745.343823 337.833309 
L 768.077475 333.247188 
L 790.811126 326.074178 
L 813.544778 313.041767 
L 836.278429 283.299111 
L 859.012081 214.763434 
L 881.745732 172.795391 
L 904.479384 259.08772 
L 927.213036 332.50176 
L 949.946687 353.067144 
" clip-path="url(#p3f623deac6)" style="fill: none; stroke: #5cb85c; stroke-linecap: square"/>
   </g>
   <g id="line2d_60">
    <path d="M 86.067928 347.614557 
L 108.80158 351.496634 
L 131.535231 351.564975 
L 154.268883 351.502221 
L 177.002534 351.222452 
L 199.736186 351.078666 
L 222.469837 350.807396 
L 245.203489 350.613806 
L 267.937141 350.450306 
L 290.670792 350.40579 
L 313.404444 350.456033 
L 336.138095 350.505657 
L 358.871747 350.607062 
L 381.605398 350.628672 
L 404.33905 350.614904 
L 427.072701 350.510366 
L 449.806353 350.349321 
L 472.540004 350.149924 
L 495.273656 349.91924 
L 518.007308 349.552652 
L 540.740959 349.189636 
L 563.474611 348.709671 
L 586.208262 348.110364 
L 608.941914 347.405063 
L 631.675565 346.516708 
L 654.409217 345.436918 
L 677.142868 344.059239 
L 699.87652 342.259103 
L 722.610172 339.913155 
L 745.343823 336.630045 
L 768.077475 331.858974 
L 790.811126 324.358765 
L 813.544778 310.955156 
L 836.278429 283.689005 
L 859.012081 229.920427 
L 881.745732 201.666432 
L 904.479384 267.705213 
L 927.213036 331.468082 
L 949.946687 353.035458 
" clip-path="url(#p3f623deac6)" style="fill: none; stroke: #5cb85c; stroke-linecap: square"/>
   </g>
   <g id="line2d_61">
    <path d="M 86.067928 352.979727 
L 108.80158 353.192792 
L 131.535231 353.155299 
L 154.268883 353.110883 
L 177.002534 353.033542 
L 199.736186 352.903245 
L 222.469837 352.659552 
L 245.203489 352.366293 
L 267.937141 352.088838 
L 290.670792 351.812859 
L 313.404444 351.586066 
L 336.138095 351.366317 
L 358.871747 351.180669 
L 381.605398 351.044286 
L 404.33905 350.878631 
L 427.072701 350.722693 
L 449.806353 350.562146 
L 472.540004 350.464134 
L 495.273656 350.312067 
L 518.007308 350.174407 
L 540.740959 349.921954 
L 563.474611 349.453882 
L 586.208262 348.702209 
L 608.941914 347.614337 
L 631.675565 346.187234 
L 654.409217 344.417607 
L 677.142868 342.214507 
L 699.87652 339.61411 
L 722.610172 336.255177 
L 745.343823 331.823696 
L 768.077475 325.470661 
L 790.811126 315.505002 
L 813.544778 297.310388 
L 836.278429 256.948652 
L 859.012081 167.668207 
L 881.745732 119.601697 
L 904.479384 223.388788 
L 927.213036 321.778382 
L 949.946687 352.965281 
" clip-path="url(#p3f623deac6)" style="fill: none; stroke: #5cb85c; stroke-linecap: square"/>
   </g>
   <g id="line2d_62">
    <path d="M 86.067928 346.58056 
L 108.80158 351.099338 
L 131.535231 351.049314 
L 154.268883 350.896449 
L 177.002534 350.48752 
L 199.736186 350.229419 
L 222.469837 349.773778 
L 245.203489 349.447537 
L 267.937141 349.177444 
L 290.670792 349.122911 
L 313.404444 349.189077 
L 336.138095 349.253488 
L 358.871747 349.408587 
L 381.605398 349.448135 
L 404.33905 349.413376 
L 427.072701 349.26945 
L 449.806353 349.012508 
L 472.540004 348.720067 
L 495.273656 348.365591 
L 518.007308 347.864895 
L 540.740959 347.324371 
L 563.474611 346.649719 
L 586.208262 345.808793 
L 608.941914 344.79479 
L 631.675565 343.574067 
L 654.409217 342.048373 
L 677.142868 340.172592 
L 699.87652 337.712949 
L 722.610172 334.444625 
L 745.343823 329.998338 
L 768.077475 323.452072 
L 790.811126 313.172144 
L 813.544778 295.134265 
L 836.278429 259.252118 
L 859.012081 191.655119 
L 881.745732 160.264314 
L 904.479384 235.770352 
L 927.213036 320.4799 
L 949.946687 352.917871 
" clip-path="url(#p3f623deac6)" style="fill: none; stroke: #5cb85c; stroke-linecap: square"/>
   </g>
   <g id="line2d_63">
    <path d="M 86.067928 352.937346 
L 108.80158 353.190338 
L 131.535231 353.141851 
L 154.268883 353.096855 
L 177.002534 353.017599 
L 199.736186 352.921004 
L 222.469837 352.76361 
L 245.203489 352.564552 
L 267.937141 352.375173 
L 290.670792 352.179407 
L 313.404444 352.042945 
L 336.138095 351.869967 
L 358.871747 351.756351 
L 381.605398 351.677554 
L 404.33905 351.555358 
L 427.072701 351.471173 
L 449.806353 351.379387 
L 472.540004 351.287281 
L 495.273656 351.219818 
L 518.007308 351.099018 
L 540.740959 350.937214 
L 563.474611 350.621468 
L 586.208262 350.077133 
L 608.941914 349.314625 
L 631.675565 348.316824 
L 654.409217 347.063876 
L 677.142868 345.542512 
L 699.87652 343.689439 
L 722.610172 341.325912 
L 745.343823 338.201414 
L 768.077475 333.777834 
L 790.811126 326.927515 
L 813.544778 314.609982 
L 836.278429 287.767666 
L 859.012081 224.447108 
L 881.745732 170.410773 
L 904.479384 240.195507 
L 927.213036 326.815735 
L 949.946687 353.033941 
" clip-path="url(#p3f623deac6)" style="fill: none; stroke: #5cb85c; stroke-linecap: square"/>
   </g>
   <g id="line2d_64">
    <path d="M 86.067928 347.810461 
L 108.80158 351.626852 
L 131.535231 351.639482 
L 154.268883 351.569784 
L 177.002534 351.302067 
L 199.736186 351.17999 
L 222.469837 350.898045 
L 245.203489 350.719461 
L 267.937141 350.541813 
L 290.670792 350.520503 
L 313.404444 350.549176 
L 336.138095 350.580424 
L 358.871747 350.693341 
L 381.605398 350.691226 
L 404.33905 350.66814 
L 427.072701 350.581601 
L 449.806353 350.40978 
L 472.540004 350.235266 
L 495.273656 349.971599 
L 518.007308 349.626122 
L 540.740959 349.272683 
L 563.474611 348.824684 
L 586.208262 348.264366 
L 608.941914 347.589116 
L 631.675565 346.750425 
L 654.409217 345.679314 
L 677.142868 344.383266 
L 699.87652 342.673181 
L 722.610172 340.429635 
L 745.343823 337.290171 
L 768.077475 332.75984 
L 790.811126 325.773836 
L 813.544778 313.357992 
L 836.278429 288.436392 
L 859.012081 236.572927 
L 881.745732 197.267276 
L 904.479384 250.651507 
L 927.213036 325.819291 
L 949.946687 353.012032 
" clip-path="url(#p3f623deac6)" style="fill: none; stroke: #5cb85c; stroke-linecap: square"/>
   </g>
   <g id="line2d_65">
    <path d="M 86.067928 353.088016 
L 108.80158 353.202869 
L 131.535231 353.168908 
L 154.268883 353.129719 
L 177.002534 353.057626 
L 199.736186 352.9484 
L 222.469837 352.79368 
L 245.203489 352.611503 
L 267.937141 352.435253 
L 290.670792 352.223784 
L 313.404444 351.986436 
L 336.138095 351.936113 
L 358.871747 351.98488 
L 381.605398 351.970154 
L 404.33905 351.936253 
L 427.072701 351.916658 
L 449.806353 351.901414 
L 472.540004 351.880562 
L 495.273656 351.848397 
L 518.007308 351.796877 
L 540.740959 351.724046 
L 563.474611 351.520539 
L 586.208262 351.250646 
L 608.941914 350.811147 
L 631.675565 350.262203 
L 654.409217 349.566141 
L 677.142868 348.692751 
L 699.87652 347.63022 
L 722.610172 346.266669 
L 745.343823 344.447876 
L 768.077475 341.781054 
L 790.811126 337.477875 
L 813.544778 329.321252 
L 836.278429 309.370359 
L 859.012081 252.800512 
L 881.745732 184.620668 
L 904.479384 252.033754 
L 927.213036 332.416119 
L 949.946687 353.024683 
" clip-path="url(#p3f623deac6)" style="fill: none; stroke: #5cb85c; stroke-linecap: square"/>
   </g>
   <g id="line2d_66">
    <path d="M 86.067928 344.600043 
L 108.80158 350.953277 
L 131.535231 351.307234 
L 154.268883 351.335509 
L 177.002534 351.172089 
L 199.736186 351.188291 
L 222.469837 351.102351 
L 245.203489 351.078546 
L 267.937141 351.038359 
L 290.670792 351.116318 
L 313.404444 351.239173 
L 336.138095 351.268904 
L 358.871747 351.395529 
L 381.605398 351.410674 
L 404.33905 351.426597 
L 427.072701 351.380764 
L 449.806353 351.276346 
L 472.540004 351.161912 
L 495.273656 350.992346 
L 518.007308 350.789977 
L 540.740959 350.578588 
L 563.474611 350.294807 
L 586.208262 349.974372 
L 608.941914 349.557321 
L 631.675565 349.053512 
L 654.409217 348.452389 
L 677.142868 347.706842 
L 699.87652 346.67097 
L 722.610172 345.357921 
L 745.343823 343.448658 
L 768.077475 340.589743 
L 790.811126 335.923707 
L 813.544778 327.255413 
L 836.278429 307.848776 
L 859.012081 259.827681 
L 881.745732 209.946489 
L 904.479384 266.546924 
L 927.213036 333.514985 
L 949.946687 353.052678 
" clip-path="url(#p3f623deac6)" style="fill: none; stroke: #5cb85c; stroke-linecap: square"/>
   </g>
   <g id="line2d_67">
    <path d="M 86.067928 353.07331 
L 108.80158 353.205363 
L 131.535231 353.175572 
L 154.268883 353.141312 
L 177.002534 353.079396 
L 199.736186 352.995172 
L 222.469837 352.86661 
L 245.203489 352.715721 
L 267.937141 352.552999 
L 290.670792 352.394807 
L 313.404444 352.284862 
L 336.138095 352.144688 
L 358.871747 352.099493 
L 381.605398 352.027082 
L 404.33905 351.954071 
L 427.072701 351.904826 
L 449.806353 351.865756 
L 472.540004 351.803601 
L 495.273656 351.755233 
L 518.007308 351.710417 
L 540.740959 351.615678 
L 563.474611 351.413468 
L 586.208262 351.091077 
L 608.941914 350.634897 
L 631.675565 350.031679 
L 654.409217 349.250195 
L 677.142868 348.300123 
L 699.87652 347.122161 
L 722.610172 345.596706 
L 745.343823 343.575504 
L 768.077475 340.583896 
L 790.811126 335.75055 
L 813.544778 326.474069 
L 836.278429 303.991939 
L 859.012081 242.994422 
L 881.745732 183.214137 
L 904.479384 259.460494 
L 927.213036 331.656524 
L 949.946687 352.952571 
" clip-path="url(#p3f623deac6)" style="fill: none; stroke: #5cb85c; stroke-linecap: square"/>
   </g>
   <g id="line2d_68">
    <path d="M 86.067928 348.625926 
L 108.80158 351.832653 
L 131.535231 351.893592 
L 154.268883 351.796158 
L 177.002534 351.529418 
L 199.736186 351.428632 
L 222.469837 351.264733 
L 245.203489 351.119032 
L 267.937141 351.038978 
L 290.670792 350.996018 
L 313.404444 351.072819 
L 336.138095 351.097981 
L 358.871747 351.209442 
L 381.605398 351.222571 
L 404.33905 351.209123 
L 427.072701 351.137309 
L 449.806353 350.993544 
L 472.540004 350.804742 
L 495.273656 350.600238 
L 518.007308 350.348882 
L 540.740959 350.228083 
L 563.474611 349.914551 
L 586.208262 349.543613 
L 608.941914 349.0589 
L 631.675565 348.481003 
L 654.409217 347.827981 
L 677.142868 346.955169 
L 699.87652 345.762581 
L 722.610172 344.241077 
L 745.343823 342.092051 
L 768.077475 338.866049 
L 790.811126 333.633609 
L 813.544778 323.904561 
L 836.278429 302.39962 
L 859.012081 252.266833 
L 881.745732 210.825665 
L 904.479384 272.274733 
L 927.213036 331.999707 
L 949.946687 352.962807 
" clip-path="url(#p3f623deac6)" style="fill: none; stroke: #5cb85c; stroke-linecap: square"/>
   </g>
   <g id="line2d_69">
    <path d="M 40.600625 353.2239 
L 993.140625 353.2239 
" clip-path="url(#p3f623deac6)" style="fill: none; stroke: #dedede; stroke-width: 2; stroke-linecap: square"/>
   </g>
   <g id="text_21">
    <!-- FastQC: Per Sequence Quality Scores -->
    <g transform="translate(368.678125 19.3575) scale(0.16 -0.16)">
     <defs>
      <path id="DejaVuSans-46" d="M 628 4666 
L 3309 4666 
L 3309 4134 
L 1259 4134 
L 1259 2759 
L 3109 2759 
L 3109 2228 
L 1259 2228 
L 1259 0 
L 628 0 
L 628 4666 
z
" transform="scale(0.015625)"/>
      <path id="DejaVuSans-73" d="M 2834 3397 
L 2834 2853 
Q 2591 2978 2328 3040 
Q 2066 3103 1784 3103 
Q 1356 3103 1142 2972 
Q 928 2841 928 2578 
Q 928 2378 1081 2264 
Q 1234 2150 1697 2047 
L 1894 2003 
Q 2506 1872 2764 1633 
Q 3022 1394 3022 966 
Q 3022 478 2636 193 
Q 2250 -91 1575 -91 
Q 1294 -91 989 -36 
Q 684 19 347 128 
L 347 722 
Q 666 556 975 473 
Q 1284 391 1588 391 
Q 1994 391 2212 530 
Q 2431 669 2431 922 
Q 2431 1156 2273 1281 
Q 2116 1406 1581 1522 
L 1381 1569 
Q 847 1681 609 1914 
Q 372 2147 372 2553 
Q 372 3047 722 3315 
Q 1072 3584 1716 3584 
Q 2034 3584 2315 3537 
Q 2597 3491 2834 3397 
z
" transform="scale(0.015625)"/>
      <path id="DejaVuSans-3a" d="M 750 794 
L 1409 794 
L 1409 0 
L 750 0 
L 750 794 
z
M 750 3309 
L 1409 3309 
L 1409 2516 
L 750 2516 
L 750 3309 
z
" transform="scale(0.015625)"/>
     </defs>
     <use xlink:href="#DejaVuSans-46"/>
     <use xlink:href="#DejaVuSans-61" x="48.394531"/>
     <use xlink:href="#DejaVuSans-73" x="109.673828"/>
     <use xlink:href="#DejaVuSans-74" x="161.773438"/>
     <use xlink:href="#DejaVuSans-51" x="200.982422"/>
     <use xlink:href="#DejaVuSans-43" x="279.693359"/>
     <use xlink:href="#DejaVuSans-3a" x="349.517578"/>
     <use xlink:href="#DejaVuSans-20" x="383.208984"/>
     <use xlink:href="#DejaVuSans-50" x="414.996094"/>
     <use xlink:href="#DejaVuSans-65" x="471.673828"/>
     <use xlink:href="#DejaVuSans-72" x="533.197266"/>
     <use xlink:href="#DejaVuSans-20" x="574.310547"/>
     <use xlink:href="#DejaVuSans-53" x="606.097656"/>
     <use xlink:href="#DejaVuSans-65" x="669.574219"/>
     <use xlink:href="#DejaVuSans-71" x="731.097656"/>
     <use xlink:href="#DejaVuSans-75" x="794.574219"/>
     <use xlink:href="#DejaVuSans-65" x="857.953125"/>
     <use xlink:href="#DejaVuSans-6e" x="919.476562"/>
     <use xlink:href="#DejaVuSans-63" x="982.855469"/>
     <use xlink:href="#DejaVuSans-65" x="1037.835938"/>
     <use xlink:href="#DejaVuSans-20" x="1099.359375"/>
     <use xlink:href="#DejaVuSans-51" x="1131.146484"/>
     <use xlink:href="#DejaVuSans-75" x="1209.857422"/>
     <use xlink:href="#DejaVuSans-61" x="1273.236328"/>
     <use xlink:href="#DejaVuSans-6c" x="1334.515625"/>
     <use xlink:href="#DejaVuSans-69" x="1362.298828"/>
     <use xlink:href="#DejaVuSans-74" x="1390.082031"/>
     <use xlink:href="#DejaVuSans-79" x="1429.291016"/>
     <use xlink:href="#DejaVuSans-20" x="1488.470703"/>
     <use xlink:href="#DejaVuSans-53" x="1520.257812"/>
     <use xlink:href="#DejaVuSans-63" x="1583.734375"/>
     <use xlink:href="#DejaVuSans-6f" x="1638.714844"/>
     <use xlink:href="#DejaVuSans-72" x="1699.896484"/>
     <use xlink:href="#DejaVuSans-65" x="1738.759766"/>
     <use xlink:href="#DejaVuSans-73" x="1800.283203"/>
    </g>
   </g>
  </g>
 </g>
 <defs>
  <clipPath id="p3f623deac6">
   <rect x="40.600625" y="35.2559" width="952.54" height="317.968"/>
  </clipPath>
 </defs>
</svg>
