<?xml version="1.0" encoding="utf-8" standalone="no"?>
<!DOCTYPE svg PUBLIC "-//W3C//DTD SVG 1.1//EN"
  "http://www.w3.org/Graphics/SVG/1.1/DTD/svg11.dtd">
<svg xmlns:xlink="http://www.w3.org/1999/xlink" width="1000.340625pt" height="388.844525pt" viewBox="0 0 1000.340625 388.844525" xmlns="http://www.w3.org/2000/svg" version="1.1">
 <metadata>
  <rdf:RDF xmlns:dc="http://purl.org/dc/elements/1.1/" xmlns:cc="http://creativecommons.org/ns#" xmlns:rdf="http://www.w3.org/1999/02/22-rdf-syntax-ns#">
   <cc:Work>
    <dc:type rdf:resource="http://purl.org/dc/dcmitype/StillImage"/>
    <dc:date>2024-10-04T22:02:41.532050</dc:date>
    <dc:format>image/svg+xml</dc:format>
    <dc:creator>
     <cc:Agent>
      <dc:title>Matplotlib v3.8.1, https://matplotlib.org/</dc:title>
     </cc:Agent>
    </dc:creator>
   </cc:Work>
  </rdf:RDF>
 </metadata>
 <defs>
  <style type="text/css">*{stroke-linejoin: round; stroke-linecap: butt}</style>
 </defs>
 <g id="figure_1">
  <g id="axes_1">
   <g id="patch_1">
    <path d="M 40.600625 353.2239 
L 993.140625 353.2239 
L 993.140625 35.2559 
L 40.600625 35.2559 
z
" style="fill: #ffffff"/>
   </g>
   <g id="matplotlib.axis_1">
    <g id="xtick_1">
     <g id="text_1">
      <!-- 20 -->
      <g transform="translate(78.807898 366.30265) scale(0.08 -0.08)">
       <defs>
        <path id="DejaVuSans-32" d="M 1228 531 
L 3431 531 
L 3431 0 
L 469 0 
L 469 531 
Q 828 903 1448 1529 
Q 2069 2156 2228 2338 
Q 2531 2678 2651 2914 
Q 2772 3150 2772 3378 
Q 2772 3750 2511 3984 
Q 2250 4219 1831 4219 
Q 1534 4219 1204 4116 
Q 875 4013 500 3803 
L 500 4441 
Q 881 4594 1212 4672 
Q 1544 4750 1819 4750 
Q 2544 4750 2975 4387 
Q 3406 4025 3406 3419 
Q 3406 3131 3298 2873 
Q 3191 2616 2906 2266 
Q 2828 2175 2409 1742 
Q 1991 1309 1228 531 
z
" transform="scale(0.015625)"/>
        <path id="DejaVuSans-30" d="M 2034 4250 
Q 1547 4250 1301 3770 
Q 1056 3291 1056 2328 
Q 1056 1369 1301 889 
Q 1547 409 2034 409 
Q 2525 409 2770 889 
Q 3016 1369 3016 2328 
Q 3016 3291 2770 3770 
Q 2525 4250 2034 4250 
z
M 2034 4750 
Q 2819 4750 3233 4129 
Q 3647 3509 3647 2328 
Q 3647 1150 3233 529 
Q 2819 -91 2034 -91 
Q 1250 -91 836 529 
Q 422 1150 422 2328 
Q 422 3509 836 4129 
Q 1250 4750 2034 4750 
z
" transform="scale(0.015625)"/>
       </defs>
       <use xlink:href="#DejaVuSans-32"/>
       <use xlink:href="#DejaVuSans-30" x="63.623047"/>
      </g>
     </g>
    </g>
    <g id="xtick_2">
     <g id="text_2">
      <!-- 30 -->
      <g transform="translate(187.05108 366.30265) scale(0.08 -0.08)">
       <defs>
        <path id="DejaVuSans-33" d="M 2597 2516 
Q 3050 2419 3304 2112 
Q 3559 1806 3559 1356 
Q 3559 666 3084 287 
Q 2609 -91 1734 -91 
Q 1441 -91 1130 -33 
Q 819 25 488 141 
L 488 750 
Q 750 597 1062 519 
Q 1375 441 1716 441 
Q 2309 441 2620 675 
Q 2931 909 2931 1356 
Q 2931 1769 2642 2001 
Q 2353 2234 1838 2234 
L 1294 2234 
L 1294 2753 
L 1863 2753 
Q 2328 2753 2575 2939 
Q 2822 3125 2822 3475 
Q 2822 3834 2567 4026 
Q 2313 4219 1838 4219 
Q 1578 4219 1281 4162 
Q 984 4106 628 3988 
L 628 4550 
Q 988 4650 1302 4700 
Q 1616 4750 1894 4750 
Q 2613 4750 3031 4423 
Q 3450 4097 3450 3541 
Q 3450 3153 3228 2886 
Q 3006 2619 2597 2516 
z
" transform="scale(0.015625)"/>
       </defs>
       <use xlink:href="#DejaVuSans-33"/>
       <use xlink:href="#DejaVuSans-30" x="63.623047"/>
      </g>
     </g>
    </g>
    <g id="xtick_3">
     <g id="text_3">
      <!-- 40 -->
      <g transform="translate(295.294261 366.30265) scale(0.08 -0.08)">
       <defs>
        <path id="DejaVuSans-34" d="M 2419 4116 
L 825 1625 
L 2419 1625 
L 2419 4116 
z
M 2253 4666 
L 3047 4666 
L 3047 1625 
L 3713 1625 
L 3713 1100 
L 3047 1100 
L 3047 0 
L 2419 0 
L 2419 1100 
L 313 1100 
L 313 1709 
L 2253 4666 
z
" transform="scale(0.015625)"/>
       </defs>
       <use xlink:href="#DejaVuSans-34"/>
       <use xlink:href="#DejaVuSans-30" x="63.623047"/>
      </g>
     </g>
    </g>
    <g id="xtick_4">
     <g id="text_4">
      <!-- 50 -->
      <g transform="translate(403.537443 366.30265) scale(0.08 -0.08)">
       <defs>
        <path id="DejaVuSans-35" d="M 691 4666 
L 3169 4666 
L 3169 4134 
L 1269 4134 
L 1269 2991 
Q 1406 3038 1543 3061 
Q 1681 3084 1819 3084 
Q 2600 3084 3056 2656 
Q 3513 2228 3513 1497 
Q 3513 744 3044 326 
Q 2575 -91 1722 -91 
Q 1428 -91 1123 -41 
Q 819 9 494 109 
L 494 744 
Q 775 591 1075 516 
Q 1375 441 1709 441 
Q 2250 441 2565 725 
Q 2881 1009 2881 1497 
Q 2881 1984 2565 2268 
Q 2250 2553 1709 2553 
Q 1456 2553 1204 2497 
Q 953 2441 691 2322 
L 691 4666 
z
" transform="scale(0.015625)"/>
       </defs>
       <use xlink:href="#DejaVuSans-35"/>
       <use xlink:href="#DejaVuSans-30" x="63.623047"/>
      </g>
     </g>
    </g>
    <g id="xtick_5">
     <g id="text_5">
      <!-- 60 -->
      <g transform="translate(511.780625 366.30265) scale(0.08 -0.08)">
       <defs>
        <path id="DejaVuSans-36" d="M 2113 2584 
Q 1688 2584 1439 2293 
Q 1191 2003 1191 1497 
Q 1191 994 1439 701 
Q 1688 409 2113 409 
Q 2538 409 2786 701 
Q 3034 994 3034 1497 
Q 3034 2003 2786 2293 
Q 2538 2584 2113 2584 
z
M 3366 4563 
L 3366 3988 
Q 3128 4100 2886 4159 
Q 2644 4219 2406 4219 
Q 1781 4219 1451 3797 
Q 1122 3375 1075 2522 
Q 1259 2794 1537 2939 
Q 1816 3084 2150 3084 
Q 2853 3084 3261 2657 
Q 3669 2231 3669 1497 
Q 3669 778 3244 343 
Q 2819 -91 2113 -91 
Q 1303 -91 875 529 
Q 447 1150 447 2328 
Q 447 3434 972 4092 
Q 1497 4750 2381 4750 
Q 2619 4750 2861 4703 
Q 3103 4656 3366 4563 
z
" transform="scale(0.015625)"/>
       </defs>
       <use xlink:href="#DejaVuSans-36"/>
       <use xlink:href="#DejaVuSans-30" x="63.623047"/>
      </g>
     </g>
    </g>
    <g id="xtick_6">
     <g id="text_6">
      <!-- 70 -->
      <g transform="translate(620.023807 366.30265) scale(0.08 -0.08)">
       <defs>
        <path id="DejaVuSans-37" d="M 525 4666 
L 3525 4666 
L 3525 4397 
L 1831 0 
L 1172 0 
L 2766 4134 
L 525 4134 
L 525 4666 
z
" transform="scale(0.015625)"/>
       </defs>
       <use xlink:href="#DejaVuSans-37"/>
       <use xlink:href="#DejaVuSans-30" x="63.623047"/>
      </g>
     </g>
    </g>
    <g id="xtick_7">
     <g id="text_7">
      <!-- 80 -->
      <g transform="translate(728.266989 366.30265) scale(0.08 -0.08)">
       <defs>
        <path id="DejaVuSans-38" d="M 2034 2216 
Q 1584 2216 1326 1975 
Q 1069 1734 1069 1313 
Q 1069 891 1326 650 
Q 1584 409 2034 409 
Q 2484 409 2743 651 
Q 3003 894 3003 1313 
Q 3003 1734 2745 1975 
Q 2488 2216 2034 2216 
z
M 1403 2484 
Q 997 2584 770 2862 
Q 544 3141 544 3541 
Q 544 4100 942 4425 
Q 1341 4750 2034 4750 
Q 2731 4750 3128 4425 
Q 3525 4100 3525 3541 
Q 3525 3141 3298 2862 
Q 3072 2584 2669 2484 
Q 3125 2378 3379 2068 
Q 3634 1759 3634 1313 
Q 3634 634 3220 271 
Q 2806 -91 2034 -91 
Q 1263 -91 848 271 
Q 434 634 434 1313 
Q 434 1759 690 2068 
Q 947 2378 1403 2484 
z
M 1172 3481 
Q 1172 3119 1398 2916 
Q 1625 2713 2034 2713 
Q 2441 2713 2670 2916 
Q 2900 3119 2900 3481 
Q 2900 3844 2670 4047 
Q 2441 4250 2034 4250 
Q 1625 4250 1398 4047 
Q 1172 3844 1172 3481 
z
" transform="scale(0.015625)"/>
       </defs>
       <use xlink:href="#DejaVuSans-38"/>
       <use xlink:href="#DejaVuSans-30" x="63.623047"/>
      </g>
     </g>
    </g>
    <g id="xtick_8">
     <g id="text_8">
      <!-- 90 -->
      <g transform="translate(836.51017 366.30265) scale(0.08 -0.08)">
       <defs>
        <path id="DejaVuSans-39" d="M 703 97 
L 703 672 
Q 941 559 1184 500 
Q 1428 441 1663 441 
Q 2288 441 2617 861 
Q 2947 1281 2994 2138 
Q 2813 1869 2534 1725 
Q 2256 1581 1919 1581 
Q 1219 1581 811 2004 
Q 403 2428 403 3163 
Q 403 3881 828 4315 
Q 1253 4750 1959 4750 
Q 2769 4750 3195 4129 
Q 3622 3509 3622 2328 
Q 3622 1225 3098 567 
Q 2575 -91 1691 -91 
Q 1453 -91 1209 -44 
Q 966 3 703 97 
z
M 1959 2075 
Q 2384 2075 2632 2365 
Q 2881 2656 2881 3163 
Q 2881 3666 2632 3958 
Q 2384 4250 1959 4250 
Q 1534 4250 1286 3958 
Q 1038 3666 1038 3163 
Q 1038 2656 1286 2365 
Q 1534 2075 1959 2075 
z
" transform="scale(0.015625)"/>
       </defs>
       <use xlink:href="#DejaVuSans-39"/>
       <use xlink:href="#DejaVuSans-30" x="63.623047"/>
      </g>
     </g>
    </g>
    <g id="xtick_9">
     <g id="text_9">
      <!-- 100 -->
      <g transform="translate(942.208352 366.30265) scale(0.08 -0.08)">
       <defs>
        <path id="DejaVuSans-31" d="M 794 531 
L 1825 531 
L 1825 4091 
L 703 3866 
L 703 4441 
L 1819 4666 
L 2450 4666 
L 2450 531 
L 3481 531 
L 3481 0 
L 794 0 
L 794 531 
z
" transform="scale(0.015625)"/>
       </defs>
       <use xlink:href="#DejaVuSans-31"/>
       <use xlink:href="#DejaVuSans-30" x="63.623047"/>
       <use xlink:href="#DejaVuSans-30" x="127.246094"/>
      </g>
     </g>
    </g>
    <g id="text_10">
     <!-- Sequence Length (bp) -->
     <g transform="translate(461.530781 379.564837) scale(0.1 -0.1)">
      <defs>
       <path id="DejaVuSans-53" d="M 3425 4513 
L 3425 3897 
Q 3066 4069 2747 4153 
Q 2428 4238 2131 4238 
Q 1616 4238 1336 4038 
Q 1056 3838 1056 3469 
Q 1056 3159 1242 3001 
Q 1428 2844 1947 2747 
L 2328 2669 
Q 3034 2534 3370 2195 
Q 3706 1856 3706 1288 
Q 3706 609 3251 259 
Q 2797 -91 1919 -91 
Q 1588 -91 1214 -16 
Q 841 59 441 206 
L 441 856 
Q 825 641 1194 531 
Q 1563 422 1919 422 
Q 2459 422 2753 634 
Q 3047 847 3047 1241 
Q 3047 1584 2836 1778 
Q 2625 1972 2144 2069 
L 1759 2144 
Q 1053 2284 737 2584 
Q 422 2884 422 3419 
Q 422 4038 858 4394 
Q 1294 4750 2059 4750 
Q 2388 4750 2728 4690 
Q 3069 4631 3425 4513 
z
" transform="scale(0.015625)"/>
       <path id="DejaVuSans-65" d="M 3597 1894 
L 3597 1613 
L 953 1613 
Q 991 1019 1311 708 
Q 1631 397 2203 397 
Q 2534 397 2845 478 
Q 3156 559 3463 722 
L 3463 178 
Q 3153 47 2828 -22 
Q 2503 -91 2169 -91 
Q 1331 -91 842 396 
Q 353 884 353 1716 
Q 353 2575 817 3079 
Q 1281 3584 2069 3584 
Q 2775 3584 3186 3129 
Q 3597 2675 3597 1894 
z
M 3022 2063 
Q 3016 2534 2758 2815 
Q 2500 3097 2075 3097 
Q 1594 3097 1305 2825 
Q 1016 2553 972 2059 
L 3022 2063 
z
" transform="scale(0.015625)"/>
       <path id="DejaVuSans-71" d="M 947 1747 
Q 947 1113 1208 752 
Q 1469 391 1925 391 
Q 2381 391 2643 752 
Q 2906 1113 2906 1747 
Q 2906 2381 2643 2742 
Q 2381 3103 1925 3103 
Q 1469 3103 1208 2742 
Q 947 2381 947 1747 
z
M 2906 525 
Q 2725 213 2448 61 
Q 2172 -91 1784 -91 
Q 1150 -91 751 415 
Q 353 922 353 1747 
Q 353 2572 751 3078 
Q 1150 3584 1784 3584 
Q 2172 3584 2448 3432 
Q 2725 3281 2906 2969 
L 2906 3500 
L 3481 3500 
L 3481 -1331 
L 2906 -1331 
L 2906 525 
z
" transform="scale(0.015625)"/>
       <path id="DejaVuSans-75" d="M 544 1381 
L 544 3500 
L 1119 3500 
L 1119 1403 
Q 1119 906 1312 657 
Q 1506 409 1894 409 
Q 2359 409 2629 706 
Q 2900 1003 2900 1516 
L 2900 3500 
L 3475 3500 
L 3475 0 
L 2900 0 
L 2900 538 
Q 2691 219 2414 64 
Q 2138 -91 1772 -91 
Q 1169 -91 856 284 
Q 544 659 544 1381 
z
M 1991 3584 
L 1991 3584 
z
" transform="scale(0.015625)"/>
       <path id="DejaVuSans-6e" d="M 3513 2113 
L 3513 0 
L 2938 0 
L 2938 2094 
Q 2938 2591 2744 2837 
Q 2550 3084 2163 3084 
Q 1697 3084 1428 2787 
Q 1159 2491 1159 1978 
L 1159 0 
L 581 0 
L 581 3500 
L 1159 3500 
L 1159 2956 
Q 1366 3272 1645 3428 
Q 1925 3584 2291 3584 
Q 2894 3584 3203 3211 
Q 3513 2838 3513 2113 
z
" transform="scale(0.015625)"/>
       <path id="DejaVuSans-63" d="M 3122 3366 
L 3122 2828 
Q 2878 2963 2633 3030 
Q 2388 3097 2138 3097 
Q 1578 3097 1268 2742 
Q 959 2388 959 1747 
Q 959 1106 1268 751 
Q 1578 397 2138 397 
Q 2388 397 2633 464 
Q 2878 531 3122 666 
L 3122 134 
Q 2881 22 2623 -34 
Q 2366 -91 2075 -91 
Q 1284 -91 818 406 
Q 353 903 353 1747 
Q 353 2603 823 3093 
Q 1294 3584 2113 3584 
Q 2378 3584 2631 3529 
Q 2884 3475 3122 3366 
z
" transform="scale(0.015625)"/>
       <path id="DejaVuSans-20" transform="scale(0.015625)"/>
       <path id="DejaVuSans-4c" d="M 628 4666 
L 1259 4666 
L 1259 531 
L 3531 531 
L 3531 0 
L 628 0 
L 628 4666 
z
" transform="scale(0.015625)"/>
       <path id="DejaVuSans-67" d="M 2906 1791 
Q 2906 2416 2648 2759 
Q 2391 3103 1925 3103 
Q 1463 3103 1205 2759 
Q 947 2416 947 1791 
Q 947 1169 1205 825 
Q 1463 481 1925 481 
Q 2391 481 2648 825 
Q 2906 1169 2906 1791 
z
M 3481 434 
Q 3481 -459 3084 -895 
Q 2688 -1331 1869 -1331 
Q 1566 -1331 1297 -1286 
Q 1028 -1241 775 -1147 
L 775 -588 
Q 1028 -725 1275 -790 
Q 1522 -856 1778 -856 
Q 2344 -856 2625 -561 
Q 2906 -266 2906 331 
L 2906 616 
Q 2728 306 2450 153 
Q 2172 0 1784 0 
Q 1141 0 747 490 
Q 353 981 353 1791 
Q 353 2603 747 3093 
Q 1141 3584 1784 3584 
Q 2172 3584 2450 3431 
Q 2728 3278 2906 2969 
L 2906 3500 
L 3481 3500 
L 3481 434 
z
" transform="scale(0.015625)"/>
       <path id="DejaVuSans-74" d="M 1172 4494 
L 1172 3500 
L 2356 3500 
L 2356 3053 
L 1172 3053 
L 1172 1153 
Q 1172 725 1289 603 
Q 1406 481 1766 481 
L 2356 481 
L 2356 0 
L 1766 0 
Q 1100 0 847 248 
Q 594 497 594 1153 
L 594 3053 
L 172 3053 
L 172 3500 
L 594 3500 
L 594 4494 
L 1172 4494 
z
" transform="scale(0.015625)"/>
       <path id="DejaVuSans-68" d="M 3513 2113 
L 3513 0 
L 2938 0 
L 2938 2094 
Q 2938 2591 2744 2837 
Q 2550 3084 2163 3084 
Q 1697 3084 1428 2787 
Q 1159 2491 1159 1978 
L 1159 0 
L 581 0 
L 581 4863 
L 1159 4863 
L 1159 2956 
Q 1366 3272 1645 3428 
Q 1925 3584 2291 3584 
Q 2894 3584 3203 3211 
Q 3513 2838 3513 2113 
z
" transform="scale(0.015625)"/>
       <path id="DejaVuSans-28" d="M 1984 4856 
Q 1566 4138 1362 3434 
Q 1159 2731 1159 2009 
Q 1159 1288 1364 580 
Q 1569 -128 1984 -844 
L 1484 -844 
Q 1016 -109 783 600 
Q 550 1309 550 2009 
Q 550 2706 781 3412 
Q 1013 4119 1484 4856 
L 1984 4856 
z
" transform="scale(0.015625)"/>
       <path id="DejaVuSans-62" d="M 3116 1747 
Q 3116 2381 2855 2742 
Q 2594 3103 2138 3103 
Q 1681 3103 1420 2742 
Q 1159 2381 1159 1747 
Q 1159 1113 1420 752 
Q 1681 391 2138 391 
Q 2594 391 2855 752 
Q 3116 1113 3116 1747 
z
M 1159 2969 
Q 1341 3281 1617 3432 
Q 1894 3584 2278 3584 
Q 2916 3584 3314 3078 
Q 3713 2572 3713 1747 
Q 3713 922 3314 415 
Q 2916 -91 2278 -91 
Q 1894 -91 1617 61 
Q 1341 213 1159 525 
L 1159 0 
L 581 0 
L 581 4863 
L 1159 4863 
L 1159 2969 
z
" transform="scale(0.015625)"/>
       <path id="DejaVuSans-70" d="M 1159 525 
L 1159 -1331 
L 581 -1331 
L 581 3500 
L 1159 3500 
L 1159 2969 
Q 1341 3281 1617 3432 
Q 1894 3584 2278 3584 
Q 2916 3584 3314 3078 
Q 3713 2572 3713 1747 
Q 3713 922 3314 415 
Q 2916 -91 2278 -91 
Q 1894 -91 1617 61 
Q 1341 213 1159 525 
z
M 3116 1747 
Q 3116 2381 2855 2742 
Q 2594 3103 2138 3103 
Q 1681 3103 1420 2742 
Q 1159 2381 1159 1747 
Q 1159 1113 1420 752 
Q 1681 391 2138 391 
Q 2594 391 2855 752 
Q 3116 1113 3116 1747 
z
" transform="scale(0.015625)"/>
       <path id="DejaVuSans-29" d="M 513 4856 
L 1013 4856 
Q 1481 4119 1714 3412 
Q 1947 2706 1947 2009 
Q 1947 1309 1714 600 
Q 1481 -109 1013 -844 
L 513 -844 
Q 928 -128 1133 580 
Q 1338 1288 1338 2009 
Q 1338 2731 1133 3434 
Q 928 4138 513 4856 
z
" transform="scale(0.015625)"/>
      </defs>
      <use xlink:href="#DejaVuSans-53"/>
      <use xlink:href="#DejaVuSans-65" x="63.476562"/>
      <use xlink:href="#DejaVuSans-71" x="125"/>
      <use xlink:href="#DejaVuSans-75" x="188.476562"/>
      <use xlink:href="#DejaVuSans-65" x="251.855469"/>
      <use xlink:href="#DejaVuSans-6e" x="313.378906"/>
      <use xlink:href="#DejaVuSans-63" x="376.757812"/>
      <use xlink:href="#DejaVuSans-65" x="431.738281"/>
      <use xlink:href="#DejaVuSans-20" x="493.261719"/>
      <use xlink:href="#DejaVuSans-4c" x="525.048828"/>
      <use xlink:href="#DejaVuSans-65" x="579.011719"/>
      <use xlink:href="#DejaVuSans-6e" x="640.535156"/>
      <use xlink:href="#DejaVuSans-67" x="703.914062"/>
      <use xlink:href="#DejaVuSans-74" x="767.390625"/>
      <use xlink:href="#DejaVuSans-68" x="806.599609"/>
      <use xlink:href="#DejaVuSans-20" x="869.978516"/>
      <use xlink:href="#DejaVuSans-28" x="901.765625"/>
      <use xlink:href="#DejaVuSans-62" x="940.779297"/>
      <use xlink:href="#DejaVuSans-70" x="1004.255859"/>
      <use xlink:href="#DejaVuSans-29" x="1067.732422"/>
     </g>
    </g>
   </g>
   <g id="matplotlib.axis_2">
    <g id="ytick_1">
     <g id="line2d_1">
      <path d="M 40.600625 353.2239 
L 993.140625 353.2239 
" clip-path="url(#p7a90dc40c4)" style="fill: none; stroke: #dedede; stroke-linecap: square"/>
     </g>
     <g id="text_11">
      <!-- 0.0 -->
      <g transform="translate(20.878125 356.263275) scale(0.08 -0.08)">
       <defs>
        <path id="DejaVuSans-2e" d="M 684 794 
L 1344 794 
L 1344 0 
L 684 0 
L 684 794 
z
" transform="scale(0.015625)"/>
       </defs>
       <use xlink:href="#DejaVuSans-30"/>
       <use xlink:href="#DejaVuSans-2e" x="63.623047"/>
       <use xlink:href="#DejaVuSans-30" x="95.410156"/>
      </g>
     </g>
    </g>
    <g id="ytick_2">
     <g id="line2d_2">
      <path d="M 40.600625 304.841368 
L 993.140625 304.841368 
" clip-path="url(#p7a90dc40c4)" style="fill: none; stroke: #dedede; stroke-linecap: square"/>
     </g>
     <g id="text_12">
      <!-- 0.5 -->
      <g transform="translate(20.878125 307.880743) scale(0.08 -0.08)">
       <use xlink:href="#DejaVuSans-30"/>
       <use xlink:href="#DejaVuSans-2e" x="63.623047"/>
       <use xlink:href="#DejaVuSans-35" x="95.410156"/>
      </g>
     </g>
    </g>
    <g id="ytick_3">
     <g id="line2d_3">
      <path d="M 40.600625 256.458836 
L 993.140625 256.458836 
" clip-path="url(#p7a90dc40c4)" style="fill: none; stroke: #dedede; stroke-linecap: square"/>
     </g>
     <g id="text_13">
      <!-- 1.0 -->
      <g transform="translate(20.878125 259.498211) scale(0.08 -0.08)">
       <use xlink:href="#DejaVuSans-31"/>
       <use xlink:href="#DejaVuSans-2e" x="63.623047"/>
       <use xlink:href="#DejaVuSans-30" x="95.410156"/>
      </g>
     </g>
    </g>
    <g id="ytick_4">
     <g id="line2d_4">
      <path d="M 40.600625 208.076303 
L 993.140625 208.076303 
" clip-path="url(#p7a90dc40c4)" style="fill: none; stroke: #dedede; stroke-linecap: square"/>
     </g>
     <g id="text_14">
      <!-- 1.5 -->
      <g transform="translate(20.878125 211.115678) scale(0.08 -0.08)">
       <use xlink:href="#DejaVuSans-31"/>
       <use xlink:href="#DejaVuSans-2e" x="63.623047"/>
       <use xlink:href="#DejaVuSans-35" x="95.410156"/>
      </g>
     </g>
    </g>
    <g id="ytick_5">
     <g id="line2d_5">
      <path d="M 40.600625 159.693771 
L 993.140625 159.693771 
" clip-path="url(#p7a90dc40c4)" style="fill: none; stroke: #dedede; stroke-linecap: square"/>
     </g>
     <g id="text_15">
      <!-- 2.0 -->
      <g transform="translate(20.878125 162.733146) scale(0.08 -0.08)">
       <use xlink:href="#DejaVuSans-32"/>
       <use xlink:href="#DejaVuSans-2e" x="63.623047"/>
       <use xlink:href="#DejaVuSans-30" x="95.410156"/>
      </g>
     </g>
    </g>
    <g id="ytick_6">
     <g id="line2d_6">
      <path d="M 40.600625 111.311239 
L 993.140625 111.311239 
" clip-path="url(#p7a90dc40c4)" style="fill: none; stroke: #dedede; stroke-linecap: square"/>
     </g>
     <g id="text_16">
      <!-- 2.5 -->
      <g transform="translate(20.878125 114.350614) scale(0.08 -0.08)">
       <use xlink:href="#DejaVuSans-32"/>
       <use xlink:href="#DejaVuSans-2e" x="63.623047"/>
       <use xlink:href="#DejaVuSans-35" x="95.410156"/>
      </g>
     </g>
    </g>
    <g id="ytick_7">
     <g id="line2d_7">
      <path d="M 40.600625 62.928707 
L 993.140625 62.928707 
" clip-path="url(#p7a90dc40c4)" style="fill: none; stroke: #dedede; stroke-linecap: square"/>
     </g>
     <g id="text_17">
      <!-- 3.0 -->
      <g transform="translate(20.878125 65.968082) scale(0.08 -0.08)">
       <use xlink:href="#DejaVuSans-33"/>
       <use xlink:href="#DejaVuSans-2e" x="63.623047"/>
       <use xlink:href="#DejaVuSans-30" x="95.410156"/>
      </g>
     </g>
    </g>
    <g id="text_18">
     <!-- Read Count -->
     <g transform="translate(14.798438 223.241463) rotate(-90) scale(0.1 -0.1)">
      <defs>
       <path id="DejaVuSans-52" d="M 2841 2188 
Q 3044 2119 3236 1894 
Q 3428 1669 3622 1275 
L 4263 0 
L 3584 0 
L 2988 1197 
Q 2756 1666 2539 1819 
Q 2322 1972 1947 1972 
L 1259 1972 
L 1259 0 
L 628 0 
L 628 4666 
L 2053 4666 
Q 2853 4666 3247 4331 
Q 3641 3997 3641 3322 
Q 3641 2881 3436 2590 
Q 3231 2300 2841 2188 
z
M 1259 4147 
L 1259 2491 
L 2053 2491 
Q 2509 2491 2742 2702 
Q 2975 2913 2975 3322 
Q 2975 3731 2742 3939 
Q 2509 4147 2053 4147 
L 1259 4147 
z
" transform="scale(0.015625)"/>
       <path id="DejaVuSans-61" d="M 2194 1759 
Q 1497 1759 1228 1600 
Q 959 1441 959 1056 
Q 959 750 1161 570 
Q 1363 391 1709 391 
Q 2188 391 2477 730 
Q 2766 1069 2766 1631 
L 2766 1759 
L 2194 1759 
z
M 3341 1997 
L 3341 0 
L 2766 0 
L 2766 531 
Q 2569 213 2275 61 
Q 1981 -91 1556 -91 
Q 1019 -91 701 211 
Q 384 513 384 1019 
Q 384 1609 779 1909 
Q 1175 2209 1959 2209 
L 2766 2209 
L 2766 2266 
Q 2766 2663 2505 2880 
Q 2244 3097 1772 3097 
Q 1472 3097 1187 3025 
Q 903 2953 641 2809 
L 641 3341 
Q 956 3463 1253 3523 
Q 1550 3584 1831 3584 
Q 2591 3584 2966 3190 
Q 3341 2797 3341 1997 
z
" transform="scale(0.015625)"/>
       <path id="DejaVuSans-64" d="M 2906 2969 
L 2906 4863 
L 3481 4863 
L 3481 0 
L 2906 0 
L 2906 525 
Q 2725 213 2448 61 
Q 2172 -91 1784 -91 
Q 1150 -91 751 415 
Q 353 922 353 1747 
Q 353 2572 751 3078 
Q 1150 3584 1784 3584 
Q 2172 3584 2448 3432 
Q 2725 3281 2906 2969 
z
M 947 1747 
Q 947 1113 1208 752 
Q 1469 391 1925 391 
Q 2381 391 2643 752 
Q 2906 1113 2906 1747 
Q 2906 2381 2643 2742 
Q 2381 3103 1925 3103 
Q 1469 3103 1208 2742 
Q 947 2381 947 1747 
z
" transform="scale(0.015625)"/>
       <path id="DejaVuSans-43" d="M 4122 4306 
L 4122 3641 
Q 3803 3938 3442 4084 
Q 3081 4231 2675 4231 
Q 1875 4231 1450 3742 
Q 1025 3253 1025 2328 
Q 1025 1406 1450 917 
Q 1875 428 2675 428 
Q 3081 428 3442 575 
Q 3803 722 4122 1019 
L 4122 359 
Q 3791 134 3420 21 
Q 3050 -91 2638 -91 
Q 1578 -91 968 557 
Q 359 1206 359 2328 
Q 359 3453 968 4101 
Q 1578 4750 2638 4750 
Q 3056 4750 3426 4639 
Q 3797 4528 4122 4306 
z
" transform="scale(0.015625)"/>
       <path id="DejaVuSans-6f" d="M 1959 3097 
Q 1497 3097 1228 2736 
Q 959 2375 959 1747 
Q 959 1119 1226 758 
Q 1494 397 1959 397 
Q 2419 397 2687 759 
Q 2956 1122 2956 1747 
Q 2956 2369 2687 2733 
Q 2419 3097 1959 3097 
z
M 1959 3584 
Q 2709 3584 3137 3096 
Q 3566 2609 3566 1747 
Q 3566 888 3137 398 
Q 2709 -91 1959 -91 
Q 1206 -91 779 398 
Q 353 888 353 1747 
Q 353 2609 779 3096 
Q 1206 3584 1959 3584 
z
" transform="scale(0.015625)"/>
      </defs>
      <use xlink:href="#DejaVuSans-52"/>
      <use xlink:href="#DejaVuSans-65" x="64.982422"/>
      <use xlink:href="#DejaVuSans-61" x="126.505859"/>
      <use xlink:href="#DejaVuSans-64" x="187.785156"/>
      <use xlink:href="#DejaVuSans-20" x="251.261719"/>
      <use xlink:href="#DejaVuSans-43" x="283.048828"/>
      <use xlink:href="#DejaVuSans-6f" x="352.873047"/>
      <use xlink:href="#DejaVuSans-75" x="414.054688"/>
      <use xlink:href="#DejaVuSans-6e" x="477.433594"/>
      <use xlink:href="#DejaVuSans-74" x="540.8125"/>
     </g>
    </g>
    <g id="text_19">
     <!-- 1e7 -->
     <g transform="translate(40.600625 32.2559) scale(0.1 -0.1)">
      <use xlink:href="#DejaVuSans-31"/>
      <use xlink:href="#DejaVuSans-65" x="63.623047"/>
      <use xlink:href="#DejaVuSans-37" x="125.146484"/>
     </g>
    </g>
   </g>
   <g id="line2d_8">
    <path d="M 83.897898 353.167109 
L 105.546534 353.146498 
L 127.19517 353.1168 
L 148.843807 353.099983 
L 170.492443 353.093664 
L 192.14108 353.08001 
L 213.789716 353.080746 
L 235.438352 353.07464 
L 257.086989 353.074824 
L 278.735625 353.066918 
L 300.384261 353.050303 
L 322.032898 353.051832 
L 343.681534 353.04142 
L 365.33017 353.036292 
L 386.978807 353.038082 
L 408.627443 353.023954 
L 430.27608 353.000315 
L 451.924716 352.977275 
L 473.573352 352.967647 
L 495.221989 352.958251 
L 516.870625 352.953238 
L 538.519261 352.933789 
L 560.167898 352.919129 
L 581.816534 352.913565 
L 603.46517 352.902417 
L 625.113807 352.898489 
L 646.762443 352.897908 
L 668.41108 352.906065 
L 690.059716 352.993125 
L 711.708352 352.893409 
L 733.356989 352.824434 
L 755.005625 352.749093 
L 776.654261 352.652744 
L 798.302898 352.537352 
L 819.951534 352.354137 
L 841.60017 352.075908 
L 863.248807 351.579262 
L 884.897443 350.406334 
L 906.54608 345.469099 
L 928.194716 292.571761 
L 949.843352 231.820679 
" clip-path="url(#p7a90dc40c4)" style="fill: none; stroke: #f0ad4e; stroke-linecap: square"/>
   </g>
   <g id="line2d_9">
    <path d="M 83.897898 352.901692 
L 105.546534 352.877704 
L 127.19517 352.855554 
L 148.843807 352.859792 
L 170.492443 352.838978 
L 192.14108 352.813084 
L 213.789716 352.817051 
L 235.438352 352.80872 
L 257.086989 352.80871 
L 278.735625 352.806736 
L 300.384261 352.78628 
L 322.032898 352.764576 
L 343.681534 352.806078 
L 365.33017 352.7492 
L 386.978807 352.786319 
L 408.627443 352.875323 
L 430.27608 352.853387 
L 451.924716 352.827105 
L 473.573352 352.780639 
L 495.221989 352.749132 
L 516.870625 352.725666 
L 538.519261 352.698369 
L 560.167898 352.670617 
L 581.816534 352.628011 
L 603.46517 352.602359 
L 625.113807 352.567136 
L 646.762443 352.535378 
L 668.41108 352.483957 
L 690.059716 352.434965 
L 711.708352 352.387889 
L 733.356989 352.303326 
L 755.005625 352.199264 
L 776.654261 352.080243 
L 798.302898 351.884149 
L 819.951534 351.617484 
L 841.60017 351.210016 
L 863.248807 350.573137 
L 884.897443 349.256232 
L 906.54608 344.204148 
L 928.194716 295.977504 
L 949.843352 243.992592 
" clip-path="url(#p7a90dc40c4)" style="fill: none; stroke: #f0ad4e; stroke-linecap: square"/>
   </g>
   <g id="line2d_10">
    <path d="M 83.897898 353.176234 
L 105.546534 353.160412 
L 127.19517 353.134189 
L 148.843807 353.12368 
L 170.492443 353.118678 
L 192.14108 353.110975 
L 213.789716 353.112233 
L 235.438352 353.108924 
L 257.086989 353.105895 
L 278.735625 353.10096 
L 300.384261 353.09499 
L 322.032898 353.092841 
L 343.681534 353.085061 
L 365.33017 353.08061 
L 386.978807 353.082565 
L 408.627443 353.07463 
L 430.27608 353.054755 
L 451.924716 353.038401 
L 473.573352 353.035382 
L 495.221989 353.025203 
L 516.870625 353.019223 
L 538.519261 353.013049 
L 560.167898 352.998292 
L 581.816534 353.000189 
L 603.46517 352.989999 
L 625.113807 352.985597 
L 646.762443 352.982355 
L 668.41108 352.997296 
L 690.059716 353.055713 
L 711.708352 352.987706 
L 733.356989 352.938695 
L 755.005625 352.88139 
L 776.654261 352.813848 
L 798.302898 352.733737 
L 819.951534 352.59693 
L 841.60017 352.404387 
L 863.248807 352.065371 
L 884.897443 351.240516 
L 906.54608 347.65659 
L 928.194716 308.470958 
L 949.843352 264.07982 
" clip-path="url(#p7a90dc40c4)" style="fill: none; stroke: #f0ad4e; stroke-linecap: square"/>
   </g>
   <g id="line2d_11">
    <path d="M 83.897898 352.993735 
L 105.546534 352.971372 
L 127.19517 352.96604 
L 148.843807 352.965179 
L 170.492443 352.955764 
L 192.14108 352.939953 
L 213.789716 352.944181 
L 235.438352 352.936063 
L 257.086989 352.937717 
L 278.735625 352.935521 
L 300.384261 352.924315 
L 322.032898 352.90654 
L 343.681534 352.940562 
L 365.33017 352.895866 
L 386.978807 352.918577 
L 408.627443 352.987213 
L 430.27608 352.965576 
L 451.924716 352.945217 
L 473.573352 352.918945 
L 495.221989 352.890757 
L 516.870625 352.877084 
L 538.519261 352.85599 
L 560.167898 352.833811 
L 581.816534 352.808178 
L 603.46517 352.795124 
L 625.113807 352.76354 
L 646.762443 352.741816 
L 668.41108 352.704484 
L 690.059716 352.67141 
L 711.708352 352.641394 
L 733.356989 352.58468 
L 755.005625 352.506368 
L 776.654261 352.429169 
L 798.302898 352.289982 
L 819.951534 352.098309 
L 841.60017 351.832796 
L 863.248807 351.392273 
L 884.897443 350.458287 
L 906.54608 346.7966 
L 928.194716 310.652874 
L 949.843352 272.255016 
" clip-path="url(#p7a90dc40c4)" style="fill: none; stroke: #f0ad4e; stroke-linecap: square"/>
   </g>
   <g id="line2d_12">
    <path d="M 83.897898 353.128915 
L 105.546534 353.096383 
L 127.19517 353.048407 
L 148.843807 353.027728 
L 170.492443 353.017461 
L 192.14108 353.005346 
L 213.789716 353.008443 
L 235.438352 353.000973 
L 257.086989 353.000266 
L 278.735625 352.9891 
L 300.384261 352.969756 
L 322.032898 352.967869 
L 343.681534 352.954874 
L 365.33017 352.949726 
L 386.978807 352.954758 
L 408.627443 352.939362 
L 430.27608 352.898711 
L 451.924716 352.867727 
L 473.573352 352.85928 
L 495.221989 352.849613 
L 516.870625 352.830037 
L 538.519261 352.815503 
L 560.167898 352.794341 
L 581.816534 352.796673 
L 603.46517 352.783019 
L 625.113807 352.775752 
L 646.762443 352.77193 
L 668.41108 352.795211 
L 690.059716 352.90294 
L 711.708352 352.777358 
L 733.356989 352.683564 
L 755.005625 352.576213 
L 776.654261 352.448831 
L 798.302898 352.291501 
L 819.951534 352.049269 
L 841.60017 351.678407 
L 863.248807 351.017424 
L 884.897443 349.449395 
L 906.54608 342.851672 
L 928.194716 272.116429 
L 949.843352 191.349717 
" clip-path="url(#p7a90dc40c4)" style="fill: none; stroke: #f0ad4e; stroke-linecap: square"/>
   </g>
   <g id="line2d_13">
    <path d="M 83.897898 352.778336 
L 105.546534 352.7483 
L 127.19517 352.721941 
L 148.843807 352.725986 
L 170.492443 352.70341 
L 192.14108 352.675136 
L 213.789716 352.671497 
L 235.438352 352.665575 
L 257.086989 352.660698 
L 278.735625 352.661501 
L 300.384261 352.632607 
L 322.032898 352.600897 
L 343.681534 352.664259 
L 365.33017 352.587021 
L 386.978807 352.630982 
L 408.627443 352.762698 
L 430.27608 352.728482 
L 451.924716 352.690057 
L 473.573352 352.625186 
L 495.221989 352.585241 
L 516.870625 352.556627 
L 538.519261 352.508497 
L 560.167898 352.474909 
L 581.816534 352.422608 
L 603.46517 352.384608 
L 625.113807 352.338974 
L 646.762443 352.282589 
L 668.41108 352.2308 
L 690.059716 352.154394 
L 711.708352 352.098958 
L 733.356989 351.982472 
L 755.005625 351.842124 
L 776.654261 351.683032 
L 798.302898 351.425425 
L 819.951534 351.05463 
L 841.60017 350.52099 
L 863.248807 349.673996 
L 884.897443 347.900322 
L 906.54608 341.134586 
L 928.194716 276.514421 
L 949.843352 207.385111 
" clip-path="url(#p7a90dc40c4)" style="fill: none; stroke: #f0ad4e; stroke-linecap: square"/>
   </g>
   <g id="line2d_14">
    <path d="M 83.897898 353.140295 
L 105.546534 353.11533 
L 127.19517 353.067005 
L 148.843807 353.056187 
L 170.492443 353.048204 
L 192.14108 353.03933 
L 213.789716 353.041343 
L 235.438352 353.035353 
L 257.086989 353.030302 
L 278.735625 353.028222 
L 300.384261 353.009972 
L 322.032898 353.007398 
L 343.681534 352.991741 
L 365.33017 352.986177 
L 386.978807 352.993773 
L 408.627443 352.979007 
L 430.27608 352.947123 
L 451.924716 352.928776 
L 473.573352 352.918722 
L 495.221989 352.9179 
L 516.870625 352.900076 
L 538.519261 352.88648 
L 560.167898 352.88111 
L 581.816534 352.887864 
L 603.46517 352.87421 
L 625.113807 352.872962 
L 646.762443 352.864234 
L 668.41108 352.886296 
L 690.059716 352.971953 
L 711.708352 352.868956 
L 733.356989 352.789831 
L 755.005625 352.724428 
L 776.654261 352.615567 
L 798.302898 352.499149 
L 819.951534 352.330371 
L 841.60017 352.048688 
L 863.248807 351.575091 
L 884.897443 350.42439 
L 906.54608 345.476018 
L 928.194716 284.558627 
L 949.843352 223.219001 
" clip-path="url(#p7a90dc40c4)" style="fill: none; stroke: #f0ad4e; stroke-linecap: square"/>
   </g>
   <g id="line2d_15">
    <path d="M 83.897898 352.891735 
L 105.546534 352.87034 
L 127.19517 352.846294 
L 148.843807 352.855825 
L 170.492443 352.835582 
L 192.14108 352.820128 
L 213.789716 352.814806 
L 235.438352 352.807752 
L 257.086989 352.80512 
L 278.735625 352.805381 
L 300.384261 352.78896 
L 322.032898 352.763618 
L 343.681534 352.802682 
L 365.33017 352.74591 
L 386.978807 352.78119 
L 408.627443 352.864776 
L 430.27608 352.839733 
L 451.924716 352.814506 
L 473.573352 352.778181 
L 495.221989 352.748406 
L 516.870625 352.723286 
L 538.519261 352.685925 
L 560.167898 352.659015 
L 581.816534 352.628563 
L 603.46517 352.598991 
L 625.113807 352.564852 
L 646.762443 352.51436 
L 668.41108 352.47159 
L 690.059716 352.432768 
L 711.708352 352.384811 
L 733.356989 352.2996 
L 755.005625 352.212231 
L 776.654261 352.082334 
L 798.302898 351.901751 
L 819.951534 351.640446 
L 841.60017 351.242645 
L 863.248807 350.662451 
L 884.897443 349.37416 
L 906.54608 344.341844 
L 928.194716 287.570255 
L 949.843352 234.164658 
" clip-path="url(#p7a90dc40c4)" style="fill: none; stroke: #f0ad4e; stroke-linecap: square"/>
   </g>
   <g id="line2d_16">
    <path d="M 83.897898 353.127599 
L 105.546534 353.083697 
L 127.19517 353.026973 
L 148.843807 353.006179 
L 170.492443 352.99089 
L 192.14108 352.974256 
L 213.789716 352.968218 
L 235.438352 352.956587 
L 257.086989 352.949136 
L 278.735625 352.939198 
L 300.384261 352.919796 
L 322.032898 352.908039 
L 343.681534 352.883161 
L 365.33017 352.880394 
L 386.978807 352.880916 
L 408.627443 352.849806 
L 430.27608 352.799082 
L 451.924716 352.784674 
L 473.573352 352.767837 
L 495.221989 352.745784 
L 516.870625 352.718428 
L 538.519261 352.695853 
L 560.167898 352.673916 
L 581.816534 352.656924 
L 603.46517 352.636913 
L 625.113807 352.617057 
L 646.762443 352.603723 
L 668.41108 352.620357 
L 690.059716 352.783851 
L 711.708352 352.609616 
L 733.356989 352.496082 
L 755.005625 352.357311 
L 776.654261 352.200068 
L 798.302898 351.956394 
L 819.951534 351.652319 
L 841.60017 351.168784 
L 863.248807 350.401418 
L 884.897443 348.63412 
L 906.54608 341.062834 
L 928.194716 252.339711 
L 949.843352 159.473408 
" clip-path="url(#p7a90dc40c4)" style="fill: none; stroke: #f0ad4e; stroke-linecap: square"/>
   </g>
   <g id="line2d_17">
    <path d="M 83.897898 352.669562 
L 105.546534 352.60831 
L 127.19517 352.557837 
L 148.843807 352.555592 
L 170.492443 352.523563 
L 192.14108 352.48985 
L 213.789716 352.487721 
L 235.438352 352.462436 
L 257.086989 352.469994 
L 278.735625 352.465533 
L 300.384261 352.443054 
L 322.032898 352.448676 
L 343.681534 352.482651 
L 365.33017 352.445609 
L 386.978807 352.434036 
L 408.627443 352.589605 
L 430.27608 352.579183 
L 451.924716 352.469645 
L 473.573352 352.411983 
L 495.221989 352.356392 
L 516.870625 352.302697 
L 538.519261 352.251866 
L 560.167898 352.217998 
L 581.816534 352.162349 
L 603.46517 352.120546 
L 625.113807 352.052801 
L 646.762443 351.974363 
L 668.41108 351.895171 
L 690.059716 351.803408 
L 711.708352 351.755335 
L 733.356989 351.593612 
L 755.005625 351.428415 
L 776.654261 351.202013 
L 798.302898 350.881198 
L 819.951534 350.466231 
L 841.60017 349.820373 
L 863.248807 348.785451 
L 884.897443 346.711911 
L 906.54608 339.446509 
L 928.194716 258.043625 
L 949.843352 179.934207 
" clip-path="url(#p7a90dc40c4)" style="fill: none; stroke: #f0ad4e; stroke-linecap: square"/>
   </g>
   <g id="line2d_18">
    <path d="M 83.897898 353.15869 
L 105.546534 353.123022 
L 127.19517 353.078211 
L 148.843807 353.063038 
L 170.492443 353.046181 
L 192.14108 353.035411 
L 213.789716 353.029944 
L 235.438352 353.015526 
L 257.086989 353.006391 
L 278.735625 353.001931 
L 300.384261 352.983236 
L 322.032898 352.973017 
L 343.681534 352.955106 
L 365.33017 352.94513 
L 386.978807 352.944413 
L 408.627443 352.914823 
L 430.27608 352.87481 
L 451.924716 352.856667 
L 473.573352 352.84879 
L 495.221989 352.819964 
L 516.870625 352.795269 
L 538.519261 352.777068 
L 560.167898 352.755393 
L 581.816534 352.736852 
L 603.46517 352.711297 
L 625.113807 352.698001 
L 646.762443 352.680003 
L 668.41108 352.68666 
L 690.059716 352.838475 
L 711.708352 352.681609 
L 733.356989 352.576116 
L 755.005625 352.454231 
L 776.654261 352.308406 
L 798.302898 352.095832 
L 819.951534 351.799383 
L 841.60017 351.386641 
L 863.248807 350.644027 
L 884.897443 349.043988 
L 906.54608 342.276501 
L 928.194716 263.045624 
L 949.843352 182.67828 
" clip-path="url(#p7a90dc40c4)" style="fill: none; stroke: #f0ad4e; stroke-linecap: square"/>
   </g>
   <g id="line2d_19">
    <path d="M 83.897898 352.735353 
L 105.546534 352.683448 
L 127.19517 352.633769 
L 148.843807 352.63551 
L 170.492443 352.602746 
L 192.14108 352.569265 
L 213.789716 352.570658 
L 235.438352 352.548064 
L 257.086989 352.551122 
L 278.735625 352.549254 
L 300.384261 352.523127 
L 322.032898 352.527356 
L 343.681534 352.562801 
L 365.33017 352.530162 
L 386.978807 352.524385 
L 408.627443 352.656605 
L 430.27608 352.653605 
L 451.924716 352.563217 
L 473.573352 352.502904 
L 495.221989 352.44378 
L 516.870625 352.397594 
L 538.519261 352.353972 
L 560.167898 352.310264 
L 581.816534 352.276841 
L 603.46517 352.226504 
L 625.113807 352.163887 
L 646.762443 352.10875 
L 668.41108 352.022262 
L 690.059716 351.941444 
L 711.708352 351.895848 
L 733.356989 351.750245 
L 755.005625 351.580965 
L 776.654261 351.393773 
L 798.302898 351.090066 
L 819.951534 350.715943 
L 841.60017 350.138439 
L 863.248807 349.168292 
L 884.897443 347.319886 
L 906.54608 340.828944 
L 928.194716 268.622204 
L 949.843352 201.470704 
" clip-path="url(#p7a90dc40c4)" style="fill: none; stroke: #f0ad4e; stroke-linecap: square"/>
   </g>
   <g id="line2d_20">
    <path d="M 83.897898 353.099363 
L 105.546534 353.031821 
L 127.19517 352.967444 
L 148.843807 352.935666 
L 170.492443 352.905301 
L 192.14108 352.873775 
L 213.789716 352.876475 
L 235.438352 352.851858 
L 257.086989 352.835766 
L 278.735625 352.816297 
L 300.384261 352.796189 
L 322.032898 352.777329 
L 343.681534 352.74231 
L 365.33017 352.736088 
L 386.978807 352.731066 
L 408.627443 352.678242 
L 430.27608 352.60591 
L 451.924716 352.575932 
L 473.573352 352.546661 
L 495.221989 352.508526 
L 516.870625 352.467875 
L 538.519261 352.421118 
L 560.167898 352.390443 
L 581.816534 352.350363 
L 603.46517 352.313138 
L 625.113807 352.279173 
L 646.762443 352.256559 
L 668.41108 352.267619 
L 690.059716 352.536239 
L 711.708352 352.263604 
L 733.356989 352.073954 
L 755.005625 351.847378 
L 776.654261 351.597231 
L 798.302898 351.214332 
L 819.951534 350.705154 
L 841.60017 349.952263 
L 863.248807 348.666411 
L 884.897443 345.871245 
L 906.54608 334.19326 
L 928.194716 197.543755 
L 949.843352 50.860313 
" clip-path="url(#p7a90dc40c4)" style="fill: none; stroke: #f0ad4e; stroke-linecap: square"/>
   </g>
   <g id="line2d_21">
    <path d="M 83.897898 352.316166 
L 105.546534 352.225381 
L 127.19517 352.146808 
L 148.843807 352.154859 
L 170.492443 352.074534 
L 192.14108 352.015856 
L 213.789716 352.041508 
L 235.438352 351.992748 
L 257.086989 351.990029 
L 278.735625 351.987523 
L 300.384261 351.953307 
L 322.032898 351.976405 
L 343.681534 352.022678 
L 365.33017 351.960477 
L 386.978807 351.969786 
L 408.627443 352.208041 
L 430.27608 352.189452 
L 451.924716 352.029122 
L 473.573352 351.925458 
L 495.221989 351.820729 
L 516.870625 351.754145 
L 538.519261 351.671072 
L 560.167898 351.597386 
L 581.816534 351.526109 
L 603.46517 351.4429 
L 625.113807 351.327295 
L 646.762443 351.229969 
L 668.41108 351.064336 
L 690.059716 350.942257 
L 711.708352 350.881382 
L 733.356989 350.616198 
L 755.005625 350.337543 
L 776.654261 350.004894 
L 798.302898 349.48515 
L 819.951534 348.805656 
L 841.60017 347.807679 
L 863.248807 346.131747 
L 884.897443 342.891607 
L 906.54608 331.744717 
L 928.194716 207.271915 
L 949.843352 84.428617 
" clip-path="url(#p7a90dc40c4)" style="fill: none; stroke: #f0ad4e; stroke-linecap: square"/>
   </g>
   <g id="line2d_22">
    <path d="M 83.897898 353.129361 
L 105.546534 353.08751 
L 127.19517 353.038295 
L 148.843807 353.017771 
L 170.492443 353.000295 
L 192.14108 352.985142 
L 213.789716 352.986429 
L 235.438352 352.969621 
L 257.086989 352.962905 
L 278.735625 352.953151 
L 300.384261 352.944123 
L 322.032898 352.927005 
L 343.681534 352.913652 
L 365.33017 352.907256 
L 386.978807 352.903037 
L 408.627443 352.873436 
L 430.27608 352.829834 
L 451.924716 352.818125 
L 473.573352 352.796537 
L 495.221989 352.776913 
L 516.870625 352.755751 
L 538.519261 352.73304 
L 560.167898 352.715941 
L 581.816534 352.692602 
L 603.46517 352.673597 
L 625.113807 352.656005 
L 646.762443 352.631891 
L 668.41108 352.650702 
L 690.059716 352.80841 
L 711.708352 352.65316 
L 733.356989 352.541126 
L 755.005625 352.404929 
L 776.654261 352.255766 
L 798.302898 352.039031 
L 819.951534 351.724361 
L 841.60017 351.279019 
L 863.248807 350.563799 
L 884.897443 348.851048 
L 906.54608 341.420749 
L 928.194716 255.561127 
L 949.843352 166.88597 
" clip-path="url(#p7a90dc40c4)" style="fill: none; stroke: #f0ad4e; stroke-linecap: square"/>
   </g>
   <g id="line2d_23">
    <path d="M 83.897898 352.720712 
L 105.546534 352.670743 
L 127.19517 352.627663 
L 148.843807 352.629279 
L 170.492443 352.587573 
L 192.14108 352.564069 
L 213.789716 352.571394 
L 235.438352 352.549873 
L 257.086989 352.543148 
L 278.735625 352.546245 
L 300.384261 352.530307 
L 322.032898 352.531604 
L 343.681534 352.569691 
L 365.33017 352.528111 
L 386.978807 352.525924 
L 408.627443 352.65856 
L 430.27608 352.646135 
L 451.924716 352.556792 
L 473.573352 352.497465 
L 495.221989 352.439484 
L 516.870625 352.404464 
L 538.519261 352.361065 
L 560.167898 352.33311 
L 581.816534 352.285801 
L 603.46517 352.236693 
L 625.113807 352.17667 
L 646.762443 352.108344 
L 668.41108 352.040125 
L 690.059716 351.967299 
L 711.708352 351.917117 
L 733.356989 351.768437 
L 755.005625 351.606791 
L 776.654261 351.409758 
L 798.302898 351.128588 
L 819.951534 350.725 
L 841.60017 350.139262 
L 863.248807 349.202605 
L 884.897443 347.233717 
L 906.54608 340.090191 
L 928.194716 260.552569 
L 949.843352 184.136046 
" clip-path="url(#p7a90dc40c4)" style="fill: none; stroke: #f0ad4e; stroke-linecap: square"/>
   </g>
   <g id="line2d_24">
    <path d="M 83.897898 353.142356 
L 105.546534 353.116655 
L 127.19517 353.076682 
L 148.843807 353.044652 
L 170.492443 352.964405 
L 192.14108 352.995699 
L 213.789716 353.023567 
L 235.438352 353.029383 
L 257.086989 353.035286 
L 278.735625 353.037753 
L 300.384261 353.03247 
L 322.032898 353.032905 
L 343.681534 353.029722 
L 365.33017 353.033737 
L 386.978807 353.030709 
L 408.627443 353.025125 
L 430.27608 353.004582 
L 451.924716 353.003876 
L 473.573352 352.994257 
L 495.221989 352.994973 
L 516.870625 352.98281 
L 538.519261 352.973849 
L 560.167898 352.97084 
L 581.816534 352.976385 
L 603.46517 352.966273 
L 625.113807 352.963312 
L 646.762443 352.957632 
L 668.41108 352.97382 
L 690.059716 353.031589 
L 711.708352 352.961744 
L 733.356989 352.90863 
L 755.005625 352.855167 
L 776.654261 352.791883 
L 798.302898 352.714258 
L 819.951534 352.593427 
L 841.60017 352.399162 
L 863.248807 352.11386 
L 884.897443 351.365362 
L 906.54608 347.614661 
L 928.194716 299.988164 
L 949.843352 246.599782 
" clip-path="url(#p7a90dc40c4)" style="fill: none; stroke: #f0ad4e; stroke-linecap: square"/>
   </g>
   <g id="line2d_25">
    <path d="M 83.897898 352.892325 
L 105.546534 352.887012 
L 127.19517 352.868327 
L 148.843807 352.869063 
L 170.492443 352.859473 
L 192.14108 352.858099 
L 213.789716 352.857035 
L 235.438352 352.858534 
L 257.086989 352.850038 
L 278.735625 352.867069 
L 300.384261 352.865802 
L 322.032898 352.890177 
L 343.681534 352.90083 
L 365.33017 352.882377 
L 386.978807 352.878962 
L 408.627443 352.951874 
L 430.27608 352.946117 
L 451.924716 352.900037 
L 473.573352 352.876242 
L 495.221989 352.843768 
L 516.870625 352.819848 
L 538.519261 352.806243 
L 560.167898 352.79017 
L 581.816534 352.772965 
L 603.46517 352.747448 
L 625.113807 352.722338 
L 646.762443 352.700643 
L 668.41108 352.672504 
L 690.059716 352.641974 
L 711.708352 352.626153 
L 733.356989 352.563672 
L 755.005625 352.506726 
L 776.654261 352.413976 
L 798.302898 352.309828 
L 819.951534 352.133967 
L 841.60017 351.889481 
L 863.248807 351.475607 
L 884.897443 350.610285 
L 906.54608 346.810321 
L 928.194716 301.90748 
L 949.843352 254.826612 
" clip-path="url(#p7a90dc40c4)" style="fill: none; stroke: #f0ad4e; stroke-linecap: square"/>
   </g>
   <g id="line2d_26">
    <path d="M 83.897898 353.121619 
L 105.546534 353.099886 
L 127.19517 353.066599 
L 148.843807 353.038092 
L 170.492443 352.966186 
L 192.14108 352.991635 
L 213.789716 353.020848 
L 235.438352 353.031192 
L 257.086989 353.04322 
L 278.735625 353.050362 
L 300.384261 353.043869 
L 322.032898 353.050874 
L 343.681534 353.048417 
L 365.33017 353.048765 
L 386.978807 353.054677 
L 408.627443 353.048136 
L 430.27608 353.034057 
L 451.924716 353.030863 
L 473.573352 353.022987 
L 495.221989 353.024448 
L 516.870625 353.016532 
L 538.519261 353.012033 
L 560.167898 353.005211 
L 581.816534 353.013039 
L 603.46517 353.005143 
L 625.113807 353.004505 
L 646.762443 353.00045 
L 668.41108 353.012391 
L 690.059716 353.062447 
L 711.708352 352.991103 
L 733.356989 352.953461 
L 755.005625 352.911484 
L 776.654261 352.850561 
L 798.302898 352.793837 
L 819.951534 352.685625 
L 841.60017 352.521773 
L 863.248807 352.255272 
L 884.897443 351.542249 
L 906.54608 348.137096 
L 928.194716 307.605423 
L 949.843352 256.259296 
" clip-path="url(#p7a90dc40c4)" style="fill: none; stroke: #f0ad4e; stroke-linecap: square"/>
   </g>
   <g id="line2d_27">
    <path d="M 83.897898 352.907827 
L 105.546534 352.902746 
L 127.19517 352.90085 
L 148.843807 352.897028 
L 170.492443 352.900705 
L 192.14108 352.898692 
L 213.789716 352.895847 
L 235.438352 352.897763 
L 257.086989 352.901585 
L 278.735625 352.915558 
L 300.384261 352.914736 
L 322.032898 352.93406 
L 343.681534 352.95019 
L 365.33017 352.933885 
L 386.978807 352.932473 
L 408.627443 352.990899 
L 430.27608 352.991103 
L 451.924716 352.953267 
L 473.573352 352.92957 
L 495.221989 352.908765 
L 516.870625 352.883897 
L 538.519261 352.875149 
L 560.167898 352.860925 
L 581.816534 352.829147 
L 603.46517 352.824667 
L 625.113807 352.804162 
L 646.762443 352.78419 
L 668.41108 352.758489 
L 690.059716 352.722483 
L 711.708352 352.686786 
L 733.356989 352.648341 
L 755.005625 352.600017 
L 776.654261 352.504626 
L 798.302898 352.40847 
L 819.951534 352.257681 
L 841.60017 352.016436 
L 863.248807 351.606259 
L 884.897443 350.74534 
L 906.54608 347.223818 
L 928.194716 309.026825 
L 949.843352 263.950406 
" clip-path="url(#p7a90dc40c4)" style="fill: none; stroke: #f0ad4e; stroke-linecap: square"/>
   </g>
   <g id="line2d_28">
    <path d="M 83.897898 353.126196 
L 105.546534 353.096944 
L 127.19517 353.049849 
L 148.843807 353.004621 
L 170.492443 352.922525 
L 192.14108 352.948913 
L 213.789716 352.976772 
L 235.438352 352.986255 
L 257.086989 353.000866 
L 278.735625 353.008569 
L 300.384261 352.998389 
L 322.032898 353.002144 
L 343.681534 353.005346 
L 365.33017 352.998321 
L 386.978807 353.004137 
L 408.627443 353.000344 
L 430.27608 352.976472 
L 451.924716 352.977265 
L 473.573352 352.960738 
L 495.221989 352.956325 
L 516.870625 352.943049 
L 538.519261 352.937079 
L 560.167898 352.93106 
L 581.816534 352.936043 
L 603.46517 352.93045 
L 625.113807 352.925912 
L 646.762443 352.921712 
L 668.41108 352.93765 
L 690.059716 352.998147 
L 711.708352 352.882503 
L 733.356989 352.836733 
L 755.005625 352.788854 
L 776.654261 352.699298 
L 798.302898 352.609926 
L 819.951534 352.457085 
L 841.60017 352.241551 
L 863.248807 351.893767 
L 884.897443 350.945557 
L 906.54608 346.398141 
L 928.194716 292.190584 
L 949.843352 227.645586 
" clip-path="url(#p7a90dc40c4)" style="fill: none; stroke: #f0ad4e; stroke-linecap: square"/>
   </g>
   <g id="line2d_29">
    <path d="M 83.897898 352.83055 
L 105.546534 352.802072 
L 127.19517 352.805469 
L 148.843807 352.795376 
L 170.492443 352.790276 
L 192.14108 352.789764 
L 213.789716 352.785603 
L 235.438352 352.788564 
L 257.086989 352.794708 
L 278.735625 352.809978 
L 300.384261 352.804298 
L 322.032898 352.824193 
L 343.681534 352.844562 
L 365.33017 352.824551 
L 386.978807 352.822625 
L 408.627443 352.907875 
L 430.27608 352.904508 
L 451.924716 352.855041 
L 473.573352 352.824241 
L 495.221989 352.779661 
L 516.870625 352.748164 
L 538.519261 352.741275 
L 560.167898 352.718593 
L 581.816534 352.682809 
L 603.46517 352.665062 
L 625.113807 352.63162 
L 646.762443 352.605078 
L 668.41108 352.572458 
L 690.059716 352.513141 
L 711.708352 352.457288 
L 733.356989 352.409119 
L 755.005625 352.348263 
L 776.654261 352.211428 
L 798.302898 352.083717 
L 819.951534 351.87185 
L 841.60017 351.576136 
L 863.248807 351.049066 
L 884.897443 349.904684 
L 906.54608 345.30097 
L 928.194716 294.462637 
L 949.843352 238.114405 
" clip-path="url(#p7a90dc40c4)" style="fill: none; stroke: #f0ad4e; stroke-linecap: square"/>
   </g>
   <g id="line2d_30">
    <path d="M 83.897898 353.193438 
L 105.546534 353.179407 
L 127.19517 353.151636 
L 148.843807 353.126225 
L 170.492443 353.060454 
L 192.14108 353.075201 
L 213.789716 353.09559 
L 235.438352 353.100989 
L 257.086989 353.107211 
L 278.735625 353.106582 
L 300.384261 353.10096 
L 322.032898 353.100728 
L 343.681534 353.104308 
L 365.33017 353.102682 
L 386.978807 353.097486 
L 408.627443 353.09109 
L 430.27608 353.077446 
L 451.924716 353.06895 
L 473.573352 353.057841 
L 495.221989 353.050429 
L 516.870625 353.041285 
L 538.519261 353.030573 
L 560.167898 353.017578 
L 581.816534 353.015381 
L 603.46517 353.002463 
L 625.113807 352.994683 
L 646.762443 352.987058 
L 668.41108 352.992012 
L 690.059716 353.055916 
L 711.708352 352.969476 
L 733.356989 352.936063 
L 755.005625 352.882813 
L 776.654261 352.808159 
L 798.302898 352.738855 
L 819.951534 352.595817 
L 841.60017 352.3995 
L 863.248807 352.071167 
L 884.897443 351.201442 
L 906.54608 347.378022 
L 928.194716 303.289092 
L 949.843352 245.436076 
" clip-path="url(#p7a90dc40c4)" style="fill: none; stroke: #f0ad4e; stroke-linecap: square"/>
   </g>
   <g id="line2d_31">
    <path d="M 83.897898 352.932869 
L 105.546534 352.931911 
L 127.19517 352.911262 
L 148.843807 352.911349 
L 170.492443 352.910159 
L 192.14108 352.900656 
L 213.789716 352.893941 
L 235.438352 352.894783 
L 257.086989 352.893863 
L 278.735625 352.900482 
L 300.384261 352.896253 
L 322.032898 352.910817 
L 343.681534 352.926909 
L 365.33017 352.906811 
L 386.978807 352.905775 
L 408.627443 352.964444 
L 430.27608 352.971227 
L 451.924716 352.9212 
L 473.573352 352.895112 
L 495.221989 352.859918 
L 516.870625 352.836443 
L 538.519261 352.824986 
L 560.167898 352.797689 
L 581.816534 352.769307 
L 603.46517 352.755567 
L 625.113807 352.724592 
L 646.762443 352.69386 
L 668.41108 352.672078 
L 690.059716 352.618499 
L 711.708352 352.585038 
L 733.356989 352.536742 
L 755.005625 352.464294 
L 776.654261 352.362178 
L 798.302898 352.240302 
L 819.951534 352.044256 
L 841.60017 351.765921 
L 863.248807 351.246206 
L 884.897443 350.231682 
L 906.54608 346.312436 
L 928.194716 305.527122 
L 949.843352 255.643145 
" clip-path="url(#p7a90dc40c4)" style="fill: none; stroke: #f0ad4e; stroke-linecap: square"/>
   </g>
   <g id="line2d_32">
    <path d="M 83.897898 353.144649 
L 105.546534 353.1192 
L 127.19517 353.08661 
L 148.843807 353.059932 
L 170.492443 353.057029 
L 192.14108 353.053748 
L 213.789716 353.053342 
L 235.438352 353.044536 
L 257.086989 353.053826 
L 278.735625 353.053593 
L 300.384261 353.043211 
L 322.032898 353.040298 
L 343.681534 353.037424 
L 365.33017 353.033157 
L 386.978807 353.031212 
L 408.627443 353.024593 
L 430.27608 353.006072 
L 451.924716 352.997567 
L 473.573352 352.988645 
L 495.221989 352.977691 
L 516.870625 352.961434 
L 538.519261 352.952532 
L 560.167898 352.9478 
L 581.816534 352.947045 
L 603.46517 352.935753 
L 625.113807 352.930247 
L 646.762443 352.923309 
L 668.41108 352.936082 
L 690.059716 353.002956 
L 711.708352 352.909626 
L 733.356989 352.852429 
L 755.005625 352.786338 
L 776.654261 352.714026 
L 798.302898 352.601391 
L 819.951534 352.461217 
L 841.60017 352.224269 
L 863.248807 351.821184 
L 884.897443 350.931913 
L 906.54608 346.878666 
L 928.194716 298.169078 
L 949.843352 245.3184 
" clip-path="url(#p7a90dc40c4)" style="fill: none; stroke: #f0ad4e; stroke-linecap: square"/>
   </g>
   <g id="line2d_33">
    <path d="M 83.897898 352.889325 
L 105.546534 352.849961 
L 127.19517 352.849671 
L 148.843807 352.828702 
L 170.492443 352.82518 
L 192.14108 352.812339 
L 213.789716 352.817177 
L 235.438352 352.8162 
L 257.086989 352.810733 
L 278.735625 352.824899 
L 300.384261 352.818154 
L 322.032898 352.82934 
L 343.681534 352.853396 
L 365.33017 352.838804 
L 386.978807 352.835901 
L 408.627443 352.911513 
L 430.27608 352.90714 
L 451.924716 352.863702 
L 473.573352 352.834043 
L 495.221989 352.798995 
L 516.870625 352.778423 
L 538.519261 352.752151 
L 560.167898 352.729024 
L 581.816534 352.705404 
L 603.46517 352.689041 
L 625.113807 352.657215 
L 646.762443 352.624469 
L 668.41108 352.584641 
L 690.059716 352.538852 
L 711.708352 352.503707 
L 733.356989 352.452934 
L 755.005625 352.372706 
L 776.654261 352.256211 
L 798.302898 352.101319 
L 819.951534 351.927026 
L 841.60017 351.629744 
L 863.248807 351.132362 
L 884.897443 350.101882 
L 906.54608 346.107633 
L 928.194716 300.816135 
L 949.843352 254.835979 
" clip-path="url(#p7a90dc40c4)" style="fill: none; stroke: #f0ad4e; stroke-linecap: square"/>
   </g>
   <g id="line2d_34">
    <path d="M 83.897898 353.111807 
L 105.546534 353.081007 
L 127.19517 353.036931 
L 148.843807 353.017152 
L 170.492443 353.006546 
L 192.14108 353.000866 
L 213.789716 353.000082 
L 235.438352 352.98998 
L 257.086989 353.009227 
L 278.735625 353.00165 
L 300.384261 352.991548 
L 322.032898 352.986961 
L 343.681534 352.98997 
L 365.33017 352.977594 
L 386.978807 352.98012 
L 408.627443 352.968634 
L 430.27608 352.947384 
L 451.924716 352.932666 
L 473.573352 352.924799 
L 495.221989 352.91161 
L 516.870625 352.890651 
L 538.519261 352.88438 
L 560.167898 352.86853 
L 581.816534 352.865153 
L 603.46517 352.85776 
L 625.113807 352.848761 
L 646.762443 352.843207 
L 668.41108 352.855157 
L 690.059716 352.945865 
L 711.708352 352.836878 
L 733.356989 352.747216 
L 755.005625 352.677206 
L 776.654261 352.571549 
L 798.302898 352.451434 
L 819.951534 352.247889 
L 841.60017 351.953239 
L 863.248807 351.417848 
L 884.897443 350.208855 
L 906.54608 344.783354 
L 928.194716 282.040587 
L 949.843352 209.168549 
" clip-path="url(#p7a90dc40c4)" style="fill: none; stroke: #f0ad4e; stroke-linecap: square"/>
   </g>
   <g id="line2d_35">
    <path d="M 83.897898 352.770217 
L 105.546534 352.729905 
L 127.19517 352.716193 
L 148.843807 352.70642 
L 170.492443 352.685877 
L 192.14108 352.684899 
L 213.789716 352.677139 
L 235.438352 352.685828 
L 257.086989 352.682761 
L 278.735625 352.696027 
L 300.384261 352.694044 
L 322.032898 352.707697 
L 343.681534 352.733437 
L 365.33017 352.703256 
L 386.978807 352.718312 
L 408.627443 352.812445 
L 430.27608 352.808188 
L 451.924716 352.735904 
L 473.573352 352.701533 
L 495.221989 352.668449 
L 516.870625 352.634001 
L 538.519261 352.606084 
L 560.167898 352.569865 
L 581.816534 352.539481 
L 603.46517 352.516325 
L 625.113807 352.475877 
L 646.762443 352.428714 
L 668.41108 352.382179 
L 690.059716 352.349647 
L 711.708352 352.297471 
L 733.356989 352.222604 
L 755.005625 352.132913 
L 776.654261 351.970812 
L 798.302898 351.802692 
L 819.951534 351.550977 
L 841.60017 351.167159 
L 863.248807 350.51473 
L 884.897443 349.149181 
L 906.54608 343.842421 
L 928.194716 285.673863 
L 949.843352 221.685081 
" clip-path="url(#p7a90dc40c4)" style="fill: none; stroke: #f0ad4e; stroke-linecap: square"/>
   </g>
   <g id="line2d_36">
    <path d="M 83.897898 353.143846 
L 105.546534 353.115455 
L 127.19517 353.064209 
L 148.843807 353.040162 
L 170.492443 353.032605 
L 192.14108 353.022 
L 213.789716 353.0163 
L 235.438352 353.00764 
L 257.086989 353.018729 
L 278.735625 353.012942 
L 300.384261 352.99626 
L 322.032898 352.994306 
L 343.681534 352.99089 
L 365.33017 352.98309 
L 386.978807 352.982026 
L 408.627443 352.966631 
L 430.27608 352.948274 
L 451.924716 352.928438 
L 473.573352 352.919071 
L 495.221989 352.902592 
L 516.870625 352.887429 
L 538.519261 352.868627 
L 560.167898 352.85718 
L 581.816534 352.852738 
L 603.46517 352.840952 
L 625.113807 352.828682 
L 646.762443 352.821028 
L 668.41108 352.825992 
L 690.059716 352.932908 
L 711.708352 352.81499 
L 733.356989 352.73305 
L 755.005625 352.64179 
L 776.654261 352.539626 
L 798.302898 352.387376 
L 819.951534 352.188959 
L 841.60017 351.856106 
L 863.248807 351.266101 
L 884.897443 350.016854 
L 906.54608 344.117253 
L 928.194716 276.353326 
L 949.843352 195.218694 
" clip-path="url(#p7a90dc40c4)" style="fill: none; stroke: #f0ad4e; stroke-linecap: square"/>
   </g>
   <g id="line2d_37">
    <path d="M 83.897898 352.765253 
L 105.546534 352.731375 
L 127.19517 352.712535 
L 148.843807 352.697082 
L 170.492443 352.672823 
L 192.14108 352.66275 
L 213.789716 352.644519 
L 235.438352 352.654089 
L 257.086989 352.643716 
L 278.735625 352.661134 
L 300.384261 352.652909 
L 322.032898 352.669475 
L 343.681534 352.698224 
L 365.33017 352.678232 
L 386.978807 352.671894 
L 408.627443 352.786328 
L 430.27608 352.786028 
L 451.924716 352.707978 
L 473.573352 352.666543 
L 495.221989 352.624305 
L 516.870625 352.594143 
L 538.519261 352.556598 
L 560.167898 352.515812 
L 581.816534 352.470507 
L 603.46517 352.463181 
L 625.113807 352.412999 
L 646.762443 352.366339 
L 668.41108 352.306054 
L 690.059716 352.258388 
L 711.708352 352.206425 
L 733.356989 352.122452 
L 755.005625 351.987233 
L 776.654261 351.839434 
L 798.302898 351.61013 
L 819.951534 351.333865 
L 841.60017 350.909618 
L 863.248807 350.14141 
L 884.897443 348.641203 
L 906.54608 342.762039 
L 928.194716 280.22959 
L 949.843352 210.420515 
" clip-path="url(#p7a90dc40c4)" style="fill: none; stroke: #f0ad4e; stroke-linecap: square"/>
   </g>
   <g id="line2d_38">
    <path d="M 83.897898 353.127609 
L 105.546534 353.082449 
L 127.19517 352.999202 
L 148.843807 352.958677 
L 170.492443 352.94213 
L 192.14108 352.930334 
L 213.789716 352.90713 
L 235.438352 352.892276 
L 257.086989 352.906259 
L 278.735625 352.891802 
L 300.384261 352.870814 
L 322.032898 352.861263 
L 343.681534 352.856212 
L 365.33017 352.853735 
L 386.978807 352.83744 
L 408.627443 352.81351 
L 430.27608 352.7788 
L 451.924716 352.747022 
L 473.573352 352.729624 
L 495.221989 352.709158 
L 516.870625 352.668952 
L 538.519261 352.640978 
L 560.167898 352.613574 
L 581.816534 352.589973 
L 603.46517 352.56222 
L 625.113807 352.532668 
L 646.762443 352.509455 
L 668.41108 352.518386 
L 690.059716 352.703914 
L 711.708352 352.513819 
L 733.356989 352.358869 
L 755.005625 352.219498 
L 776.654261 352.046753 
L 798.302898 351.789 
L 819.951534 351.438198 
L 841.60017 350.855643 
L 863.248807 349.875461 
L 884.897443 347.68621 
L 906.54608 336.993205 
L 928.194716 202.052736 
L 949.843352 50.395783 
" clip-path="url(#p7a90dc40c4)" style="fill: none; stroke: #f0ad4e; stroke-linecap: square"/>
   </g>
   <g id="line2d_39">
    <path d="M 83.897898 352.461469 
L 105.546534 352.41357 
L 127.19517 352.358143 
L 148.843807 352.338616 
L 170.492443 352.30797 
L 192.14108 352.29482 
L 213.789716 352.268306 
L 235.438352 352.282415 
L 257.086989 352.257178 
L 278.735625 352.276018 
L 300.384261 352.283682 
L 322.032898 352.303093 
L 343.681534 352.334416 
L 365.33017 352.30917 
L 386.978807 352.283392 
L 408.627443 352.46891 
L 430.27608 352.465872 
L 451.924716 352.332974 
L 473.573352 352.267619 
L 495.221989 352.199951 
L 516.870625 352.141999 
L 538.519261 352.071486 
L 560.167898 352.021884 
L 581.816534 351.936838 
L 603.46517 351.90086 
L 625.113807 351.821532 
L 646.762443 351.723093 
L 668.41108 351.632782 
L 690.059716 351.554654 
L 711.708352 351.469762 
L 733.356989 351.309577 
L 755.005625 351.124543 
L 776.654261 350.850127 
L 798.302898 350.466347 
L 819.951534 349.990331 
L 841.60017 349.255555 
L 863.248807 348.01195 
L 884.897443 345.407528 
L 906.54608 334.926159 
L 928.194716 208.901835 
L 949.843352 76.23431 
" clip-path="url(#p7a90dc40c4)" style="fill: none; stroke: #f0ad4e; stroke-linecap: square"/>
   </g>
   <g id="line2d_40">
    <path d="M 83.897898 353.146546 
L 105.546534 353.119713 
L 127.19517 353.079536 
L 148.843807 353.078056 
L 170.492443 353.067702 
L 192.14108 353.058112 
L 213.789716 353.058345 
L 235.438352 353.055171 
L 257.086989 353.053361 
L 278.735625 353.053768 
L 300.384261 353.040511 
L 322.032898 353.041653 
L 343.681534 353.036456 
L 365.33017 353.03156 
L 386.978807 353.038537 
L 408.627443 353.031725 
L 430.27608 353.015178 
L 451.924716 353.005617 
L 473.573352 353.002521 
L 495.221989 353.001679 
L 516.870625 352.992602 
L 538.519261 352.981204 
L 560.167898 352.983681 
L 581.816534 352.990783 
L 603.46517 352.982936 
L 625.113807 352.979626 
L 646.762443 352.979771 
L 668.41108 352.988683 
L 690.059716 353.046181 
L 711.708352 352.980826 
L 733.356989 352.930905 
L 755.005625 352.894725 
L 776.654261 352.834546 
L 798.302898 352.766433 
L 819.951534 352.647925 
L 841.60017 352.492579 
L 863.248807 352.216189 
L 884.897443 351.527105 
L 906.54608 347.883707 
L 928.194716 299.955951 
L 949.843352 248.530893 
" clip-path="url(#p7a90dc40c4)" style="fill: none; stroke: #f0ad4e; stroke-linecap: square"/>
   </g>
   <g id="line2d_41">
    <path d="M 83.897898 352.953345 
L 105.546534 352.944384 
L 127.19517 352.926231 
L 148.843807 352.930431 
L 170.492443 352.929115 
L 192.14108 352.915723 
L 213.789716 352.9125 
L 235.438352 352.910817 
L 257.086989 352.911078 
L 278.735625 352.918945 
L 300.384261 352.914232 
L 322.032898 352.916961 
L 343.681534 352.927702 
L 365.33017 352.899466 
L 386.978807 352.90325 
L 408.627443 352.927441 
L 430.27608 352.888957 
L 451.924716 352.929957 
L 473.573352 352.911997 
L 495.221989 352.895034 
L 516.870625 352.87002 
L 538.519261 352.854296 
L 560.167898 352.837711 
L 581.816534 352.819141 
L 603.46517 352.81259 
L 625.113807 352.785583 
L 646.762443 352.750622 
L 668.41108 352.736939 
L 690.059716 352.717393 
L 711.708352 352.694479 
L 733.356989 352.637668 
L 755.005625 352.591744 
L 776.654261 352.511961 
L 798.302898 352.404174 
L 819.951534 352.262791 
L 841.60017 352.040889 
L 863.248807 351.686187 
L 884.897443 350.840325 
L 906.54608 347.222763 
L 928.194716 301.56587 
L 949.843352 255.592285 
" clip-path="url(#p7a90dc40c4)" style="fill: none; stroke: #f0ad4e; stroke-linecap: square"/>
   </g>
   <g id="line2d_42">
    <path d="M 83.897898 353.105711 
L 105.546534 353.067024 
L 127.19517 353.006575 
L 148.843807 352.997276 
L 170.492443 352.983497 
L 192.14108 352.970472 
L 213.789716 352.973559 
L 235.438352 352.964918 
L 257.086989 352.966815 
L 278.735625 352.965828 
L 300.384261 352.948681 
L 322.032898 352.945294 
L 343.681534 352.941017 
L 365.33017 352.929599 
L 386.978807 352.94393 
L 408.627443 352.931002 
L 430.27608 352.901266 
L 451.924716 352.890651 
L 473.573352 352.886538 
L 495.221989 352.886335 
L 516.870625 352.867514 
L 538.519261 352.863469 
L 560.167898 352.858157 
L 581.816534 352.861525 
L 603.46517 352.85806 
L 625.113807 352.852535 
L 646.762443 352.850155 
L 668.41108 352.872604 
L 690.059716 352.954419 
L 711.708352 352.854441 
L 733.356989 352.773391 
L 755.005625 352.706081 
L 776.654261 352.615141 
L 798.302898 352.488863 
L 819.951534 352.310089 
L 841.60017 352.033351 
L 863.248807 351.594676 
L 884.897443 350.483649 
L 906.54608 344.686705 
L 928.194716 268.718369 
L 949.843352 187.669838 
" clip-path="url(#p7a90dc40c4)" style="fill: none; stroke: #f0ad4e; stroke-linecap: square"/>
   </g>
   <g id="line2d_43">
    <path d="M 83.897898 352.795676 
L 105.546534 352.784683 
L 127.19517 352.75098 
L 148.843807 352.767043 
L 170.492443 352.757028 
L 192.14108 352.739136 
L 213.789716 352.730621 
L 235.438352 352.737878 
L 257.086989 352.730147 
L 278.735625 352.749867 
L 300.384261 352.742736 
L 322.032898 352.742184 
L 343.681534 352.761431 
L 365.33017 352.720035 
L 386.978807 352.729595 
L 408.627443 352.769211 
L 430.27608 352.710484 
L 451.924716 352.768533 
L 473.573352 352.737897 
L 495.221989 352.712719 
L 516.870625 352.677681 
L 538.519261 352.641965 
L 560.167898 352.625969 
L 581.816534 352.586257 
L 603.46517 352.581041 
L 625.113807 352.532881 
L 646.762443 352.474996 
L 668.41108 352.455266 
L 690.059716 352.421069 
L 711.708352 352.390811 
L 733.356989 352.30408 
L 755.005625 352.220804 
L 776.654261 352.087356 
L 798.302898 351.912995 
L 819.951534 351.683594 
L 841.60017 351.316215 
L 863.248807 350.736641 
L 884.897443 349.421517 
L 906.54608 343.670063 
L 928.194716 271.479309 
L 949.843352 198.820628 
" clip-path="url(#p7a90dc40c4)" style="fill: none; stroke: #f0ad4e; stroke-linecap: square"/>
   </g>
   <g id="line2d_44">
    <path d="M 83.897898 353.149855 
L 105.546534 353.128983 
L 127.19517 353.103157 
L 148.843807 353.088235 
L 170.492443 353.072598 
L 192.14108 353.077494 
L 213.789716 353.088932 
L 235.438352 353.082236 
L 257.086989 353.084839 
L 278.735625 353.081742 
L 300.384261 353.069715 
L 322.032898 353.070934 
L 343.681534 353.068776 
L 365.33017 353.064586 
L 386.978807 353.065912 
L 408.627443 353.063202 
L 430.27608 353.04204 
L 451.924716 353.036824 
L 473.573352 353.030341 
L 495.221989 353.032537 
L 516.870625 353.016242 
L 538.519261 353.016823 
L 560.167898 353.012488 
L 581.816534 353.016291 
L 603.46517 353.01273 
L 625.113807 353.006982 
L 646.762443 353.01181 
L 668.41108 353.015536 
L 690.059716 353.063347 
L 711.708352 352.992593 
L 733.356989 352.961028 
L 755.005625 352.920338 
L 776.654261 352.857209 
L 798.302898 352.792279 
L 819.951534 352.680574 
L 841.60017 352.533907 
L 863.248807 352.252524 
L 884.897443 351.585048 
L 906.54608 348.708852 
L 928.194716 309.752282 
L 949.843352 265.181984 
" clip-path="url(#p7a90dc40c4)" style="fill: none; stroke: #f0ad4e; stroke-linecap: square"/>
   </g>
   <g id="line2d_45">
    <path d="M 83.897898 352.964928 
L 105.546534 352.95318 
L 127.19517 352.940611 
L 148.843807 352.932279 
L 170.492443 352.922864 
L 192.14108 352.924083 
L 213.789716 352.929841 
L 235.438352 352.925999 
L 257.086989 352.922854 
L 278.735625 352.928747 
L 300.384261 352.925244 
L 322.032898 352.925651 
L 343.681534 352.939682 
L 365.33017 352.915152 
L 386.978807 352.924025 
L 408.627443 352.952997 
L 430.27608 352.920871 
L 451.924716 352.949958 
L 473.573352 352.935772 
L 495.221989 352.910633 
L 516.870625 352.886064 
L 538.519261 352.870349 
L 560.167898 352.851316 
L 581.816534 352.843517 
L 603.46517 352.822925 
L 625.113807 352.795831 
L 646.762443 352.769617 
L 668.41108 352.740036 
L 690.059716 352.714316 
L 711.708352 352.69146 
L 733.356989 352.652009 
L 755.005625 352.602697 
L 776.654261 352.510761 
L 798.302898 352.415602 
L 819.951534 352.254624 
L 841.60017 352.056168 
L 863.248807 351.669708 
L 884.897443 350.890217 
L 906.54608 347.968551 
L 928.194716 311.491934 
L 949.843352 272.750734 
" clip-path="url(#p7a90dc40c4)" style="fill: none; stroke: #f0ad4e; stroke-linecap: square"/>
   </g>
   <g id="line2d_46">
    <path d="M 83.897898 353.176495 
L 105.546534 353.158506 
L 127.19517 353.133947 
L 148.843807 353.118823 
L 170.492443 353.10663 
L 192.14108 353.107946 
L 213.789716 353.112475 
L 235.438352 353.105034 
L 257.086989 353.105653 
L 278.735625 353.102411 
L 300.384261 353.094041 
L 322.032898 353.093751 
L 343.681534 353.09317 
L 365.33017 353.090316 
L 386.978807 353.088932 
L 408.627443 353.08452 
L 430.27608 353.066086 
L 451.924716 353.060386 
L 473.573352 353.055355 
L 495.221989 353.049491 
L 516.870625 353.039408 
L 538.519261 353.030196 
L 560.167898 353.024593 
L 581.816534 353.021293 
L 603.46517 353.018748 
L 625.113807 353.010127 
L 646.762443 353.007601 
L 668.41108 353.01273 
L 690.059716 353.065534 
L 711.708352 352.997808 
L 733.356989 352.959586 
L 755.005625 352.919564 
L 776.654261 352.855564 
L 798.302898 352.781413 
L 819.951534 352.657757 
L 841.60017 352.506687 
L 863.248807 352.200232 
L 884.897443 351.429247 
L 906.54608 348.021017 
L 928.194716 303.758876 
L 949.843352 253.527115 
" clip-path="url(#p7a90dc40c4)" style="fill: none; stroke: #f0ad4e; stroke-linecap: square"/>
   </g>
   <g id="line2d_47">
    <path d="M 83.897898 352.968285 
L 105.546534 352.95587 
L 127.19517 352.936343 
L 148.843807 352.935385 
L 170.492443 352.924983 
L 192.14108 352.923319 
L 213.789716 352.924112 
L 235.438352 352.918442 
L 257.086989 352.919932 
L 278.735625 352.926028 
L 300.384261 352.919429 
L 322.032898 352.920338 
L 343.681534 352.932686 
L 365.33017 352.901121 
L 386.978807 352.914223 
L 408.627443 352.94183 
L 430.27608 352.902514 
L 451.924716 352.937514 
L 473.573352 352.919516 
L 495.221989 352.892838 
L 516.870625 352.873746 
L 538.519261 352.854016 
L 560.167898 352.83534 
L 581.816534 352.827241 
L 603.46517 352.805343 
L 625.113807 352.77492 
L 646.762443 352.745677 
L 668.41108 352.718573 
L 690.059716 352.693057 
L 711.708352 352.679548 
L 733.356989 352.625186 
L 755.005625 352.578971 
L 776.654261 352.482825 
L 798.302898 352.379102 
L 819.951534 352.216682 
L 841.60017 351.988617 
L 863.248807 351.605408 
L 884.897443 350.727768 
L 906.54608 347.308419 
L 928.194716 305.96181 
L 949.843352 261.65211 
" clip-path="url(#p7a90dc40c4)" style="fill: none; stroke: #f0ad4e; stroke-linecap: square"/>
   </g>
   <g id="line2d_48">
    <path d="M 83.897898 353.111885 
L 105.546534 353.071543 
L 127.19517 353.017384 
L 148.843807 352.988084 
L 170.492443 352.970298 
L 192.14108 352.965624 
L 213.789716 352.97623 
L 235.438352 352.957912 
L 257.086989 352.963921 
L 278.735625 352.955106 
L 300.384261 352.936992 
L 322.032898 352.926831 
L 343.681534 352.916139 
L 365.33017 352.911252 
L 386.978807 352.9131 
L 408.627443 352.893254 
L 430.27608 352.863266 
L 451.924716 352.851945 
L 473.573352 352.825876 
L 495.221989 352.81708 
L 516.870625 352.795705 
L 538.519261 352.778132 
L 560.167898 352.763482 
L 581.816534 352.763085 
L 603.46517 352.739871 
L 625.113807 352.735236 
L 646.762443 352.728473 
L 668.41108 352.722744 
L 690.059716 352.842026 
L 711.708352 352.676781 
L 733.356989 352.598178 
L 755.005625 352.493469 
L 776.654261 352.34088 
L 798.302898 352.192781 
L 819.951534 351.942469 
L 841.60017 351.587738 
L 863.248807 350.922469 
L 884.897443 349.432867 
L 906.54608 343.044041 
L 928.194716 260.803423 
L 949.843352 172.664286 
" clip-path="url(#p7a90dc40c4)" style="fill: none; stroke: #f0ad4e; stroke-linecap: square"/>
   </g>
   <g id="line2d_49">
    <path d="M 83.897898 352.691866 
L 105.546534 352.657166 
L 127.19517 352.632975 
L 148.843807 352.614087 
L 170.492443 352.600636 
L 192.14108 352.577432 
L 213.789716 352.576851 
L 235.438352 352.552796 
L 257.086989 352.55327 
L 278.735625 352.557663 
L 300.384261 352.52274 
L 322.032898 352.489947 
L 343.681534 352.546622 
L 365.33017 352.409748 
L 386.978807 352.533491 
L 408.627443 352.668198 
L 430.27608 352.6475 
L 451.924716 352.598072 
L 473.573352 352.54908 
L 495.221989 352.489724 
L 516.870625 352.448957 
L 538.519261 352.419105 
L 560.167898 352.377709 
L 581.816534 352.331813 
L 603.46517 352.277151 
L 625.113807 352.227762 
L 646.762443 352.20028 
L 668.41108 352.094061 
L 690.059716 351.990407 
L 711.708352 351.9616 
L 733.356989 351.867002 
L 755.005625 351.727922 
L 776.654261 351.539646 
L 798.302898 351.319467 
L 819.951534 350.949437 
L 841.60017 350.473663 
L 863.248807 349.545066 
L 884.897443 347.901647 
L 906.54608 341.203928 
L 928.194716 264.334641 
L 949.843352 191.740735 
" clip-path="url(#p7a90dc40c4)" style="fill: none; stroke: #f0ad4e; stroke-linecap: square"/>
   </g>
   <g id="line2d_50">
    <path d="M 83.897898 353.14164 
L 105.546534 353.109204 
L 127.19517 353.066173 
L 148.843807 353.060996 
L 170.492443 353.05789 
L 192.14108 353.05102 
L 213.789716 353.056206 
L 235.438352 353.050149 
L 257.086989 353.048881 
L 278.735625 353.050342 
L 300.384261 353.047217 
L 322.032898 353.045427 
L 343.681534 353.030544 
L 365.33017 353.025367 
L 386.978807 353.037879 
L 408.627443 353.033699 
L 430.27608 353.022919 
L 451.924716 353.021197 
L 473.573352 353.012817 
L 495.221989 353.010901 
L 516.870625 353.00554 
L 538.519261 352.997547 
L 560.167898 352.998824 
L 581.816534 353.000682 
L 603.46517 352.98939 
L 625.113807 352.982239 
L 646.762443 352.983971 
L 668.41108 352.994199 
L 690.059716 353.049607 
L 711.708352 352.979307 
L 733.356989 352.931428 
L 755.005625 352.886974 
L 776.654261 352.824299 
L 798.302898 352.750883 
L 819.951534 352.655657 
L 841.60017 352.492695 
L 863.248807 352.214234 
L 884.897443 351.569392 
L 906.54608 348.697917 
L 928.194716 315.41238 
L 949.843352 278.859532 
" clip-path="url(#p7a90dc40c4)" style="fill: none; stroke: #f0ad4e; stroke-linecap: square"/>
   </g>
   <g id="line2d_51">
    <path d="M 83.897898 352.960525 
L 105.546534 352.950558 
L 127.19517 352.940659 
L 148.843807 352.939537 
L 170.492443 352.933856 
L 192.14108 352.924896 
L 213.789716 352.915307 
L 235.438352 352.908959 
L 257.086989 352.901198 
L 278.735625 352.911949 
L 300.384261 352.898973 
L 322.032898 352.894279 
L 343.681534 352.911871 
L 365.33017 352.85479 
L 386.978807 352.901459 
L 408.627443 352.968837 
L 430.27608 352.959693 
L 451.924716 352.936614 
L 473.573352 352.911252 
L 495.221989 352.887264 
L 516.870625 352.872711 
L 538.519261 352.849361 
L 560.167898 352.833946 
L 581.816534 352.819141 
L 603.46517 352.791486 
L 625.113807 352.763424 
L 646.762443 352.746122 
L 668.41108 352.712787 
L 690.059716 352.667501 
L 711.708352 352.669059 
L 733.356989 352.609548 
L 755.005625 352.552931 
L 776.654261 352.478141 
L 798.302898 352.369039 
L 819.951534 352.225681 
L 841.60017 352.001244 
L 863.248807 351.599321 
L 884.897443 350.894049 
L 906.54608 347.966054 
L 928.194716 316.818541 
L 949.843352 286.604598 
" clip-path="url(#p7a90dc40c4)" style="fill: none; stroke: #f0ad4e; stroke-linecap: square"/>
   </g>
   <g id="line2d_52">
    <path d="M 83.897898 353.085371 
L 105.546534 353.025648 
L 127.19517 352.946029 
L 148.843807 352.91252 
L 170.492443 352.897482 
L 192.14108 352.880742 
L 213.789716 352.881197 
L 235.438352 352.865676 
L 257.086989 352.864118 
L 278.735625 352.855515 
L 300.384261 352.828963 
L 322.032898 352.827318 
L 343.681534 352.806465 
L 365.33017 352.800824 
L 386.978807 352.801646 
L 408.627443 352.774659 
L 430.27608 352.733146 
L 451.924716 352.711645 
L 473.573352 352.679626 
L 495.221989 352.662208 
L 516.870625 352.634078 
L 538.519261 352.602165 
L 560.167898 352.581099 
L 581.816534 352.577306 
L 603.46517 352.537913 
L 625.113807 352.523621 
L 646.762443 352.507393 
L 668.41108 352.516122 
L 690.059716 352.689225 
L 711.708352 352.465388 
L 733.356989 352.33341 
L 755.005625 352.19252 
L 776.654261 351.97745 
L 798.302898 351.755839 
L 819.951534 351.40522 
L 841.60017 350.865397 
L 863.248807 349.952525 
L 884.897443 347.733092 
L 906.54608 338.233927 
L 928.194716 221.972734 
L 949.843352 90.601164 
" clip-path="url(#p7a90dc40c4)" style="fill: none; stroke: #f0ad4e; stroke-linecap: square"/>
   </g>
   <g id="line2d_53">
    <path d="M 83.897898 352.4674 
L 105.546534 352.417092 
L 127.19517 352.386447 
L 148.843807 352.368216 
L 170.492443 352.353256 
L 192.14108 352.311628 
L 213.789716 352.306848 
L 235.438352 352.272787 
L 257.086989 352.277112 
L 278.735625 352.283934 
L 300.384261 352.248121 
L 322.032898 352.20327 
L 343.681534 352.283479 
L 365.33017 352.089513 
L 386.978807 352.253772 
L 408.627443 352.44379 
L 430.27608 352.412109 
L 451.924716 352.3382 
L 473.573352 352.260797 
L 495.221989 352.191543 
L 516.870625 352.138689 
L 538.519261 352.08093 
L 560.167898 352.023723 
L 581.816534 351.963429 
L 603.46517 351.903154 
L 625.113807 351.813878 
L 646.762443 351.773547 
L 668.41108 351.649639 
L 690.059716 351.48838 
L 711.708352 351.464789 
L 733.356989 351.318422 
L 755.005625 351.129169 
L 776.654261 350.860152 
L 798.302898 350.526235 
L 819.951534 350.0445 
L 841.60017 349.322904 
L 863.248807 348.081224 
L 884.897443 345.56838 
L 906.54608 335.78938 
L 928.194716 226.842204 
L 949.843352 117.546344 
" clip-path="url(#p7a90dc40c4)" style="fill: none; stroke: #f0ad4e; stroke-linecap: square"/>
   </g>
   <g id="line2d_54">
    <path d="M 83.897898 353.121329 
L 105.546534 353.072153 
L 127.19517 352.994054 
L 148.843807 352.960351 
L 170.492443 352.946436 
L 192.14108 352.924451 
L 213.789716 352.92418 
L 235.438352 352.906569 
L 257.086989 352.908988 
L 278.735625 352.892944 
L 300.384261 352.87004 
L 322.032898 352.854306 
L 343.681534 352.843758 
L 365.33017 352.836114 
L 386.978807 352.835437 
L 408.627443 352.803378 
L 430.27608 352.762534 
L 451.924716 352.739397 
L 473.573352 352.709487 
L 495.221989 352.685615 
L 516.870625 352.668323 
L 538.519261 352.626211 
L 560.167898 352.605223 
L 581.816534 352.584235 
L 603.46517 352.555108 
L 625.113807 352.532872 
L 646.762443 352.516383 
L 668.41108 352.519479 
L 690.059716 352.691179 
L 711.708352 352.461982 
L 733.356989 352.355443 
L 755.005625 352.198626 
L 776.654261 351.973531 
L 798.302898 351.753032 
L 819.951534 351.391499 
L 841.60017 350.848647 
L 863.248807 349.892298 
L 884.897443 347.663983 
L 906.54608 338.376269 
L 928.194716 225.627812 
L 949.843352 99.813121 
" clip-path="url(#p7a90dc40c4)" style="fill: none; stroke: #f0ad4e; stroke-linecap: square"/>
   </g>
   <g id="line2d_55">
    <path d="M 83.897898 352.518144 
L 105.546534 352.469432 
L 127.19517 352.429227 
L 148.843807 352.41506 
L 170.492443 352.39531 
L 192.14108 352.355511 
L 213.789716 352.344218 
L 235.438352 352.313747 
L 257.086989 352.306354 
L 278.735625 352.321721 
L 300.384261 352.266555 
L 322.032898 352.222643 
L 343.681534 352.296775 
L 365.33017 352.114576 
L 386.978807 352.269245 
L 408.627443 352.461682 
L 430.27608 352.437974 
L 451.924716 352.358007 
L 473.573352 352.282492 
L 495.221989 352.212589 
L 516.870625 352.158788 
L 538.519261 352.102315 
L 560.167898 352.058036 
L 581.816534 351.982656 
L 603.46517 351.910711 
L 625.113807 351.824193 
L 646.762443 351.791196 
L 668.41108 351.654651 
L 690.059716 351.486657 
L 711.708352 351.453235 
L 733.356989 351.328921 
L 755.005625 351.127001 
L 776.654261 350.863877 
L 798.302898 350.526467 
L 819.951534 350.02086 
L 841.60017 349.305573 
L 863.248807 347.99458 
L 884.897443 345.537928 
L 906.54608 335.936328 
L 928.194716 230.881284 
L 949.843352 126.510253 
" clip-path="url(#p7a90dc40c4)" style="fill: none; stroke: #f0ad4e; stroke-linecap: square"/>
   </g>
   <g id="line2d_56">
    <path d="M 83.897898 353.105382 
L 105.546534 353.068873 
L 127.19517 353.012788 
L 148.843807 352.995951 
L 170.492443 352.965953 
L 192.14108 352.970114 
L 213.789716 352.975649 
L 235.438352 352.957322 
L 257.086989 352.967202 
L 278.735625 352.960931 
L 300.384261 352.94032 
L 322.032898 352.933963 
L 343.681534 352.919874 
L 365.33017 352.904101 
L 386.978807 352.918945 
L 408.627443 352.902572 
L 430.27608 352.86375 
L 451.924716 352.845655 
L 473.573352 352.830831 
L 495.221989 352.82097 
L 516.870625 352.794679 
L 538.519261 352.778519 
L 560.167898 352.761731 
L 581.816534 352.764034 
L 603.46517 352.742503 
L 625.113807 352.734211 
L 646.762443 352.733214 
L 668.41108 352.73721 
L 690.059716 352.872294 
L 711.708352 352.740791 
L 733.356989 352.632791 
L 755.005625 352.516238 
L 776.654261 352.381879 
L 798.302898 352.204451 
L 819.951534 351.93705 
L 841.60017 351.564998 
L 863.248807 350.904838 
L 884.897443 349.404999 
L 906.54608 343.328163 
L 928.194716 270.316183 
L 949.843352 199.146107 
" clip-path="url(#p7a90dc40c4)" style="fill: none; stroke: #f0ad4e; stroke-linecap: square"/>
   </g>
   <g id="line2d_57">
    <path d="M 83.897898 352.752267 
L 105.546534 352.730272 
L 127.19517 352.696318 
L 148.843807 352.693569 
L 170.492443 352.654747 
L 192.14108 352.649174 
L 213.789716 352.646271 
L 235.438352 352.640455 
L 257.086989 352.635491 
L 278.735625 352.64628 
L 300.384261 352.621412 
L 322.032898 352.629337 
L 343.681534 352.659518 
L 365.33017 352.630062 
L 386.978807 352.622728 
L 408.627443 352.752683 
L 430.27608 352.745097 
L 451.924716 352.676442 
L 473.573352 352.618818 
L 495.221989 352.566507 
L 516.870625 352.533414 
L 538.519261 352.500852 
L 560.167898 352.458005 
L 581.816534 352.418399 
L 603.46517 352.38066 
L 625.113807 352.327575 
L 646.762443 352.293165 
L 668.41108 352.222836 
L 690.059716 352.164023 
L 711.708352 352.12373 
L 733.356989 352.016862 
L 755.005625 351.888978 
L 776.654261 351.709072 
L 798.302898 351.481616 
L 819.951534 351.14139 
L 841.60017 350.644618 
L 863.248807 349.816909 
L 884.897443 348.205722 
L 906.54608 342.446817 
L 928.194716 274.453402 
L 949.843352 212.362541 
" clip-path="url(#p7a90dc40c4)" style="fill: none; stroke: #f0ad4e; stroke-linecap: square"/>
   </g>
   <g id="line2d_58">
    <path d="M 83.897898 353.093519 
L 105.546534 353.04772 
L 127.19517 352.986555 
L 148.843807 352.958561 
L 170.492443 352.930741 
L 192.14108 352.93016 
L 213.789716 352.93135 
L 235.438352 352.915161 
L 257.086989 352.921403 
L 278.735625 352.917232 
L 300.384261 352.892847 
L 322.032898 352.887806 
L 343.681534 352.862357 
L 365.33017 352.858031 
L 386.978807 352.870185 
L 408.627443 352.848926 
L 430.27608 352.809591 
L 451.924716 352.778026 
L 473.573352 352.763985 
L 495.221989 352.749025 
L 516.870625 352.726653 
L 538.519261 352.69775 
L 560.167898 352.683903 
L 581.816534 352.674294 
L 603.46517 352.645409 
L 625.113807 352.626772 
L 646.762443 352.63222 
L 668.41108 352.634794 
L 690.059716 352.802537 
L 711.708352 352.638839 
L 733.356989 352.508332 
L 755.005625 352.367307 
L 776.654261 352.203145 
L 798.302898 351.992236 
L 819.951534 351.661018 
L 841.60017 351.215057 
L 863.248807 350.388045 
L 884.897443 348.494614 
L 906.54608 341.181894 
L 928.194716 255.569903 
L 949.843352 166.5662 
" clip-path="url(#p7a90dc40c4)" style="fill: none; stroke: #f0ad4e; stroke-linecap: square"/>
   </g>
   <g id="line2d_59">
    <path d="M 83.897898 352.622583 
L 105.546534 352.598159 
L 127.19517 352.555128 
L 148.843807 352.549612 
L 170.492443 352.520466 
L 192.14108 352.500059 
L 213.789716 352.502139 
L 235.438352 352.489047 
L 257.086989 352.486715 
L 278.735625 352.503116 
L 300.384261 352.476225 
L 322.032898 352.482593 
L 343.681534 352.515193 
L 365.33017 352.488224 
L 386.978807 352.478151 
L 408.627443 352.642468 
L 430.27608 352.633478 
L 451.924716 352.543458 
L 473.573352 352.481664 
L 495.221989 352.412873 
L 516.870625 352.376354 
L 538.519261 352.328175 
L 560.167898 352.282782 
L 581.816534 352.231313 
L 603.46517 352.176999 
L 625.113807 352.111479 
L 646.762443 352.072734 
L 668.41108 351.977934 
L 690.059716 351.902225 
L 711.708352 351.851752 
L 733.356989 351.715962 
L 755.005625 351.558399 
L 776.654261 351.339371 
L 798.302898 351.043957 
L 819.951534 350.60925 
L 841.60017 350.026086 
L 863.248807 348.954064 
L 884.897443 346.937016 
L 906.54608 339.930344 
L 928.194716 261.004762 
L 949.843352 183.951796 
" clip-path="url(#p7a90dc40c4)" style="fill: none; stroke: #f0ad4e; stroke-linecap: square"/>
   </g>
   <g id="line2d_60">
    <path d="M 83.897898 353.09469 
L 105.546534 353.040327 
L 127.19517 352.969872 
L 148.843807 352.92148 
L 170.492443 352.888803 
L 192.14108 352.887738 
L 213.789716 352.885706 
L 235.438352 352.858496 
L 257.086989 352.868917 
L 278.735625 352.85357 
L 300.384261 352.820186 
L 322.032898 352.810084 
L 343.681534 352.781471 
L 365.33017 352.773942 
L 386.978807 352.775684 
L 408.627443 352.747071 
L 430.27608 352.683361 
L 451.924716 352.639468 
L 473.573352 352.615683 
L 495.221989 352.595953 
L 516.870625 352.54789 
L 538.519261 352.516509 
L 560.167898 352.484141 
L 581.816534 352.474164 
L 603.46517 352.429536 
L 625.113807 352.407425 
L 646.762443 352.405374 
L 668.41108 352.413067 
L 690.059716 352.643426 
L 711.708352 352.41625 
L 733.356989 352.238812 
L 755.005625 352.03638 
L 776.654261 351.811237 
L 798.302898 351.501695 
L 819.951534 351.028127 
L 841.60017 350.391761 
L 863.248807 349.208518 
L 884.897443 346.627948 
L 906.54608 336.446434 
L 928.194716 219.128693 
L 949.843352 102.449359 
" clip-path="url(#p7a90dc40c4)" style="fill: none; stroke: #f0ad4e; stroke-linecap: square"/>
   </g>
   <g id="line2d_61">
    <path d="M 83.897898 352.393269 
L 105.546534 352.35764 
L 127.19517 352.292691 
L 148.843807 352.2712 
L 170.492443 352.225497 
L 192.14108 352.193894 
L 213.789716 352.190701 
L 235.438352 352.177637 
L 257.086989 352.162155 
L 278.735625 352.181779 
L 300.384261 352.133948 
L 322.032898 352.145521 
L 343.681534 352.182766 
L 365.33017 352.14854 
L 386.978807 352.138486 
L 408.627443 352.381802 
L 430.27608 352.363746 
L 451.924716 352.230045 
L 473.573352 352.133609 
L 495.221989 352.034783 
L 516.870625 351.980885 
L 538.519261 351.917988 
L 560.167898 351.848994 
L 581.816534 351.760793 
L 603.46517 351.685113 
L 625.113807 351.607798 
L 646.762443 351.527908 
L 668.41108 351.381135 
L 690.059716 351.293166 
L 711.708352 351.222286 
L 733.356989 351.026704 
L 755.005625 350.802045 
L 776.654261 350.495861 
L 798.302898 350.077903 
L 819.951534 349.460174 
L 841.60017 348.620225 
L 863.248807 347.078051 
L 884.897443 344.372935 
L 906.54608 334.758629 
L 928.194716 227.820847 
L 949.843352 129.040099 
" clip-path="url(#p7a90dc40c4)" style="fill: none; stroke: #f0ad4e; stroke-linecap: square"/>
   </g>
   <g id="line2d_62">
    <path d="M 83.897898 353.115852 
L 105.546534 353.074679 
L 127.19517 353.017016 
L 148.843807 353.001815 
L 170.492443 352.983342 
L 192.14108 352.964308 
L 213.789716 352.96457 
L 235.438352 352.952397 
L 257.086989 352.954429 
L 278.735625 352.947278 
L 300.384261 352.931263 
L 322.032898 352.925544 
L 343.681534 352.902911 
L 365.33017 352.894996 
L 386.978807 352.899156 
L 408.627443 352.879523 
L 430.27608 352.838282 
L 451.924716 352.807162 
L 473.573352 352.79614 
L 495.221989 352.777329 
L 516.870625 352.754057 
L 538.519261 352.724921 
L 560.167898 352.705897 
L 581.816534 352.694779 
L 603.46517 352.674207 
L 625.113807 352.657902 
L 646.762443 352.655028 
L 668.41108 352.666088 
L 690.059716 352.818832 
L 711.708352 352.65797 
L 733.356989 352.54069 
L 755.005625 352.398707 
L 776.654261 352.236519 
L 798.302898 352.033148 
L 819.951534 351.717781 
L 841.60017 351.258911 
L 863.248807 350.508943 
L 884.897443 348.745864 
L 906.54608 341.084907 
L 928.194716 251.71577 
L 949.843352 165.530059 
" clip-path="url(#p7a90dc40c4)" style="fill: none; stroke: #f0ad4e; stroke-linecap: square"/>
   </g>
   <g id="line2d_63">
    <path d="M 83.897898 352.652696 
L 105.546534 352.631969 
L 127.19517 352.586615 
L 148.843807 352.590834 
L 170.492443 352.570107 
L 192.14108 352.528304 
L 213.789716 352.532098 
L 235.438352 352.525692 
L 257.086989 352.519441 
L 278.735625 352.531972 
L 300.384261 352.513199 
L 322.032898 352.517815 
L 343.681534 352.544309 
L 365.33017 352.518454 
L 386.978807 352.511274 
L 408.627443 352.657834 
L 430.27608 352.642952 
L 451.924716 352.562259 
L 473.573352 352.498859 
L 495.221989 352.431859 
L 516.870625 352.408664 
L 538.519261 352.36151 
L 560.167898 352.317076 
L 581.816534 352.259539 
L 603.46517 352.208505 
L 625.113807 352.158401 
L 646.762443 352.104725 
L 668.41108 352.027294 
L 690.059716 351.964096 
L 711.708352 351.903376 
L 733.356989 351.778104 
L 755.005625 351.639014 
L 776.654261 351.412477 
L 798.302898 351.142783 
L 819.951534 350.747121 
L 841.60017 350.145668 
L 863.248807 349.21203 
L 884.897443 347.282128 
L 906.54608 340.085227 
L 928.194716 257.153067 
L 949.843352 182.029625 
" clip-path="url(#p7a90dc40c4)" style="fill: none; stroke: #f0ad4e; stroke-linecap: square"/>
   </g>
   <g id="line2d_64">
    <path d="M 83.897898 353.104202 
L 105.546534 353.06864 
L 127.19517 353.004292 
L 148.843807 352.97054 
L 170.492443 352.862579 
L 192.14108 352.889673 
L 213.789716 352.935182 
L 235.438352 352.947965 
L 257.086989 352.958406 
L 278.735625 352.966553 
L 300.384261 352.960941 
L 322.032898 352.956935 
L 343.681534 352.952648 
L 365.33017 352.958783 
L 386.978807 352.945468 
L 408.627443 352.94662 
L 430.27608 352.911484 
L 451.924716 352.911591 
L 473.573352 352.899089 
L 495.221989 352.892567 
L 516.870625 352.874636 
L 538.519261 352.874123 
L 560.167898 352.858544 
L 581.816534 352.864292 
L 603.46517 352.857083 
L 625.113807 352.854093 
L 646.762443 352.843342 
L 668.41108 352.862241 
L 690.059716 352.958773 
L 711.708352 352.851732 
L 733.356989 352.772965 
L 755.005625 352.69743 
L 776.654261 352.598256 
L 798.302898 352.480106 
L 819.951534 352.309944 
L 841.60017 352.022697 
L 863.248807 351.615394 
L 884.897443 350.487113 
L 906.54608 345.103763 
L 928.194716 277.664212 
L 949.843352 201.130826 
" clip-path="url(#p7a90dc40c4)" style="fill: none; stroke: #f0ad4e; stroke-linecap: square"/>
   </g>
   <g id="line2d_65">
    <path d="M 83.897898 352.63192 
L 105.546534 352.643406 
L 127.19517 352.628379 
L 148.843807 352.650761 
L 170.492443 352.634475 
L 192.14108 352.623705 
L 213.789716 352.64538 
L 235.438352 352.65286 
L 257.086989 352.651931 
L 278.735625 352.681754 
L 300.384261 352.688451 
L 322.032898 352.712313 
L 343.681534 352.7414 
L 365.33017 352.722821 
L 386.978807 352.711423 
L 408.627443 352.823118 
L 430.27608 352.80782 
L 451.924716 352.745097 
L 473.573352 352.71 
L 495.221989 352.650548 
L 516.870625 352.628543 
L 538.519261 352.606878 
L 560.167898 352.583712 
L 581.816534 352.55206 
L 603.46517 352.523166 
L 625.113807 352.483763 
L 646.762443 352.444448 
L 668.41108 352.408877 
L 690.059716 352.364171 
L 711.708352 352.334871 
L 733.356989 352.253259 
L 755.005625 352.16589 
L 776.654261 352.032074 
L 798.302898 351.880675 
L 819.951534 351.630857 
L 841.60017 351.274142 
L 863.248807 350.694094 
L 884.897443 349.37923 
L 906.54608 344.011285 
L 928.194716 280.889644 
L 949.843352 213.726522 
" clip-path="url(#p7a90dc40c4)" style="fill: none; stroke: #f0ad4e; stroke-linecap: square"/>
   </g>
   <g id="line2d_66">
    <path d="M 83.897898 353.124484 
L 105.546534 353.085787 
L 127.19517 353.036853 
L 148.843807 353.026083 
L 170.492443 353.005201 
L 192.14108 352.996338 
L 213.789716 353.003198 
L 235.438352 352.994035 
L 257.086989 352.994973 
L 278.735625 352.988674 
L 300.384261 352.975069 
L 322.032898 352.969311 
L 343.681534 352.960815 
L 365.33017 352.959635 
L 386.978807 352.956577 
L 408.627443 352.948952 
L 430.27608 352.910807 
L 451.924716 352.902814 
L 473.573352 352.88978 
L 495.221989 352.882242 
L 516.870625 352.862105 
L 538.519261 352.856193 
L 560.167898 352.840594 
L 581.816534 352.837498 
L 603.46517 352.832398 
L 625.113807 352.823825 
L 646.762443 352.819287 
L 668.41108 352.836608 
L 690.059716 352.933373 
L 711.708352 352.821948 
L 733.356989 352.731269 
L 755.005625 352.655715 
L 776.654261 352.544396 
L 798.302898 352.406458 
L 819.951534 352.190672 
L 841.60017 351.898819 
L 863.248807 351.391566 
L 884.897443 350.16835 
L 906.54608 344.640287 
L 928.194716 273.847285 
L 949.843352 194.000112 
" clip-path="url(#p7a90dc40c4)" style="fill: none; stroke: #f0ad4e; stroke-linecap: square"/>
   </g>
   <g id="line2d_67">
    <path d="M 83.897898 352.702762 
L 105.546534 352.69115 
L 127.19517 352.667869 
L 148.843807 352.677032 
L 170.492443 352.657602 
L 192.14108 352.637242 
L 213.789716 352.644239 
L 235.438352 352.635085 
L 257.086989 352.632482 
L 278.735625 352.65047 
L 300.384261 352.639574 
L 322.032898 352.638713 
L 343.681534 352.661192 
L 365.33017 352.621847 
L 386.978807 352.629046 
L 408.627443 352.700295 
L 430.27608 352.625989 
L 451.924716 352.674207 
L 473.573352 352.640949 
L 495.221989 352.592256 
L 516.870625 352.556889 
L 538.519261 352.520486 
L 560.167898 352.489085 
L 581.816534 352.455014 
L 603.46517 352.434075 
L 625.113807 352.377951 
L 646.762443 352.32504 
L 668.41108 352.278196 
L 690.059716 352.235609 
L 711.708352 352.21943 
L 733.356989 352.115795 
L 755.005625 352.013988 
L 776.654261 351.857093 
L 798.302898 351.656858 
L 819.951534 351.379742 
L 841.60017 350.98764 
L 863.248807 350.339614 
L 884.897443 348.859205 
L 906.54608 343.426099 
L 928.194716 277.799006 
L 949.843352 209.203568 
" clip-path="url(#p7a90dc40c4)" style="fill: none; stroke: #f0ad4e; stroke-linecap: square"/>
   </g>
   <g id="line2d_68">
    <path d="M 40.600625 353.2239 
L 993.140625 353.2239 
" clip-path="url(#p7a90dc40c4)" style="fill: none; stroke: #dedede; stroke-width: 2; stroke-linecap: square"/>
   </g>
   <g id="text_20">
    <!-- FastQC: Sequence Length Distribution -->
    <g transform="translate(364.858125 19.3575) scale(0.16 -0.16)">
     <defs>
      <path id="DejaVuSans-46" d="M 628 4666 
L 3309 4666 
L 3309 4134 
L 1259 4134 
L 1259 2759 
L 3109 2759 
L 3109 2228 
L 1259 2228 
L 1259 0 
L 628 0 
L 628 4666 
z
" transform="scale(0.015625)"/>
      <path id="DejaVuSans-73" d="M 2834 3397 
L 2834 2853 
Q 2591 2978 2328 3040 
Q 2066 3103 1784 3103 
Q 1356 3103 1142 2972 
Q 928 2841 928 2578 
Q 928 2378 1081 2264 
Q 1234 2150 1697 2047 
L 1894 2003 
Q 2506 1872 2764 1633 
Q 3022 1394 3022 966 
Q 3022 478 2636 193 
Q 2250 -91 1575 -91 
Q 1294 -91 989 -36 
Q 684 19 347 128 
L 347 722 
Q 666 556 975 473 
Q 1284 391 1588 391 
Q 1994 391 2212 530 
Q 2431 669 2431 922 
Q 2431 1156 2273 1281 
Q 2116 1406 1581 1522 
L 1381 1569 
Q 847 1681 609 1914 
Q 372 2147 372 2553 
Q 372 3047 722 3315 
Q 1072 3584 1716 3584 
Q 2034 3584 2315 3537 
Q 2597 3491 2834 3397 
z
" transform="scale(0.015625)"/>
      <path id="DejaVuSans-51" d="M 2522 4238 
Q 1834 4238 1429 3725 
Q 1025 3213 1025 2328 
Q 1025 1447 1429 934 
Q 1834 422 2522 422 
Q 3209 422 3611 934 
Q 4013 1447 4013 2328 
Q 4013 3213 3611 3725 
Q 3209 4238 2522 4238 
z
M 3406 84 
L 4238 -825 
L 3475 -825 
L 2784 -78 
Q 2681 -84 2626 -87 
Q 2572 -91 2522 -91 
Q 1538 -91 948 567 
Q 359 1225 359 2328 
Q 359 3434 948 4092 
Q 1538 4750 2522 4750 
Q 3503 4750 4090 4092 
Q 4678 3434 4678 2328 
Q 4678 1516 4351 937 
Q 4025 359 3406 84 
z
" transform="scale(0.015625)"/>
      <path id="DejaVuSans-3a" d="M 750 794 
L 1409 794 
L 1409 0 
L 750 0 
L 750 794 
z
M 750 3309 
L 1409 3309 
L 1409 2516 
L 750 2516 
L 750 3309 
z
" transform="scale(0.015625)"/>
      <path id="DejaVuSans-44" d="M 1259 4147 
L 1259 519 
L 2022 519 
Q 2988 519 3436 956 
Q 3884 1394 3884 2338 
Q 3884 3275 3436 3711 
Q 2988 4147 2022 4147 
L 1259 4147 
z
M 628 4666 
L 1925 4666 
Q 3281 4666 3915 4102 
Q 4550 3538 4550 2338 
Q 4550 1131 3912 565 
Q 3275 0 1925 0 
L 628 0 
L 628 4666 
z
" transform="scale(0.015625)"/>
      <path id="DejaVuSans-69" d="M 603 3500 
L 1178 3500 
L 1178 0 
L 603 0 
L 603 3500 
z
M 603 4863 
L 1178 4863 
L 1178 4134 
L 603 4134 
L 603 4863 
z
" transform="scale(0.015625)"/>
      <path id="DejaVuSans-72" d="M 2631 2963 
Q 2534 3019 2420 3045 
Q 2306 3072 2169 3072 
Q 1681 3072 1420 2755 
Q 1159 2438 1159 1844 
L 1159 0 
L 581 0 
L 581 3500 
L 1159 3500 
L 1159 2956 
Q 1341 3275 1631 3429 
Q 1922 3584 2338 3584 
Q 2397 3584 2469 3576 
Q 2541 3569 2628 3553 
L 2631 2963 
z
" transform="scale(0.015625)"/>
     </defs>
     <use xlink:href="#DejaVuSans-46"/>
     <use xlink:href="#DejaVuSans-61" x="48.394531"/>
     <use xlink:href="#DejaVuSans-73" x="109.673828"/>
     <use xlink:href="#DejaVuSans-74" x="161.773438"/>
     <use xlink:href="#DejaVuSans-51" x="200.982422"/>
     <use xlink:href="#DejaVuSans-43" x="279.693359"/>
     <use xlink:href="#DejaVuSans-3a" x="349.517578"/>
     <use xlink:href="#DejaVuSans-20" x="383.208984"/>
     <use xlink:href="#DejaVuSans-53" x="414.996094"/>
     <use xlink:href="#DejaVuSans-65" x="478.472656"/>
     <use xlink:href="#DejaVuSans-71" x="539.996094"/>
     <use xlink:href="#DejaVuSans-75" x="603.472656"/>
     <use xlink:href="#DejaVuSans-65" x="666.851562"/>
     <use xlink:href="#DejaVuSans-6e" x="728.375"/>
     <use xlink:href="#DejaVuSans-63" x="791.753906"/>
     <use xlink:href="#DejaVuSans-65" x="846.734375"/>
     <use xlink:href="#DejaVuSans-20" x="908.257812"/>
     <use xlink:href="#DejaVuSans-4c" x="940.044922"/>
     <use xlink:href="#DejaVuSans-65" x="994.007812"/>
     <use xlink:href="#DejaVuSans-6e" x="1055.53125"/>
     <use xlink:href="#DejaVuSans-67" x="1118.910156"/>
     <use xlink:href="#DejaVuSans-74" x="1182.386719"/>
     <use xlink:href="#DejaVuSans-68" x="1221.595703"/>
     <use xlink:href="#DejaVuSans-20" x="1284.974609"/>
     <use xlink:href="#DejaVuSans-44" x="1316.761719"/>
     <use xlink:href="#DejaVuSans-69" x="1393.763672"/>
     <use xlink:href="#DejaVuSans-73" x="1421.546875"/>
     <use xlink:href="#DejaVuSans-74" x="1473.646484"/>
     <use xlink:href="#DejaVuSans-72" x="1512.855469"/>
     <use xlink:href="#DejaVuSans-69" x="1553.96875"/>
     <use xlink:href="#DejaVuSans-62" x="1581.751953"/>
     <use xlink:href="#DejaVuSans-75" x="1645.228516"/>
     <use xlink:href="#DejaVuSans-74" x="1708.607422"/>
     <use xlink:href="#DejaVuSans-69" x="1747.816406"/>
     <use xlink:href="#DejaVuSans-6f" x="1775.599609"/>
     <use xlink:href="#DejaVuSans-6e" x="1836.78125"/>
    </g>
   </g>
  </g>
 </g>
 <defs>
  <clipPath id="p7a90dc40c4">
   <rect x="40.600625" y="35.2559" width="952.54" height="317.968"/>
  </clipPath>
 </defs>
</svg>
