<?xml version="1.0" encoding="utf-8" standalone="no"?>
<!DOCTYPE svg PUBLIC "-//W3C//DTD SVG 1.1//EN"
  "http://www.w3.org/Graphics/SVG/1.1/DTD/svg11.dtd">
<svg xmlns:xlink="http://www.w3.org/1999/xlink" width="1000.278125pt" height="388.844525pt" viewBox="0 0 1000.278125 388.844525" xmlns="http://www.w3.org/2000/svg" version="1.1">
 <metadata>
  <rdf:RDF xmlns:dc="http://purl.org/dc/elements/1.1/" xmlns:cc="http://creativecommons.org/ns#" xmlns:rdf="http://www.w3.org/1999/02/22-rdf-syntax-ns#">
   <cc:Work>
    <dc:type rdf:resource="http://purl.org/dc/dcmitype/StillImage"/>
    <dc:date>2024-10-04T22:02:42.217599</dc:date>
    <dc:format>image/svg+xml</dc:format>
    <dc:creator>
     <cc:Agent>
      <dc:title>Matplotlib v3.8.1, https://matplotlib.org/</dc:title>
     </cc:Agent>
    </dc:creator>
   </cc:Work>
  </rdf:RDF>
 </metadata>
 <defs>
  <style type="text/css">*{stroke-linejoin: round; stroke-linecap: butt}</style>
 </defs>
 <g id="figure_1">
  <g id="axes_1">
   <g id="patch_1">
    <path d="M 43.148125 353.2239 
L 993.078125 353.2239 
L 993.078125 35.2559 
L 43.148125 35.2559 
z
" style="fill: #ffffff"/>
   </g>
   <g id="matplotlib.axis_1">
    <g id="xtick_1">
     <g id="text_1">
      <!-- 1.0 -->
      <g transform="translate(79.965511 366.30265) scale(0.08 -0.08)">
       <defs>
        <path id="DejaVuSans-31" d="M 794 531 
L 1825 531 
L 1825 4091 
L 703 3866 
L 703 4441 
L 1819 4666 
L 2450 4666 
L 2450 531 
L 3481 531 
L 3481 0 
L 794 0 
L 794 531 
z
" transform="scale(0.015625)"/>
        <path id="DejaVuSans-2e" d="M 684 794 
L 1344 794 
L 1344 0 
L 684 0 
L 684 794 
z
" transform="scale(0.015625)"/>
        <path id="DejaVuSans-30" d="M 2034 4250 
Q 1547 4250 1301 3770 
Q 1056 3291 1056 2328 
Q 1056 1369 1301 889 
Q 1547 409 2034 409 
Q 2525 409 2770 889 
Q 3016 1369 3016 2328 
Q 3016 3291 2770 3770 
Q 2525 4250 2034 4250 
z
M 2034 4750 
Q 2819 4750 3233 4129 
Q 3647 3509 3647 2328 
Q 3647 1150 3233 529 
Q 2819 -91 2034 -91 
Q 1250 -91 836 529 
Q 422 1150 422 2328 
Q 422 3509 836 4129 
Q 1250 4750 2034 4750 
z
" transform="scale(0.015625)"/>
       </defs>
       <use xlink:href="#DejaVuSans-31"/>
       <use xlink:href="#DejaVuSans-2e" x="63.623047"/>
       <use xlink:href="#DejaVuSans-30" x="95.410156"/>
      </g>
     </g>
    </g>
    <g id="xtick_2">
     <g id="text_2">
      <!-- 2.0 -->
      <g transform="translate(137.537027 366.30265) scale(0.08 -0.08)">
       <defs>
        <path id="DejaVuSans-32" d="M 1228 531 
L 3431 531 
L 3431 0 
L 469 0 
L 469 531 
Q 828 903 1448 1529 
Q 2069 2156 2228 2338 
Q 2531 2678 2651 2914 
Q 2772 3150 2772 3378 
Q 2772 3750 2511 3984 
Q 2250 4219 1831 4219 
Q 1534 4219 1204 4116 
Q 875 4013 500 3803 
L 500 4441 
Q 881 4594 1212 4672 
Q 1544 4750 1819 4750 
Q 2544 4750 2975 4387 
Q 3406 4025 3406 3419 
Q 3406 3131 3298 2873 
Q 3191 2616 2906 2266 
Q 2828 2175 2409 1742 
Q 1991 1309 1228 531 
z
" transform="scale(0.015625)"/>
       </defs>
       <use xlink:href="#DejaVuSans-32"/>
       <use xlink:href="#DejaVuSans-2e" x="63.623047"/>
       <use xlink:href="#DejaVuSans-30" x="95.410156"/>
      </g>
     </g>
    </g>
    <g id="xtick_3">
     <g id="text_3">
      <!-- 3.0 -->
      <g transform="translate(195.108542 366.30265) scale(0.08 -0.08)">
       <defs>
        <path id="DejaVuSans-33" d="M 2597 2516 
Q 3050 2419 3304 2112 
Q 3559 1806 3559 1356 
Q 3559 666 3084 287 
Q 2609 -91 1734 -91 
Q 1441 -91 1130 -33 
Q 819 25 488 141 
L 488 750 
Q 750 597 1062 519 
Q 1375 441 1716 441 
Q 2309 441 2620 675 
Q 2931 909 2931 1356 
Q 2931 1769 2642 2001 
Q 2353 2234 1838 2234 
L 1294 2234 
L 1294 2753 
L 1863 2753 
Q 2328 2753 2575 2939 
Q 2822 3125 2822 3475 
Q 2822 3834 2567 4026 
Q 2313 4219 1838 4219 
Q 1578 4219 1281 4162 
Q 984 4106 628 3988 
L 628 4550 
Q 988 4650 1302 4700 
Q 1616 4750 1894 4750 
Q 2613 4750 3031 4423 
Q 3450 4097 3450 3541 
Q 3450 3153 3228 2886 
Q 3006 2619 2597 2516 
z
" transform="scale(0.015625)"/>
       </defs>
       <use xlink:href="#DejaVuSans-33"/>
       <use xlink:href="#DejaVuSans-2e" x="63.623047"/>
       <use xlink:href="#DejaVuSans-30" x="95.410156"/>
      </g>
     </g>
    </g>
    <g id="xtick_4">
     <g id="text_4">
      <!-- 4.0 -->
      <g transform="translate(252.680057 366.30265) scale(0.08 -0.08)">
       <defs>
        <path id="DejaVuSans-34" d="M 2419 4116 
L 825 1625 
L 2419 1625 
L 2419 4116 
z
M 2253 4666 
L 3047 4666 
L 3047 1625 
L 3713 1625 
L 3713 1100 
L 3047 1100 
L 3047 0 
L 2419 0 
L 2419 1100 
L 313 1100 
L 313 1709 
L 2253 4666 
z
" transform="scale(0.015625)"/>
       </defs>
       <use xlink:href="#DejaVuSans-34"/>
       <use xlink:href="#DejaVuSans-2e" x="63.623047"/>
       <use xlink:href="#DejaVuSans-30" x="95.410156"/>
      </g>
     </g>
    </g>
    <g id="xtick_5">
     <g id="text_5">
      <!-- 5.0 -->
      <g transform="translate(310.251572 366.30265) scale(0.08 -0.08)">
       <defs>
        <path id="DejaVuSans-35" d="M 691 4666 
L 3169 4666 
L 3169 4134 
L 1269 4134 
L 1269 2991 
Q 1406 3038 1543 3061 
Q 1681 3084 1819 3084 
Q 2600 3084 3056 2656 
Q 3513 2228 3513 1497 
Q 3513 744 3044 326 
Q 2575 -91 1722 -91 
Q 1428 -91 1123 -41 
Q 819 9 494 109 
L 494 744 
Q 775 591 1075 516 
Q 1375 441 1709 441 
Q 2250 441 2565 725 
Q 2881 1009 2881 1497 
Q 2881 1984 2565 2268 
Q 2250 2553 1709 2553 
Q 1456 2553 1204 2497 
Q 953 2441 691 2322 
L 691 4666 
z
" transform="scale(0.015625)"/>
       </defs>
       <use xlink:href="#DejaVuSans-35"/>
       <use xlink:href="#DejaVuSans-2e" x="63.623047"/>
       <use xlink:href="#DejaVuSans-30" x="95.410156"/>
      </g>
     </g>
    </g>
    <g id="xtick_6">
     <g id="text_6">
      <!-- 6.0 -->
      <g transform="translate(367.823087 366.30265) scale(0.08 -0.08)">
       <defs>
        <path id="DejaVuSans-36" d="M 2113 2584 
Q 1688 2584 1439 2293 
Q 1191 2003 1191 1497 
Q 1191 994 1439 701 
Q 1688 409 2113 409 
Q 2538 409 2786 701 
Q 3034 994 3034 1497 
Q 3034 2003 2786 2293 
Q 2538 2584 2113 2584 
z
M 3366 4563 
L 3366 3988 
Q 3128 4100 2886 4159 
Q 2644 4219 2406 4219 
Q 1781 4219 1451 3797 
Q 1122 3375 1075 2522 
Q 1259 2794 1537 2939 
Q 1816 3084 2150 3084 
Q 2853 3084 3261 2657 
Q 3669 2231 3669 1497 
Q 3669 778 3244 343 
Q 2819 -91 2113 -91 
Q 1303 -91 875 529 
Q 447 1150 447 2328 
Q 447 3434 972 4092 
Q 1497 4750 2381 4750 
Q 2619 4750 2861 4703 
Q 3103 4656 3366 4563 
z
" transform="scale(0.015625)"/>
       </defs>
       <use xlink:href="#DejaVuSans-36"/>
       <use xlink:href="#DejaVuSans-2e" x="63.623047"/>
       <use xlink:href="#DejaVuSans-30" x="95.410156"/>
      </g>
     </g>
    </g>
    <g id="xtick_7">
     <g id="text_7">
      <!-- 7.0 -->
      <g transform="translate(425.394602 366.30265) scale(0.08 -0.08)">
       <defs>
        <path id="DejaVuSans-37" d="M 525 4666 
L 3525 4666 
L 3525 4397 
L 1831 0 
L 1172 0 
L 2766 4134 
L 525 4134 
L 525 4666 
z
" transform="scale(0.015625)"/>
       </defs>
       <use xlink:href="#DejaVuSans-37"/>
       <use xlink:href="#DejaVuSans-2e" x="63.623047"/>
       <use xlink:href="#DejaVuSans-30" x="95.410156"/>
      </g>
     </g>
    </g>
    <g id="xtick_8">
     <g id="text_8">
      <!-- 8.0 -->
      <g transform="translate(482.966117 366.30265) scale(0.08 -0.08)">
       <defs>
        <path id="DejaVuSans-38" d="M 2034 2216 
Q 1584 2216 1326 1975 
Q 1069 1734 1069 1313 
Q 1069 891 1326 650 
Q 1584 409 2034 409 
Q 2484 409 2743 651 
Q 3003 894 3003 1313 
Q 3003 1734 2745 1975 
Q 2488 2216 2034 2216 
z
M 1403 2484 
Q 997 2584 770 2862 
Q 544 3141 544 3541 
Q 544 4100 942 4425 
Q 1341 4750 2034 4750 
Q 2731 4750 3128 4425 
Q 3525 4100 3525 3541 
Q 3525 3141 3298 2862 
Q 3072 2584 2669 2484 
Q 3125 2378 3379 2068 
Q 3634 1759 3634 1313 
Q 3634 634 3220 271 
Q 2806 -91 2034 -91 
Q 1263 -91 848 271 
Q 434 634 434 1313 
Q 434 1759 690 2068 
Q 947 2378 1403 2484 
z
M 1172 3481 
Q 1172 3119 1398 2916 
Q 1625 2713 2034 2713 
Q 2441 2713 2670 2916 
Q 2900 3119 2900 3481 
Q 2900 3844 2670 4047 
Q 2441 4250 2034 4250 
Q 1625 4250 1398 4047 
Q 1172 3844 1172 3481 
z
" transform="scale(0.015625)"/>
       </defs>
       <use xlink:href="#DejaVuSans-38"/>
       <use xlink:href="#DejaVuSans-2e" x="63.623047"/>
       <use xlink:href="#DejaVuSans-30" x="95.410156"/>
      </g>
     </g>
    </g>
    <g id="xtick_9">
     <g id="text_9">
      <!-- 9.0 -->
      <g transform="translate(540.537633 366.30265) scale(0.08 -0.08)">
       <defs>
        <path id="DejaVuSans-39" d="M 703 97 
L 703 672 
Q 941 559 1184 500 
Q 1428 441 1663 441 
Q 2288 441 2617 861 
Q 2947 1281 2994 2138 
Q 2813 1869 2534 1725 
Q 2256 1581 1919 1581 
Q 1219 1581 811 2004 
Q 403 2428 403 3163 
Q 403 3881 828 4315 
Q 1253 4750 1959 4750 
Q 2769 4750 3195 4129 
Q 3622 3509 3622 2328 
Q 3622 1225 3098 567 
Q 2575 -91 1691 -91 
Q 1453 -91 1209 -44 
Q 966 3 703 97 
z
M 1959 2075 
Q 2384 2075 2632 2365 
Q 2881 2656 2881 3163 
Q 2881 3666 2632 3958 
Q 2384 4250 1959 4250 
Q 1534 4250 1286 3958 
Q 1038 3666 1038 3163 
Q 1038 2656 1286 2365 
Q 1534 2075 1959 2075 
z
" transform="scale(0.015625)"/>
       </defs>
       <use xlink:href="#DejaVuSans-39"/>
       <use xlink:href="#DejaVuSans-2e" x="63.623047"/>
       <use xlink:href="#DejaVuSans-30" x="95.410156"/>
      </g>
     </g>
    </g>
    <g id="xtick_10">
     <g id="text_10">
      <!-- &gt;10 -->
      <g transform="translate(596.028523 366.30265) scale(0.08 -0.08)">
       <defs>
        <path id="DejaVuSans-3e" d="M 678 3150 
L 678 3719 
L 4684 2266 
L 4684 1747 
L 678 294 
L 678 863 
L 3897 2003 
L 678 3150 
z
" transform="scale(0.015625)"/>
       </defs>
       <use xlink:href="#DejaVuSans-3e"/>
       <use xlink:href="#DejaVuSans-31" x="83.789062"/>
       <use xlink:href="#DejaVuSans-30" x="147.412109"/>
      </g>
     </g>
    </g>
    <g id="xtick_11">
     <g id="text_11">
      <!-- &gt;50 -->
      <g transform="translate(653.600038 366.30265) scale(0.08 -0.08)">
       <use xlink:href="#DejaVuSans-3e"/>
       <use xlink:href="#DejaVuSans-35" x="83.789062"/>
       <use xlink:href="#DejaVuSans-30" x="147.412109"/>
      </g>
     </g>
    </g>
    <g id="xtick_12">
     <g id="text_12">
      <!-- &gt;100 -->
      <g transform="translate(708.626553 366.30265) scale(0.08 -0.08)">
       <use xlink:href="#DejaVuSans-3e"/>
       <use xlink:href="#DejaVuSans-31" x="83.789062"/>
       <use xlink:href="#DejaVuSans-30" x="147.412109"/>
       <use xlink:href="#DejaVuSans-30" x="211.035156"/>
      </g>
     </g>
    </g>
    <g id="xtick_13">
     <g id="text_13">
      <!-- &gt;500 -->
      <g transform="translate(766.198068 366.30265) scale(0.08 -0.08)">
       <use xlink:href="#DejaVuSans-3e"/>
       <use xlink:href="#DejaVuSans-35" x="83.789062"/>
       <use xlink:href="#DejaVuSans-30" x="147.412109"/>
       <use xlink:href="#DejaVuSans-30" x="211.035156"/>
      </g>
     </g>
    </g>
    <g id="xtick_14">
     <g id="text_14">
      <!-- &gt;1k -->
      <g transform="translate(826.543333 366.30265) scale(0.08 -0.08)">
       <defs>
        <path id="DejaVuSans-6b" d="M 581 4863 
L 1159 4863 
L 1159 1991 
L 2875 3500 
L 3609 3500 
L 1753 1863 
L 3688 0 
L 2938 0 
L 1159 1709 
L 1159 0 
L 581 0 
L 581 4863 
z
" transform="scale(0.015625)"/>
       </defs>
       <use xlink:href="#DejaVuSans-3e"/>
       <use xlink:href="#DejaVuSans-31" x="83.789062"/>
       <use xlink:href="#DejaVuSans-6b" x="147.412109"/>
      </g>
     </g>
    </g>
    <g id="xtick_15">
     <g id="text_15">
      <!-- &gt;5k -->
      <g transform="translate(884.114848 366.30265) scale(0.08 -0.08)">
       <use xlink:href="#DejaVuSans-3e"/>
       <use xlink:href="#DejaVuSans-35" x="83.789062"/>
       <use xlink:href="#DejaVuSans-6b" x="147.412109"/>
      </g>
     </g>
    </g>
    <g id="xtick_16">
     <g id="text_16">
      <!-- &gt;10k+ -->
      <g transform="translate(935.789489 366.30265) scale(0.08 -0.08)">
       <defs>
        <path id="DejaVuSans-2b" d="M 2944 4013 
L 2944 2272 
L 4684 2272 
L 4684 1741 
L 2944 1741 
L 2944 0 
L 2419 0 
L 2419 1741 
L 678 1741 
L 678 2272 
L 2419 2272 
L 2419 4013 
L 2944 4013 
z
" transform="scale(0.015625)"/>
       </defs>
       <use xlink:href="#DejaVuSans-3e"/>
       <use xlink:href="#DejaVuSans-31" x="83.789062"/>
       <use xlink:href="#DejaVuSans-30" x="147.412109"/>
       <use xlink:href="#DejaVuSans-6b" x="211.035156"/>
       <use xlink:href="#DejaVuSans-2b" x="268.945312"/>
      </g>
     </g>
    </g>
    <g id="text_17">
     <!-- Sequence Duplication Level -->
     <g transform="translate(448.708437 379.564837) scale(0.1 -0.1)">
      <defs>
       <path id="DejaVuSans-53" d="M 3425 4513 
L 3425 3897 
Q 3066 4069 2747 4153 
Q 2428 4238 2131 4238 
Q 1616 4238 1336 4038 
Q 1056 3838 1056 3469 
Q 1056 3159 1242 3001 
Q 1428 2844 1947 2747 
L 2328 2669 
Q 3034 2534 3370 2195 
Q 3706 1856 3706 1288 
Q 3706 609 3251 259 
Q 2797 -91 1919 -91 
Q 1588 -91 1214 -16 
Q 841 59 441 206 
L 441 856 
Q 825 641 1194 531 
Q 1563 422 1919 422 
Q 2459 422 2753 634 
Q 3047 847 3047 1241 
Q 3047 1584 2836 1778 
Q 2625 1972 2144 2069 
L 1759 2144 
Q 1053 2284 737 2584 
Q 422 2884 422 3419 
Q 422 4038 858 4394 
Q 1294 4750 2059 4750 
Q 2388 4750 2728 4690 
Q 3069 4631 3425 4513 
z
" transform="scale(0.015625)"/>
       <path id="DejaVuSans-65" d="M 3597 1894 
L 3597 1613 
L 953 1613 
Q 991 1019 1311 708 
Q 1631 397 2203 397 
Q 2534 397 2845 478 
Q 3156 559 3463 722 
L 3463 178 
Q 3153 47 2828 -22 
Q 2503 -91 2169 -91 
Q 1331 -91 842 396 
Q 353 884 353 1716 
Q 353 2575 817 3079 
Q 1281 3584 2069 3584 
Q 2775 3584 3186 3129 
Q 3597 2675 3597 1894 
z
M 3022 2063 
Q 3016 2534 2758 2815 
Q 2500 3097 2075 3097 
Q 1594 3097 1305 2825 
Q 1016 2553 972 2059 
L 3022 2063 
z
" transform="scale(0.015625)"/>
       <path id="DejaVuSans-71" d="M 947 1747 
Q 947 1113 1208 752 
Q 1469 391 1925 391 
Q 2381 391 2643 752 
Q 2906 1113 2906 1747 
Q 2906 2381 2643 2742 
Q 2381 3103 1925 3103 
Q 1469 3103 1208 2742 
Q 947 2381 947 1747 
z
M 2906 525 
Q 2725 213 2448 61 
Q 2172 -91 1784 -91 
Q 1150 -91 751 415 
Q 353 922 353 1747 
Q 353 2572 751 3078 
Q 1150 3584 1784 3584 
Q 2172 3584 2448 3432 
Q 2725 3281 2906 2969 
L 2906 3500 
L 3481 3500 
L 3481 -1331 
L 2906 -1331 
L 2906 525 
z
" transform="scale(0.015625)"/>
       <path id="DejaVuSans-75" d="M 544 1381 
L 544 3500 
L 1119 3500 
L 1119 1403 
Q 1119 906 1312 657 
Q 1506 409 1894 409 
Q 2359 409 2629 706 
Q 2900 1003 2900 1516 
L 2900 3500 
L 3475 3500 
L 3475 0 
L 2900 0 
L 2900 538 
Q 2691 219 2414 64 
Q 2138 -91 1772 -91 
Q 1169 -91 856 284 
Q 544 659 544 1381 
z
M 1991 3584 
L 1991 3584 
z
" transform="scale(0.015625)"/>
       <path id="DejaVuSans-6e" d="M 3513 2113 
L 3513 0 
L 2938 0 
L 2938 2094 
Q 2938 2591 2744 2837 
Q 2550 3084 2163 3084 
Q 1697 3084 1428 2787 
Q 1159 2491 1159 1978 
L 1159 0 
L 581 0 
L 581 3500 
L 1159 3500 
L 1159 2956 
Q 1366 3272 1645 3428 
Q 1925 3584 2291 3584 
Q 2894 3584 3203 3211 
Q 3513 2838 3513 2113 
z
" transform="scale(0.015625)"/>
       <path id="DejaVuSans-63" d="M 3122 3366 
L 3122 2828 
Q 2878 2963 2633 3030 
Q 2388 3097 2138 3097 
Q 1578 3097 1268 2742 
Q 959 2388 959 1747 
Q 959 1106 1268 751 
Q 1578 397 2138 397 
Q 2388 397 2633 464 
Q 2878 531 3122 666 
L 3122 134 
Q 2881 22 2623 -34 
Q 2366 -91 2075 -91 
Q 1284 -91 818 406 
Q 353 903 353 1747 
Q 353 2603 823 3093 
Q 1294 3584 2113 3584 
Q 2378 3584 2631 3529 
Q 2884 3475 3122 3366 
z
" transform="scale(0.015625)"/>
       <path id="DejaVuSans-20" transform="scale(0.015625)"/>
       <path id="DejaVuSans-44" d="M 1259 4147 
L 1259 519 
L 2022 519 
Q 2988 519 3436 956 
Q 3884 1394 3884 2338 
Q 3884 3275 3436 3711 
Q 2988 4147 2022 4147 
L 1259 4147 
z
M 628 4666 
L 1925 4666 
Q 3281 4666 3915 4102 
Q 4550 3538 4550 2338 
Q 4550 1131 3912 565 
Q 3275 0 1925 0 
L 628 0 
L 628 4666 
z
" transform="scale(0.015625)"/>
       <path id="DejaVuSans-70" d="M 1159 525 
L 1159 -1331 
L 581 -1331 
L 581 3500 
L 1159 3500 
L 1159 2969 
Q 1341 3281 1617 3432 
Q 1894 3584 2278 3584 
Q 2916 3584 3314 3078 
Q 3713 2572 3713 1747 
Q 3713 922 3314 415 
Q 2916 -91 2278 -91 
Q 1894 -91 1617 61 
Q 1341 213 1159 525 
z
M 3116 1747 
Q 3116 2381 2855 2742 
Q 2594 3103 2138 3103 
Q 1681 3103 1420 2742 
Q 1159 2381 1159 1747 
Q 1159 1113 1420 752 
Q 1681 391 2138 391 
Q 2594 391 2855 752 
Q 3116 1113 3116 1747 
z
" transform="scale(0.015625)"/>
       <path id="DejaVuSans-6c" d="M 603 4863 
L 1178 4863 
L 1178 0 
L 603 0 
L 603 4863 
z
" transform="scale(0.015625)"/>
       <path id="DejaVuSans-69" d="M 603 3500 
L 1178 3500 
L 1178 0 
L 603 0 
L 603 3500 
z
M 603 4863 
L 1178 4863 
L 1178 4134 
L 603 4134 
L 603 4863 
z
" transform="scale(0.015625)"/>
       <path id="DejaVuSans-61" d="M 2194 1759 
Q 1497 1759 1228 1600 
Q 959 1441 959 1056 
Q 959 750 1161 570 
Q 1363 391 1709 391 
Q 2188 391 2477 730 
Q 2766 1069 2766 1631 
L 2766 1759 
L 2194 1759 
z
M 3341 1997 
L 3341 0 
L 2766 0 
L 2766 531 
Q 2569 213 2275 61 
Q 1981 -91 1556 -91 
Q 1019 -91 701 211 
Q 384 513 384 1019 
Q 384 1609 779 1909 
Q 1175 2209 1959 2209 
L 2766 2209 
L 2766 2266 
Q 2766 2663 2505 2880 
Q 2244 3097 1772 3097 
Q 1472 3097 1187 3025 
Q 903 2953 641 2809 
L 641 3341 
Q 956 3463 1253 3523 
Q 1550 3584 1831 3584 
Q 2591 3584 2966 3190 
Q 3341 2797 3341 1997 
z
" transform="scale(0.015625)"/>
       <path id="DejaVuSans-74" d="M 1172 4494 
L 1172 3500 
L 2356 3500 
L 2356 3053 
L 1172 3053 
L 1172 1153 
Q 1172 725 1289 603 
Q 1406 481 1766 481 
L 2356 481 
L 2356 0 
L 1766 0 
Q 1100 0 847 248 
Q 594 497 594 1153 
L 594 3053 
L 172 3053 
L 172 3500 
L 594 3500 
L 594 4494 
L 1172 4494 
z
" transform="scale(0.015625)"/>
       <path id="DejaVuSans-6f" d="M 1959 3097 
Q 1497 3097 1228 2736 
Q 959 2375 959 1747 
Q 959 1119 1226 758 
Q 1494 397 1959 397 
Q 2419 397 2687 759 
Q 2956 1122 2956 1747 
Q 2956 2369 2687 2733 
Q 2419 3097 1959 3097 
z
M 1959 3584 
Q 2709 3584 3137 3096 
Q 3566 2609 3566 1747 
Q 3566 888 3137 398 
Q 2709 -91 1959 -91 
Q 1206 -91 779 398 
Q 353 888 353 1747 
Q 353 2609 779 3096 
Q 1206 3584 1959 3584 
z
" transform="scale(0.015625)"/>
       <path id="DejaVuSans-4c" d="M 628 4666 
L 1259 4666 
L 1259 531 
L 3531 531 
L 3531 0 
L 628 0 
L 628 4666 
z
" transform="scale(0.015625)"/>
       <path id="DejaVuSans-76" d="M 191 3500 
L 800 3500 
L 1894 563 
L 2988 3500 
L 3597 3500 
L 2284 0 
L 1503 0 
L 191 3500 
z
" transform="scale(0.015625)"/>
      </defs>
      <use xlink:href="#DejaVuSans-53"/>
      <use xlink:href="#DejaVuSans-65" x="63.476562"/>
      <use xlink:href="#DejaVuSans-71" x="125"/>
      <use xlink:href="#DejaVuSans-75" x="188.476562"/>
      <use xlink:href="#DejaVuSans-65" x="251.855469"/>
      <use xlink:href="#DejaVuSans-6e" x="313.378906"/>
      <use xlink:href="#DejaVuSans-63" x="376.757812"/>
      <use xlink:href="#DejaVuSans-65" x="431.738281"/>
      <use xlink:href="#DejaVuSans-20" x="493.261719"/>
      <use xlink:href="#DejaVuSans-44" x="525.048828"/>
      <use xlink:href="#DejaVuSans-75" x="602.050781"/>
      <use xlink:href="#DejaVuSans-70" x="665.429688"/>
      <use xlink:href="#DejaVuSans-6c" x="728.90625"/>
      <use xlink:href="#DejaVuSans-69" x="756.689453"/>
      <use xlink:href="#DejaVuSans-63" x="784.472656"/>
      <use xlink:href="#DejaVuSans-61" x="839.453125"/>
      <use xlink:href="#DejaVuSans-74" x="900.732422"/>
      <use xlink:href="#DejaVuSans-69" x="939.941406"/>
      <use xlink:href="#DejaVuSans-6f" x="967.724609"/>
      <use xlink:href="#DejaVuSans-6e" x="1028.90625"/>
      <use xlink:href="#DejaVuSans-20" x="1092.285156"/>
      <use xlink:href="#DejaVuSans-4c" x="1124.072266"/>
      <use xlink:href="#DejaVuSans-65" x="1178.035156"/>
      <use xlink:href="#DejaVuSans-76" x="1239.558594"/>
      <use xlink:href="#DejaVuSans-65" x="1298.738281"/>
      <use xlink:href="#DejaVuSans-6c" x="1360.261719"/>
     </g>
    </g>
   </g>
   <g id="matplotlib.axis_2">
    <g id="ytick_1">
     <g id="line2d_1">
      <path d="M 43.148125 353.2239 
L 993.078125 353.2239 
" clip-path="url(#pf40ed8f002)" style="fill: none; stroke: #dedede; stroke-linecap: square"/>
     </g>
     <g id="text_18">
      <!-- 0 -->
      <g transform="translate(31.058125 356.263275) scale(0.08 -0.08)">
       <use xlink:href="#DejaVuSans-30"/>
      </g>
     </g>
    </g>
    <g id="ytick_2">
     <g id="line2d_2">
      <path d="M 43.148125 289.6303 
L 993.078125 289.6303 
" clip-path="url(#pf40ed8f002)" style="fill: none; stroke: #dedede; stroke-linecap: square"/>
     </g>
     <g id="text_19">
      <!-- 20 -->
      <g transform="translate(25.968125 292.669675) scale(0.08 -0.08)">
       <use xlink:href="#DejaVuSans-32"/>
       <use xlink:href="#DejaVuSans-30" x="63.623047"/>
      </g>
     </g>
    </g>
    <g id="ytick_3">
     <g id="line2d_3">
      <path d="M 43.148125 226.0367 
L 993.078125 226.0367 
" clip-path="url(#pf40ed8f002)" style="fill: none; stroke: #dedede; stroke-linecap: square"/>
     </g>
     <g id="text_20">
      <!-- 40 -->
      <g transform="translate(25.968125 229.076075) scale(0.08 -0.08)">
       <use xlink:href="#DejaVuSans-34"/>
       <use xlink:href="#DejaVuSans-30" x="63.623047"/>
      </g>
     </g>
    </g>
    <g id="ytick_4">
     <g id="line2d_4">
      <path d="M 43.148125 162.4431 
L 993.078125 162.4431 
" clip-path="url(#pf40ed8f002)" style="fill: none; stroke: #dedede; stroke-linecap: square"/>
     </g>
     <g id="text_21">
      <!-- 60 -->
      <g transform="translate(25.968125 165.482475) scale(0.08 -0.08)">
       <use xlink:href="#DejaVuSans-36"/>
       <use xlink:href="#DejaVuSans-30" x="63.623047"/>
      </g>
     </g>
    </g>
    <g id="ytick_5">
     <g id="line2d_5">
      <path d="M 43.148125 98.8495 
L 993.078125 98.8495 
" clip-path="url(#pf40ed8f002)" style="fill: none; stroke: #dedede; stroke-linecap: square"/>
     </g>
     <g id="text_22">
      <!-- 80 -->
      <g transform="translate(25.968125 101.888875) scale(0.08 -0.08)">
       <use xlink:href="#DejaVuSans-38"/>
       <use xlink:href="#DejaVuSans-30" x="63.623047"/>
      </g>
     </g>
    </g>
    <g id="ytick_6">
     <g id="line2d_6">
      <path d="M 43.148125 35.2559 
L 993.078125 35.2559 
" clip-path="url(#pf40ed8f002)" style="fill: none; stroke: #dedede; stroke-linecap: square"/>
     </g>
     <g id="text_23">
      <!-- 100 -->
      <g transform="translate(20.878125 38.295275) scale(0.08 -0.08)">
       <use xlink:href="#DejaVuSans-31"/>
       <use xlink:href="#DejaVuSans-30" x="63.623047"/>
       <use xlink:href="#DejaVuSans-30" x="127.246094"/>
      </g>
     </g>
    </g>
    <g id="text_24">
     <!-- % of Library -->
     <g transform="translate(14.798437 224.471931) rotate(-90) scale(0.1 -0.1)">
      <defs>
       <path id="DejaVuSans-25" d="M 4653 2053 
Q 4381 2053 4226 1822 
Q 4072 1591 4072 1178 
Q 4072 772 4226 539 
Q 4381 306 4653 306 
Q 4919 306 5073 539 
Q 5228 772 5228 1178 
Q 5228 1588 5073 1820 
Q 4919 2053 4653 2053 
z
M 4653 2450 
Q 5147 2450 5437 2106 
Q 5728 1763 5728 1178 
Q 5728 594 5436 251 
Q 5144 -91 4653 -91 
Q 4153 -91 3862 251 
Q 3572 594 3572 1178 
Q 3572 1766 3864 2108 
Q 4156 2450 4653 2450 
z
M 1428 4353 
Q 1159 4353 1004 4120 
Q 850 3888 850 3481 
Q 850 3069 1003 2837 
Q 1156 2606 1428 2606 
Q 1700 2606 1854 2837 
Q 2009 3069 2009 3481 
Q 2009 3884 1853 4118 
Q 1697 4353 1428 4353 
z
M 4250 4750 
L 4750 4750 
L 1831 -91 
L 1331 -91 
L 4250 4750 
z
M 1428 4750 
Q 1922 4750 2215 4408 
Q 2509 4066 2509 3481 
Q 2509 2891 2217 2550 
Q 1925 2209 1428 2209 
Q 931 2209 642 2551 
Q 353 2894 353 3481 
Q 353 4063 643 4406 
Q 934 4750 1428 4750 
z
" transform="scale(0.015625)"/>
       <path id="DejaVuSans-66" d="M 2375 4863 
L 2375 4384 
L 1825 4384 
Q 1516 4384 1395 4259 
Q 1275 4134 1275 3809 
L 1275 3500 
L 2222 3500 
L 2222 3053 
L 1275 3053 
L 1275 0 
L 697 0 
L 697 3053 
L 147 3053 
L 147 3500 
L 697 3500 
L 697 3744 
Q 697 4328 969 4595 
Q 1241 4863 1831 4863 
L 2375 4863 
z
" transform="scale(0.015625)"/>
       <path id="DejaVuSans-62" d="M 3116 1747 
Q 3116 2381 2855 2742 
Q 2594 3103 2138 3103 
Q 1681 3103 1420 2742 
Q 1159 2381 1159 1747 
Q 1159 1113 1420 752 
Q 1681 391 2138 391 
Q 2594 391 2855 752 
Q 3116 1113 3116 1747 
z
M 1159 2969 
Q 1341 3281 1617 3432 
Q 1894 3584 2278 3584 
Q 2916 3584 3314 3078 
Q 3713 2572 3713 1747 
Q 3713 922 3314 415 
Q 2916 -91 2278 -91 
Q 1894 -91 1617 61 
Q 1341 213 1159 525 
L 1159 0 
L 581 0 
L 581 4863 
L 1159 4863 
L 1159 2969 
z
" transform="scale(0.015625)"/>
       <path id="DejaVuSans-72" d="M 2631 2963 
Q 2534 3019 2420 3045 
Q 2306 3072 2169 3072 
Q 1681 3072 1420 2755 
Q 1159 2438 1159 1844 
L 1159 0 
L 581 0 
L 581 3500 
L 1159 3500 
L 1159 2956 
Q 1341 3275 1631 3429 
Q 1922 3584 2338 3584 
Q 2397 3584 2469 3576 
Q 2541 3569 2628 3553 
L 2631 2963 
z
" transform="scale(0.015625)"/>
       <path id="DejaVuSans-79" d="M 2059 -325 
Q 1816 -950 1584 -1140 
Q 1353 -1331 966 -1331 
L 506 -1331 
L 506 -850 
L 844 -850 
Q 1081 -850 1212 -737 
Q 1344 -625 1503 -206 
L 1606 56 
L 191 3500 
L 800 3500 
L 1894 763 
L 2988 3500 
L 3597 3500 
L 2059 -325 
z
" transform="scale(0.015625)"/>
      </defs>
      <use xlink:href="#DejaVuSans-25"/>
      <use xlink:href="#DejaVuSans-20" x="95.019531"/>
      <use xlink:href="#DejaVuSans-6f" x="126.806641"/>
      <use xlink:href="#DejaVuSans-66" x="187.988281"/>
      <use xlink:href="#DejaVuSans-20" x="223.193359"/>
      <use xlink:href="#DejaVuSans-4c" x="254.980469"/>
      <use xlink:href="#DejaVuSans-69" x="310.693359"/>
      <use xlink:href="#DejaVuSans-62" x="338.476562"/>
      <use xlink:href="#DejaVuSans-72" x="401.953125"/>
      <use xlink:href="#DejaVuSans-61" x="443.066406"/>
      <use xlink:href="#DejaVuSans-72" x="504.345703"/>
      <use xlink:href="#DejaVuSans-79" x="545.458984"/>
     </g>
    </g>
   </g>
   <g id="line2d_7">
    <path d="M 86.326761 294.907253 
L 143.898277 328.619865 
L 201.469792 339.245525 
L 259.041307 343.811901 
L 316.612822 346.29728 
L 374.184337 347.716822 
L 431.755852 348.932498 
L 489.327367 349.475169 
L 546.898883 349.788528 
L 604.470398 308.597512 
L 662.041913 335.199216 
L 719.613428 305.785528 
L 777.184943 330.960382 
L 834.756458 315.669746 
L 892.327973 345.080636 
L 949.899489 343.52654 
" clip-path="url(#pf40ed8f002)" style="fill: none; stroke: #d9534f; stroke-linecap: square"/>
   </g>
   <g id="line2d_8">
    <path d="M 86.326761 287.685601 
L 143.898277 328.086459 
L 201.469792 339.177606 
L 259.041307 344.251408 
L 316.612822 346.533111 
L 374.184337 347.847403 
L 431.755852 348.736355 
L 489.327367 349.37945 
L 546.898883 349.806011 
L 604.470398 309.270053 
L 662.041913 335.832738 
L 719.613428 306.942347 
L 777.184943 332.01919 
L 834.756458 317.609919 
L 892.327973 346.068758 
L 949.899489 344.367991 
" clip-path="url(#pf40ed8f002)" style="fill: none; stroke: #d9534f; stroke-linecap: square"/>
   </g>
   <g id="line2d_9">
    <path d="M 86.326761 284.651586 
L 143.898277 328.382546 
L 201.469792 339.282608 
L 259.041307 343.858698 
L 316.612822 346.210985 
L 374.184337 347.8005 
L 431.755852 348.826709 
L 489.327367 349.449274 
L 546.898883 349.877036 
L 604.470398 306.847507 
L 662.041913 333.737674 
L 719.613428 302.014409 
L 777.184943 332.655606 
L 834.756458 324.434085 
L 892.327973 347.243499 
L 949.899489 348.341678 
" clip-path="url(#pf40ed8f002)" style="fill: none; stroke: #d9534f; stroke-linecap: square"/>
   </g>
   <g id="line2d_10">
    <path d="M 86.326761 278.164923 
L 143.898277 327.78608 
L 201.469792 339.55718 
L 259.041307 343.947225 
L 316.612822 346.489288 
L 374.184337 348.117911 
L 431.755852 348.703376 
L 489.327367 349.338977 
L 546.898883 349.973374 
L 604.470398 306.606361 
L 662.041913 334.352606 
L 719.613428 303.843118 
L 777.184943 333.616171 
L 834.756458 326.452256 
L 892.327973 347.889101 
L 949.899489 348.776455 
" clip-path="url(#pf40ed8f002)" style="fill: none; stroke: #d9534f; stroke-linecap: square"/>
   </g>
   <g id="line2d_11">
    <path d="M 86.326761 309.562432 
L 143.898277 326.965503 
L 201.469792 337.280617 
L 259.041307 342.481474 
L 316.612822 345.445135 
L 374.184337 347.331844 
L 431.755852 348.468938 
L 489.327367 349.143217 
L 546.898883 349.675418 
L 604.470398 307.448143 
L 662.041913 335.839976 
L 719.613428 308.061192 
L 777.184943 331.37065 
L 834.756458 311.230312 
L 892.327973 342.98355 
L 949.899489 340.325999 
" clip-path="url(#pf40ed8f002)" style="fill: none; stroke: #d9534f; stroke-linecap: square"/>
   </g>
   <g id="line2d_12">
    <path d="M 86.326761 302.30921 
L 143.898277 326.342381 
L 201.469792 337.340012 
L 259.041307 342.742911 
L 316.612822 345.727153 
L 374.184337 347.278003 
L 431.755852 348.514853 
L 489.327367 349.216231 
L 546.898883 349.810333 
L 604.470398 308.123976 
L 662.041913 336.077267 
L 719.613428 309.214539 
L 777.184943 331.889822 
L 834.756458 313.793028 
L 892.327973 343.898818 
L 949.899489 341.335862 
" clip-path="url(#pf40ed8f002)" style="fill: none; stroke: #d9534f; stroke-linecap: square"/>
   </g>
   <g id="line2d_13">
    <path d="M 86.326761 295.362706 
L 143.898277 324.402691 
L 201.469792 336.354794 
L 259.041307 341.67354 
L 316.612822 344.882179 
L 374.184337 346.690376 
L 431.755852 347.855465 
L 489.327367 348.817041 
L 546.898883 349.141813 
L 604.470398 297.641464 
L 662.041913 332.241043 
L 719.613428 311.338742 
L 777.184943 338.758474 
L 834.756458 328.610395 
L 892.327973 346.504754 
L 949.899489 343.338923 
" clip-path="url(#pf40ed8f002)" style="fill: none; stroke: #d9534f; stroke-linecap: square"/>
   </g>
   <g id="line2d_14">
    <path d="M 86.326761 288.081777 
L 143.898277 324.623693 
L 201.469792 336.708136 
L 259.041307 342.577604 
L 316.612822 344.949842 
L 374.184337 346.760019 
L 431.755852 347.62503 
L 489.327367 348.717118 
L 546.898883 349.362502 
L 604.470398 299.791531 
L 662.041913 333.053107 
L 719.613428 312.622188 
L 777.184943 339.32866 
L 834.756458 329.263537 
L 892.327973 346.269036 
L 949.899489 343.880621 
" clip-path="url(#pf40ed8f002)" style="fill: none; stroke: #d9534f; stroke-linecap: square"/>
   </g>
   <g id="line2d_15">
    <path d="M 86.326761 301.974876 
L 143.898277 326.624265 
L 201.469792 336.901241 
L 259.041307 341.597582 
L 316.612822 344.607149 
L 374.184337 346.544626 
L 431.755852 347.452359 
L 489.327367 348.243786 
L 546.898883 349.025387 
L 604.470398 295.319298 
L 662.041913 330.645311 
L 719.613428 307.695489 
L 777.184943 337.866281 
L 834.756458 329.043687 
L 892.327973 346.3471 
L 949.899489 343.725965 
" clip-path="url(#pf40ed8f002)" style="fill: none; stroke: #d9534f; stroke-linecap: square"/>
   </g>
   <g id="line2d_16">
    <path d="M 86.326761 291.721904 
L 143.898277 326.612984 
L 201.469792 337.056679 
L 259.041307 342.384224 
L 316.612822 344.744572 
L 374.184337 346.379692 
L 431.755852 347.850539 
L 489.327367 348.471351 
L 546.898883 349.120331 
L 604.470398 296.73667 
L 662.041913 332.237364 
L 719.613428 310.355176 
L 777.184943 338.613781 
L 834.756458 330.058398 
L 892.327973 347.056661 
L 949.899489 344.214075 
" clip-path="url(#pf40ed8f002)" style="fill: none; stroke: #d9534f; stroke-linecap: square"/>
   </g>
   <g id="line2d_17">
    <path d="M 86.326761 293.238398 
L 143.898277 327.532305 
L 201.469792 337.783022 
L 259.041307 342.74165 
L 316.612822 345.295089 
L 374.184337 346.826469 
L 431.755852 347.951334 
L 489.327367 348.76808 
L 546.898883 349.272232 
L 604.470398 301.260737 
L 662.041913 333.187353 
L 719.613428 309.384977 
L 777.184943 336.499559 
L 834.756458 325.012148 
L 892.327973 346.969728 
L 949.899489 341.891318 
" clip-path="url(#pf40ed8f002)" style="fill: none; stroke: #d9534f; stroke-linecap: square"/>
   </g>
   <g id="line2d_18">
    <path d="M 86.326761 282.392685 
L 143.898277 327.517842 
L 201.469792 338.47613 
L 259.041307 342.683409 
L 316.612822 345.540218 
L 374.184337 346.912762 
L 431.755852 348.138201 
L 489.327367 348.969297 
L 546.898883 349.456407 
L 604.470398 303.513918 
L 662.041913 333.951613 
L 719.613428 311.465636 
L 777.184943 337.711011 
L 834.756458 326.827746 
L 892.327973 347.048877 
L 949.899489 343.008647 
" clip-path="url(#pf40ed8f002)" style="fill: none; stroke: #d9534f; stroke-linecap: square"/>
   </g>
   <g id="line2d_19">
    <path d="M 86.326761 306.42099 
L 143.898277 329.642153 
L 201.469792 337.267053 
L 259.041307 341.756721 
L 316.612822 344.049487 
L 374.184337 345.939135 
L 431.755852 347.191888 
L 489.327367 347.966065 
L 546.898883 348.723241 
L 604.470398 287.837827 
L 662.041913 328.764696 
L 719.613428 307.354363 
L 777.184943 338.145008 
L 834.756458 330.745846 
L 892.327973 347.136927 
L 949.899489 344.673 
" clip-path="url(#pf40ed8f002)" style="fill: none; stroke: #d9534f; stroke-linecap: square"/>
   </g>
   <g id="line2d_20">
    <path d="M 86.326761 294.195226 
L 143.898277 328.853169 
L 201.469792 337.656154 
L 259.041307 341.900895 
L 316.612822 344.722918 
L 374.184337 346.014684 
L 431.755852 347.512433 
L 489.327367 348.140522 
L 546.898883 348.637016 
L 604.470398 291.545983 
L 662.041913 330.479803 
L 719.613428 309.517423 
L 777.184943 339.53367 
L 834.756458 332.022913 
L 892.327973 347.682545 
L 949.899489 345.199046 
" clip-path="url(#pf40ed8f002)" style="fill: none; stroke: #d9534f; stroke-linecap: square"/>
   </g>
   <g id="line2d_21">
    <path d="M 86.326761 297.991164 
L 143.898277 326.966598 
L 201.469792 337.062589 
L 259.041307 342.017459 
L 316.612822 344.758412 
L 374.184337 346.215778 
L 431.755852 347.465613 
L 489.327367 348.205785 
L 546.898883 349.036394 
L 604.470398 293.492107 
L 662.041913 330.994476 
L 719.613428 309.487579 
L 777.184943 338.454082 
L 834.756458 328.991029 
L 892.327973 347.529764 
L 949.899489 344.94557 
" clip-path="url(#pf40ed8f002)" style="fill: none; stroke: #d9534f; stroke-linecap: square"/>
   </g>
   <g id="line2d_22">
    <path d="M 86.326761 288.242857 
L 143.898277 326.61189 
L 201.469792 337.561956 
L 259.041307 342.503385 
L 316.612822 344.717993 
L 374.184337 346.390317 
L 431.755852 347.551109 
L 489.327367 348.502498 
L 546.898883 349.104861 
L 604.470398 295.982987 
L 662.041913 331.518128 
L 719.613428 312.360194 
L 777.184943 339.150993 
L 834.756458 330.343413 
L 892.327973 347.702201 
L 949.899489 345.36962 
" clip-path="url(#pf40ed8f002)" style="fill: none; stroke: #d9534f; stroke-linecap: square"/>
   </g>
   <g id="line2d_23">
    <path d="M 86.326761 281.283309 
L 143.898277 320.476785 
L 201.469792 334.450656 
L 259.041307 340.52226 
L 316.612822 343.546577 
L 374.184337 345.562879 
L 431.755852 346.771165 
L 489.327367 347.657851 
L 546.898883 348.726647 
L 604.470398 292.097853 
L 662.041913 333.114521 
L 719.613428 318.317183 
L 777.184943 343.501267 
L 834.756458 338.598689 
L 892.327973 348.528253 
L 949.899489 350.458504 
" clip-path="url(#pf40ed8f002)" style="fill: none; stroke: #d9534f; stroke-linecap: square"/>
   </g>
   <g id="line2d_24">
    <path d="M 86.326761 273.943799 
L 143.898277 320.573082 
L 201.469792 334.770653 
L 259.041307 340.740641 
L 316.612822 343.855703 
L 374.184337 345.700462 
L 431.755852 347.315781 
L 489.327367 348.040122 
L 546.898883 348.75288 
L 604.470398 294.182227 
L 662.041913 333.593408 
L 719.613428 319.877949 
L 777.184943 344.050681 
L 834.756458 338.862625 
L 892.327973 348.585081 
L 949.899489 350.769306 
" clip-path="url(#pf40ed8f002)" style="fill: none; stroke: #d9534f; stroke-linecap: square"/>
   </g>
   <g id="line2d_25">
    <path d="M 86.326761 291.733456 
L 143.898277 327.932501 
L 201.469792 339.841379 
L 259.041307 344.431453 
L 316.612822 346.697325 
L 374.184337 348.041739 
L 431.755852 348.854113 
L 489.327367 349.542321 
L 546.898883 350.045393 
L 604.470398 305.583383 
L 662.041913 331.792401 
L 719.613428 295.570164 
L 777.184943 330.755346 
L 834.756458 326.548966 
L 892.327973 348.136589 
L 949.899489 348.107871 
" clip-path="url(#pf40ed8f002)" style="fill: none; stroke: #d9534f; stroke-linecap: square"/>
   </g>
   <g id="line2d_26">
    <path d="M 86.326761 285.891653 
L 143.898277 327.878603 
L 201.469792 339.663137 
L 259.041307 344.334138 
L 316.612822 346.610129 
L 374.184337 348.046166 
L 431.755852 348.935931 
L 489.327367 349.673546 
L 546.898883 349.923648 
L 604.470398 305.762349 
L 662.041913 332.220706 
L 719.613428 297.334105 
L 777.184943 332.284989 
L 834.756458 327.888507 
L 892.327973 348.097106 
L 949.899489 349.06969 
" clip-path="url(#pf40ed8f002)" style="fill: none; stroke: #d9534f; stroke-linecap: square"/>
   </g>
   <g id="line2d_27">
    <path d="M 86.326761 312.75391 
L 143.898277 328.840758 
L 201.469792 339.174424 
L 259.041307 344.318405 
L 316.612822 346.805291 
L 374.184337 348.40501 
L 431.755852 349.215922 
L 489.327367 349.843184 
L 546.898883 350.507774 
L 604.470398 310.344289 
L 662.041913 334.072312 
L 719.613428 297.804789 
L 777.184943 325.781343 
L 834.756458 306.145627 
L 892.327973 343.59574 
L 949.899489 346.005622 
" clip-path="url(#pf40ed8f002)" style="fill: none; stroke: #d9534f; stroke-linecap: square"/>
   </g>
   <g id="line2d_28">
    <path d="M 86.326761 305.378745 
L 143.898277 328.906292 
L 201.469792 339.001753 
L 259.041307 344.522497 
L 316.612822 346.842637 
L 374.184337 348.339261 
L 431.755852 349.156874 
L 489.327367 349.811631 
L 546.898883 350.312139 
L 604.470398 310.868392 
L 662.041913 334.437011 
L 719.613428 299.369012 
L 777.184943 326.872103 
L 834.756458 309.369519 
L 892.327973 343.788614 
L 949.899489 346.637922 
" clip-path="url(#pf40ed8f002)" style="fill: none; stroke: #d9534f; stroke-linecap: square"/>
   </g>
   <g id="line2d_29">
    <path d="M 86.326761 299.831536 
L 143.898277 327.893417 
L 201.469792 338.651318 
L 259.041307 343.600617 
L 316.612822 346.043419 
L 374.184337 347.453089 
L 431.755852 348.45544 
L 489.327367 349.150016 
L 546.898883 349.802367 
L 604.470398 302.466235 
L 662.041913 331.249849 
L 719.613428 299.588903 
L 777.184943 331.170159 
L 834.756458 324.331646 
L 892.327973 347.223317 
L 949.899489 346.703072 
" clip-path="url(#pf40ed8f002)" style="fill: none; stroke: #d9534f; stroke-linecap: square"/>
   </g>
   <g id="line2d_30">
    <path d="M 86.326761 290.960567 
L 143.898277 327.433122 
L 201.469792 339.037431 
L 259.041307 343.646555 
L 316.612822 346.197695 
L 374.184337 347.735062 
L 431.755852 348.746976 
L 489.327367 349.24346 
L 546.898883 349.720498 
L 604.470398 303.209173 
L 662.041913 331.852799 
L 719.613428 301.528793 
L 777.184943 332.51088 
L 834.756458 327.056347 
L 892.327973 347.497052 
L 949.899489 347.237989 
" clip-path="url(#pf40ed8f002)" style="fill: none; stroke: #d9534f; stroke-linecap: square"/>
   </g>
   <g id="line2d_31">
    <path d="M 86.326761 297.769502 
L 143.898277 329.725925 
L 201.469792 339.894045 
L 259.041307 344.497365 
L 316.612822 346.677777 
L 374.184337 347.884382 
L 431.755852 348.799516 
L 489.327367 349.579598 
L 546.898883 349.998551 
L 604.470398 306.625525 
L 662.041913 333.096597 
L 719.613428 298.591933 
L 777.184943 330.234186 
L 834.756458 318.333097 
L 892.327973 346.306463 
L 949.899489 345.599937 
" clip-path="url(#pf40ed8f002)" style="fill: none; stroke: #d9534f; stroke-linecap: square"/>
   </g>
   <g id="line2d_32">
    <path d="M 86.326761 289.963716 
L 143.898277 329.020421 
L 201.469792 339.784974 
L 259.041307 344.520964 
L 316.612822 346.636645 
L 374.184337 348.028786 
L 431.755852 348.816761 
L 489.327367 349.466735 
L 546.898883 349.850341 
L 604.470398 308.073143 
L 662.041913 333.888046 
L 719.613428 300.227093 
L 777.184943 332.012051 
L 834.756458 321.014808 
L 892.327973 345.992531 
L 949.899489 346.317385 
" clip-path="url(#pf40ed8f002)" style="fill: none; stroke: #d9534f; stroke-linecap: square"/>
   </g>
   <g id="line2d_33">
    <path d="M 86.326761 312.353458 
L 143.898277 328.615431 
L 201.469792 338.475975 
L 259.041307 343.719361 
L 316.612822 346.51763 
L 374.184337 348.207718 
L 431.755852 348.977709 
L 489.327367 349.692288 
L 546.898883 350.190925 
L 604.470398 312.122744 
L 662.041913 335.691958 
L 719.613428 306.474737 
L 777.184943 329.924334 
L 834.756458 297.881963 
L 892.327973 339.876828 
L 949.899489 344.891342 
" clip-path="url(#pf40ed8f002)" style="fill: none; stroke: #d9534f; stroke-linecap: square"/>
   </g>
   <g id="line2d_34">
    <path d="M 86.326761 303.721436 
L 143.898277 328.204408 
L 201.469792 338.532784 
L 259.041307 343.741805 
L 316.612822 346.544668 
L 374.184337 348.233248 
L 431.755852 349.038529 
L 489.327367 349.817655 
L 546.898883 350.297647 
L 604.470398 312.549975 
L 662.041913 336.55133 
L 719.613428 307.588867 
L 777.184943 331.04095 
L 834.756458 300.874668 
L 892.327973 341.127647 
L 949.899489 345.748784 
" clip-path="url(#pf40ed8f002)" style="fill: none; stroke: #d9534f; stroke-linecap: square"/>
   </g>
   <g id="line2d_35">
    <path d="M 86.326761 301.939044 
L 143.898277 327.121662 
L 201.469792 337.86497 
L 259.041307 343.045665 
L 316.612822 345.258819 
L 374.184337 347.010229 
L 431.755852 348.037853 
L 489.327367 348.761685 
L 546.898883 349.465391 
L 604.470398 301.080532 
L 662.041913 333.591025 
L 719.613428 304.191398 
L 777.184943 332.875137 
L 834.756458 323.095296 
L 892.327973 346.021359 
L 949.899489 344.254335 
" clip-path="url(#pf40ed8f002)" style="fill: none; stroke: #d9534f; stroke-linecap: square"/>
   </g>
   <g id="line2d_36">
    <path d="M 86.326761 293.565703 
L 143.898277 326.794369 
L 201.469792 337.96618 
L 259.041307 342.851653 
L 316.612822 345.713878 
L 374.184337 347.106496 
L 431.755852 348.270708 
L 489.327367 349.044205 
L 546.898883 349.345997 
L 604.470398 302.216315 
L 662.041913 333.655687 
L 719.613428 306.274129 
L 777.184943 333.931497 
L 834.756458 325.656336 
L 892.327973 346.356701 
L 949.899489 344.864545 
" clip-path="url(#pf40ed8f002)" style="fill: none; stroke: #d9534f; stroke-linecap: square"/>
   </g>
   <g id="line2d_37">
    <path d="M 86.326761 325.216003 
L 143.898277 328.503177 
L 201.469792 333.104735 
L 259.041307 338.510473 
L 316.612822 342.66122 
L 374.184337 344.697461 
L 431.755852 346.177477 
L 489.327367 347.446781 
L 546.898883 348.148834 
L 604.470398 288.479818 
L 662.041913 329.304715 
L 719.613428 305.949329 
L 777.184943 337.802848 
L 834.756458 327.905408 
L 892.327973 345.790714 
L 949.899489 343.915408 
" clip-path="url(#pf40ed8f002)" style="fill: none; stroke: #d9534f; stroke-linecap: square"/>
   </g>
   <g id="line2d_38">
    <path d="M 86.326761 316.799343 
L 143.898277 327.539731 
L 201.469792 333.387219 
L 259.041307 338.738023 
L 316.612822 342.644382 
L 374.184337 344.913831 
L 431.755852 346.332909 
L 489.327367 347.401014 
L 546.898883 348.180434 
L 604.470398 290.324052 
L 662.041913 330.583216 
L 719.613428 308.508395 
L 777.184943 338.475057 
L 834.756458 329.37816 
L 892.327973 346.095902 
L 949.899489 344.312732 
" clip-path="url(#pf40ed8f002)" style="fill: none; stroke: #d9534f; stroke-linecap: square"/>
   </g>
   <g id="line2d_39">
    <path d="M 86.326761 290.193945 
L 143.898277 319.490933 
L 201.469792 333.787119 
L 259.041307 340.840422 
L 316.612822 344.498423 
L 374.184337 346.302989 
L 431.755852 347.468219 
L 489.327367 348.251702 
L 546.898883 349.059076 
L 604.470398 294.350456 
L 662.041913 330.726002 
L 719.613428 312.181505 
L 777.184943 342.185206 
L 834.756458 337.135586 
L 892.327973 348.829608 
L 949.899489 348.31321 
" clip-path="url(#pf40ed8f002)" style="fill: none; stroke: #d9534f; stroke-linecap: square"/>
   </g>
   <g id="line2d_40">
    <path d="M 86.326761 282.480955 
L 143.898277 319.681373 
L 201.469792 334.795169 
L 259.041307 341.233913 
L 316.612822 344.507211 
L 374.184337 346.403631 
L 431.755852 347.647844 
L 489.327367 348.599869 
L 546.898883 349.142748 
L 604.470398 296.129576 
L 662.041913 331.458302 
L 719.613428 313.940246 
L 777.184943 342.664074 
L 834.756458 337.191338 
L 892.327973 348.821628 
L 949.899489 348.916523 
" clip-path="url(#pf40ed8f002)" style="fill: none; stroke: #d9534f; stroke-linecap: square"/>
   </g>
   <g id="line2d_41">
    <path d="M 86.326761 294.248956 
L 143.898277 326.074481 
L 201.469792 337.026626 
L 259.041307 342.093009 
L 316.612822 344.755714 
L 374.184337 346.22082 
L 431.755852 347.575355 
L 489.327367 348.476536 
L 546.898883 349.062007 
L 604.470398 296.260176 
L 662.041913 330.934885 
L 719.613428 309.132136 
L 777.184943 339.737329 
L 834.756458 329.514009 
L 892.327973 348.457729 
L 949.899489 344.044633 
" clip-path="url(#pf40ed8f002)" style="fill: none; stroke: #d9534f; stroke-linecap: square"/>
   </g>
   <g id="line2d_42">
    <path d="M 86.326761 286.168107 
L 143.898277 326.309751 
L 201.469792 337.4922 
L 259.041307 342.25031 
L 316.612822 344.973484 
L 374.184337 346.79265 
L 431.755852 347.812329 
L 489.327367 348.439603 
L 546.898883 349.14203 
L 604.470398 297.705157 
L 662.041913 331.957103 
L 719.613428 310.967613 
L 777.184943 340.338396 
L 834.756458 330.381462 
L 892.327973 348.430088 
L 949.899489 344.454118 
" clip-path="url(#pf40ed8f002)" style="fill: none; stroke: #d9534f; stroke-linecap: square"/>
   </g>
   <g id="line2d_43">
    <path d="M 86.326761 292.370258 
L 143.898277 321.670312 
L 201.469792 336.052865 
L 259.041307 342.431599 
L 316.612822 344.89427 
L 374.184337 347.076151 
L 431.755852 348.154762 
L 489.327367 348.869597 
L 546.898883 349.406964 
L 604.470398 300.502326 
L 662.041913 332.228244 
L 719.613428 308.696842 
L 777.184943 337.511641 
L 834.756458 329.045164 
L 892.327973 346.570056 
L 949.899489 348.133348 
" clip-path="url(#pf40ed8f002)" style="fill: none; stroke: #d9534f; stroke-linecap: square"/>
   </g>
   <g id="line2d_44">
    <path d="M 86.326761 284.036303 
L 143.898277 322.040469 
L 201.469792 336.374523 
L 259.041307 342.559332 
L 316.612822 345.348996 
L 374.184337 347.038471 
L 431.755852 348.124183 
L 489.327367 349.055087 
L 546.898883 349.485827 
L 604.470398 301.646605 
L 662.041913 332.988856 
L 719.613428 310.52936 
L 777.184943 338.683717 
L 834.756458 329.87287 
L 892.327973 347.442361 
L 949.899489 348.38744 
" clip-path="url(#pf40ed8f002)" style="fill: none; stroke: #d9534f; stroke-linecap: square"/>
   </g>
   <g id="line2d_45">
    <path d="M 86.326761 291.86412 
L 143.898277 330.742593 
L 201.469792 341.129767 
L 259.041307 345.015526 
L 316.612822 347.058707 
L 374.184337 348.25245 
L 431.755852 349.206261 
L 489.327367 349.60958 
L 546.898883 350.197696 
L 604.470398 305.085983 
L 662.041913 331.140317 
L 719.613428 295.940851 
L 777.184943 330.555922 
L 834.756458 319.559887 
L 892.327973 347.8277 
L 949.899489 350.42704 
" clip-path="url(#pf40ed8f002)" style="fill: none; stroke: #d9534f; stroke-linecap: square"/>
   </g>
   <g id="line2d_46">
    <path d="M 86.326761 284.117685 
L 143.898277 330.494584 
L 201.469792 341.01275 
L 259.041307 345.019486 
L 316.612822 347.153815 
L 374.184337 348.363762 
L 431.755852 349.164379 
L 489.327367 349.724478 
L 546.898883 350.075434 
L 604.470398 306.135556 
L 662.041913 331.179274 
L 719.613428 298.407511 
L 777.184943 331.421575 
L 834.756458 322.40954 
L 892.327973 348.600898 
L 949.899489 350.333672 
" clip-path="url(#pf40ed8f002)" style="fill: none; stroke: #d9534f; stroke-linecap: square"/>
   </g>
   <g id="line2d_47">
    <path d="M 86.326761 304.789643 
L 143.898277 327.48165 
L 201.469792 337.930013 
L 259.041307 342.633019 
L 316.612822 345.680056 
L 374.184337 347.390152 
L 431.755852 348.307336 
L 489.327367 349.059344 
L 546.898883 349.782174 
L 604.470398 304.377096 
L 662.041913 333.330023 
L 719.613428 306.33591 
L 777.184943 334.475224 
L 834.756458 320.331491 
L 892.327973 343.381643 
L 949.899489 338.329624 
" clip-path="url(#pf40ed8f002)" style="fill: none; stroke: #d9534f; stroke-linecap: square"/>
   </g>
   <g id="line2d_48">
    <path d="M 86.326761 295.56594 
L 143.898277 327.036206 
L 201.469792 337.915992 
L 259.041307 342.892647 
L 316.612822 345.856714 
L 374.184337 347.308799 
L 431.755852 348.389927 
L 489.327367 349.292666 
L 546.898883 349.694075 
L 604.470398 306.111559 
L 662.041913 333.65986 
L 719.613428 308.375486 
L 777.184943 335.526016 
L 834.756458 322.291298 
L 892.327973 344.039422 
L 949.899489 339.657794 
" clip-path="url(#pf40ed8f002)" style="fill: none; stroke: #d9534f; stroke-linecap: square"/>
   </g>
   <g id="line2d_49">
    <path d="M 86.326761 334.68836 
L 143.898277 340.842841 
L 201.469792 336.223441 
L 259.041307 334.919299 
L 316.612822 335.920013 
L 374.184337 338.143293 
L 431.755852 341.038768 
L 489.327367 343.629142 
L 546.898883 345.200733 
L 604.470398 277.742937 
L 662.041913 329.915428 
L 719.613428 305.583631 
L 777.184943 338.426242 
L 834.756458 330.694851 
L 892.327973 349.5423 
L 949.899489 351.103121 
" clip-path="url(#pf40ed8f002)" style="fill: none; stroke: #d9534f; stroke-linecap: square"/>
   </g>
   <g id="line2d_50">
    <path d="M 86.326761 324.491243 
L 143.898277 338.803604 
L 201.469792 335.398291 
L 259.041307 334.599709 
L 316.612822 336.717555 
L 374.184337 338.99671 
L 431.755852 341.66233 
L 489.327367 343.851008 
L 546.898883 345.691256 
L 604.470398 281.904879 
L 662.041913 331.600925 
L 719.613428 308.31632 
L 777.184943 338.584748 
L 834.756458 332.272492 
L 892.327973 349.133533 
L 949.899489 351.589795 
" clip-path="url(#pf40ed8f002)" style="fill: none; stroke: #d9534f; stroke-linecap: square"/>
   </g>
   <g id="line2d_51">
    <path d="M 86.326761 313.224799 
L 143.898277 328.442799 
L 201.469792 337.164039 
L 259.041307 342.188312 
L 316.612822 344.927945 
L 374.184337 346.623083 
L 431.755852 347.541344 
L 489.327367 348.392884 
L 546.898883 348.973967 
L 604.470398 297.537327 
L 662.041913 331.734695 
L 719.613428 304.406233 
L 777.184943 333.483868 
L 834.756458 319.533443 
L 892.327973 345.993256 
L 949.899489 343.446406 
" clip-path="url(#pf40ed8f002)" style="fill: none; stroke: #d9534f; stroke-linecap: square"/>
   </g>
   <g id="line2d_52">
    <path d="M 86.326761 303.383973 
L 143.898277 327.88993 
L 201.469792 337.501187 
L 259.041307 342.41622 
L 316.612822 344.977593 
L 374.184337 346.716404 
L 431.755852 347.795852 
L 489.327367 348.514129 
L 546.898883 349.24458 
L 604.470398 299.190402 
L 662.041913 332.098181 
L 719.613428 306.260504 
L 777.184943 334.440163 
L 834.756458 322.15195 
L 892.327973 346.906605 
L 949.899489 344.126725 
" clip-path="url(#pf40ed8f002)" style="fill: none; stroke: #d9534f; stroke-linecap: square"/>
   </g>
   <g id="line2d_53">
    <path d="M 86.326761 305.902937 
L 143.898277 331.482569 
L 201.469792 340.0922 
L 259.041307 343.758019 
L 316.612822 346.026336 
L 374.184337 347.520658 
L 431.755852 348.197197 
L 489.327367 349.110171 
L 546.898883 349.622979 
L 604.470398 303.19768 
L 662.041913 332.676944 
L 719.613428 304.112274 
L 777.184943 332.317916 
L 834.756458 314.826158 
L 892.327973 344.005449 
L 949.899489 340.764912 
" clip-path="url(#pf40ed8f002)" style="fill: none; stroke: #d9534f; stroke-linecap: square"/>
   </g>
   <g id="line2d_54">
    <path d="M 86.326761 296.540597 
L 143.898277 331.248849 
L 201.469792 340.066454 
L 259.041307 343.780008 
L 316.612822 345.85402 
L 374.184337 347.479268 
L 431.755852 348.665803 
L 489.327367 349.156646 
L 546.898883 349.690339 
L 604.470398 304.064277 
L 662.041913 333.40675 
L 719.613428 305.898136 
L 777.184943 333.217085 
L 834.756458 317.699246 
L 892.327973 345.166473 
L 949.899489 341.680448 
" clip-path="url(#pf40ed8f002)" style="fill: none; stroke: #d9534f; stroke-linecap: square"/>
   </g>
   <g id="line2d_55">
    <path d="M 86.326761 313.988791 
L 143.898277 325.906368 
L 201.469792 334.095238 
L 259.041307 340.010794 
L 316.612822 343.769156 
L 374.184337 346.002766 
L 431.755852 347.357506 
L 489.327367 348.169628 
L 546.898883 348.871203 
L 604.470398 295.140842 
L 662.041913 331.032872 
L 719.613428 308.753138 
L 777.184943 337.725121 
L 834.756458 327.720156 
L 892.327973 345.186669 
L 949.899489 339.884152 
" clip-path="url(#pf40ed8f002)" style="fill: none; stroke: #d9534f; stroke-linecap: square"/>
   </g>
   <g id="line2d_56">
    <path d="M 86.326761 306.172287 
L 143.898277 325.63665 
L 201.469792 334.456214 
L 259.041307 339.970433 
L 316.612822 343.914102 
L 374.184337 346.005823 
L 431.755852 347.42341 
L 489.327367 348.347022 
L 546.898883 349.277534 
L 604.470398 296.63909 
L 662.041913 331.551922 
L 719.613428 311.008372 
L 777.184943 338.293591 
L 834.756458 328.818539 
L 892.327973 346.110435 
L 949.899489 339.988977 
" clip-path="url(#pf40ed8f002)" style="fill: none; stroke: #d9534f; stroke-linecap: square"/>
   </g>
   <g id="line2d_57">
    <path d="M 86.326761 308.181586 
L 143.898277 325.368224 
L 201.469792 335.320697 
L 259.041307 340.642499 
L 316.612822 343.75215 
L 374.184337 345.732496 
L 431.755852 347.125869 
L 489.327367 348.10454 
L 546.898883 348.898223 
L 604.470398 291.698239 
L 662.041913 331.34746 
L 719.613428 310.545132 
L 777.184943 338.267274 
L 834.756458 327.200752 
L 892.327973 347.279475 
L 949.899489 344.149784 
" clip-path="url(#pf40ed8f002)" style="fill: none; stroke: #d9534f; stroke-linecap: square"/>
   </g>
   <g id="line2d_58">
    <path d="M 86.326761 300.151323 
L 143.898277 325.192292 
L 201.469792 334.862221 
L 259.041307 340.817616 
L 316.612822 343.986532 
L 374.184337 346.23192 
L 431.755852 347.432325 
L 489.327367 348.029353 
L 546.898883 348.815264 
L 604.470398 293.62522 
L 662.041913 331.814995 
L 719.613428 312.286795 
L 777.184943 339.045724 
L 834.756458 328.454249 
L 892.327973 347.956996 
L 949.899489 344.911577 
" clip-path="url(#pf40ed8f002)" style="fill: none; stroke: #d9534f; stroke-linecap: square"/>
   </g>
   <g id="line2d_59">
    <path d="M 86.326761 306.743428 
L 143.898277 328.618013 
L 201.469792 337.938058 
L 259.041307 342.201309 
L 316.612822 345.141798 
L 374.184337 346.440255 
L 431.755852 347.563472 
L 489.327367 348.449272 
L 546.898883 349.11629 
L 604.470398 297.473522 
L 662.041913 331.91399 
L 719.613428 310.895723 
L 777.184943 337.949058 
L 834.756458 321.746089 
L 892.327973 343.808083 
L 949.899489 337.616039 
" clip-path="url(#pf40ed8f002)" style="fill: none; stroke: #d9534f; stroke-linecap: square"/>
   </g>
   <g id="line2d_60">
    <path d="M 86.326761 297.213777 
L 143.898277 328.434208 
L 201.469792 337.94665 
L 259.041307 342.192379 
L 316.612822 345.270232 
L 374.184337 346.730435 
L 431.755852 347.739469 
L 489.327367 348.636149 
L 546.898883 349.194158 
L 604.470398 298.734053 
L 662.041913 333.308429 
L 719.613428 312.47949 
L 777.184943 338.595216 
L 834.756458 323.819814 
L 892.327973 344.572612 
L 949.899489 338.747329 
" clip-path="url(#pf40ed8f002)" style="fill: none; stroke: #d9534f; stroke-linecap: square"/>
   </g>
   <g id="line2d_61">
    <path d="M 86.326761 312.44602 
L 143.898277 325.965686 
L 201.469792 335.297969 
L 259.041307 340.610132 
L 316.612822 343.617059 
L 374.184337 345.543808 
L 431.755852 346.861558 
L 489.327367 347.732416 
L 546.898883 348.530165 
L 604.470398 284.396888 
L 662.041913 327.679966 
L 719.613428 308.094785 
L 777.184943 340.238881 
L 834.756458 334.303011 
L 892.327973 348.14991 
L 949.899489 344.146147 
" clip-path="url(#pf40ed8f002)" style="fill: none; stroke: #d9534f; stroke-linecap: square"/>
   </g>
   <g id="line2d_62">
    <path d="M 86.326761 302.909426 
L 143.898277 326.354923 
L 201.469792 335.000849 
L 259.041307 340.929357 
L 316.612822 343.914378 
L 374.184337 345.807264 
L 431.755852 347.084324 
L 489.327367 347.896164 
L 546.898883 348.426408 
L 604.470398 286.942556 
L 662.041913 328.904272 
L 719.613428 310.316258 
L 777.184943 341.277391 
L 834.756458 335.183867 
L 892.327973 348.490474 
L 949.899489 344.17649 
" clip-path="url(#pf40ed8f002)" style="fill: none; stroke: #d9534f; stroke-linecap: square"/>
   </g>
   <g id="line2d_63">
    <path d="M 86.326761 313.161043 
L 143.898277 326.321539 
L 201.469792 334.535926 
L 259.041307 340.307688 
L 316.612822 343.684356 
L 374.184337 345.392932 
L 431.755852 346.722312 
L 489.327367 347.541205 
L 546.898883 348.44029 
L 604.470398 282.174933 
L 662.041913 327.38348 
L 719.613428 304.483602 
L 777.184943 339.434207 
L 834.756458 334.95948 
L 892.327973 349.412573 
L 949.899489 349.658834 
" clip-path="url(#pf40ed8f002)" style="fill: none; stroke: #d9534f; stroke-linecap: square"/>
   </g>
   <g id="line2d_64">
    <path d="M 86.326761 302.949151 
L 143.898277 326.164288 
L 201.469792 335.168701 
L 259.041307 340.819999 
L 316.612822 343.98084 
L 374.184337 345.649112 
L 431.755852 347.054899 
L 489.327367 347.662196 
L 546.898883 348.370943 
L 604.470398 284.66274 
L 662.041913 328.171507 
L 719.613428 307.149857 
L 777.184943 340.399781 
L 834.756458 335.837997 
L 892.327973 349.818921 
L 949.899489 349.753467 
" clip-path="url(#pf40ed8f002)" style="fill: none; stroke: #d9534f; stroke-linecap: square"/>
   </g>
   <g id="line2d_65">
    <path d="M 86.326761 314.689349 
L 143.898277 323.868018 
L 201.469792 332.330577 
L 259.041307 338.238417 
L 316.612822 342.382362 
L 374.184337 344.618272 
L 431.755852 346.288634 
L 489.327367 347.158413 
L 546.898883 348.018758 
L 604.470398 282.963624 
L 662.041913 328.50584 
L 719.613428 311.307284 
L 777.184943 341.359228 
L 834.756458 335.697692 
L 892.327973 348.403924 
L 949.899489 347.784009 
" clip-path="url(#pf40ed8f002)" style="fill: none; stroke: #d9534f; stroke-linecap: square"/>
   </g>
   <g id="line2d_66">
    <path d="M 86.326761 303.688833 
L 143.898277 323.535287 
L 201.469792 332.465176 
L 259.041307 338.748179 
L 316.612822 342.307809 
L 374.184337 344.670872 
L 431.755852 346.520223 
L 489.327367 347.389105 
L 546.898883 348.410318 
L 604.470398 286.265109 
L 662.041913 329.962764 
L 719.613428 313.982946 
L 777.184943 342.21811 
L 834.756458 336.619013 
L 892.327973 348.998908 
L 949.899489 347.831747 
" clip-path="url(#pf40ed8f002)" style="fill: none; stroke: #d9534f; stroke-linecap: square"/>
   </g>
   <g id="line2d_67">
    <path d="M 43.148125 353.2239 
L 993.078125 353.2239 
" clip-path="url(#pf40ed8f002)" style="fill: none; stroke: #dedede; stroke-width: 2; stroke-linecap: square"/>
   </g>
   <g id="text_25">
    <!-- FastQC: Sequence Duplication Levels -->
    <g transform="translate(369.699375 19.3575) scale(0.16 -0.16)">
     <defs>
      <path id="DejaVuSans-46" d="M 628 4666 
L 3309 4666 
L 3309 4134 
L 1259 4134 
L 1259 2759 
L 3109 2759 
L 3109 2228 
L 1259 2228 
L 1259 0 
L 628 0 
L 628 4666 
z
" transform="scale(0.015625)"/>
      <path id="DejaVuSans-73" d="M 2834 3397 
L 2834 2853 
Q 2591 2978 2328 3040 
Q 2066 3103 1784 3103 
Q 1356 3103 1142 2972 
Q 928 2841 928 2578 
Q 928 2378 1081 2264 
Q 1234 2150 1697 2047 
L 1894 2003 
Q 2506 1872 2764 1633 
Q 3022 1394 3022 966 
Q 3022 478 2636 193 
Q 2250 -91 1575 -91 
Q 1294 -91 989 -36 
Q 684 19 347 128 
L 347 722 
Q 666 556 975 473 
Q 1284 391 1588 391 
Q 1994 391 2212 530 
Q 2431 669 2431 922 
Q 2431 1156 2273 1281 
Q 2116 1406 1581 1522 
L 1381 1569 
Q 847 1681 609 1914 
Q 372 2147 372 2553 
Q 372 3047 722 3315 
Q 1072 3584 1716 3584 
Q 2034 3584 2315 3537 
Q 2597 3491 2834 3397 
z
" transform="scale(0.015625)"/>
      <path id="DejaVuSans-51" d="M 2522 4238 
Q 1834 4238 1429 3725 
Q 1025 3213 1025 2328 
Q 1025 1447 1429 934 
Q 1834 422 2522 422 
Q 3209 422 3611 934 
Q 4013 1447 4013 2328 
Q 4013 3213 3611 3725 
Q 3209 4238 2522 4238 
z
M 3406 84 
L 4238 -825 
L 3475 -825 
L 2784 -78 
Q 2681 -84 2626 -87 
Q 2572 -91 2522 -91 
Q 1538 -91 948 567 
Q 359 1225 359 2328 
Q 359 3434 948 4092 
Q 1538 4750 2522 4750 
Q 3503 4750 4090 4092 
Q 4678 3434 4678 2328 
Q 4678 1516 4351 937 
Q 4025 359 3406 84 
z
" transform="scale(0.015625)"/>
      <path id="DejaVuSans-43" d="M 4122 4306 
L 4122 3641 
Q 3803 3938 3442 4084 
Q 3081 4231 2675 4231 
Q 1875 4231 1450 3742 
Q 1025 3253 1025 2328 
Q 1025 1406 1450 917 
Q 1875 428 2675 428 
Q 3081 428 3442 575 
Q 3803 722 4122 1019 
L 4122 359 
Q 3791 134 3420 21 
Q 3050 -91 2638 -91 
Q 1578 -91 968 557 
Q 359 1206 359 2328 
Q 359 3453 968 4101 
Q 1578 4750 2638 4750 
Q 3056 4750 3426 4639 
Q 3797 4528 4122 4306 
z
" transform="scale(0.015625)"/>
      <path id="DejaVuSans-3a" d="M 750 794 
L 1409 794 
L 1409 0 
L 750 0 
L 750 794 
z
M 750 3309 
L 1409 3309 
L 1409 2516 
L 750 2516 
L 750 3309 
z
" transform="scale(0.015625)"/>
     </defs>
     <use xlink:href="#DejaVuSans-46"/>
     <use xlink:href="#DejaVuSans-61" x="48.394531"/>
     <use xlink:href="#DejaVuSans-73" x="109.673828"/>
     <use xlink:href="#DejaVuSans-74" x="161.773438"/>
     <use xlink:href="#DejaVuSans-51" x="200.982422"/>
     <use xlink:href="#DejaVuSans-43" x="279.693359"/>
     <use xlink:href="#DejaVuSans-3a" x="349.517578"/>
     <use xlink:href="#DejaVuSans-20" x="383.208984"/>
     <use xlink:href="#DejaVuSans-53" x="414.996094"/>
     <use xlink:href="#DejaVuSans-65" x="478.472656"/>
     <use xlink:href="#DejaVuSans-71" x="539.996094"/>
     <use xlink:href="#DejaVuSans-75" x="603.472656"/>
     <use xlink:href="#DejaVuSans-65" x="666.851562"/>
     <use xlink:href="#DejaVuSans-6e" x="728.375"/>
     <use xlink:href="#DejaVuSans-63" x="791.753906"/>
     <use xlink:href="#DejaVuSans-65" x="846.734375"/>
     <use xlink:href="#DejaVuSans-20" x="908.257812"/>
     <use xlink:href="#DejaVuSans-44" x="940.044922"/>
     <use xlink:href="#DejaVuSans-75" x="1017.046875"/>
     <use xlink:href="#DejaVuSans-70" x="1080.425781"/>
     <use xlink:href="#DejaVuSans-6c" x="1143.902344"/>
     <use xlink:href="#DejaVuSans-69" x="1171.685547"/>
     <use xlink:href="#DejaVuSans-63" x="1199.46875"/>
     <use xlink:href="#DejaVuSans-61" x="1254.449219"/>
     <use xlink:href="#DejaVuSans-74" x="1315.728516"/>
     <use xlink:href="#DejaVuSans-69" x="1354.9375"/>
     <use xlink:href="#DejaVuSans-6f" x="1382.720703"/>
     <use xlink:href="#DejaVuSans-6e" x="1443.902344"/>
     <use xlink:href="#DejaVuSans-20" x="1507.28125"/>
     <use xlink:href="#DejaVuSans-4c" x="1539.068359"/>
     <use xlink:href="#DejaVuSans-65" x="1593.03125"/>
     <use xlink:href="#DejaVuSans-76" x="1654.554688"/>
     <use xlink:href="#DejaVuSans-65" x="1713.734375"/>
     <use xlink:href="#DejaVuSans-6c" x="1775.257812"/>
     <use xlink:href="#DejaVuSans-73" x="1803.041016"/>
    </g>
   </g>
  </g>
 </g>
 <defs>
  <clipPath id="pf40ed8f002">
   <rect x="43.148125" y="35.2559" width="949.93" height="317.968"/>
  </clipPath>
 </defs>
</svg>
